<svg width="24" height="24" viewBox="0 0 24 24" fill="none" xmlns="http://www.w3.org/2000/svg">
<path d="M12.6555 4.88556L20.1555 18.3856C20.219 18.4997 20.2516 18.6285 20.25 18.7591C20.2484 18.8897 20.2128 19.0177 20.1465 19.1303C20.0803 19.2429 19.9858 19.3362 19.8724 19.4011C19.759 19.4659 19.6307 19.5001 19.5 19.5001H4.50003C4.3694 19.5001 4.24103 19.4659 4.12764 19.4011C4.01424 19.3362 3.91975 19.2429 3.85353 19.1303C3.7873 19.0177 3.75163 18.8897 3.75005 18.7591C3.74848 18.6285 3.78104 18.4997 3.84453 18.3856L11.3445 4.88556C11.4095 4.76869 11.5045 4.67132 11.6198 4.60354C11.735 4.53575 11.8663 4.5 12 4.5C12.1337 4.5 12.265 4.53575 12.3803 4.60354C12.4955 4.67132 12.5906 4.76869 12.6555 4.88556ZM12 6.79506L5.77503 18.0001H18.225L12 6.79506ZM12 15.0001C12.1989 15.0001 12.3897 15.0791 12.5304 15.2197C12.671 15.3604 12.75 15.5511 12.75 15.7501C12.75 15.949 12.671 16.1397 12.5304 16.2804C12.3897 16.421 12.1989 16.5001 12 16.5001C11.8011 16.5001 11.6104 16.421 11.4697 16.2804C11.329 16.1397 11.25 15.949 11.25 15.7501C11.25 15.5511 11.329 15.3604 11.4697 15.2197C11.6104 15.0791 11.8011 15.0001 12 15.0001ZM12 9.75006C12.1989 9.75006 12.3897 9.82907 12.5304 9.96973C12.671 10.1104 12.75 10.3011 12.75 10.5001V13.5001C12.75 13.699 12.671 13.8897 12.5304 14.0304C12.3897 14.171 12.1989 14.2501 12 14.2501C11.8011 14.2501 11.6104 14.171 11.4697 14.0304C11.329 13.8897 11.25 13.699 11.25 13.5001V10.5001C11.25 10.3011 11.329 10.1104 11.4697 9.96973C11.6104 9.82907 11.8011 9.75006 12 9.75006Z" fill="black"/>
</svg>
