<svg width="32" height="32" viewBox="0 0 32 32" fill="none" xmlns="http://www.w3.org/2000/svg">
<path d="M11.9019 12H20.0979C20.1871 12 20.2747 12.0239 20.3516 12.0692C20.4285 12.1145 20.4919 12.1796 20.5352 12.2576C20.5784 12.3357 20.6 12.4239 20.5977 12.5131C20.5953 12.6023 20.5692 12.6893 20.5219 12.765L16.4239 19.322C16.3789 19.3939 16.3164 19.4532 16.2422 19.4943C16.1681 19.5354 16.0847 19.557 15.9999 19.557C15.9151 19.557 15.8316 19.5354 15.7575 19.4943C15.6833 19.4532 15.6208 19.3939 15.5759 19.322L11.4779 12.765C11.4306 12.6893 11.4044 12.6023 11.402 12.5131C11.3997 12.4239 11.4213 12.3357 11.4645 12.2576C11.5078 12.1796 11.5712 12.1145 11.6481 12.0692C11.725 12.0239 11.8126 12 11.9019 12Z" fill="black"/>
</svg>
