<svg width="32" height="32" viewBox="0 0 32 32" fill="none" xmlns="http://www.w3.org/2000/svg">
<path d="M24.9355 25.0307C26.6522 22.9566 27.5898 20.3477 27.586 17.6553C27.586 11.2564 22.3987 6.06909 15.9998 6.06909C9.60089 6.06909 4.41357 11.2564 4.41357 17.6553C4.41357 20.457 5.40888 23.0269 7.06406 25.0307L4.73688 27.3579C4.63444 27.4604 4.55317 27.582 4.49772 27.7158C4.44228 27.8497 4.41374 27.9932 4.41374 28.1381C4.41374 28.2829 4.44228 28.4264 4.49772 28.5603C4.55317 28.6941 4.63444 28.8157 4.73688 28.9182C4.83933 29.0206 4.96096 29.1019 5.09482 29.1574C5.22867 29.2128 5.37214 29.2413 5.51702 29.2413C5.66191 29.2413 5.80537 29.2128 5.93923 29.1574C6.07309 29.1019 6.19471 29.0206 6.29716 28.9182L8.62433 26.591C10.6282 28.2462 13.197 29.2415 15.9998 29.2415C18.8025 29.2415 21.3714 28.2462 23.3752 26.591L25.7024 28.9182C25.8046 29.021 25.9262 29.1026 26.0601 29.1583C26.194 29.214 26.3375 29.2426 26.4825 29.2426C26.6275 29.2426 26.7711 29.214 26.905 29.1583C27.0389 29.1026 27.1604 29.021 27.2627 28.9182C27.3652 28.8158 27.4466 28.6942 27.5021 28.5603C27.5576 28.4265 27.5862 28.283 27.5862 28.1381C27.5862 27.9931 27.5576 27.8496 27.5021 27.7158C27.4466 27.5819 27.3652 27.4603 27.2627 27.3579L24.9355 25.0307ZM15.9998 28.1381C10.21 28.1381 5.51702 23.4451 5.51702 17.6553C5.51702 11.8655 10.21 7.17254 15.9998 7.17254C21.7896 7.17254 26.4825 11.8655 26.4825 17.6553C26.4825 23.4451 21.7896 28.1381 15.9998 28.1381Z" fill="black"/>
<path d="M15.9998 29.2415C9.61082 29.2415 4.41357 24.0443 4.41357 17.6553C4.41357 11.2663 9.61082 6.06909 15.9998 6.06909C22.3887 6.06909 27.586 11.2663 27.586 17.6553C27.586 24.0443 22.3887 29.2415 15.9998 29.2415ZM15.9998 8.27599C10.8279 8.27599 6.62047 12.4834 6.62047 17.6553C6.62047 22.8272 10.8279 27.0346 15.9998 27.0346C21.1716 27.0346 25.3791 22.8272 25.3791 17.6553C25.3791 12.4834 21.1716 8.27599 15.9998 8.27599Z" fill="black"/>
<path d="M2.96283 13.1897C3.22563 12.4164 3.55726 11.6682 3.95372 10.9541C3.53411 10.3244 3.31027 9.5845 3.31041 8.82775C3.31041 6.6981 5.04283 4.96569 7.17248 4.96569C7.95814 4.96569 8.68862 5.20403 9.29883 5.609C10.0129 5.21253 10.7611 4.8809 11.5344 4.6181C10.9701 4.03028 10.2929 3.56257 9.54329 3.24306C8.79372 2.92355 7.98731 2.75883 7.17248 2.75879C5.56352 2.76083 4.02104 3.4009 2.88333 4.53861C1.74562 5.67631 1.10556 7.21879 1.10352 8.82775C1.10356 9.64258 1.26828 10.449 1.58779 11.1986C1.9073 11.9481 2.37501 12.6254 2.96283 13.1897ZM17.1035 18.7588H11.0345V16.5519H14.8966V10.4829H17.1035V18.7588ZM22.7013 5.609C23.3311 5.18938 24.0709 4.96554 24.8277 4.96569C26.9573 4.96569 28.6897 6.6981 28.6897 8.82775C28.6897 9.61341 28.4514 10.3439 28.0464 10.9541C28.4425 11.6625 28.7703 12.4118 29.0373 13.1897C29.6251 12.6254 30.0928 11.9481 30.4123 11.1986C30.7319 10.449 30.8966 9.64258 30.8966 8.82775C30.8966 5.4821 28.1733 2.75879 24.8277 2.75879C24.0128 2.75883 23.2064 2.92355 22.4568 3.24306C21.7073 3.56257 21.03 4.03028 20.4657 4.6181C21.2437 4.88624 21.9929 5.21396 22.7013 5.609Z" fill="black"/>
</svg>
