<svg width="32" height="32" viewBox="0 0 32 32" fill="none" xmlns="http://www.w3.org/2000/svg">
<path d="M18.01 6C19.113 6 20 6.897 20 8.01V10H25C25.2449 10 25.4813 10.09 25.6644 10.2527C25.8474 10.4155 25.9643 10.6397 25.993 10.883L26 11C26 11.2449 25.91 11.4813 25.7473 11.6644C25.5845 11.8474 25.3603 11.9643 25.117 11.993L25 12H24V23.993C24.0001 24.2566 23.9483 24.5176 23.8475 24.7612C23.7467 25.0048 23.5989 25.2261 23.4125 25.4125C23.2261 25.5989 23.0048 25.7467 22.7612 25.8475C22.5176 25.9483 22.2566 26.0001 21.993 26H10.007C9.7434 26.0001 9.48236 25.9483 9.2388 25.8475C8.99524 25.7467 8.77394 25.5989 8.58754 25.4125C8.40115 25.2261 8.25332 25.0048 8.15251 24.7612C8.05169 24.5176 7.99987 24.2566 8 23.993V12H7C6.75507 12 6.51866 11.91 6.33563 11.7473C6.15259 11.5845 6.03566 11.3603 6.007 11.117L6 11C6.00003 10.7551 6.08996 10.5187 6.25272 10.3356C6.41547 10.1526 6.63975 10.0357 6.883 10.007L7 10H12V8.01C12 6.904 12.893 6 13.99 6H18.01ZM22 12.007L10.007 12L10 23.993L21.993 24L22 12.007ZM13 14C13.2449 14 13.4813 14.09 13.6644 14.2527C13.8474 14.4155 13.9643 14.6397 13.993 14.883L14 15V21C13.9997 21.2549 13.9021 21.5 13.7272 21.6854C13.5522 21.8707 13.313 21.9822 13.0586 21.9972C12.8042 22.0121 12.5536 21.9293 12.3582 21.7657C12.1627 21.6021 12.0371 21.3701 12.007 21.117L12 21V15C12 14.7348 12.1054 14.4804 12.2929 14.2929C12.4804 14.1054 12.7348 14 13 14ZM19 14C19.2449 14 19.4813 14.09 19.6644 14.2527C19.8474 14.4155 19.9643 14.6397 19.993 14.883L20 15V21C19.9997 21.2549 19.9021 21.5 19.7272 21.6854C19.5522 21.8707 19.313 21.9822 19.0586 21.9972C18.8042 22.0121 18.5536 21.9293 18.3582 21.7657C18.1627 21.6021 18.0371 21.3701 18.007 21.117L18 21V15C18 14.7348 18.1054 14.4804 18.2929 14.2929C18.4804 14.1054 18.7348 14 19 14ZM18.002 8H13.991L13.996 8.164L14 9.991C14 9.996 14 9.999 13.998 10H18.009L18 9.997V8.01C18 8.005 18 8.002 18.002 8.001V8Z" fill="black"/>
</svg>
