<svg width="24" height="24" viewBox="0 0 24 24" fill="none" xmlns="http://www.w3.org/2000/svg">
<path d="M11.25 4.5C12.5211 4.5 13.7663 4.85888 14.8424 5.53533C15.9185 6.21178 16.7817 7.17832 17.3327 8.32371C17.8837 9.4691 18.1002 10.7468 17.9571 12.0098C17.814 13.2727 17.3173 14.4696 16.524 15.4628L19.902 18.8407C19.9717 18.9104 20.027 18.9932 20.0647 19.0842C20.1024 19.1752 20.1218 19.2728 20.1218 19.3714C20.1218 19.4699 20.1024 19.5675 20.0647 19.6585C20.027 19.7496 19.9717 19.8323 19.902 19.902C19.8323 19.9717 19.7496 20.027 19.6586 20.0647C19.5675 20.1024 19.4699 20.1218 19.3714 20.1218C19.2728 20.1218 19.1753 20.1024 19.0842 20.0647C18.9932 20.027 18.9105 19.9717 18.8408 19.902L15.4628 16.524C14.6203 17.197 13.6289 17.6583 12.5715 17.8694C11.5141 18.0805 10.4215 18.0352 9.38524 17.7373C8.34895 17.4394 7.39911 16.8976 6.61522 16.1573C5.83132 15.4169 5.2362 14.4995 4.87968 13.4819C4.52315 12.4643 4.41559 11.3761 4.566 10.3084C4.71641 9.2407 5.12042 8.22456 5.74419 7.34506C6.36797 6.46555 7.19337 5.74828 8.15129 5.25329C9.10921 4.7583 10.1718 4.5 11.25 4.5ZM11.25 6C9.85763 6 8.52228 6.55312 7.53771 7.53769C6.55314 8.52226 6.00002 9.85761 6.00002 11.25C6.00002 12.6424 6.55314 13.9777 7.53771 14.9623C8.52228 15.9469 9.85763 16.5 11.25 16.5C12.6424 16.5 13.9778 15.9469 14.9623 14.9623C15.9469 13.9777 16.5 12.6424 16.5 11.25C16.5 9.85761 15.9469 8.52226 14.9623 7.53769C13.9778 6.55312 12.6424 6 11.25 6Z" fill="black"/>
</svg>
