<svg width="40" height="40" viewBox="0 0 40 40" fill="none" xmlns="http://www.w3.org/2000/svg">
<path d="M15.4882 12.1542C15.8007 11.8416 16.2246 11.666 16.6667 11.666C17.1087 11.666 17.5326 11.8416 17.8452 12.1542C18.1577 12.4667 18.3333 12.8907 18.3333 13.3327V26.666C18.3333 27.108 18.1577 27.532 17.8452 27.8445C17.5326 28.1571 17.1087 28.3327 16.6667 28.3327C16.2246 28.3327 15.8007 28.1571 15.4882 27.8445C15.1756 27.532 15 27.108 15 26.666V13.3327C15 12.8907 15.1756 12.4667 15.4882 12.1542Z" fill="black"/>
<path d="M22.1548 12.1542C22.4674 11.8416 22.8913 11.666 23.3333 11.666C23.7754 11.666 24.1993 11.8416 24.5118 12.1542C24.8244 12.4667 25 12.8907 25 13.3327V26.666C25 27.108 24.8244 27.532 24.5118 27.8445C24.1993 28.1571 23.7754 28.3327 23.3333 28.3327C22.8913 28.3327 22.4674 28.1571 22.1548 27.8445C21.8423 27.532 21.6667 27.108 21.6667 26.666V13.3327C21.6667 12.8907 21.8423 12.4667 22.1548 12.1542Z" fill="black"/>
</svg>
