<svg width="40" height="40" viewBox="0 0 40 40" fill="none" xmlns="http://www.w3.org/2000/svg">
<path d="M35.0002 10.0007H28.3335V8.33398C28.3335 7.0079 27.8067 5.73613 26.869 4.79845C25.9314 3.86077 24.6596 3.33398 23.3335 3.33398H16.6668C15.3407 3.33398 14.069 3.86077 13.1313 4.79845C12.1936 5.73613 11.6668 7.0079 11.6668 8.33398V10.0007H5.00016C4.55814 10.0007 4.13421 10.1762 3.82165 10.4888C3.50909 10.8014 3.3335 11.2253 3.3335 11.6673V18.334C3.33725 19.033 3.48751 19.7234 3.77459 20.3607C4.06166 20.998 4.47917 21.568 5.00016 22.034V31.6673C5.00016 32.9934 5.52695 34.2652 6.46463 35.2029C7.40231 36.1405 8.67408 36.6673 10.0002 36.6673H30.0002C31.3262 36.6673 32.598 36.1405 33.5357 35.2029C34.4734 34.2652 35.0002 32.9934 35.0002 31.6673V22.034C35.5212 21.568 35.9387 20.998 36.2257 20.3607C36.5128 19.7234 36.6631 19.033 36.6668 18.334V11.6673C36.6668 11.2253 36.4912 10.8014 36.1787 10.4888C35.8661 10.1762 35.4422 10.0007 35.0002 10.0007ZM15.0002 8.33398C15.0002 7.89196 15.1758 7.46803 15.4883 7.15547C15.8009 6.84291 16.2248 6.66732 16.6668 6.66732H23.3335C23.7755 6.66732 24.1994 6.84291 24.512 7.15547C24.8246 7.46803 25.0002 7.89196 25.0002 8.33398V10.0007H15.0002V8.33398ZM31.6668 31.6673C31.6668 32.1093 31.4912 32.5333 31.1787 32.8458C30.8661 33.1584 30.4422 33.334 30.0002 33.334H10.0002C9.55814 33.334 9.13421 33.1584 8.82165 32.8458C8.50909 32.5333 8.3335 32.1093 8.3335 31.6673V23.334H11.6668V25.0007C11.6668 25.4427 11.8424 25.8666 12.155 26.1792C12.4675 26.4917 12.8915 26.6673 13.3335 26.6673C13.7755 26.6673 14.1994 26.4917 14.512 26.1792C14.8246 25.8666 15.0002 25.4427 15.0002 25.0007V23.334H25.0002V25.0007C25.0002 25.4427 25.1758 25.8666 25.4883 26.1792C25.8009 26.4917 26.2248 26.6673 26.6668 26.6673C27.1089 26.6673 27.5328 26.4917 27.8453 26.1792C28.1579 25.8666 28.3335 25.4427 28.3335 25.0007V23.334H31.6668V31.6673ZM33.3335 18.334C33.3335 18.776 33.1579 19.1999 32.8453 19.5125C32.5328 19.8251 32.1089 20.0007 31.6668 20.0007H28.3335V18.334C28.3335 17.892 28.1579 17.468 27.8453 17.1555C27.5328 16.8429 27.1089 16.6673 26.6668 16.6673C26.2248 16.6673 25.8009 16.8429 25.4883 17.1555C25.1758 17.468 25.0002 17.892 25.0002 18.334V20.0007H15.0002V18.334C15.0002 17.892 14.8246 17.468 14.512 17.1555C14.1994 16.8429 13.7755 16.6673 13.3335 16.6673C12.8915 16.6673 12.4675 16.8429 12.155 17.1555C11.8424 17.468 11.6668 17.892 11.6668 18.334V20.0007H8.3335C7.89147 20.0007 7.46755 19.8251 7.15499 19.5125C6.84242 19.1999 6.66683 18.776 6.66683 18.334V13.334H33.3335V18.334Z" fill="#11161A"/>
</svg>
