<svg width="40" height="40" viewBox="0 0 40 40" fill="none" xmlns="http://www.w3.org/2000/svg">
<path d="M35.0001 33.3336H30.0001C29.558 33.3336 29.1341 33.158 28.8215 32.8454C28.509 32.5329 28.3334 32.1089 28.3334 31.6669V26.6669C30.3228 26.6485 32.2399 25.9191 33.7383 24.6104C35.2367 23.3017 36.2175 21.5001 36.5034 19.5313C36.7892 17.5625 36.3613 15.5564 35.2969 13.8756C34.2326 12.1948 32.6021 10.9503 30.7001 10.3669C29.6817 8.02691 27.9242 6.08536 25.6968 4.83978C23.4695 3.59419 20.8952 3.11329 18.3683 3.47075C15.8415 3.82821 13.5016 5.00432 11.7072 6.81886C9.9127 8.63339 8.76271 10.9863 8.43339 13.5169C6.84437 13.8974 5.45043 14.8483 4.51629 16.1889C3.58215 17.5295 3.17287 19.1664 3.36617 20.7889C3.55947 22.4114 4.34189 23.9064 5.56484 24.99C6.78779 26.0736 8.36611 26.6703 10.0001 26.6669H11.6667V31.6669C11.6667 32.1089 11.4911 32.5329 11.1786 32.8454C10.866 33.158 10.4421 33.3336 10.0001 33.3336H5.00006C4.55803 33.3336 4.13411 33.5092 3.82155 33.8217C3.50899 34.1343 3.33339 34.5582 3.33339 35.0002C3.33339 35.4423 3.50899 35.8662 3.82155 36.1787C4.13411 36.4913 4.55803 36.6669 5.00006 36.6669H10.0001C11.3261 36.6669 12.5979 36.1401 13.5356 35.2024C14.4733 34.2648 15.0001 32.993 15.0001 31.6669V26.6669H18.3334V35.0002C18.3334 35.4423 18.509 35.8662 18.8216 36.1787C19.1341 36.4913 19.558 36.6669 20.0001 36.6669C20.4421 36.6669 20.866 36.4913 21.1786 36.1787C21.4911 35.8662 21.6667 35.4423 21.6667 35.0002V26.6669H25.0001V31.6669C25.0001 32.993 25.5268 34.2648 26.4645 35.2024C27.4022 36.1401 28.674 36.6669 30.0001 36.6669H35.0001C35.4421 36.6669 35.866 36.4913 36.1786 36.1787C36.4911 35.8662 36.6667 35.4423 36.6667 35.0002C36.6667 34.5582 36.4911 34.1343 36.1786 33.8217C35.866 33.5092 35.4421 33.3336 35.0001 33.3336ZM10.0001 23.3336C9.11601 23.3336 8.26816 22.9824 7.64304 22.3573C7.01792 21.7321 6.66673 20.8843 6.66673 20.0002C6.66673 19.1162 7.01792 18.2683 7.64304 17.6432C8.26816 17.0181 9.11601 16.6669 10.0001 16.6669C10.4421 16.6669 10.866 16.4913 11.1786 16.1787C11.4911 15.8662 11.6667 15.4423 11.6667 15.0002C11.671 13.029 12.3739 11.1232 13.6505 9.6212C14.9271 8.11926 16.6949 7.11848 18.6396 6.79669C20.5844 6.47489 22.5803 6.85291 24.2727 7.86358C25.9651 8.87425 27.2444 10.4521 27.8834 12.3169C27.9787 12.6033 28.1499 12.8585 28.3789 13.0551C28.6078 13.2518 28.8859 13.3826 29.1834 13.4336C30.3403 13.6331 31.3902 14.2335 32.1489 15.1293C32.9077 16.0252 33.327 17.1596 33.3334 18.3336C33.3334 19.6596 32.8066 20.9314 31.8689 21.8691C30.9312 22.8068 29.6595 23.3336 28.3334 23.3336H10.0001Z" fill="#11161A"/>
</svg>
