<svg width="24" height="24" viewBox="0 0 24 24" fill="none" xmlns="http://www.w3.org/2000/svg">
<path d="M15 4.5C15.1989 4.5 15.3897 4.57902 15.5303 4.71967C15.671 4.86032 15.75 5.05109 15.75 5.25V6H18C18.3978 6 18.7794 6.15804 19.0607 6.43934C19.342 6.72064 19.5 7.10218 19.5 7.5V13.9395C19.4999 14.3373 19.3418 14.7188 19.0605 15L15 19.0605C14.7188 19.3418 14.3373 19.4999 13.9395 19.5H6C5.60218 19.5 5.22064 19.342 4.93934 19.0607C4.65804 18.7794 4.5 18.3978 4.5 18V7.5C4.5 7.10218 4.65804 6.72064 4.93934 6.43934C5.22064 6.15804 5.60218 6 6 6H8.25V5.25C8.25 5.05109 8.32902 4.86032 8.46967 4.71967C8.61032 4.57902 8.80109 4.5 9 4.5C9.19891 4.5 9.38968 4.57902 9.53033 4.71967C9.67098 4.86032 9.75 5.05109 9.75 5.25V6H14.25V5.25C14.25 5.05109 14.329 4.86032 14.4697 4.71967C14.6103 4.57902 14.8011 4.5 15 4.5ZM18 11.25H6V18H13.5V15C13.5 14.6022 13.658 14.2206 13.9393 13.9393C14.2206 13.658 14.6022 13.5 15 13.5H18V11.25ZM16.9387 15H15V16.9387L16.9387 15ZM8.25 7.5H6V9.75H18V7.5H15.75C15.75 7.69891 15.671 7.88968 15.5303 8.03033C15.3897 8.17098 15.1989 8.25 15 8.25C14.8011 8.25 14.6103 8.17098 14.4697 8.03033C14.329 7.88968 14.25 7.69891 14.25 7.5H9.75C9.75 7.69891 9.67098 7.88968 9.53033 8.03033C9.38968 8.17098 9.19891 8.25 9 8.25C8.80109 8.25 8.61032 8.17098 8.46967 8.03033C8.32902 7.88968 8.25 7.69891 8.25 7.5Z" fill="black"/>
</svg>
