<svg width="24" height="24" viewBox="0 0 24 24" fill="none" xmlns="http://www.w3.org/2000/svg">
<path d="M15.0737 14.6677H8.92673C8.85979 14.6677 8.79407 14.6498 8.73639 14.6158C8.67872 14.5819 8.63119 14.5331 8.59874 14.4745C8.56629 14.416 8.5501 14.3498 8.55186 14.2829C8.55361 14.216 8.57325 14.1507 8.60873 14.094L11.6822 9.17622C11.7159 9.12229 11.7628 9.07782 11.8184 9.04698C11.8741 9.01615 11.9366 8.99997 12.0002 8.99997C12.0638 8.99997 12.1264 9.01615 12.182 9.04698C12.2376 9.07782 12.2845 9.12229 12.3182 9.17622L15.3917 14.094C15.4272 14.1507 15.4468 14.216 15.4486 14.2829C15.4504 14.3498 15.4342 14.416 15.4017 14.4745C15.3693 14.5331 15.3217 14.5819 15.2641 14.6158C15.2064 14.6498 15.1407 14.6677 15.0737 14.6677Z" fill="black"/>
</svg>
