<svg width="24" height="24" viewBox="0 0 24 24" fill="none" xmlns="http://www.w3.org/2000/svg">
<path d="M13.4122 19.4948C13.2224 19.4722 13.0484 19.378 12.9257 19.2314C12.803 19.0848 12.7409 18.8969 12.7521 18.706C12.7633 18.5152 12.847 18.3359 12.986 18.2046C13.125 18.0734 13.3088 18.0002 13.5 18H16.5V11.25H12.5625C12.2144 11.25 11.8806 11.1117 11.6344 10.8656C11.3883 10.6194 11.25 10.2856 11.25 9.9375V6H7.5V12C7.5 12.1989 7.42098 12.3897 7.28033 12.5303C7.13968 12.671 6.94891 12.75 6.75 12.75C6.55109 12.75 6.36032 12.671 6.21967 12.5303C6.07902 12.3897 6 12.1989 6 12V6C6 5.60218 6.15804 5.22064 6.43934 4.93934C6.72064 4.65804 7.10218 4.5 7.5 4.5H12.4395C12.8373 4.50008 13.2188 4.65818 13.5 4.9395L17.5605 9C17.8418 9.28124 17.9999 9.66271 18 10.0605V18C18 18.3978 17.842 18.7794 17.5607 19.0607C17.2794 19.342 16.8978 19.5 16.5 19.5H13.5L13.4122 19.4948ZM9 13.5C9.19891 13.5 9.38968 13.579 9.53033 13.7197C9.67098 13.8603 9.75 14.0511 9.75 14.25V15.75H11.25C11.4489 15.75 11.6397 15.829 11.7803 15.9697C11.921 16.1103 12 16.3011 12 16.5C12 16.6989 11.921 16.8897 11.7803 17.0303C11.6397 17.171 11.4489 17.25 11.25 17.25H9.75V18.75C9.75 18.9489 9.67098 19.1397 9.53033 19.2803C9.38968 19.421 9.19891 19.5 9 19.5C8.80109 19.5 8.61032 19.421 8.46967 19.2803C8.32902 19.1397 8.25 18.9489 8.25 18.75V17.25H6.75C6.55109 17.25 6.36032 17.171 6.21967 17.0303C6.07902 16.8897 6 16.6989 6 16.5C6 16.3011 6.07902 16.1103 6.21967 15.9697C6.36032 15.829 6.55109 15.75 6.75 15.75H8.25V14.25C8.25 14.0511 8.32902 13.8603 8.46967 13.7197C8.61032 13.579 8.80109 13.5 9 13.5ZM12.75 6.31125V9.75H16.1895L12.75 6.31125Z" fill="black"/>
</svg>
