<svg width="40" height="40" viewBox="0 0 40 40" fill="none" xmlns="http://www.w3.org/2000/svg">
<path d="M31.2502 7.5C31.5817 7.5 31.8997 7.6317 32.1341 7.86612C32.3685 8.10054 32.5002 8.41848 32.5002 8.75V31.25C32.5002 31.5815 32.3685 31.8995 32.1341 32.1339C31.8997 32.3683 31.5817 32.5 31.2502 32.5H23.7502C23.4187 32.5 23.1008 32.3683 22.8663 32.1339C22.6319 31.8995 22.5002 31.5815 22.5002 31.25V27.5C22.5002 27.1685 22.6319 26.8505 22.8663 26.6161C23.1008 26.3817 23.4187 26.25 23.7502 26.25C24.0817 26.25 24.3997 26.3817 24.6341 26.6161C24.8685 26.8505 25.0002 27.1685 25.0002 27.5V30H30.0002V10H25.0002V12.5C25.0002 12.8315 24.8685 13.1495 24.6341 13.3839C24.3997 13.6183 24.0817 13.75 23.7502 13.75C23.4187 13.75 23.1008 13.6183 22.8663 13.3839C22.6319 13.1495 22.5002 12.8315 22.5002 12.5V8.75C22.5002 8.41848 22.6319 8.10054 22.8663 7.86612C23.1008 7.6317 23.4187 7.5 23.7502 7.5H31.2502ZM14.1165 12.8663C14.3522 12.6386 14.668 12.5126 14.9957 12.5154C15.3235 12.5183 15.637 12.6497 15.8687 12.8815C16.1005 13.1132 16.232 13.4268 16.2348 13.7545C16.2377 14.0822 16.1117 14.398 15.884 14.6337L11.7677 18.75H26.2502C26.5564 18.75 26.8519 18.8624 27.0807 19.0659C27.3095 19.2693 27.4556 19.5497 27.4915 19.8538L27.5002 20C27.5002 20.3315 27.3685 20.6495 27.1341 20.8839C26.8997 21.1183 26.5817 21.25 26.2502 21.25H11.7677L15.884 25.3662C16.0992 25.5815 16.2285 25.8679 16.2476 26.1716C16.2667 26.4754 16.1743 26.7757 15.9877 27.0163L15.884 27.1338C15.6496 27.3681 15.3317 27.4997 15.0002 27.4997C14.6688 27.4997 14.3509 27.3681 14.1165 27.1338L7.86647 20.8838C7.63213 20.6493 7.50049 20.3315 7.50049 20C7.50049 19.6685 7.63213 19.3507 7.86647 19.1163L14.1165 12.8663Z" fill="black"/>
</svg>
