<svg width="32" height="32" viewBox="0 0 32 32" fill="none" xmlns="http://www.w3.org/2000/svg">
<path d="M9 16V16.02C9 16.043 9.002 16.066 9.004 16.09L9 16C9.0006 16.2236 9.07553 16.4406 9.213 16.617L9.22 16.625L9.293 16.707L15.293 22.707C15.4816 22.8891 15.7342 22.9899 15.9964 22.9876C16.2586 22.9854 16.5094 22.8802 16.6948 22.6948C16.8802 22.5094 16.9854 22.2586 16.9877 21.9964C16.99 21.7342 16.8892 21.4816 16.707 21.293L12.414 17H22C22.2652 17 22.5196 16.8946 22.7071 16.7071C22.8946 16.5195 23 16.2652 23 16C23 15.7347 22.8946 15.4804 22.7071 15.2929C22.5196 15.1053 22.2652 15 22 15H12.414L16.707 10.707C16.8025 10.6147 16.8787 10.5044 16.9311 10.3824C16.9835 10.2604 17.0111 10.1291 17.0123 9.99636C17.0134 9.86358 16.9881 9.7319 16.9378 9.60901C16.8875 9.48611 16.8133 9.37446 16.7194 9.28056C16.6255 9.18667 16.5138 9.11242 16.391 9.06214C16.2681 9.01186 16.1364 8.98655 16.0036 8.98771C15.8708 8.98886 15.7396 9.01645 15.6176 9.06886C15.4956 9.12127 15.3852 9.19745 15.293 9.29296L9.293 15.293L9.22 15.375C9.21765 15.3776 9.21532 15.3803 9.213 15.383L9.293 15.293C9.1105 15.4765 9.00559 15.7232 9 15.982V16Z" fill="black"/>
</svg>
