<svg width="32" height="32" viewBox="0 0 32 32" fill="none" xmlns="http://www.w3.org/2000/svg">
<path d="M9.29286 9.29286C9.48039 9.10539 9.7347 9.00007 9.99986 9.00007C10.265 9.00007 10.5193 9.10539 10.7069 9.29286L15.9999 14.5849L21.2929 9.29286C21.4651 9.12068 21.6942 9.01725 21.9372 9.00197C22.1802 8.98669 22.4205 9.06061 22.6129 9.20986L22.7069 9.29286C22.8943 9.48039 22.9996 9.7347 22.9996 9.99986C22.9996 10.265 22.8943 10.5193 22.7069 10.7069L17.4149 15.9999L22.7069 21.2929C22.879 21.4651 22.9825 21.6942 22.9977 21.9372C23.013 22.1802 22.9391 22.4205 22.7899 22.6129L22.7069 22.7069C22.5193 22.8943 22.265 22.9996 21.9999 22.9996C21.7347 22.9996 21.4804 22.8943 21.2929 22.7069L15.9999 17.4149L10.7069 22.7069C10.5347 22.879 10.3056 22.9825 10.0625 22.9977C9.81952 23.013 9.57926 22.9391 9.38686 22.7899L9.29286 22.7069C9.10539 22.5193 9.00007 22.265 9.00007 21.9999C9.00007 21.7347 9.10539 21.4804 9.29286 21.2929L14.5849 15.9999L9.29286 10.7069C9.12068 10.5347 9.01725 10.3056 9.00197 10.0625C8.98669 9.81952 9.06061 9.57926 9.20986 9.38686L9.29286 9.29286Z" fill="black"/>
</svg>
