<svg width="32" height="32" viewBox="0 0 32 32" fill="none" xmlns="http://www.w3.org/2000/svg">
<path d="M16 5C22.075 5 27 9.925 27 16C27 22.075 22.075 27 16 27C10.021 27 5.157 22.23 5.004 16.288L5 16L5.007 15.883C5.0371 15.6299 5.16271 15.3979 5.35817 15.2343C5.55362 15.0707 5.80416 14.9879 6.05861 15.0028C6.31305 15.0178 6.55218 15.1293 6.72715 15.3146C6.90212 15.5 6.99972 15.7451 7 16C6.99998 17.7688 7.52114 19.4983 8.49837 20.9726C9.4756 22.4469 10.8656 23.6005 12.4947 24.2894C14.1237 24.9783 15.9197 25.1719 17.6582 24.846C19.3966 24.5202 21.0006 23.6892 22.2695 22.4571C23.5385 21.225 24.4163 19.6462 24.7932 17.9181C25.1702 16.19 25.0296 14.3891 24.389 12.7404C23.7483 11.0918 22.6361 9.66842 21.1913 8.64819C19.7464 7.62796 18.033 7.05608 16.265 7.004L16 7L15.883 6.993C15.6299 6.9629 15.3979 6.83729 15.2343 6.64183C15.0707 6.44638 14.9879 6.19584 15.0028 5.94139C15.0178 5.68695 15.1293 5.44782 15.3146 5.27285C15.5 5.09788 15.7451 5.00028 16 5ZM16 9C17.6128 8.99998 19.1762 9.55691 20.4258 10.5766C21.6754 11.5963 22.5345 13.0163 22.8579 14.5964C23.1813 16.1764 22.9492 17.8197 22.2007 19.2484C21.4523 20.6771 20.2334 21.8034 18.7503 22.4371C17.2671 23.0708 15.6107 23.1728 14.061 22.7261C12.5112 22.2793 11.1633 21.311 10.2451 19.9851C9.32696 18.6591 8.89482 17.0567 9.0218 15.4489C9.14877 13.8411 9.82707 12.3264 10.942 11.161C11.0231 11.0493 11.1265 10.9557 11.2455 10.8859C11.3646 10.8162 11.4968 10.7718 11.6339 10.7556C11.7709 10.7395 11.9098 10.7518 12.0419 10.792C12.1739 10.8321 12.2962 10.8991 12.4011 10.9888C12.506 11.0786 12.5911 11.189 12.6512 11.3132C12.7113 11.4375 12.7451 11.5728 12.7503 11.7107C12.7556 11.8486 12.7322 11.9861 12.6817 12.1145C12.6313 12.243 12.5547 12.3596 12.457 12.457L12.464 12.464C11.6459 13.2818 11.1368 14.358 11.0232 15.5092C10.9097 16.6604 11.1988 17.8153 11.8413 18.7772C12.4838 19.7392 13.44 20.4485 14.5469 20.7845C15.6538 21.1204 16.843 21.0622 17.9118 20.6197C18.9805 20.1772 19.8628 19.3778 20.4083 18.3577C20.9537 17.3376 21.1286 16.16 20.9032 15.0254C20.6777 13.8908 20.0658 12.8695 19.1717 12.1355C18.2777 11.4015 17.1568 11.0002 16 11H15.999L15.883 10.993C15.6299 10.9629 15.3979 10.8373 15.2343 10.6418C15.0707 10.4464 14.9879 10.1958 15.0028 9.94139C15.0178 9.68695 15.1293 9.44782 15.3146 9.27285C15.5 9.09788 15.7451 9.00028 16 9ZM15.883 14.993C15.6299 14.9629 15.3979 14.8373 15.2343 14.6418C15.0707 14.4464 14.9879 14.1958 15.0028 13.9414C15.0178 13.687 15.1293 13.4478 15.3146 13.2728C15.5 13.0979 15.7451 13.0003 16 13C16.5858 13 17.1588 13.1716 17.6483 13.4935C18.1378 13.8154 18.5223 14.2736 18.7544 14.8115C18.9865 15.3494 19.056 15.9435 18.9543 16.5205C18.8527 17.0974 18.5844 17.632 18.1824 18.0582C17.7805 18.4844 17.2626 18.7836 16.6926 18.9189C16.1226 19.0542 15.5254 19.0196 14.9748 18.8195C14.4243 18.6193 13.9443 18.2623 13.5943 17.7926C13.2442 17.3228 13.0394 16.7608 13.005 16.176L13 16L13.007 15.883C13.0371 15.6299 13.1627 15.3979 13.3582 15.2343C13.5536 15.0707 13.8042 14.9879 14.0586 15.0028C14.313 15.0178 14.5522 15.1293 14.7272 15.3146C14.9021 15.5 14.9997 15.7451 15 16C15 16.1928 15.0557 16.3815 15.1604 16.5434C15.2651 16.7052 15.4144 16.8334 15.5903 16.9124C15.7662 16.9913 15.9611 17.0178 16.1517 16.9886C16.3423 16.9593 16.5203 16.8756 16.6644 16.7475C16.8085 16.6194 16.9125 16.4524 16.9639 16.2666C17.0152 16.0807 17.0118 15.884 16.9539 15.7001C16.8961 15.5162 16.7863 15.3529 16.6378 15.23C16.4893 15.107 16.3085 15.0296 16.117 15.007L16 15L15.883 14.993Z" fill="black"/>
</svg>
