<svg width="40" height="40" viewBox="0 0 40 40" fill="none" xmlns="http://www.w3.org/2000/svg">
<path d="M24.4574 26.25H31.5736L25.0111 15L21.4486 21.235L24.4574 26.25ZM24.9999 11.25C25.2186 11.2487 25.4338 11.3054 25.6236 11.4143C25.8133 11.5232 25.9707 11.6804 26.0799 11.87L34.8299 26.87C34.9407 27.06 34.9995 27.2758 35.0002 27.4958C35.001 27.7157 34.9437 27.932 34.8341 28.1227C34.7246 28.3134 34.5666 28.4718 34.3763 28.582C34.1859 28.6921 33.9698 28.7501 33.7499 28.75H23.7499C23.5341 28.7499 23.322 28.6938 23.1343 28.5874C22.9465 28.4809 22.7896 28.3276 22.6786 28.1425L19.9986 23.6775L17.3211 28.1425C17.2102 28.3276 17.0532 28.4809 16.8655 28.5874C16.6778 28.6938 16.4657 28.7499 16.2499 28.75H6.24988C6.02994 28.7501 5.81387 28.6921 5.6235 28.582C5.43313 28.4718 5.27519 28.3134 5.16563 28.1227C5.05607 27.932 4.99877 27.7157 4.99952 27.4958C5.00027 27.2758 5.05903 27.06 5.16988 26.87L13.9199 11.87C14.0158 11.7035 14.1492 11.5616 14.3096 11.4557C14.4699 11.3498 14.6528 11.2828 14.8436 11.26L14.9999 11.25H24.9999ZM14.9886 15L8.42613 26.25H15.5424L18.5511 21.235L14.9886 15ZM22.8449 13.75H17.1524L19.9999 18.73L22.8449 13.75Z" fill="black"/>
</svg>
