<svg width="32" height="32" viewBox="0 0 32 32" fill="none" xmlns="http://www.w3.org/2000/svg">
<path d="M16 4C22.627 4 28 9.373 28 16C28 22.627 22.627 28 16 28C9.373 28 4 22.627 4 16C4 9.373 9.373 4 16 4ZM19.708 21H12.292C12.755 22.543 13.42 24.161 14.292 25.853C15.4226 26.0484 16.5782 26.0491 17.709 25.855C18.579 24.161 19.246 22.543 19.709 21H19.708ZM10.212 21H7.338C8.34643 22.742 9.85497 24.1408 11.668 25.015C11.0802 23.7161 10.5934 22.3738 10.212 21ZM24.662 21.001L21.789 21C21.4074 22.3735 20.9203 23.7155 20.332 25.014C22.1451 24.1408 23.6537 22.7426 24.662 21.001ZM9.62 14.001L6.2 14C5.86266 15.6617 5.95141 17.3818 6.458 19H9.765C9.59147 18.0094 9.50281 17.0057 9.5 16C9.5 15.346 9.54 14.68 9.62 14V14.001ZM20.365 14H11.635C11.545 14.683 11.5 15.35 11.5 16C11.5 16.963 11.6 17.963 11.798 19H20.202C20.401 17.963 20.5 16.963 20.5 16C20.5 15.35 20.455 14.683 20.365 14ZM25.8 14H22.38C22.46 14.68 22.5 15.346 22.5 16C22.5 16.974 22.412 17.974 22.235 19H25.542C26.0486 17.3818 26.1373 15.6617 25.8 14ZM11.668 6.986L11.568 7.033C9.45467 8.08113 7.77794 9.84 6.832 12.001H9.963C10.323 10.392 10.892 8.721 11.668 6.986ZM16 6C15.418 6 14.847 6.05 14.292 6.145L14.387 5.963C13.275 8.093 12.487 10.105 12.017 12.001H19.982C19.513 10.105 18.725 8.093 17.614 5.963L17.708 6.145C17.1438 6.04819 16.5724 5.99968 16 6ZM20.333 6.985L20.336 6.995C21.11 8.726 21.678 10.395 22.037 12.001H25.168C24.2068 9.80544 22.4918 8.02623 20.333 6.985Z" fill="black"/>
</svg>
