<svg width="40" height="40" viewBox="0 0 40 40" fill="none" xmlns="http://www.w3.org/2000/svg">
<path d="M19.9998 11.25C25.5623 11.25 30.0948 14.2712 33.4123 19.9963C33.6508 20.4074 33.7671 20.878 33.7476 21.3529C33.7281 21.8278 33.5737 22.2873 33.3023 22.6775C29.9498 27.4975 25.4461 30 19.9998 30C14.5536 30 10.0498 27.4975 6.69734 22.6775C6.42603 22.2873 6.27158 21.8278 6.2521 21.3529C6.23262 20.878 6.34891 20.4074 6.58734 19.9963C9.90484 14.2712 14.4373 11.25 19.9998 11.25ZM19.9998 13.75C15.3973 13.75 11.6473 16.25 8.74984 21.25C11.6473 25.4163 15.3973 27.5 19.9998 27.5C24.6023 27.5 28.3523 25.4163 31.2498 21.25C28.3523 16.25 24.6023 13.75 19.9998 13.75ZM19.9998 15C21.3259 15 22.5977 15.5268 23.5354 16.4645C24.4731 17.4021 24.9998 18.6739 24.9998 20C24.9998 21.3261 24.4731 22.5979 23.5354 23.5355C22.5977 24.4732 21.3259 25 19.9998 25C18.6738 25 17.402 24.4732 16.4643 23.5355C15.5266 22.5979 14.9998 21.3261 14.9998 20C14.9998 18.6739 15.5266 17.4021 16.4643 16.4645C17.402 15.5268 18.6738 15 19.9998 15ZM19.9998 17.5C19.3368 17.5 18.7009 17.7634 18.2321 18.2322C17.7632 18.7011 17.4998 19.337 17.4998 20C17.4998 20.663 17.7632 21.2989 18.2321 21.7678C18.7009 22.2366 19.3368 22.5 19.9998 22.5C20.6629 22.5 21.2988 22.2366 21.7676 21.7678C22.2365 21.2989 22.4998 20.663 22.4998 20C22.4998 19.337 22.2365 18.7011 21.7676 18.2322C21.2988 17.7634 20.6629 17.5 19.9998 17.5Z" fill="black"/>
</svg>
