<svg width="32" height="32" viewBox="0 0 32 32" fill="none" xmlns="http://www.w3.org/2000/svg">
<path d="M16.707 10.293L21.707 15.293C21.8892 15.4816 21.99 15.7342 21.9877 15.9964C21.9854 16.2586 21.8802 16.5094 21.6948 16.6948C21.5094 16.8802 21.2586 16.9854 20.9964 16.9877C20.7342 16.99 20.4816 16.8892 20.293 16.707L17 13.414V25C17 25.2652 16.8946 25.5196 16.7071 25.7071C16.5196 25.8946 16.2652 26 16 26C15.7348 26 15.4804 25.8946 15.2929 25.7071C15.1054 25.5196 15 25.2652 15 25V13.414L11.707 16.707C11.5184 16.8892 11.2658 16.99 11.0036 16.9877C10.7414 16.9854 10.4906 16.8802 10.3052 16.6948C10.1198 16.5094 10.0146 16.2586 10.0123 15.9964C10.01 15.7342 10.1108 15.4816 10.293 15.293L15.293 10.293C15.4805 10.1055 15.7348 10.0002 16 10.0002C16.2652 10.0002 16.5195 10.1055 16.707 10.293ZM25 6C25.2652 6 25.5196 6.10536 25.7071 6.29289C25.8946 6.48043 26 6.73478 26 7C26 7.26522 25.8946 7.51957 25.7071 7.70711C25.5196 7.89464 25.2652 8 25 8H7C6.73478 8 6.48043 7.89464 6.29289 7.70711C6.10536 7.51957 6 7.26522 6 7C6 6.73478 6.10536 6.48043 6.29289 6.29289C6.48043 6.10536 6.73478 6 7 6H25Z" fill="black"/>
</svg>
