<svg width="40" height="40" viewBox="0 0 40 40" fill="none" xmlns="http://www.w3.org/2000/svg">
<path d="M24.9001 8.64992C25.5302 7.92372 26.0106 7.0802 26.3138 6.16781C26.617 5.25542 26.7369 4.29213 26.6668 3.33325C24.7324 3.4894 22.9368 4.39918 21.6668 5.86659C21.0586 6.56988 20.5977 7.38805 20.3114 8.27266C20.0252 9.15727 19.9193 10.0903 20.0001 11.0166C20.9437 11.0244 21.8764 10.8151 22.7261 10.4047C23.5758 9.99429 24.3196 9.39388 24.9001 8.64992ZM29.1001 21.0499C29.1113 19.7728 29.4477 18.5196 30.0775 17.4086C30.7074 16.2976 31.61 15.3653 32.7001 14.6999C32.0121 13.7086 31.1027 12.8913 30.0438 12.3127C28.985 11.7341 27.8059 11.4102 26.6001 11.3666C24.0001 11.0999 21.6001 12.8833 20.2168 12.8833C18.8334 12.8833 16.8834 11.3999 14.7168 11.4333C13.3003 11.4799 11.9201 11.8929 10.7108 12.6319C9.50155 13.3709 8.50444 14.4107 7.81676 15.6499C4.88343 20.7499 7.06676 28.3333 10.0001 32.4499C11.3334 34.4666 13.0001 36.7499 15.2001 36.6666C17.4001 36.5833 18.1168 35.2999 20.6668 35.2999C23.2168 35.2999 24.0001 36.6666 26.1668 36.6166C28.3334 36.5666 29.8668 34.5499 31.2668 32.5333C32.2585 31.0691 33.0332 29.4692 33.5668 27.7833C32.2459 27.2199 31.119 26.2821 30.3252 25.0854C29.5314 23.8888 29.1055 22.4859 29.1001 21.0499Z" fill="black"/>
</svg>
