<svg width="32" height="32" viewBox="0 0 32 32" fill="none" xmlns="http://www.w3.org/2000/svg">
<path d="M11.0501 11.0499C11.2376 10.8624 11.4919 10.7571 11.7571 10.7571C12.0223 10.7571 12.2766 10.8624 12.4641 11.0499L16.0001 14.5859L19.5361 11.0499C19.7095 10.8767 19.9403 10.7732 20.185 10.759C20.4296 10.7448 20.6709 10.8209 20.8631 10.9729L20.9501 11.0499C21.1376 11.2374 21.2429 11.4917 21.2429 11.7569C21.2429 12.022 21.1376 12.2763 20.9501 12.4639L17.4141 15.9999L20.9501 19.5359C21.1233 19.7092 21.2268 19.9401 21.241 20.1847C21.2552 20.4293 21.1791 20.6707 21.0271 20.8629L20.9501 20.9499C20.7626 21.1373 20.5083 21.2427 20.2431 21.2427C19.9779 21.2427 19.7236 21.1373 19.5361 20.9499L16.0001 17.4139L12.4641 20.9499C12.2908 21.1231 12.0599 21.2266 11.8153 21.2408C11.5706 21.255 11.3293 21.1788 11.1371 21.0269L11.0501 20.9499C10.8626 20.7623 10.7573 20.508 10.7573 20.2429C10.7573 19.9777 10.8626 19.7234 11.0501 19.5359L14.5861 15.9999L11.0501 12.4639C10.8769 12.2905 10.7734 12.0596 10.7592 11.815C10.745 11.5704 10.8211 11.3291 10.9731 11.1369L11.0501 11.0499Z" fill="black"/>
</svg>
