<svg width="40" height="40" viewBox="0 0 40 40" fill="none" xmlns="http://www.w3.org/2000/svg">
<path d="M20 8.75C20.3315 8.75 20.6495 8.8817 20.8839 9.11612C21.1183 9.35054 21.25 9.66848 21.25 10V18.75H30C30.3062 18.75 30.6017 18.8624 30.8305 19.0659C31.0593 19.2693 31.2054 19.5497 31.2412 19.8538L31.25 20C31.25 20.3315 31.1183 20.6495 30.8839 20.8839C30.6495 21.1183 30.3315 21.25 30 21.25H21.25V30C21.25 30.3062 21.1376 30.6017 20.9341 30.8305C20.7307 31.0593 20.4503 31.2054 20.1463 31.2412L20 31.25C19.6685 31.25 19.3505 31.1183 19.1161 30.8839C18.8817 30.6495 18.75 30.3315 18.75 30V21.25H10C9.69383 21.25 9.39833 21.1376 9.16954 20.9341C8.94074 20.7307 8.79457 20.4503 8.75875 20.1463L8.75 20C8.75 19.6685 8.8817 19.3505 9.11612 19.1161C9.35054 18.8817 9.66848 18.75 10 18.75H18.75V10C18.75 9.69383 18.8624 9.39833 19.0659 9.16954C19.2693 8.94074 19.5497 8.79457 19.8538 8.75875L20 8.75Z" fill="black"/>
</svg>
