<svg width="40" height="40" viewBox="0 0 40 40" fill="none" xmlns="http://www.w3.org/2000/svg">
<path d="M20 7.5C21.3261 7.5 22.5979 8.02678 23.5355 8.96447C24.4732 9.90215 25 11.1739 25 12.5V16.25H27.4912C27.8199 16.2488 28.1455 16.3125 28.4495 16.4373C28.7535 16.5621 29.0299 16.7456 29.2629 16.9774C29.4959 17.2091 29.681 17.4845 29.8074 17.7878C29.9339 18.0911 29.9993 18.4164 30 18.745V30.005C29.9993 30.3336 29.9339 30.6589 29.8074 30.9622C29.681 31.2655 29.4959 31.5409 29.2629 31.7726C29.0299 32.0044 28.7535 32.1879 28.4495 32.3127C28.1455 32.4375 27.8199 32.5011 27.4912 32.5H12.5087C12.1801 32.5011 11.8545 32.4375 11.5505 32.3127C11.2465 32.1879 10.9701 32.0044 10.7371 31.7726C10.5041 31.5409 10.319 31.2655 10.1926 30.9622C10.0661 30.6589 10.0007 30.3336 10 30.005V18.745C10.0007 18.4164 10.0661 18.0911 10.1926 17.7878C10.319 17.4845 10.5041 17.2091 10.7371 16.9774C10.9701 16.7456 11.2465 16.5621 11.5505 16.4373C11.8545 16.3125 12.1801 16.2488 12.5087 16.25H15V12.5C15 11.1739 15.5268 9.90215 16.4645 8.96447C17.4021 8.02678 18.6739 7.5 20 7.5ZM27.5 18.745H27.0037L26.8337 18.7462H25.6713L25.3837 18.7475H22.995L22.6125 18.75H12.735H12.5087L12.5075 18.8125L12.5063 19.12V19.4525L12.505 19.6525V20.3725L12.5038 20.6475V21.56L12.5025 21.8875L12.5013 24.0112V24.3775L12.5 30.005H12.9963L13.1662 30.0037H14.3288L14.6163 30.0025H17.005L17.3875 30H27.265H27.4912L27.4925 29.9375L27.4938 29.63V29.2975L27.495 29.0975V28.3775L27.4963 28.1025V27.19L27.4975 26.8625L27.4988 24.7387V24.3725L27.5 18.76V18.745ZM20 21.25C20.69 21.25 21.25 21.805 21.25 22.5V27.5H18.75V22.5C18.75 21.81 19.305 21.25 20 21.25ZM20 10C19.337 10 18.7011 10.2634 18.2322 10.7322C17.7634 11.2011 17.5 11.837 17.5 12.5V16.25H22.5V12.5C22.5 11.837 22.2366 11.2011 21.7678 10.7322C21.2989 10.2634 20.663 10 20 10Z" fill="black"/>
</svg>
