<svg width="40" height="40" viewBox="0 0 40 40" fill="none" xmlns="http://www.w3.org/2000/svg">
<path d="M20.3662 9.11623C20.6007 8.88189 20.9185 8.75024 21.25 8.75024C21.5815 8.75024 21.8993 8.88189 22.1338 9.11623L32.1338 19.1162C32.3681 19.3506 32.4997 19.6685 32.4997 20C32.4997 20.3314 32.3681 20.6493 32.1338 20.8837L22.1338 30.8837C21.898 31.1114 21.5822 31.2374 21.2545 31.2346C20.9268 31.2317 20.6132 31.1003 20.3815 30.8685C20.1497 30.6367 20.0183 30.3232 20.0154 29.9955C20.0126 29.6677 20.1386 29.352 20.3662 29.1162L28.2312 21.25H8.75C8.44383 21.2499 8.14833 21.1375 7.91954 20.9341C7.69074 20.7306 7.54457 20.4503 7.50875 20.1462L7.5 20C7.5 19.6685 7.6317 19.3505 7.86612 19.1161C8.10054 18.8817 8.41848 18.75 8.75 18.75H28.2312L20.3662 10.8837C20.151 10.6685 20.0217 10.3821 20.0026 10.0783C19.9835 9.77455 20.0759 9.47423 20.2625 9.23373L20.3662 9.11623Z" fill="black"/>
</svg>
