<svg width="32" height="32" viewBox="0 0 32 32" fill="none" xmlns="http://www.w3.org/2000/svg">
<path d="M20.7451 23.4039L19.8411 18.3239L23.5871 14.8039L18.4021 14.0779L16.0001 9.38789L13.5981 14.0779L8.41313 14.8049L12.1591 18.3249L11.2551 23.4049L16.0001 20.9999L20.7451 23.4039ZM16.0001 23.2419L10.3711 26.0939C10.2054 26.1777 10.0196 26.2137 9.8345 26.1979C9.64943 26.1821 9.47244 26.115 9.32335 26.0042C9.17425 25.8934 9.05896 25.7433 8.99039 25.5707C8.92183 25.3981 8.90269 25.2098 8.93513 25.0269L10.0001 19.0399L5.52213 14.8329C5.38443 14.7038 5.28607 14.5384 5.23843 14.3557C5.19079 14.1731 5.19581 13.9807 5.25293 13.8008C5.31004 13.6209 5.4169 13.4608 5.56116 13.3391C5.70542 13.2173 5.88118 13.1389 6.06813 13.1129L12.2921 12.2419L15.1101 6.73789C15.194 6.57409 15.3215 6.43662 15.4786 6.34063C15.6356 6.24464 15.8161 6.19385 16.0001 6.19385C16.1842 6.19385 16.3647 6.24464 16.5217 6.34063C16.6787 6.43662 16.8062 6.57409 16.8901 6.73789L19.7081 12.2419L25.9321 13.1139C26.1189 13.1401 26.2944 13.2185 26.4385 13.3402C26.5825 13.4618 26.6893 13.6218 26.7464 13.8015C26.8034 13.9812 26.8085 14.1734 26.7611 14.3559C26.7136 14.5384 26.6155 14.7037 26.4781 14.8329L22.0001 19.0399L23.0651 25.0269C23.0976 25.2098 23.0784 25.3981 23.0099 25.5707C22.9413 25.7433 22.826 25.8934 22.6769 26.0042C22.5278 26.115 22.3508 26.1821 22.1658 26.1979C21.9807 26.2137 21.7949 26.1777 21.6291 26.0939L16.0001 23.2419Z" fill="black"/>
</svg>
