<svg width="40" height="40" viewBox="0 0 40 40" fill="none" xmlns="http://www.w3.org/2000/svg">
<path d="M19.9998 7.5C20.3313 7.5 20.6492 7.6317 20.8837 7.86612C21.1181 8.10054 21.2498 8.41848 21.2498 8.75V28.2312L29.116 20.3662C29.3313 20.151 29.6176 20.0217 29.9214 20.0026C30.2252 19.9835 30.5255 20.0759 30.766 20.2625L30.8835 20.3662C31.1179 20.6007 31.2495 20.9185 31.2495 21.25C31.2495 21.5815 31.1179 21.8993 30.8835 22.1338L20.8835 32.1338C20.6491 32.3681 20.3312 32.4997 19.9998 32.4997C19.6683 32.4997 19.3504 32.3681 19.116 32.1338L9.11603 22.1338C8.88833 21.898 8.76234 21.5822 8.76518 21.2545C8.76803 20.9268 8.89949 20.6132 9.13125 20.3815C9.36301 20.1497 9.67653 20.0183 10.0043 20.0154C10.332 20.0126 10.6478 20.1386 10.8835 20.3662L18.7498 28.2312V8.75C18.7498 8.44383 18.8622 8.14833 19.0657 7.91954C19.2691 7.69074 19.5495 7.54457 19.8535 7.50875L19.9998 7.5Z" fill="black"/>
</svg>
