<svg width="24" height="24" viewBox="0 0 24 24" fill="none" xmlns="http://www.w3.org/2000/svg">
<path d="M11.4323 6.12019C11.6111 6.04126 11.8045 6.00049 12 6.00049C12.1955 6.00049 12.3889 6.04126 12.5678 6.12019L20.5343 9.61519C21.1553 9.88744 21.1553 10.8309 20.5343 11.1039L19.5 11.5569L19.5008 15.2244C19.6598 15.2799 19.7978 15.3917 19.8923 15.5424L19.9388 15.6294L20.3138 16.4342C20.499 16.8317 20.349 17.3147 19.9785 17.5134C19.8755 17.5689 19.7603 17.5981 19.6433 17.5982H19.125C18.711 17.5982 18.375 17.2382 18.375 16.7934V15.9902C18.375 15.6924 18.5258 15.4322 18.75 15.2927V11.8862L17.25 12.5447V14.6859C17.25 15.5132 16.8555 16.2789 16.2105 16.7199L16.0868 16.7987C14.7383 17.5959 13.3733 18.0002 12 18.0002C10.6275 18.0002 9.26251 17.5959 7.91251 16.7979C7.23751 16.3982 6.80326 15.6579 6.75451 14.8397L6.75001 14.6852V12.5439L3.46576 11.1039C2.87401 10.8437 2.84626 9.97594 3.38176 9.65794L3.46576 9.61444L11.4323 6.12019ZM19.2675 15.9894H19.125V16.7934H19.6433L19.2683 15.9894H19.2675ZM15.75 13.2017L12.5678 14.5982C12.3889 14.6771 12.1955 14.7179 12 14.7179C11.8045 14.7179 11.6111 14.6771 11.4323 14.5982L8.25001 13.2024V14.6852C8.25001 14.9132 8.34001 15.1277 8.49226 15.2777L8.56126 15.3377L8.63776 15.3902C9.77176 16.0607 10.89 16.3914 12 16.3914C13.11 16.3914 14.2275 16.0614 15.3623 15.3894C15.5753 15.2634 15.7163 15.0369 15.7448 14.7819L15.75 14.6852V13.2017ZM11.9993 7.60819L5.73076 10.3592L11.9993 13.1094L18.2685 10.3592L11.9993 7.60819Z" fill="black"/>
</svg>
