<svg width="24" height="24" viewBox="0 0 24 24" fill="none" xmlns="http://www.w3.org/2000/svg">
<path d="M12.4395 4.5C12.8373 4.50008 13.2188 4.65818 13.5 4.9395L17.5605 9C17.8418 9.28124 17.9999 9.66271 18 10.0605V18C18 18.3978 17.842 18.7794 17.5607 19.0607C17.2794 19.342 16.8978 19.5 16.5 19.5H7.5C7.10218 19.5 6.72064 19.342 6.43934 19.0607C6.15804 18.7794 6 18.3978 6 18V6C6 5.60218 6.15804 5.22064 6.43934 4.93934C6.72064 4.65804 7.10218 4.5 7.5 4.5H12.4395ZM7.5 6V18H16.5V11.25H12.5625C12.2144 11.25 11.8806 11.1117 11.6344 10.8656C11.3883 10.6194 11.25 10.2856 11.25 9.9375V6H7.5ZM16.1895 9.75L12.75 6.31125V9.75H16.1895Z" fill="black"/>
</svg>
