<svg width="32" height="32" viewBox="0 0 32 32" fill="none" xmlns="http://www.w3.org/2000/svg">
<path d="M23.5341 5.11595C23.6865 5.03567 23.8571 4.99613 24.0293 5.00116C24.2015 5.00618 24.3695 5.05561 24.5169 5.14463C24.6644 5.23366 24.7864 5.35928 24.871 5.5093C24.9557 5.65933 25.0002 5.82868 25.0001 6.00095V26.0009C25.0002 26.1714 24.9567 26.3391 24.8737 26.488C24.7908 26.637 24.6711 26.7622 24.5261 26.8519C24.3812 26.9416 24.2157 26.9927 24.0454 27.0004C23.8751 27.0081 23.7056 26.9722 23.5531 26.8959L16.1241 23.1809L11.6241 26.7819C11.4845 26.8936 11.3174 26.9657 11.1404 26.9908C10.9634 27.016 10.7829 26.9932 10.6177 26.9249C10.4525 26.8566 10.3086 26.7452 10.201 26.6024C10.0935 26.4596 10.0262 26.2906 10.0061 26.1129L10.0001 26.0009V19.6199L4.55311 16.8969C4.39862 16.8198 4.26674 16.7039 4.17033 16.5606C4.07392 16.4173 4.01626 16.2515 4.00297 16.0793C3.98967 15.9071 4.0212 15.7344 4.09448 15.578C4.16776 15.4217 4.28029 15.2869 4.42111 15.1869L4.53411 15.1169L23.5341 5.11595ZM23.0001 8.58195L16.5801 21.1729L23.0001 24.3829V8.58195ZM21.5311 9.25895L12.0001 19.1279V23.9199L15.3751 21.2199C15.4051 21.1969 15.4351 21.1749 15.4661 21.1559L21.5311 9.25895ZM20.3341 9.05895L7.19011 15.9769L11.4471 18.1069C11.4811 18.1239 11.5141 18.1429 11.5451 18.1629L20.3341 9.05895Z" fill="black"/>
</svg>
