<svg width="32" height="32" viewBox="0 0 32 32" fill="none" xmlns="http://www.w3.org/2000/svg">
<path d="M15.2928 6.29303C15.4803 6.10556 15.7346 6.00024 15.9998 6.00024C16.2649 6.00024 16.5193 6.10556 16.7068 6.29303L24.7068 14.293C24.8889 14.4816 24.9897 14.7342 24.9875 14.9964C24.9852 15.2586 24.88 15.5094 24.6946 15.6948C24.5092 15.8803 24.2584 15.9854 23.9962 15.9877C23.734 15.99 23.4814 15.8892 23.2928 15.707L16.9998 9.41403V25C16.9998 25.245 16.9098 25.4814 16.7471 25.6644C16.5843 25.8474 16.36 25.9644 16.1168 25.993L15.9998 26C15.7346 26 15.4802 25.8947 15.2927 25.7071C15.1051 25.5196 14.9998 25.2652 14.9998 25V9.41403L8.70679 15.707C8.53459 15.8792 8.30549 15.9826 8.06247 15.9979C7.81944 16.0132 7.57919 15.9393 7.38679 15.79L7.29279 15.707C7.10532 15.5195 7 15.2652 7 15C7 14.7349 7.10532 14.4806 7.29279 14.293L15.2928 6.29303Z" fill="black"/>
</svg>
