<svg width="32" height="32" viewBox="0 0 32 32" fill="none" xmlns="http://www.w3.org/2000/svg">
<path d="M9.54816 16.786C9.58865 16.7004 9.65264 16.628 9.73266 16.5773C9.81268 16.5267 9.90544 16.4998 10.0002 16.4998C10.0949 16.4998 10.1876 16.5267 10.2677 16.5773C10.3477 16.628 10.4117 16.7004 10.4522 16.786L11.6042 19.222L14.0752 19.597C14.1592 19.6096 14.2387 19.6435 14.306 19.6954C14.3733 19.7473 14.4263 19.8155 14.4599 19.8936C14.4936 19.9717 14.5067 20.057 14.4982 20.1416C14.4897 20.2262 14.4597 20.3072 14.4112 20.377L14.3572 20.442L12.5592 22.27L12.9952 24.919C13.0093 25.0048 13.0009 25.0927 12.9707 25.1743C12.9405 25.2558 12.8896 25.328 12.823 25.3839C12.7564 25.4397 12.6763 25.4772 12.5908 25.4926C12.5052 25.5081 12.4171 25.501 12.3352 25.472L12.2612 25.438L10.0002 24.197L7.73916 25.438C7.66303 25.4799 7.57731 25.5012 7.49043 25.4998C7.40356 25.4985 7.31853 25.4745 7.24374 25.4303C7.16894 25.3861 7.10696 25.3232 7.06389 25.2477C7.02083 25.1723 6.99817 25.0869 6.99816 25L7.00516 24.919L7.44016 22.27L5.64316 20.442C5.58366 20.3814 5.54058 20.3066 5.518 20.2247C5.49541 20.1428 5.49406 20.0565 5.51407 19.974C5.53409 19.8914 5.5748 19.8153 5.63238 19.7529C5.68996 19.6904 5.7625 19.6436 5.84316 19.617L5.92516 19.597L8.39516 19.222L9.54816 16.786ZM15.5482 5.78599C15.5887 5.70037 15.6526 5.62801 15.7327 5.57733C15.8127 5.52666 15.9054 5.49976 16.0002 5.49976C16.0949 5.49976 16.1876 5.52666 16.2677 5.57733C16.3477 5.62801 16.4117 5.70037 16.4522 5.78599L17.6042 8.22199L20.0752 8.59699C20.1592 8.60964 20.2387 8.64352 20.306 8.69542C20.3733 8.74732 20.4263 8.81553 20.4599 8.89361C20.4936 8.97168 20.5067 9.05704 20.4982 9.14162C20.4897 9.2262 20.4597 9.30721 20.4112 9.37699L20.3572 9.44199L18.5592 11.27L18.9952 13.919C19.0094 14.0048 19.0009 14.0927 18.9707 14.1743C18.9405 14.2558 18.8896 14.328 18.823 14.3839C18.7564 14.4397 18.6763 14.4772 18.5908 14.4926C18.5052 14.5081 18.4171 14.501 18.3352 14.472L18.2612 14.438L16.0002 13.197L13.7392 14.438C13.663 14.4799 13.5773 14.5012 13.4904 14.4998C13.4036 14.4985 13.3185 14.4745 13.2437 14.4303C13.1689 14.3861 13.107 14.3232 13.0639 14.2477C13.0208 14.1723 12.9982 14.0869 12.9982 14L13.0052 13.919L13.4402 11.27L11.6432 9.44199C11.5837 9.38137 11.5406 9.30658 11.518 9.22469C11.4954 9.1428 11.4941 9.05651 11.5141 8.97395C11.5341 8.8914 11.5748 8.8153 11.6324 8.75285C11.69 8.69039 11.7625 8.64364 11.8432 8.61699L11.9252 8.59699L14.3952 8.22199L15.5482 5.78599Z" fill="black"/>
<path opacity="0.35" d="M20.3949 19.222L17.9249 19.597L17.8419 19.617C17.7613 19.6438 17.6889 19.6906 17.6314 19.7531C17.574 19.8156 17.5334 19.8917 17.5135 19.9743C17.4935 20.0568 17.495 20.1431 17.5176 20.2249C17.5403 20.3067 17.5834 20.3815 17.6429 20.442L19.4399 22.27L19.0049 24.919L18.9979 24.999C18.9977 25.0859 19.0201 25.1714 19.063 25.247C19.1058 25.3226 19.1677 25.3857 19.2424 25.4301C19.3171 25.4746 19.4021 25.4987 19.489 25.5003C19.5759 25.5019 19.6617 25.4807 19.7379 25.439L21.9999 24.196L24.2609 25.437L24.3349 25.471C24.4169 25.5 24.505 25.5071 24.5905 25.4917C24.6761 25.4762 24.7561 25.4387 24.8227 25.3829C24.8894 25.327 24.9403 25.2548 24.9705 25.1733C25.0007 25.0918 25.0091 25.0038 24.9949 24.918L24.5589 22.269L26.3569 20.441L26.4109 20.376C26.4595 20.3062 26.4894 20.2252 26.498 20.1406C26.5065 20.0561 26.4933 19.9707 26.4597 19.8926C26.4261 19.8146 26.3731 19.7463 26.3058 19.6944C26.2384 19.6425 26.159 19.6087 26.0749 19.596L23.6039 19.221L22.4519 16.785C22.4114 16.6994 22.3474 16.627 22.2674 16.5764C22.1874 16.5257 22.0946 16.4988 21.9999 16.4988C21.9052 16.4988 21.8124 16.5257 21.7324 16.5764C21.6524 16.627 21.5884 16.6994 21.5479 16.785L20.3949 19.221V19.222Z" fill="black"/>
</svg>
