<svg width="40" height="40" viewBox="0 0 40 40" fill="none" xmlns="http://www.w3.org/2000/svg">
<path d="M25.1226 24.4463H14.8776C14.766 24.4463 14.6565 24.4164 14.5603 24.3598C14.4642 24.3032 14.385 24.2219 14.3309 24.1243C14.2768 24.0267 14.2498 23.9164 14.2528 23.8049C14.2557 23.6934 14.2884 23.5846 14.3476 23.49L19.4701 15.2938C19.5262 15.2039 19.6044 15.1298 19.6971 15.0784C19.7898 15.027 19.8941 15 20.0001 15C20.1061 15 20.2103 15.027 20.303 15.0784C20.3958 15.1298 20.4739 15.2039 20.5301 15.2938L25.6526 23.49C25.7117 23.5846 25.7444 23.6934 25.7473 23.8049C25.7503 23.9164 25.7233 24.0267 25.6692 24.1243C25.6151 24.2219 25.5359 24.3032 25.4398 24.3598C25.3437 24.4164 25.2341 24.4463 25.1226 24.4463Z" fill="black"/>
</svg>
