<svg width="40" height="40" viewBox="0 0 40 40" fill="none" xmlns="http://www.w3.org/2000/svg">
<path d="M11.6161 11.6163C11.8505 11.382 12.1684 11.2503 12.4998 11.2503C12.8313 11.2503 13.1492 11.382 13.3836 11.6163L19.9998 18.2313L26.6161 11.6163C26.8313 11.4011 27.1177 11.2718 27.4215 11.2527C27.7253 11.2336 28.0256 11.326 28.2661 11.5126L28.3836 11.6163C28.6179 11.8507 28.7496 12.1686 28.7496 12.5001C28.7496 12.8315 28.6179 13.1494 28.3836 13.3838L21.7686 20.0001L28.3836 26.6163C28.5988 26.8316 28.7281 27.1179 28.7472 27.4217C28.7663 27.7255 28.6739 28.0258 28.4873 28.2663L28.3836 28.3838C28.1492 28.6182 27.8313 28.7498 27.4998 28.7498C27.1684 28.7498 26.8505 28.6182 26.6161 28.3838L19.9998 21.7688L13.3836 28.3838C13.1683 28.599 12.882 28.7283 12.5782 28.7474C12.2744 28.7665 11.9741 28.6741 11.7336 28.4876L11.6161 28.3838C11.3817 28.1494 11.2501 27.8315 11.2501 27.5001C11.2501 27.1686 11.3817 26.8507 11.6161 26.6163L18.2311 20.0001L11.6161 13.3838C11.4009 13.1686 11.2716 12.8822 11.2525 12.5784C11.2334 12.2746 11.3258 11.9743 11.5123 11.7338L11.6161 11.6163Z" fill="black"/>
</svg>
