<svg width="32" height="32" viewBox="0 0 32 32" fill="none" xmlns="http://www.w3.org/2000/svg">
<path d="M14.2928 7.28071C14.4814 7.09855 14.734 6.99776 14.9962 7.00004C15.2584 7.00232 15.5092 7.10749 15.6946 7.29289C15.88 7.4783 15.9852 7.72911 15.9875 7.99131C15.9897 8.25351 15.8889 8.50611 15.7068 8.69471L9.41379 14.9877H24.9998C25.2447 14.9877 25.4811 15.0777 25.6642 15.2404C25.8472 15.4032 25.9641 15.6275 25.9928 15.8707L25.9998 15.9877C25.9998 16.2529 25.8944 16.5073 25.7069 16.6948C25.5194 16.8824 25.265 16.9877 24.9998 16.9877H9.41379L15.7068 23.2807C15.879 23.4529 15.9824 23.682 15.9977 23.925C16.013 24.1681 15.939 24.4083 15.7898 24.6007L15.7068 24.6947C15.5193 24.8822 15.265 24.9875 14.9998 24.9875C14.7346 24.9875 14.4803 24.8822 14.2928 24.6947L6.29279 16.6947C6.10532 16.5072 6 16.2529 6 15.9877C6 15.7225 6.10532 15.4682 6.29279 15.2807L14.2928 7.28071Z" fill="black"/>
</svg>
