<svg width="40" height="40" viewBox="0 0 40 40" fill="none" xmlns="http://www.w3.org/2000/svg">
<path d="M20 6.25C27.5938 6.25 33.75 12.4062 33.75 20C33.75 27.5938 27.5938 33.75 20 33.75C12.4062 33.75 6.25 27.5938 6.25 20C6.25 12.4062 12.4062 6.25 20 6.25ZM16.5463 25.21L16.465 25.3037L12.9775 28.7913C14.9698 30.387 17.4474 31.2544 20 31.25C22.5523 31.2538 25.0294 30.3859 27.0213 28.79L23.535 25.3025L23.4538 25.21C22.4305 25.8901 21.2287 26.252 20 26.25C18.7713 26.252 17.5695 25.8901 16.5463 25.21ZM28.79 12.9788L25.3025 16.465L25.21 16.5463C25.8675 17.5375 26.25 18.725 26.25 20C26.252 21.2287 25.8901 22.4305 25.21 23.4538C25.2425 23.4788 25.2738 23.5062 25.3037 23.535L28.7913 27.0225C30.387 25.0302 31.2544 22.5526 31.25 20C31.2538 17.4477 30.3859 14.9706 28.79 12.9788ZM8.75 20C8.75 22.6562 9.67 25.0975 11.21 27.0213L14.6975 23.535L14.79 23.4538C14.1099 22.4305 13.748 21.2287 13.75 20C13.75 18.7238 14.1325 17.5363 14.79 16.5463C14.757 16.5213 14.7257 16.4941 14.6962 16.465L11.2087 12.9775C9.61303 14.9698 8.74558 17.4474 8.75 20ZM20 16.25C19.0054 16.25 18.0516 16.6451 17.3483 17.3483C16.6451 18.0516 16.25 19.0054 16.25 20C16.25 20.9946 16.6451 21.9484 17.3483 22.6517C18.0516 23.3549 19.0054 23.75 20 23.75C20.9946 23.75 21.9484 23.3549 22.6517 22.6517C23.3549 21.9484 23.75 20.9946 23.75 20C23.75 19.0054 23.3549 18.0516 22.6517 17.3483C21.9484 16.6451 20.9946 16.25 20 16.25ZM20 8.75C17.4477 8.74621 14.9706 9.6141 12.9788 11.21L16.465 14.6975L16.5463 14.79C17.5695 14.1099 18.7713 13.748 20 13.75C21.2762 13.75 22.4638 14.1325 23.4538 14.79L23.535 14.6962L27.0225 11.2087C25.0302 9.61303 22.5526 8.74558 20 8.75Z" fill="black"/>
</svg>
