<svg width="24" height="24" viewBox="0 0 24 24" fill="none" xmlns="http://www.w3.org/2000/svg">
<path d="M20.0477 11.9978C20.1907 12.2445 20.2605 12.5268 20.2488 12.8117C20.2371 13.0967 20.1445 13.3724 19.9817 13.6065C17.9702 16.4985 15.2679 18 12.0002 18C11.1264 18 10.2932 17.8928 9.50267 17.6798L10.7702 16.4123C11.1677 16.4708 11.5779 16.5 12.0002 16.5C14.7617 16.5 17.0117 15.2498 18.7502 12.75C18.1832 11.772 17.5622 10.9538 16.8872 10.2945L17.9477 9.23551C18.7179 9.99001 19.4192 10.9133 20.0477 11.9978ZM17.3034 6.69751C17.444 6.83816 17.523 7.02889 17.523 7.22776C17.523 7.42664 17.444 7.61737 17.3034 7.75801L7.75742 17.3033C7.61597 17.4399 7.42651 17.5155 7.22987 17.5138C7.03322 17.5121 6.84511 17.4332 6.70605 17.2941C6.567 17.1551 6.48812 16.967 6.48641 16.7703C6.4847 16.5737 6.5603 16.3842 6.69692 16.2428L16.2429 6.69676C16.3836 6.55616 16.5743 6.47717 16.7732 6.47717C16.972 6.47717 17.1628 6.55616 17.3034 6.69676V6.69751ZM12.0002 6.75001C12.6452 6.75001 13.2677 6.81751 13.8662 6.95251L12.5477 8.27026C12.3655 8.25672 12.1829 8.24997 12.0002 8.25001C9.23867 8.25001 6.98867 9.75001 5.25017 12.75C5.65142 13.3275 6.08042 13.8375 6.53642 14.2815L5.47517 15.342C4.93569 14.8108 4.44775 14.2297 4.01792 13.6065C3.85513 13.3724 3.76246 13.0967 3.75077 12.8117C3.73908 12.5268 3.80886 12.2445 3.95192 11.9978C5.94317 8.56276 8.66267 6.75001 12.0002 6.75001ZM12.1892 14.994L14.9942 12.189C14.9481 12.9179 14.6378 13.6049 14.1215 14.1213C13.6051 14.6377 12.918 14.948 12.1892 14.994ZM11.8119 9.00601L9.00617 11.811C9.05221 11.082 9.36261 10.3949 9.87917 9.87849C10.3957 9.36208 11.0829 9.05186 11.8119 9.00601Z" fill="black"/>
</svg>
