<svg width="32" height="32" viewBox="0 0 32 32" fill="none" xmlns="http://www.w3.org/2000/svg">
<path d="M25.066 21C25.1564 21 25.2452 21.0246 25.3228 21.0711C25.4003 21.1176 25.4639 21.1843 25.5065 21.264C25.5492 21.3437 25.5695 21.4336 25.5652 21.5239C25.5608 21.6142 25.5321 21.7017 25.482 21.777L22.416 26.376C22.3703 26.4445 22.3085 26.5006 22.2359 26.5395C22.1633 26.5783 22.0823 26.5986 22 26.5986C21.9177 26.5986 21.8367 26.5783 21.7641 26.5395C21.6915 26.5006 21.6297 26.4445 21.584 26.376L18.518 21.777C18.4679 21.7017 18.4392 21.6142 18.4348 21.5239C18.4305 21.4336 18.4508 21.3437 18.4935 21.264C18.5361 21.1843 18.5997 21.1176 18.6772 21.0711C18.7548 21.0246 18.8436 21 18.934 21H25.066ZM14 21C14.2652 21 14.5196 21.1054 14.7071 21.2929C14.8946 21.4804 15 21.7348 15 22C15 22.2652 14.8946 22.5196 14.7071 22.7071C14.5196 22.8946 14.2652 23 14 23H8C7.73478 23 7.48043 22.8946 7.29289 22.7071C7.10536 22.5196 7 22.2652 7 22C7 21.7348 7.10536 21.4804 7.29289 21.2929C7.48043 21.1054 7.73478 21 8 21H14ZM20 15C20.2652 15 20.5196 15.1054 20.7071 15.2929C20.8946 15.4804 21 15.7348 21 16C21 16.2652 20.8946 16.5196 20.7071 16.7071C20.5196 16.8946 20.2652 17 20 17H8C7.73478 17 7.48043 16.8946 7.29289 16.7071C7.10536 16.5196 7 16.2652 7 16C7 15.7348 7.10536 15.4804 7.29289 15.2929C7.48043 15.1054 7.73478 15 8 15H20ZM24 9C24.2652 9 24.5196 9.10536 24.7071 9.29289C24.8946 9.48043 25 9.73478 25 10C25 10.2652 24.8946 10.5196 24.7071 10.7071C24.5196 10.8946 24.2652 11 24 11H8C7.73478 11 7.48043 10.8946 7.29289 10.7071C7.10536 10.5196 7 10.2652 7 10C7 9.73478 7.10536 9.48043 7.29289 9.29289C7.48043 9.10536 7.73478 9 8 9H24Z" fill="black"/>
</svg>
