<svg width="40" height="40" viewBox="0 0 40 40" fill="none" xmlns="http://www.w3.org/2000/svg">
<path d="M22.5125 7.5C23.8913 7.5 25 8.62125 25 10.0125V12.5H31.25C31.5562 12.5 31.8517 12.6124 32.0805 12.8159C32.3093 13.0193 32.4554 13.2997 32.4912 13.6038L32.5 13.75C32.5 14.0562 32.3876 14.3517 32.1841 14.5805C31.9807 14.8093 31.7003 14.9554 31.3963 14.9913L31.25 15H30V29.9912C30.0002 30.3207 29.9354 30.6471 29.8094 30.9515C29.6833 31.256 29.4986 31.5326 29.2656 31.7656C29.0326 31.9986 28.756 32.1833 28.4515 32.3094C28.1471 32.4354 27.8207 32.5002 27.4912 32.5H12.5087C12.1793 32.5002 11.8529 32.4354 11.5485 32.3094C11.244 32.1833 10.9674 31.9986 10.7344 31.7656C10.5014 31.5326 10.3167 31.256 10.1906 30.9515C10.0646 30.6471 9.99984 30.3207 10 29.9912V15H8.75C8.44383 15 8.14833 14.8876 7.91954 14.6841C7.69074 14.4807 7.54457 14.2003 7.50875 13.8962L7.5 13.75C7.50004 13.4438 7.61244 13.1483 7.81589 12.9195C8.01934 12.6907 8.29969 12.5446 8.60375 12.5087L8.75 12.5H15V10.0125C15 8.63 16.1163 7.5 17.4875 7.5H22.5125ZM27.5 15.0087L12.5087 15L12.5 29.9912L27.4912 30L27.5 15.0087ZM16.25 17.5C16.5562 17.5 16.8517 17.6124 17.0805 17.8159C17.3093 18.0193 17.4554 18.2997 17.4913 18.6038L17.5 18.75V26.25C17.4996 26.5686 17.3777 26.875 17.1589 27.1067C16.9402 27.3384 16.6413 27.4778 16.3233 27.4965C16.0052 27.5151 15.692 27.4117 15.4477 27.2072C15.2034 27.0027 15.0464 26.7126 15.0087 26.3963L15 26.25V18.75C15 18.4185 15.1317 18.1005 15.3661 17.8661C15.6005 17.6317 15.9185 17.5 16.25 17.5ZM23.75 17.5C24.0562 17.5 24.3517 17.6124 24.5805 17.8159C24.8093 18.0193 24.9554 18.2997 24.9912 18.6038L25 18.75V26.25C24.9996 26.5686 24.8777 26.875 24.6589 27.1067C24.4402 27.3384 24.1413 27.4778 23.8233 27.4965C23.5052 27.5151 23.192 27.4117 22.9477 27.2072C22.7034 27.0027 22.5464 26.7126 22.5087 26.3963L22.5 26.25V18.75C22.5 18.4185 22.6317 18.1005 22.8661 17.8661C23.1005 17.6317 23.4185 17.5 23.75 17.5ZM22.5025 10H17.4888L17.495 10.205L17.5 12.4888C17.5 12.495 17.5 12.4988 17.4975 12.5H22.5113L22.5 12.4962V10.0125C22.5 10.0063 22.5 10.0025 22.5025 10.0013V10Z" fill="black"/>
</svg>
