<svg width="40" height="40" viewBox="0 0 40 40" fill="none" xmlns="http://www.w3.org/2000/svg">
<path d="M11.0335 21.8C10.8267 21.8748 10.6388 21.9942 10.4833 22.1498C10.3278 22.3053 10.2083 22.4931 10.1335 22.7C10.0123 23.0028 9.98258 23.3346 10.0481 23.6542C10.1137 23.9738 10.2716 24.2671 10.5023 24.4978C10.733 24.7285 11.0263 24.8864 11.3459 24.952C11.6655 25.0175 11.9973 24.9879 12.3002 24.8666C12.5021 24.7822 12.6882 24.6638 12.8502 24.5166C12.9974 24.3546 13.1158 24.1686 13.2002 23.9666C13.2935 23.7688 13.3391 23.5519 13.3335 23.3333C13.3274 22.892 13.1547 22.4693 12.8502 22.15C12.6158 21.9187 12.3182 21.762 11.9949 21.6997C11.6715 21.6375 11.337 21.6723 11.0335 21.8ZM32.9335 15.1333L30.6668 8.41662C30.3211 7.43867 29.6797 6.59246 28.8317 5.99522C27.9836 5.39799 26.9708 5.07929 25.9335 5.08329H14.0668C13.0296 5.07929 12.0167 5.39799 11.1687 5.99522C10.3206 6.59246 9.67924 7.43867 9.3335 8.41662L7.06683 15.1833C6.00071 15.4625 5.05669 16.0861 4.38155 16.9571C3.7064 17.8282 3.33796 18.8979 3.3335 20V26.6666C3.3364 27.6982 3.65829 28.7036 4.25506 29.5451C4.85183 30.3865 5.69425 31.0228 6.66683 31.3666V33.3333C6.66683 33.7753 6.84242 34.1992 7.15499 34.5118C7.46755 34.8244 7.89147 35 8.3335 35C8.77552 35 9.19945 34.8244 9.51201 34.5118C9.82457 34.1992 10.0002 33.7753 10.0002 33.3333V31.6666H30.0002V33.3333C30.0002 33.7753 30.1758 34.1992 30.4883 34.5118C30.8009 34.8244 31.2248 35 31.6668 35C32.1089 35 32.5328 34.8244 32.8453 34.5118C33.1579 34.1992 33.3335 33.7753 33.3335 33.3333V31.3666C34.3061 31.0228 35.1485 30.3865 35.7453 29.5451C36.342 28.7036 36.6639 27.6982 36.6668 26.6666V20C36.6624 18.8979 36.2939 17.8282 35.6188 16.9571C34.9436 16.0861 33.9996 15.4625 32.9335 15.1833V15.1333ZM12.4835 9.46662C12.5953 9.13559 12.8083 8.84806 13.0924 8.64469C13.3766 8.44132 13.7174 8.33239 14.0668 8.33329H25.9335C26.2969 8.31432 26.6566 8.41483 26.9576 8.61948C27.2585 8.82413 27.4842 9.12165 27.6002 9.46662L29.3502 15H10.6502L12.4835 9.46662ZM33.3335 26.6666C33.3335 27.1087 33.1579 27.5326 32.8453 27.8451C32.5328 28.1577 32.1089 28.3333 31.6668 28.3333H8.3335C7.89147 28.3333 7.46755 28.1577 7.15499 27.8451C6.84242 27.5326 6.66683 27.1087 6.66683 26.6666V20C6.66683 19.5579 6.84242 19.134 7.15499 18.8214C7.46755 18.5089 7.89147 18.3333 8.3335 18.3333H31.6668C32.1089 18.3333 32.5328 18.5089 32.8453 18.8214C33.1579 19.134 33.3335 19.5579 33.3335 20V26.6666ZM27.7002 21.8C27.4933 21.8748 27.3055 21.9942 27.15 22.1498C26.9944 22.3053 26.875 22.4931 26.8002 22.7C26.6789 23.0028 26.6492 23.3346 26.7148 23.6542C26.7804 23.9738 26.9383 24.2671 27.169 24.4978C27.3997 24.7285 27.693 24.8864 28.0126 24.952C28.3322 25.0175 28.6639 24.9879 28.9668 24.8666C29.1737 24.7918 29.3615 24.6723 29.517 24.5168C29.6726 24.3613 29.792 24.1735 29.8668 23.9666C29.9601 23.7688 30.0058 23.5519 30.0002 23.3333C29.994 22.892 29.8214 22.4693 29.5168 22.15C29.2825 21.9187 28.9848 21.762 28.6615 21.6997C28.3382 21.6375 28.0037 21.6723 27.7002 21.8ZM21.6668 21.6666H18.3335C17.8915 21.6666 17.4675 21.8422 17.155 22.1548C16.8424 22.4673 16.6668 22.8913 16.6668 23.3333C16.6668 23.7753 16.8424 24.1992 17.155 24.5118C17.4675 24.8244 17.8915 25 18.3335 25H21.6668C22.1089 25 22.5328 24.8244 22.8453 24.5118C23.1579 24.1992 23.3335 23.7753 23.3335 23.3333C23.3335 22.8913 23.1579 22.4673 22.8453 22.1548C22.5328 21.8422 22.1089 21.6666 21.6668 21.6666Z" fill="#11161A"/>
</svg>
