<svg width="24" height="24" viewBox="0 0 24 24" fill="none" xmlns="http://www.w3.org/2000/svg">
<path d="M13.5075 4.5C14.3348 4.5 15 5.17275 15 6.0075V7.5H18.75C18.9337 7.50002 19.111 7.56747 19.2483 7.68954C19.3856 7.81161 19.4733 7.97981 19.4948 8.16225L19.5 8.25C19.5 8.4337 19.4325 8.611 19.3105 8.74828C19.1884 8.88556 19.0202 8.97326 18.8378 8.99475L18.75 9H18V17.9948C18.0001 18.1924 17.9612 18.3882 17.8856 18.5709C17.81 18.7536 17.6991 18.9195 17.5593 19.0593C17.4195 19.1991 17.2536 19.31 17.0709 19.3856C16.8882 19.4612 16.6924 19.5001 16.4948 19.5H7.50525C7.30755 19.5001 7.11177 19.4612 6.9291 19.3856C6.74643 19.31 6.58045 19.1991 6.44066 19.0593C6.30086 18.9195 6.18999 18.7536 6.11438 18.5709C6.03877 18.3882 5.9999 18.1924 6 17.9948V9H5.25C5.0663 8.99998 4.889 8.93253 4.75172 8.81046C4.61444 8.68839 4.52674 8.52019 4.50525 8.33775L4.5 8.25C4.50002 8.0663 4.56747 7.889 4.68954 7.75172C4.81161 7.61444 4.97981 7.52674 5.16225 7.50525L5.25 7.5H9V6.0075C9 5.178 9.66975 4.5 10.4925 4.5H13.5075ZM16.5 9.00525L7.50525 9L7.5 17.9948L16.4948 18L16.5 9.00525ZM9.75 10.5C9.9337 10.5 10.111 10.5675 10.2483 10.6895C10.3856 10.8116 10.4733 10.9798 10.4948 11.1623L10.5 11.25V15.75C10.4998 15.9412 10.4266 16.125 10.2954 16.264C10.1641 16.403 9.98479 16.4867 9.79395 16.4979C9.60312 16.5091 9.41522 16.447 9.26863 16.3243C9.12204 16.2016 9.02783 16.0276 9.00525 15.8378L9 15.75V11.25C9 11.0511 9.07902 10.8603 9.21967 10.7197C9.36032 10.579 9.55109 10.5 9.75 10.5ZM14.25 10.5C14.4337 10.5 14.611 10.5675 14.7483 10.6895C14.8856 10.8116 14.9733 10.9798 14.9948 11.1623L15 11.25V15.75C14.9998 15.9412 14.9266 16.125 14.7954 16.264C14.6641 16.403 14.4848 16.4867 14.294 16.4979C14.1031 16.5091 13.9152 16.447 13.7686 16.3243C13.622 16.2016 13.5278 16.0276 13.5052 15.8378L13.5 15.75V11.25C13.5 11.0511 13.579 10.8603 13.7197 10.7197C13.8603 10.579 14.0511 10.5 14.25 10.5ZM13.5015 6H10.4932L10.497 6.123L10.5 7.49325C10.5 7.497 10.5 7.49925 10.4985 7.5H13.5068L13.5 7.49775V6.0075C13.5 6.00375 13.5 6.0015 13.5015 6.00075V6Z" fill="black"/>
</svg>
