<svg width="40" height="40" viewBox="0 0 40 40" fill="none" xmlns="http://www.w3.org/2000/svg">
<path d="M13.125 15C13.9695 15 14.796 15.2444 15.5046 15.7038C16.2133 16.1631 16.7738 16.8178 17.1187 17.5887C17.4635 18.3596 17.5778 19.2138 17.4478 20.0483C17.3179 20.8827 16.9492 21.6617 16.3863 22.2913C17.1178 22.8109 17.7141 23.4983 18.1254 24.2958C18.5366 25.0933 18.7508 25.9777 18.75 26.875V30C18.75 30.663 18.4866 31.2989 18.0178 31.7678C17.5489 32.2366 16.913 32.5 16.25 32.5H10C9.33696 32.5 8.70107 32.2366 8.23223 31.7678C7.76339 31.2989 7.5 30.663 7.5 30V26.875C7.5 24.9837 8.4325 23.3113 9.8625 22.2913C9.2995 21.6616 8.93079 20.8825 8.80087 20.048C8.67095 19.2134 8.78539 18.3591 9.13035 17.5881C9.47532 16.8172 10.0361 16.1625 10.7449 15.7033C11.4538 15.244 12.2804 14.9998 13.125 15ZM13.125 23.75C12.2962 23.75 11.5013 24.0792 10.9153 24.6653C10.3292 25.2513 10 26.0462 10 26.875V30H16.25V26.875C16.25 26.0462 15.9208 25.2513 15.3347 24.6653C14.7487 24.0792 13.9538 23.75 13.125 23.75ZM28.75 7.5C30.69 7.5 32.5 9.31 32.5 11.25V17.5C32.5 19.44 30.69 21.25 28.75 21.25H25.3787L21.9438 23.54C21.7555 23.6656 21.5367 23.7377 21.3106 23.7487C21.0846 23.7597 20.8598 23.7091 20.6603 23.6023C20.4608 23.4956 20.2939 23.3367 20.1777 23.1425C20.0614 22.9484 20 22.7263 20 22.5V20C20 19.6685 20.1317 19.3505 20.3661 19.1161C20.6005 18.8817 20.9185 18.75 21.25 18.75C21.5815 18.75 21.8995 18.8817 22.1339 19.1161C22.3683 19.3505 22.5 19.6685 22.5 20V20.1638L24.3062 18.96C24.5117 18.823 24.7531 18.7499 25 18.75H28.75C29.31 18.75 30 18.06 30 17.5V11.25C30 10.69 29.31 10 28.75 10H18.75C18.19 10 17.5 10.69 17.5 11.25V12.5C17.5 12.8315 17.3683 13.1495 17.1339 13.3839C16.8995 13.6183 16.5815 13.75 16.25 13.75C15.9185 13.75 15.6005 13.6183 15.3661 13.3839C15.1317 13.1495 15 12.8315 15 12.5V11.25C15 9.31 16.81 7.5 18.75 7.5H28.75ZM13.125 17.5C12.6277 17.5 12.1508 17.6975 11.7992 18.0492C11.4475 18.4008 11.25 18.8777 11.25 19.375C11.25 19.8723 11.4475 20.3492 11.7992 20.7008C12.1508 21.0525 12.6277 21.25 13.125 21.25C13.6223 21.25 14.0992 21.0525 14.4508 20.7008C14.8025 20.3492 15 19.8723 15 19.375C15 18.8777 14.8025 18.4008 14.4508 18.0492C14.0992 17.6975 13.6223 17.5 13.125 17.5Z" fill="black"/>
</svg>
