<svg width="40" height="40" viewBox="0 0 40 40" fill="none" xmlns="http://www.w3.org/2000/svg">
<path d="M13.3332 27.5002C13.0035 27.5002 12.6813 27.5979 12.4072 27.781C12.1331 27.9642 11.9195 28.2245 11.7934 28.529C11.6672 28.8336 11.6342 29.1687 11.6985 29.492C11.7628 29.8153 11.9216 30.1123 12.1547 30.3453C12.3877 30.5784 12.6847 30.7372 13.008 30.8015C13.3313 30.8658 13.6664 30.8328 13.971 30.7066C14.2755 30.5805 14.5358 30.3669 14.719 30.0928C14.9021 29.8187 14.9998 29.4965 14.9998 29.1668C14.9998 28.7248 14.8242 28.3009 14.5117 27.9883C14.1991 27.6758 13.7752 27.5002 13.3332 27.5002ZM19.9998 3.3335C13.3332 3.3335 6.6665 5.61683 6.6665 10.0002V30.0002C6.6665 34.3835 13.3332 36.6668 19.9998 36.6668C26.6665 36.6668 33.3332 34.3835 33.3332 30.0002V10.0002C33.3332 5.61683 26.6665 3.3335 19.9998 3.3335ZM29.9998 30.0002C29.9998 31.1835 26.1998 33.3335 19.9998 33.3335C13.7998 33.3335 9.99984 31.1835 9.99984 30.0002V24.5502C13.12 26.0334 16.5463 26.7587 19.9998 26.6668C23.4533 26.7587 26.8797 26.0334 29.9998 24.5502V30.0002ZM29.9998 20.0002C29.9998 21.1835 26.1998 23.3335 19.9998 23.3335C13.7998 23.3335 9.99984 21.1835 9.99984 20.0002V14.5502C13.12 16.0334 16.5463 16.7587 19.9998 16.6668C23.4533 16.7587 26.8797 16.0334 29.9998 14.5502V20.0002ZM19.9998 13.3335C13.7998 13.3335 9.99984 11.1835 9.99984 10.0002C9.99984 8.81683 13.7998 6.66683 19.9998 6.66683C26.1998 6.66683 29.9998 8.81683 29.9998 10.0002C29.9998 11.1835 26.1998 13.3335 19.9998 13.3335ZM13.3332 17.5002C13.0035 17.5002 12.6813 17.5979 12.4072 17.781C12.1331 17.9642 11.9195 18.2245 11.7934 18.529C11.6672 18.8336 11.6342 19.1687 11.6985 19.492C11.7628 19.8153 11.9216 20.1123 12.1547 20.3453C12.3877 20.5784 12.6847 20.7372 13.008 20.8015C13.3313 20.8658 13.6664 20.8328 13.971 20.7066C14.2755 20.5805 14.5358 20.3669 14.719 20.0928C14.9021 19.8187 14.9998 19.4965 14.9998 19.1668C14.9998 18.7248 14.8242 18.3009 14.5117 17.9883C14.1991 17.6758 13.7752 17.5002 13.3332 17.5002Z" fill="#11161A"/>
</svg>
