<svg width="32" height="32" viewBox="0 0 32 32" fill="none" xmlns="http://www.w3.org/2000/svg">
<path d="M16 7C16.2652 7 16.5196 7.10536 16.7071 7.29289C16.8946 7.48043 17 7.73478 17 8V15H24C24.2449 15 24.4813 15.09 24.6644 15.2527C24.8474 15.4155 24.9643 15.6397 24.993 15.883L25 16C25 16.2652 24.8946 16.5196 24.7071 16.7071C24.5196 16.8946 24.2652 17 24 17H17V24C17 24.2449 16.91 24.4813 16.7473 24.6644C16.5845 24.8474 16.3603 24.9643 16.117 24.993L16 25C15.7348 25 15.4804 24.8946 15.2929 24.7071C15.1054 24.5196 15 24.2652 15 24V17H8C7.75507 17 7.51866 16.91 7.33563 16.7473C7.15259 16.5845 7.03566 16.3603 7.007 16.117L7 16C7 15.7348 7.10536 15.4804 7.29289 15.2929C7.48043 15.1054 7.73478 15 8 15H15V8C15 7.75507 15.09 7.51866 15.2527 7.33563C15.4155 7.15259 15.6397 7.03566 15.883 7.007L16 7Z" fill="black"/>
</svg>
