<svg width="40" height="40" viewBox="0 0 40 40" fill="none" xmlns="http://www.w3.org/2000/svg">
<path d="M16.3188 36.6562L16.2962 36.59C16.2663 36.4877 16.2507 36.3816 16.25 36.275V31.25C15.2006 30.4629 14.4254 29.3656 14.0343 28.1135C13.6432 26.8614 13.6559 25.518 14.0707 24.2736C14.4855 23.0291 15.2814 21.9467 16.3456 21.1797C17.4097 20.4127 18.6882 20 20 20C21.3118 20 22.5903 20.4127 23.6544 21.1797C24.7186 21.9467 25.5145 23.0291 25.9293 24.2736C26.3441 25.518 26.3568 26.8614 25.9657 28.1135C25.5746 29.3656 24.7994 30.4629 23.75 31.25V31.2463V36.25L23.7488 36.275V36.3C23.7481 36.3229 23.7469 36.3459 23.745 36.3687V36.3475L23.735 36.4438C23.7279 36.4932 23.7175 36.542 23.7037 36.59L23.6875 36.64C23.6779 36.67 23.6671 36.6996 23.655 36.7287L23.6488 36.7438L23.6362 36.7725C23.6207 36.8066 23.6036 36.84 23.585 36.8725L23.5925 36.855L23.5713 36.895C23.5555 36.921 23.5389 36.9465 23.5212 36.9712L23.4838 37.0225C23.4713 37.035 23.4613 37.05 23.45 37.0625L23.4212 37.095L23.3925 37.1263C23.3449 37.1719 23.2948 37.2149 23.2425 37.255C23.1876 37.2964 23.129 37.3328 23.0675 37.3638L22.9862 37.4012C22.9308 37.4227 22.8745 37.4419 22.8175 37.4587L22.7863 37.4675L22.7413 37.4763C22.6704 37.4904 22.5985 37.4983 22.5262 37.5H22.5L22.4025 37.4963L22.3975 37.495L22.5 37.5H22.4513C22.4279 37.499 22.4045 37.4973 22.3813 37.495H22.3975L22.3062 37.485C22.2568 37.4779 22.208 37.4675 22.16 37.4537L22.11 37.4375C22.0778 37.4272 22.0461 37.4156 22.015 37.4025L21.9913 37.3925L20 36.505L18.0087 37.3925L17.9062 37.43L17.84 37.4537C17.7457 37.4811 17.6482 37.4962 17.55 37.4988H17.525L17.5 37.5C17.4032 37.5002 17.3068 37.4893 17.2125 37.4675L17.1825 37.4587C17.125 37.4436 17.0686 37.4244 17.0138 37.4012L16.9325 37.3638C16.8944 37.3432 16.8569 37.3215 16.82 37.2988C16.7987 37.2848 16.7779 37.2702 16.7575 37.255L16.7087 37.2175L16.655 37.1712L16.63 37.1488L16.6075 37.125C16.5753 37.0928 16.5453 37.0586 16.5175 37.0225L16.48 36.9725C16.4355 36.9093 16.3966 36.8424 16.3637 36.7725L16.3575 36.7587L16.3513 36.7425L16.345 36.73L16.3275 36.6838L16.3462 36.7287L16.3188 36.6562ZM21.2512 32.375C20.4259 32.5427 19.5753 32.5427 18.75 32.375V34.3237L19.275 34.0913C19.5023 33.9898 19.7549 33.9589 20 34.0025C20.2451 33.9587 20.4977 33.9896 20.725 34.0913L21.25 34.325L21.2512 32.375ZM31.25 7.5C32.2065 7.49995 33.1269 7.86541 33.8228 8.5216C34.5188 9.1778 34.9376 10.0751 34.9938 11.03L35 11.25V26.25C35.0001 27.2065 34.6346 28.1269 33.9784 28.8228C33.3222 29.5188 32.4249 29.9376 31.47 29.9938L31.25 30H28.75L28.6037 29.9912C28.2999 29.9551 28.0199 29.8088 27.8168 29.58C27.6136 29.3513 27.5014 29.056 27.5014 28.75C27.5014 28.444 27.6136 28.1487 27.8168 27.92C28.0199 27.6912 28.2999 27.5449 28.6037 27.5088L28.75 27.5H31.25C31.5562 27.5 31.8517 27.3876 32.0805 27.1841C32.3093 26.9807 32.4554 26.7003 32.4912 26.3963L32.5 26.25V11.25C32.5 10.9438 32.3876 10.6483 32.1841 10.4195C31.9807 10.1907 31.7003 10.0446 31.3963 10.0087L31.25 10H8.75C8.44383 10 8.14833 10.1124 7.91954 10.3159C7.69074 10.5193 7.54457 10.7997 7.50875 11.1038L7.5 11.25V26.25C7.50004 26.5562 7.61244 26.8517 7.81589 27.0805C8.01934 27.3093 8.29969 27.4554 8.60375 27.4912L8.75 27.5H11.25C11.5686 27.5004 11.875 27.6223 12.1067 27.8411C12.3384 28.0598 12.4778 28.3587 12.4965 28.6767C12.5151 28.9948 12.4117 29.308 12.2072 29.5523C12.0027 29.7966 11.7126 29.9536 11.3962 29.9912L11.25 30H8.75C7.79349 30.0001 6.87311 29.6346 6.17717 28.9784C5.48124 28.3222 5.06237 27.4249 5.00625 26.47L5 26.25V11.25C4.99995 10.2935 5.36541 9.37311 6.0216 8.67717C6.6778 7.98124 7.57513 7.56237 8.53 7.50625L8.75 7.5H31.25ZM20 22.5C19.0054 22.5 18.0516 22.8951 17.3483 23.5983C16.6451 24.3016 16.25 25.2554 16.25 26.25C16.25 27.2446 16.6451 28.1984 17.3483 28.9017C18.0516 29.6049 19.0054 30 20 30C20.9946 30 21.9484 29.6049 22.6517 28.9017C23.3549 28.1984 23.75 27.2446 23.75 26.25C23.75 25.2554 23.3549 24.3016 22.6517 23.5983C21.9484 22.8951 20.9946 22.5 20 22.5ZM29.375 20C29.5408 20 29.6997 20.0658 29.8169 20.1831C29.9342 20.3003 30 20.4592 30 20.625C30 20.7908 29.9342 20.9497 29.8169 21.0669C29.6997 21.1842 29.5408 21.25 29.375 21.25H28.125C27.9592 21.25 27.8003 21.1842 27.6831 21.0669C27.5658 20.9497 27.5 20.7908 27.5 20.625C27.5 20.4592 27.5658 20.3003 27.6831 20.1831C27.8003 20.0658 27.9592 20 28.125 20H29.375ZM11.875 20C12.0408 20 12.1997 20.0658 12.3169 20.1831C12.4342 20.3003 12.5 20.4592 12.5 20.625C12.5 20.7908 12.4342 20.9497 12.3169 21.0669C12.1997 21.1842 12.0408 21.25 11.875 21.25H10.625C10.4592 21.25 10.3003 21.1842 10.1831 21.0669C10.0658 20.9497 10 20.7908 10 20.625C10 20.4592 10.0658 20.3003 10.1831 20.1831C10.3003 20.0658 10.4592 20 10.625 20H11.875ZM18.125 16.25C18.2908 16.25 18.4497 16.3158 18.5669 16.4331C18.6842 16.5503 18.75 16.7092 18.75 16.875C18.75 17.0408 18.6842 17.1997 18.5669 17.3169C18.4497 17.4342 18.2908 17.5 18.125 17.5H10.625C10.4592 17.5 10.3003 17.4342 10.1831 17.3169C10.0658 17.1997 10 17.0408 10 16.875C10 16.7092 10.0658 16.5503 10.1831 16.4331C10.3003 16.3158 10.4592 16.25 10.625 16.25H18.125ZM29.375 16.25C29.5408 16.25 29.6997 16.3158 29.8169 16.4331C29.9342 16.5503 30 16.7092 30 16.875C30 17.0408 29.9342 17.1997 29.8169 17.3169C29.6997 17.4342 29.5408 17.5 29.375 17.5H21.875C21.7092 17.5 21.5503 17.4342 21.4331 17.3169C21.3158 17.1997 21.25 17.0408 21.25 16.875C21.25 16.7092 21.3158 16.5503 21.4331 16.4331C21.5503 16.3158 21.7092 16.25 21.875 16.25H29.375ZM29.375 12.5C29.5408 12.5 29.6997 12.5658 29.8169 12.6831C29.9342 12.8003 30 12.9592 30 13.125C30 13.2908 29.9342 13.4497 29.8169 13.5669C29.6997 13.6842 29.5408 13.75 29.375 13.75H10.625C10.4592 13.75 10.3003 13.6842 10.1831 13.5669C10.0658 13.4497 10 13.2908 10 13.125C10 12.9592 10.0658 12.8003 10.1831 12.6831C10.3003 12.5658 10.4592 12.5 10.625 12.5H29.375Z" fill="black"/>
</svg>
