<svg width="32" height="32" viewBox="0 0 32 32" fill="none" xmlns="http://www.w3.org/2000/svg">
<path d="M22 7C22.5304 7 23.0391 7.21071 23.4142 7.58579C23.7893 7.96086 24 8.46957 24 9V23C24 23.5304 23.7893 24.0391 23.4142 24.4142C23.0391 24.7893 22.5304 25 22 25H10C9.46957 25 8.96086 24.7893 8.58579 24.4142C8.21071 24.0391 8 23.5304 8 23V9C8 8.46957 8.21071 7.96086 8.58579 7.58579C8.96086 7.21071 9.46957 7 10 7H22ZM12.906 16.508L10 19.414V23H17.955L12.906 16.508ZM22 9H10V16.584L12.293 14.293C12.3932 14.1928 12.5136 14.1151 12.6462 14.0649C12.7788 14.0148 12.9205 13.9934 13.062 14.0022C13.2034 14.011 13.3414 14.0498 13.4667 14.1159C13.5921 14.1821 13.7019 14.2742 13.789 14.386L20.49 23H22V9ZM19 10C19.7956 10 20.5587 10.3161 21.1213 10.8787C21.6839 11.4413 22 12.2044 22 13C22 13.7956 21.6839 14.5587 21.1213 15.1213C20.5587 15.6839 19.7956 16 19 16C18.2044 16 17.4413 15.6839 16.8787 15.1213C16.3161 14.5587 16 13.7956 16 13C16 12.2044 16.3161 11.4413 16.8787 10.8787C17.4413 10.3161 18.2044 10 19 10ZM19 12C18.7348 12 18.4804 12.1054 18.2929 12.2929C18.1054 12.4804 18 12.7348 18 13C18 13.2652 18.1054 13.5196 18.2929 13.7071C18.4804 13.8946 18.7348 14 19 14C19.2652 14 19.5196 13.8946 19.7071 13.7071C19.8946 13.5196 20 13.2652 20 13C20 12.7348 19.8946 12.4804 19.7071 12.2929C19.5196 12.1054 19.2652 12 19 12Z" fill="black"/>
</svg>
