<svg width="32" height="32" viewBox="0 0 32 32" fill="none" xmlns="http://www.w3.org/2000/svg">
<path d="M16 6C17.0609 6 18.0783 6.42143 18.8284 7.17157C19.5786 7.92172 20 8.93913 20 10V13H21.993C22.2559 12.9991 22.5164 13.05 22.7596 13.1498C23.0028 13.2497 23.2239 13.3965 23.4103 13.5819C23.5967 13.7673 23.7448 13.9876 23.8459 14.2302C23.9471 14.4729 23.9995 14.7331 24 14.996V24.004C23.9995 24.2669 23.9471 24.5271 23.8459 24.7698C23.7448 25.0124 23.5967 25.2327 23.4103 25.4181C23.2239 25.6035 23.0028 25.7503 22.7596 25.8502C22.5164 25.95 22.2559 26.0009 21.993 26H10.007C9.7441 26.0009 9.48361 25.95 9.24041 25.8502C8.99721 25.7503 8.77608 25.6035 8.58967 25.4181C8.40327 25.2327 8.25524 25.0124 8.15406 24.7698C8.05287 24.5271 8.00052 24.2669 8 24.004V14.996C8.00052 14.7331 8.05287 14.4729 8.15406 14.2302C8.25524 13.9876 8.40327 13.7673 8.58967 13.5819C8.77608 13.3965 8.99721 13.2497 9.24041 13.1498C9.48361 13.05 9.7441 12.9991 10.007 13H12V10C12 8.93913 12.4214 7.92172 13.1716 7.17157C13.9217 6.42143 14.9391 6 16 6ZM22 14.996H21.603L21.467 14.997H20.537L20.307 14.998H18.396L18.09 15H10.188H10.007L10.006 15.05L10.005 15.296V15.562L10.004 15.722V16.298L10.003 16.518V17.248L10.002 17.51L10.001 19.209V19.502L10 24.004H10.397L10.533 24.003H11.463L11.693 24.002H13.604L13.91 24H21.812H21.993L21.994 23.95L21.995 23.704V23.438L21.996 23.278V22.702L21.997 22.482V21.752L21.998 21.49L21.999 19.791V19.498L22 15.008V14.996ZM16 17C16.552 17 17 17.444 17 18V22H15V18C15 17.448 15.444 17 16 17ZM16 8C15.4696 8 14.9609 8.21071 14.5858 8.58579C14.2107 8.96086 14 9.46957 14 10V13H18V10C18 9.46957 17.7893 8.96086 17.4142 8.58579C17.0391 8.21071 16.5304 8 16 8Z" fill="black"/>
</svg>
