<svg width="32" height="32" viewBox="0 0 32 32" fill="none" xmlns="http://www.w3.org/2000/svg">
<path d="M15.243 8.16009C15.4815 8.05485 15.7393 8.00049 16 8.00049C16.2607 8.00049 16.5185 8.05485 16.757 8.16009L27.379 12.8201C28.207 13.1831 28.207 14.4411 27.379 14.8051L26 15.4091L26.001 20.2991C26.213 20.3731 26.397 20.5221 26.523 20.7231L26.585 20.8391L27.085 21.9121C27.332 22.4421 27.132 23.0861 26.638 23.3511C26.5006 23.4251 26.3471 23.4639 26.191 23.4641H25.5C24.948 23.4641 24.5 22.9841 24.5 22.3911V21.3201C24.5 20.9231 24.701 20.5761 25 20.3901V15.8481L23 16.7261V19.5811C23 20.6841 22.474 21.7051 21.614 22.2931L21.449 22.3981C19.651 23.4611 17.831 24.0001 16 24.0001C14.17 24.0001 12.35 23.4611 10.55 22.3971C9.65001 21.8641 9.07101 20.8771 9.00601 19.7861L9.00001 19.5801V16.7251L4.62101 14.8051C3.83201 14.4581 3.79501 13.3011 4.50901 12.8771L4.62101 12.8191L15.243 8.16009ZM25.69 21.3191H25.5V22.3911H26.191L25.691 21.3191H25.69ZM21 17.6021L16.757 19.4641C16.5185 19.5693 16.2607 19.6237 16 19.6237C15.7393 19.6237 15.4815 19.5693 15.243 19.4641L11 17.6031V19.5801C11 19.8841 11.12 20.1701 11.323 20.3701L11.415 20.4501L11.517 20.5201C13.029 21.4141 14.52 21.8551 16 21.8551C17.48 21.8551 18.97 21.4151 20.483 20.5191C20.767 20.3511 20.955 20.0491 20.993 19.7091L21 19.5801V17.6021ZM15.999 10.1441L7.64101 13.8121L15.999 17.4791L24.358 13.8121L15.999 10.1441Z" fill="black"/>
</svg>
