<svg width="40" height="40" viewBox="0 0 40 40" fill="none" xmlns="http://www.w3.org/2000/svg">
<path d="M22.3537 32.4912C22.0374 32.4536 21.7473 32.2966 21.5428 32.0523C21.3383 31.808 21.2349 31.4948 21.2535 31.1767C21.2722 30.8587 21.4116 30.5598 21.6433 30.3411C21.875 30.1223 22.1814 30.0004 22.5 30H27.5V18.75H20.9375C20.3573 18.75 19.8009 18.5195 19.3907 18.1093C18.9805 17.6991 18.75 17.1427 18.75 16.5625V10H12.5V20C12.5 20.3315 12.3683 20.6495 12.1339 20.8839C11.8995 21.1183 11.5815 21.25 11.25 21.25C10.9185 21.25 10.6005 21.1183 10.3661 20.8839C10.1317 20.6495 10 20.3315 10 20V10C10 9.33696 10.2634 8.70107 10.7322 8.23223C11.2011 7.76339 11.837 7.5 12.5 7.5H20.7325C21.3955 7.50014 22.0313 7.76363 22.5 8.2325L29.2675 15C29.7364 15.4687 29.9999 16.1045 30 16.7675V30C30 30.663 29.7366 31.2989 29.2678 31.7678C28.7989 32.2366 28.163 32.5 27.5 32.5H22.5L22.3537 32.4912ZM15 22.5C15.3315 22.5 15.6495 22.6317 15.8839 22.8661C16.1183 23.1005 16.25 23.4185 16.25 23.75V26.25H18.75C19.0815 26.25 19.3995 26.3817 19.6339 26.6161C19.8683 26.8505 20 27.1685 20 27.5C20 27.8315 19.8683 28.1495 19.6339 28.3839C19.3995 28.6183 19.0815 28.75 18.75 28.75H16.25V31.25C16.25 31.5815 16.1183 31.8995 15.8839 32.1339C15.6495 32.3683 15.3315 32.5 15 32.5C14.6685 32.5 14.3505 32.3683 14.1161 32.1339C13.8817 31.8995 13.75 31.5815 13.75 31.25V28.75H11.25C10.9185 28.75 10.6005 28.6183 10.3661 28.3839C10.1317 28.1495 10 27.8315 10 27.5C10 27.1685 10.1317 26.8505 10.3661 26.6161C10.6005 26.3817 10.9185 26.25 11.25 26.25H13.75V23.75C13.75 23.4185 13.8817 23.1005 14.1161 22.8661C14.3505 22.6317 14.6685 22.5 15 22.5ZM21.25 10.5187V16.25H26.9825L21.25 10.5187Z" fill="black"/>
</svg>
