<svg width="24" height="24" viewBox="0 0 24 24" fill="none" xmlns="http://www.w3.org/2000/svg">
<path d="M10.4998 12.7501C10.6988 12.7501 10.8895 12.8291 11.0302 12.9697C11.1708 13.1104 11.2498 13.3011 11.2498 13.5001V17.2501C11.2498 17.449 11.1708 17.6397 11.0302 17.7804C10.8895 17.921 10.6988 18.0001 10.4998 18.0001C10.3009 18.0001 10.1102 17.921 9.96951 17.7804C9.82886 17.6397 9.74984 17.449 9.74984 17.2501L9.74909 15.3113L5.78009 19.2803C5.65094 19.4094 5.47912 19.487 5.29685 19.4985C5.11458 19.5099 4.93439 19.4545 4.79009 19.3426L4.71959 19.2803C4.57899 19.1397 4.5 18.9489 4.5 18.7501C4.5 18.5512 4.57899 18.3605 4.71959 18.2198L8.68784 14.2501H6.74984C6.56614 14.25 6.38884 14.1826 6.25156 14.0605C6.11428 13.9385 6.02658 13.7703 6.00509 13.5878L5.99984 13.5001C5.99984 13.3011 6.07886 13.1104 6.21951 12.9697C6.36016 12.8291 6.55093 12.7501 6.74984 12.7501H10.4998ZM18.2196 4.71981C18.361 4.58319 18.5505 4.5076 18.7471 4.50931C18.9438 4.51101 19.1319 4.58989 19.271 4.72895C19.41 4.868 19.4889 5.05611 19.4906 5.25276C19.4923 5.44941 19.4167 5.63886 19.2801 5.78031L15.3103 9.75006H17.2498C17.4335 9.75009 17.6108 9.81753 17.7481 9.9396C17.8854 10.0617 17.9731 10.2299 17.9946 10.4123L17.9998 10.5001C17.9998 10.699 17.9208 10.8897 17.7802 11.0304C17.6395 11.171 17.4488 11.2501 17.2498 11.2501H13.4998C13.3009 11.2501 13.1102 11.171 12.9695 11.0304C12.8289 10.8897 12.7498 10.699 12.7498 10.5001V6.75006C12.7498 6.55115 12.8289 6.36038 12.9695 6.21973C13.1102 6.07908 13.3009 6.00006 13.4998 6.00006C13.6988 6.00006 13.8895 6.07908 14.0302 6.21973C14.1708 6.36038 14.2498 6.55115 14.2498 6.75006V8.68806L18.2196 4.71981Z" fill="black"/>
</svg>
