<svg width="24" height="24" viewBox="0 0 24 24" fill="none" xmlns="http://www.w3.org/2000/svg">
<path d="M12 4.5C16.1423 4.5 19.5 7.85775 19.5 12C19.5 16.1423 16.1423 19.5 12 19.5C7.85775 19.5 4.5 16.1423 4.5 12C4.5 7.85775 7.85775 4.5 12 4.5ZM12 6C10.4087 6 8.88258 6.63214 7.75736 7.75736C6.63214 8.88258 6 10.4087 6 12C6 13.5913 6.63214 15.1174 7.75736 16.2426C8.88258 17.3679 10.4087 18 12 18C13.5913 18 15.1174 17.3679 16.2426 16.2426C17.3679 15.1174 18 13.5913 18 12C18 10.4087 17.3679 8.88258 16.2426 7.75736C15.1174 6.63214 13.5913 6 12 6ZM12 8.25C12.1989 8.25 12.3897 8.32902 12.5303 8.46967C12.671 8.61032 12.75 8.80109 12.75 9V11.25H15C15.1989 11.25 15.3897 11.329 15.5303 11.4697C15.671 11.6103 15.75 11.8011 15.75 12C15.75 12.1989 15.671 12.3897 15.5303 12.5303C15.3897 12.671 15.1989 12.75 15 12.75H12.75V15C12.75 15.1989 12.671 15.3897 12.5303 15.5303C12.3897 15.671 12.1989 15.75 12 15.75C11.8011 15.75 11.6103 15.671 11.4697 15.5303C11.329 15.3897 11.25 15.1989 11.25 15V12.75H9C8.80109 12.75 8.61032 12.671 8.46967 12.5303C8.32902 12.3897 8.25 12.1989 8.25 12C8.25 11.8011 8.32902 11.6103 8.46967 11.4697C8.61032 11.329 8.80109 11.25 9 11.25H11.25V9C11.25 8.80109 11.329 8.61032 11.4697 8.46967C11.6103 8.32902 11.8011 8.25 12 8.25Z" fill="black"/>
</svg>
