<svg width="24" height="24" viewBox="0 0 24 24" fill="none" xmlns="http://www.w3.org/2000/svg">
<path d="M12 4.5C16.1423 4.5 19.5 7.85775 19.5 12C19.5 16.1423 16.1423 19.5 12 19.5C7.85775 19.5 4.5 16.1423 4.5 12C4.5 7.85775 7.85775 4.5 12 4.5ZM12 6C10.4087 6 8.88258 6.63214 7.75736 7.75736C6.63214 8.88258 6 10.4087 6 12C6 13.5913 6.63214 15.1174 7.75736 16.2426C8.88258 17.3679 10.4087 18 12 18C13.5913 18 15.1174 17.3679 16.2426 16.2426C17.3679 15.1174 18 13.5913 18 12C18 10.4087 17.3679 8.88258 16.2426 7.75736C15.1174 6.63214 13.5913 6 12 6ZM14.7803 10.2802L13.0605 12L14.7803 13.7197C15.4875 14.427 14.427 15.4875 13.7197 14.7803L12 13.0613L10.2802 14.7803C9.573 15.4875 8.5125 14.427 9.21975 13.7197L10.9395 12L9.21975 10.2802C8.5125 9.573 9.573 8.5125 10.2802 9.21975L12 10.9388L13.7197 9.21975C14.427 8.5125 15.4875 9.573 14.7803 10.2802Z" fill="black"/>
</svg>
