<svg width="32" height="32" viewBox="0 0 32 32" fill="none" xmlns="http://www.w3.org/2000/svg">
<path d="M19.003 6C20.11 6 21 6.895 21 8.01V10H25.008C26.112 10 27 10.901 27 12.007V23.993C27 24.5227 26.7906 25.0309 26.4175 25.4069C26.0443 25.7828 25.5377 25.996 25.008 26H6.99202C6.72942 25.9991 6.46958 25.9464 6.22733 25.8451C5.98509 25.7437 5.76519 25.5956 5.5802 25.4092C5.39521 25.2228 5.24876 25.0018 5.14921 24.7588C5.04966 24.5158 4.99896 24.2556 5.00002 23.993V12.007C5.00002 10.904 5.89802 10 6.99202 10H11V8.01C11 6.903 11.897 6 12.997 6H19.003ZM24.999 14.296L24.88 14.419C22.7 16.796 19.72 18 16 18C12.21 18 9.19002 16.752 7.00002 14.286L7.00102 15.81V21.52L7.00002 23.993L7.09702 23.994H7.47102L7.56102 23.995H8.26102L8.40602 23.996H9.63302L9.83902 23.997L12.047 23.998H12.332L15.972 23.999H16.351L24.482 24H25.008L25.006 23.9V23.806L25.004 23.604V23.429L25.003 23.33V23.108L25.002 22.985V22.569L25 22.414V21.903V21.716V20.432L24.999 20.19V14.865V14.296ZM15.649 12.001H7.74602C9.59902 14.683 12.318 16 16 16C19.68 16 22.398 14.684 24.251 12.005H24.279H23.739L23.594 12.004H22.367L22.161 12.003L19.953 12.002H19.668L16.028 12.001H15.649ZM19.002 8H12.997C13.005 8 13 8.005 13 8.01V9.99C13 9.997 13 10 12.998 10H19.003C18.995 10 19 9.995 19 9.99V8.01C19 8.003 19 8 19.002 8Z" fill="black"/>
</svg>
