<svg width="32" height="32" viewBox="0 0 32 32" fill="none" xmlns="http://www.w3.org/2000/svg">
<path d="M16 5C22.075 5 27 9.925 27 16C27 22.075 22.075 27 16 27C9.925 27 5 22.075 5 16C5 9.925 9.925 5 16 5ZM13.237 20.168L13.172 20.243L10.382 23.033C11.9759 24.3096 13.9579 25.0035 16 25C18.0419 25.003 20.0235 24.3087 21.617 23.032L18.828 20.242L18.763 20.168C17.9444 20.7121 16.983 21.0016 16 21C15.017 21.0016 14.0556 20.7121 13.237 20.168ZM23.032 10.383L20.242 13.172L20.168 13.237C20.694 14.03 21 14.98 21 16C21.0016 16.983 20.7121 17.9444 20.168 18.763C20.194 18.783 20.219 18.805 20.243 18.828L23.033 21.618C24.3096 20.0241 25.0035 18.0421 25 16C25.003 13.9581 24.3087 11.9765 23.032 10.383ZM7 16C7 18.125 7.736 20.078 8.968 21.617L11.758 18.828L11.832 18.763C11.2879 17.9444 10.9984 16.983 11 16C11 14.979 11.306 14.029 11.832 13.237C11.8056 13.217 11.7805 13.1953 11.757 13.172L8.967 10.382C7.69042 11.9759 6.99646 13.9579 7 16ZM16 13C15.2044 13 14.4413 13.3161 13.8787 13.8787C13.3161 14.4413 13 15.2044 13 16C13 16.7956 13.3161 17.5587 13.8787 18.1213C14.4413 18.6839 15.2044 19 16 19C16.7956 19 17.5587 18.6839 18.1213 18.1213C18.6839 17.5587 19 16.7956 19 16C19 15.2044 18.6839 14.4413 18.1213 13.8787C17.5587 13.3161 16.7956 13 16 13ZM16 7C13.9581 6.99697 11.9765 7.69128 10.383 8.968L13.172 11.758L13.237 11.832C14.0556 11.2879 15.017 10.9984 16 11C17.021 11 17.971 11.306 18.763 11.832L18.828 11.757L21.618 8.967C20.0241 7.69042 18.0421 6.99646 16 7Z" fill="black"/>
</svg>
