<svg width="40" height="40" viewBox="0 0 40 40" fill="none" xmlns="http://www.w3.org/2000/svg">
<path d="M19.9999 26.2502L25.9312 29.2552L24.8012 22.9052L29.4837 18.5052L23.0024 17.5977L19.9999 11.7352V26.2502ZM12.9637 32.6177C12.7565 32.7225 12.5242 32.7675 12.2929 32.7478C12.0615 32.728 11.8403 32.6441 11.6539 32.5056C11.4676 32.3672 11.3235 32.1795 11.2377 31.9637C11.152 31.748 11.1281 31.5126 11.1687 31.284L12.4999 23.8002L6.90242 18.5415C6.73029 18.3801 6.60734 18.1733 6.54779 17.945C6.48824 17.7167 6.49452 17.4762 6.56591 17.2513C6.6373 17.0264 6.77088 16.8264 6.9512 16.6742C7.13153 16.522 7.35123 16.424 7.58492 16.3915L15.3649 15.3027L18.8874 8.42272C18.9923 8.21797 19.1517 8.04614 19.348 7.92615C19.5443 7.80617 19.7699 7.74268 19.9999 7.74268C20.23 7.74268 20.4556 7.80617 20.6519 7.92615C20.8482 8.04614 21.0075 8.21797 21.1124 8.42272L24.6349 15.3027L32.4149 16.3927C32.6483 16.4255 32.8678 16.5235 33.0478 16.6756C33.2279 16.8277 33.3613 17.0276 33.4327 17.2522C33.5041 17.4769 33.5104 17.7171 33.4511 17.9452C33.3918 18.1734 33.2692 18.38 33.0974 18.5415L27.4999 23.8002L28.8312 31.284C28.8717 31.5126 28.8478 31.748 28.7621 31.9637C28.6764 32.1795 28.5323 32.3672 28.3459 32.5056C28.1595 32.6441 27.9383 32.728 27.707 32.7478C27.4756 32.7675 27.2433 32.7225 27.0362 32.6177L19.9999 29.0527L12.9637 32.6177Z" fill="black"/>
</svg>
