<svg width="24" height="24" viewBox="0 0 24 24" fill="none" xmlns="http://www.w3.org/2000/svg">
<path d="M18.7498 4.5C18.9488 4.5 19.1395 4.57902 19.2802 4.71967C19.4208 4.86032 19.4998 5.05109 19.4998 5.25V18.75C19.4998 18.9489 19.4208 19.1397 19.2802 19.2803C19.1395 19.421 18.9488 19.5 18.7498 19.5H14.2498C14.0509 19.5 13.8602 19.421 13.7195 19.2803C13.5789 19.1397 13.4998 18.9489 13.4998 18.75V16.5C13.4998 16.3011 13.5789 16.1103 13.7195 15.9697C13.8602 15.829 14.0509 15.75 14.2498 15.75C14.4488 15.75 14.6395 15.829 14.7802 15.9697C14.9208 16.1103 14.9998 16.3011 14.9998 16.5V18H17.9998V6H14.9998V7.5C14.9998 7.69891 14.9208 7.88968 14.7802 8.03033C14.6395 8.17098 14.4488 8.25 14.2498 8.25C14.0509 8.25 13.8602 8.17098 13.7195 8.03033C13.5789 7.88968 13.4998 7.69891 13.4998 7.5V5.25C13.4998 5.05109 13.5789 4.86032 13.7195 4.71967C13.8602 4.57902 14.0509 4.5 14.2498 4.5H18.7498ZM8.46959 7.71975C8.61104 7.58313 8.80049 7.50754 8.99714 7.50924C9.19379 7.51095 9.3819 7.58983 9.52095 7.72889C9.66001 7.86794 9.73889 8.05605 9.74059 8.2527C9.7423 8.44935 9.66671 8.6388 9.53009 8.78025L7.06034 11.25H15.7498C15.9335 11.25 16.1108 11.3175 16.2481 11.4395C16.3854 11.5616 16.4731 11.7298 16.4946 11.9123L16.4998 12C16.4998 12.1989 16.4208 12.3897 16.2802 12.5303C16.1395 12.671 15.9488 12.75 15.7498 12.75H7.06034L9.53009 15.2197C9.65922 15.3489 9.7368 15.5207 9.74826 15.703C9.75972 15.8853 9.70428 16.0654 9.59234 16.2098L9.53009 16.2803C9.38944 16.4209 9.19871 16.4998 8.99984 16.4998C8.80097 16.4998 8.61024 16.4209 8.46959 16.2803L4.71959 12.5303C4.57899 12.3896 4.5 12.1989 4.5 12C4.5 11.8011 4.57899 11.6104 4.71959 11.4698L8.46959 7.71975Z" fill="black"/>
</svg>
