<svg width="24" height="24" viewBox="0 0 24 24" fill="none" xmlns="http://www.w3.org/2000/svg">
<path d="M6.75 11.9999V12.0149C6.75 12.0322 6.7515 12.0494 6.753 12.0674L6.75 11.9999C6.75045 12.1676 6.80665 12.3304 6.90975 12.4627L6.915 12.4687L6.96975 12.5302L11.4698 17.0302C11.6112 17.1668 11.8007 17.2424 11.9973 17.2407C12.1939 17.239 12.3821 17.1601 12.5211 17.0211C12.6602 16.882 12.739 16.6939 12.7408 16.4972C12.7425 16.3006 12.6669 16.1111 12.5303 15.9697L9.3105 12.7499H16.5C16.6989 12.7499 16.8897 12.6709 17.0303 12.5303C17.171 12.3896 17.25 12.1989 17.25 11.9999C17.25 11.801 17.171 11.6103 17.0303 11.4696C16.8897 11.329 16.6989 11.2499 16.5 11.2499H9.3105L12.5303 8.03019C12.6019 7.961 12.659 7.87825 12.6983 7.78674C12.7376 7.69524 12.7583 7.59682 12.7592 7.49724C12.7601 7.39766 12.7411 7.2989 12.7034 7.20672C12.6657 7.11455 12.61 7.03081 12.5395 6.96039C12.4691 6.88997 12.3854 6.83428 12.2932 6.79657C12.201 6.75886 12.1023 6.73989 12.0027 6.74075C11.9031 6.74162 11.8047 6.76231 11.7132 6.80161C11.6217 6.84092 11.5389 6.89806 11.4698 6.96969L6.96975 11.4697L6.915 11.5312C6.91324 11.5332 6.91149 11.5352 6.90975 11.5372L6.96975 11.4697C6.83287 11.6073 6.75419 11.7924 6.75 11.9864V11.9999Z" fill="black"/>
</svg>
