<svg width="40" height="40" viewBox="0 0 40 40" fill="none" xmlns="http://www.w3.org/2000/svg">
<path d="M8.75 23.75C9.05617 23.75 9.35167 23.8624 9.58046 24.0659C9.80926 24.2693 9.95543 24.5497 9.99125 24.8537L10 25L9.99875 28.2312L14.1163 24.1162C14.3315 23.901 14.6179 23.7717 14.9216 23.7526C15.2254 23.7335 15.5257 23.8259 15.7662 24.0125L15.8837 24.1162C16.099 24.3315 16.2283 24.6179 16.2474 24.9216C16.2665 25.2254 16.1741 25.5257 15.9875 25.7663L15.8837 25.8838L11.7675 30H15C15.3062 30 15.6017 30.1124 15.8305 30.3159C16.0593 30.5193 16.2054 30.7997 16.2413 31.1037L16.25 31.25C16.25 31.5562 16.1376 31.8517 15.9341 32.0805C15.7307 32.3093 15.4503 32.4554 15.1462 32.4912L15 32.5H8.75C8.44383 32.5 8.14833 32.3876 7.91954 32.1841C7.69074 31.9807 7.54457 31.7003 7.50875 31.3963L7.5 31.25V25C7.5 24.6685 7.6317 24.3505 7.86612 24.1161C8.10054 23.8817 8.41848 23.75 8.75 23.75ZM31.25 23.75C31.5562 23.75 31.8517 23.8624 32.0805 24.0659C32.3093 24.2693 32.4554 24.5497 32.4912 24.8537L32.5 25V31.25L32.4912 31.3963C32.4583 31.6753 32.3324 31.9351 32.1337 32.1337C31.9351 32.3324 31.6753 32.4583 31.3963 32.4912L31.25 32.5H25L24.8537 32.4912C24.5747 32.4583 24.3149 32.3324 24.1163 32.1337C23.9176 31.9351 23.7917 31.6753 23.7588 31.3963L23.75 31.25L23.7588 31.1037C23.7917 30.8247 23.9176 30.5649 24.1163 30.3663C24.3149 30.1676 24.5747 30.0417 24.8537 30.0088L25 30H28.2325L24.1162 25.8838L24.0125 25.7663C23.8424 25.547 23.7501 25.2775 23.7501 25C23.7501 24.7225 23.8424 24.453 24.0125 24.2337L24.1162 24.1162L24.2337 24.0125C24.453 23.8424 24.7225 23.7501 25 23.7501C25.2775 23.7501 25.547 23.8424 25.7663 24.0125L25.8838 24.1162L30.0012 28.2312L30 25L30.0088 24.8537C30.0446 24.5497 30.1907 24.2693 30.4195 24.0659C30.6483 23.8624 30.9438 23.75 31.25 23.75ZM19.1163 17.3487L20 18.2325L20.8838 17.3487C20.9991 17.2294 21.137 17.1341 21.2895 17.0686C21.442 17.0031 21.606 16.9686 21.772 16.9672C21.938 16.9657 22.1026 16.9974 22.2562 17.0602C22.4098 17.1231 22.5494 17.2159 22.6667 17.3333C22.7841 17.4506 22.8769 17.5902 22.9398 17.7438C23.0026 17.8974 23.0343 18.062 23.0328 18.228C23.0314 18.394 22.9969 18.558 22.9314 18.7105C22.8659 18.863 22.7706 19.0009 22.6513 19.1163L21.7675 20L22.6513 20.8838C22.7706 20.9991 22.8659 21.137 22.9314 21.2895C22.9969 21.442 23.0314 21.606 23.0328 21.772C23.0343 21.938 23.0026 22.1026 22.9398 22.2562C22.8769 22.4098 22.7841 22.5494 22.6667 22.6667C22.5494 22.7841 22.4098 22.8769 22.2562 22.9398C22.1026 23.0026 21.938 23.0343 21.772 23.0328C21.606 23.0314 21.442 22.9969 21.2895 22.9314C21.137 22.8659 20.9991 22.7706 20.8838 22.6513L20 21.7675L19.1163 22.6513C19.0009 22.7706 18.863 22.8659 18.7105 22.9314C18.558 22.9969 18.394 23.0314 18.228 23.0328C18.062 23.0343 17.8974 23.0026 17.7438 22.9398C17.5902 22.8769 17.4506 22.7841 17.3333 22.6667C17.2159 22.5494 17.1231 22.4098 17.0602 22.2562C16.9974 22.1026 16.9657 21.938 16.9672 21.772C16.9686 21.606 17.0031 21.442 17.0686 21.2895C17.1341 21.137 17.2294 20.9991 17.3487 20.8838L18.2325 20L17.3487 19.1163C17.2294 19.0009 17.1341 18.863 17.0686 18.7105C17.0031 18.558 16.9686 18.394 16.9672 18.228C16.9657 18.062 16.9974 17.8974 17.0602 17.7438C17.1231 17.5902 17.2159 17.4506 17.3333 17.3333C17.4506 17.2159 17.5902 17.1231 17.7438 17.0602C17.8974 16.9974 18.062 16.9657 18.228 16.9672C18.394 16.9686 18.558 17.0031 18.7105 17.0686C18.863 17.1341 19.0009 17.2294 19.1163 17.3487ZM31.25 7.5C31.5562 7.50004 31.8517 7.61244 32.0805 7.81589C32.3093 8.01934 32.4554 8.29969 32.4912 8.60375L32.5 8.75V15C32.4996 15.3186 32.3777 15.625 32.1589 15.8567C31.9402 16.0884 31.6413 16.2278 31.3233 16.2465C31.0052 16.2651 30.692 16.1617 30.4477 15.9572C30.2034 15.7527 30.0464 15.4626 30.0088 15.1462L30 15L29.9988 11.7688L25.8838 15.8837C25.6685 16.099 25.3821 16.2283 25.0784 16.2474C24.7746 16.2665 24.4743 16.1741 24.2337 15.9875L24.1162 15.8837C23.901 15.6685 23.7717 15.3821 23.7526 15.0784C23.7335 14.7746 23.8259 14.4743 24.0125 14.2338L24.1162 14.1163L28.23 10H25C24.6938 9.99996 24.3983 9.88756 24.1695 9.68411C23.9407 9.48066 23.7946 9.20031 23.7588 8.89625L23.75 8.75C23.75 8.44383 23.8624 8.14833 24.0659 7.91954C24.2693 7.69074 24.5497 7.54457 24.8537 7.50875L25 7.5H31.25ZM15 7.5L15.1462 7.50875C15.4253 7.54165 15.6851 7.6676 15.8837 7.86626C16.0824 8.06493 16.2083 8.32473 16.2413 8.60375L16.25 8.75L16.2413 8.89625C16.2083 9.17527 16.0824 9.43507 15.8837 9.63374C15.6851 9.8324 15.4253 9.95835 15.1462 9.99125L15 10H11.77L15.8837 14.1163L15.9875 14.2338C16.1576 14.453 16.2499 14.7225 16.2499 15C16.2499 15.2775 16.1576 15.547 15.9875 15.7662L15.8837 15.8837L15.7662 15.9875C15.547 16.1576 15.2775 16.2499 15 16.2499C14.7225 16.2499 14.453 16.1576 14.2338 15.9875L14.1163 15.8837L10 11.7688V15L9.99125 15.1462C9.95511 15.4501 9.80881 15.7301 9.58004 15.9332C9.35128 16.1364 9.05595 16.2486 8.75 16.2486C8.44405 16.2486 8.14872 16.1364 7.91996 15.9332C7.69119 15.7301 7.54489 15.4501 7.50875 15.1462L7.5 15V8.75L7.50875 8.60375C7.54165 8.32473 7.6676 8.06493 7.86626 7.86626C8.06493 7.6676 8.32473 7.54165 8.60375 7.50875L8.75 7.5H15Z" fill="black"/>
</svg>
