<svg width="24" height="24" viewBox="0 0 24 24" fill="none" xmlns="http://www.w3.org/2000/svg">
<path d="M17.25 11.9816V11.9666C17.25 11.9494 17.2485 11.9321 17.247 11.9141L17.25 11.9816C17.2495 11.8139 17.1934 11.6511 17.0902 11.5189L17.085 11.5129L17.0302 11.4514L12.5302 6.95138C12.3888 6.81476 12.1993 6.73916 12.0027 6.74087C11.8061 6.74258 11.6179 6.82146 11.4789 6.96051C11.3398 7.09957 11.261 7.28768 11.2592 7.48433C11.2575 7.68097 11.3331 7.87043 11.4697 8.01188L14.6895 11.2316H7.5C7.30109 11.2316 7.11032 11.3106 6.96967 11.4513C6.82902 11.5919 6.75 11.7827 6.75 11.9816C6.75 12.1805 6.82902 12.3713 6.96967 12.512C7.11032 12.6526 7.30109 12.7316 7.5 12.7316H14.6895L11.4697 15.9514C11.3981 16.0206 11.341 16.1033 11.3017 16.1948C11.2624 16.2863 11.2417 16.3847 11.2408 16.4843C11.2399 16.5839 11.2589 16.6827 11.2966 16.7748C11.3343 16.867 11.39 16.9508 11.4605 17.0212C11.5309 17.0916 11.6146 17.1473 11.7068 17.185C11.799 17.2227 11.8977 17.2417 11.9973 17.2408C12.0969 17.24 12.1953 17.2193 12.2868 17.18C12.3783 17.1406 12.4611 17.0835 12.5302 17.0119L17.0302 12.5119L17.085 12.4504C17.0868 12.4484 17.0885 12.4464 17.0902 12.4444L17.0302 12.5119C17.1671 12.3742 17.2458 12.1892 17.25 11.9951V11.9816Z" fill="black"/>
</svg>
