<svg width="24" height="24" viewBox="0 0 24 24" fill="none" xmlns="http://www.w3.org/2000/svg">
<path d="M11.4227 14.6686L16.1987 9.89262C16.6208 9.47073 16.858 8.89844 16.8582 8.30165C16.8583 7.70486 16.6214 7.13246 16.1995 6.71037C15.9906 6.50137 15.7425 6.33557 15.4696 6.22242C15.1966 6.10927 14.904 6.051 14.6085 6.05093C14.0117 6.05079 13.4393 6.28773 13.0172 6.70962L8.24346 11.4841C7.89444 11.832 7.6175 12.2454 7.42851 12.7005C7.23953 13.1556 7.14221 13.6435 7.14214 14.1363C7.14207 14.6291 7.23925 15.1171 7.42811 15.5723C7.61696 16.0274 7.89379 16.4409 8.24271 16.7889C8.94714 17.4911 9.90141 17.8852 10.8961 17.8846C11.8908 17.8841 12.8446 17.4889 13.5482 16.7859L17.2577 13.0764C17.3983 12.9356 17.5891 12.8565 17.7881 12.8565C17.987 12.8564 18.1779 12.9354 18.3186 13.076C18.4593 13.2166 18.5384 13.4074 18.5385 13.6064C18.5386 13.8053 18.4596 13.9961 18.319 14.1369L14.6095 17.8464C12.559 19.8969 9.22971 19.8976 7.18146 17.8494C6.69335 17.362 6.30613 16.7832 6.04199 16.1461C5.77784 15.5089 5.64195 14.8259 5.64209 14.1362C5.64223 13.4464 5.7784 12.7635 6.0428 12.1265C6.3072 11.4894 6.69465 10.9108 7.18296 10.4236L11.9567 5.64987C12.6611 4.9518 13.6134 4.56118 14.6051 4.56349C15.5968 4.5658 16.5472 4.96085 17.2484 5.6622C17.9495 6.36355 18.3443 7.31408 18.3463 8.3058C18.3484 9.29752 17.9575 10.2497 17.2592 10.9539L12.484 15.7291C12.2753 15.9384 12.0274 16.1044 11.7545 16.2176C11.4815 16.3308 11.1889 16.3891 10.8934 16.389C10.5979 16.3889 10.3054 16.3305 10.0325 16.2172C9.75959 16.1038 9.51177 15.9377 9.30321 15.7284C8.88143 15.3067 8.64435 14.7347 8.64407 14.1383C8.64379 13.5419 8.88033 12.9697 9.30171 12.5476L13.0157 8.83362C13.1572 8.697 13.3466 8.62141 13.5433 8.62312C13.7399 8.62483 13.928 8.7037 14.0671 8.84276C14.2061 8.98181 14.285 9.16992 14.2867 9.36657C14.2884 9.56322 14.2128 9.75267 14.0762 9.89412L10.3622 13.6081C10.2223 13.7489 10.1438 13.9394 10.1441 14.1379C10.1444 14.3364 10.2234 14.5267 10.3637 14.6671C10.4329 14.7372 10.5153 14.7928 10.6062 14.8308C10.697 14.8688 10.7944 14.8884 10.8929 14.8886C10.9914 14.8887 11.0889 14.8694 11.1798 14.8316C11.2707 14.7938 11.3533 14.7385 11.4227 14.6686Z" fill="black"/>
</svg>
