<svg width="40" height="40" viewBox="0 0 40 40" fill="none" xmlns="http://www.w3.org/2000/svg">
<path d="M17.5002 21.25C17.8317 21.25 18.1497 21.3817 18.3841 21.6161C18.6185 21.8506 18.7502 22.1685 18.7502 22.5V28.75C18.7502 29.0815 18.6185 29.3995 18.3841 29.6339C18.1497 29.8683 17.8317 30 17.5002 30C17.1687 30 16.8508 29.8683 16.6163 29.6339C16.3819 29.3995 16.2502 29.0815 16.2502 28.75L16.249 25.5188L9.63397 32.1338C9.41873 32.349 9.13236 32.4783 8.82857 32.4974C8.52479 32.5165 8.22448 32.4241 7.98397 32.2375L7.86647 32.1338C7.63213 31.8994 7.50049 31.5815 7.50049 31.25C7.50049 30.9186 7.63213 30.6007 7.86647 30.3663L14.4802 23.75H11.2502C10.9441 23.75 10.6485 23.6376 10.4198 23.4341C10.191 23.2307 10.0448 22.9503 10.009 22.6463L10.0002 22.5C10.0002 22.1685 10.1319 21.8506 10.3663 21.6161C10.6008 21.3817 10.9187 21.25 11.2502 21.25H17.5002ZM30.3665 7.86627C30.6022 7.63857 30.918 7.51258 31.2457 7.51543C31.5735 7.51828 31.887 7.64974 32.1187 7.8815C32.3505 8.11326 32.482 8.42677 32.4848 8.75452C32.4877 9.08227 32.3617 9.39802 32.134 9.63377L25.5177 16.25H28.7502C29.0564 16.2501 29.3519 16.3625 29.5807 16.5659C29.8095 16.7694 29.9556 17.0497 29.9915 17.3538L30.0002 17.5C30.0002 17.8315 29.8685 18.1495 29.6341 18.3839C29.3997 18.6183 29.0817 18.75 28.7502 18.75H22.5002C22.1687 18.75 21.8508 18.6183 21.6163 18.3839C21.3819 18.1495 21.2502 17.8315 21.2502 17.5V11.25C21.2502 10.9185 21.3819 10.6006 21.6163 10.3661C21.8508 10.1317 22.1687 10 22.5002 10C22.8317 10 23.1497 10.1317 23.3841 10.3661C23.6185 10.6006 23.7502 10.9185 23.7502 11.25V14.48L30.3665 7.86627Z" fill="black"/>
</svg>
