<svg width="24" height="24" viewBox="0 0 24 24" fill="none" xmlns="http://www.w3.org/2000/svg">
<path d="M14.6747 15.75H18.9445L15.007 9.00001L12.8695 12.741L14.6747 15.75ZM15.0002 6.75001C15.1315 6.74921 15.2606 6.78322 15.3744 6.84856C15.4883 6.91391 15.5827 7.00827 15.6482 7.12201L20.8982 16.122C20.9647 16.236 21 16.3655 21.0004 16.4975C21.0009 16.6294 20.9665 16.7592 20.9008 16.8736C20.835 16.988 20.7403 17.0831 20.626 17.1492C20.5118 17.2153 20.3822 17.2501 20.2502 17.25H14.2502C14.1207 17.2499 13.9935 17.2163 13.8808 17.1524C13.7682 17.0885 13.674 16.9966 13.6075 16.8855L11.9995 14.2065L10.393 16.8855C10.3264 16.9966 10.2322 17.0885 10.1196 17.1524C10.007 17.2163 9.87971 17.2499 9.75022 17.25H3.75022C3.61826 17.2501 3.48862 17.2153 3.37439 17.1492C3.26017 17.0831 3.16541 16.988 3.09967 16.8736C3.03394 16.7592 2.99956 16.6294 3 16.4975C3.00045 16.3655 3.03571 16.236 3.10222 16.122L8.35222 7.12201C8.40976 7.02209 8.48982 6.93698 8.58604 6.87344C8.68226 6.8099 8.79198 6.76969 8.90647 6.75601L9.00022 6.75001H15.0002ZM8.99347 9.00001L5.05597 15.75H9.32572L11.131 12.741L8.99347 9.00001ZM13.7072 8.25001H10.2917L12.0002 11.238L13.7072 8.25001Z" fill="black"/>
</svg>
