<svg width="24" height="24" viewBox="0 0 24 24" fill="none" xmlns="http://www.w3.org/2000/svg">
<path d="M12 4.5C16.1423 4.5 19.5 7.85775 19.5 12C19.5 16.1423 16.1423 19.5 12 19.5C7.85775 19.5 4.5 16.1423 4.5 12C4.5 7.85775 7.85775 4.5 12 4.5ZM12 6C10.4087 6 8.88258 6.63214 7.75736 7.75736C6.63214 8.88258 6 10.4087 6 12C6 13.5913 6.63214 15.1174 7.75736 16.2426C8.88258 17.3679 10.4087 18 12 18C13.5913 18 15.1174 17.3679 16.2426 16.2426C17.3679 15.1174 18 13.5913 18 12C18 10.4087 17.3679 8.88258 16.2426 7.75736C15.1174 6.63214 13.5913 6 12 6ZM14.3573 8.6145C14.4632 8.4518 14.628 8.33651 14.8172 8.29287C15.0064 8.24923 15.2051 8.28064 15.3716 8.38049C15.538 8.48034 15.6593 8.64086 15.7099 8.82829C15.7605 9.01572 15.7364 9.21545 15.6427 9.3855L12.0427 15.3855C11.9841 15.4832 11.904 15.5662 11.8085 15.6283C11.713 15.6904 11.6046 15.7299 11.4915 15.7439C11.3785 15.7578 11.2637 15.7458 11.156 15.7088C11.0483 15.6718 10.9504 15.6107 10.8698 15.5303L8.46975 13.1302C8.33313 12.9888 8.25754 12.7993 8.25924 12.6027C8.26095 12.4061 8.33983 12.2179 8.47889 12.0789C8.61794 11.9398 8.80605 11.861 9.0027 11.8592C9.19935 11.8575 9.3888 11.9331 9.53025 12.0698L11.2508 13.7902L14.3573 8.6145Z" fill="black"/>
</svg>
