<svg width="40" height="40" viewBox="0 0 40 40" fill="none" xmlns="http://www.w3.org/2000/svg">
<path d="M26.875 7.5C29.5575 7.5 31.6012 8.0275 33.0775 8.935C34.0462 9.53125 34.6112 10.1775 34.8675 10.6913C34.9544 10.8647 34.9998 11.056 35 11.25V31.25C35 32.5687 33.2213 32.9887 32.6325 31.8087C32.6388 31.8237 32.6075 31.7762 32.5262 31.6825C32.305 31.44 32.0489 31.2319 31.7663 31.065C30.7038 30.41 29.1138 30 26.875 30C24.6362 30 23.0462 30.41 21.9837 31.065C21.6462 31.2712 21.3988 31.4825 21.2238 31.6825C21.1932 31.7175 21.1636 31.7534 21.135 31.79C21.0601 31.9526 20.9489 32.0959 20.81 32.2087C20.6062 32.3858 20.3484 32.4885 20.0787 32.5H19.9213C19.6514 32.4885 19.3933 32.3863 19.1887 32.21C19.0504 32.096 18.9394 31.9525 18.8637 31.79C18.836 31.7531 18.8068 31.7172 18.7762 31.6825C18.555 31.44 18.2989 31.2319 18.0163 31.065C16.9537 30.41 15.3638 30 13.125 30C10.8863 30 9.29625 30.41 8.23375 31.065C7.89625 31.2712 7.64875 31.4825 7.47375 31.6825C7.3925 31.7762 7.36125 31.8237 7.3675 31.8087C6.77875 32.9887 5 32.5687 5 31.25V11.25C5.00021 11.056 5.04557 10.8647 5.1325 10.6913C5.38875 10.1788 5.95375 9.53125 6.9225 8.935C8.4 8.0275 10.4425 7.5 13.125 7.5C15.8075 7.5 17.8512 8.0275 19.3275 8.935C19.5775 9.09 19.8025 9.2475 20.0025 9.40625C20.2155 9.23497 20.4393 9.07756 20.6725 8.935C22.15 8.0275 24.1925 7.5 26.875 7.5ZM13.125 10C10.8863 10 9.29625 10.41 8.23375 11.065C7.96286 11.2255 7.71586 11.4233 7.5 11.6525V28.615C8.91625 27.9037 10.775 27.5 13.125 27.5C15.475 27.5 17.3337 27.9037 18.75 28.615V11.6525C18.5341 11.4233 18.2871 11.2255 18.0163 11.065C16.9537 10.41 15.3638 10 13.125 10ZM26.875 10C24.6362 10 23.0462 10.41 21.9837 11.065C21.7129 11.2255 21.4659 11.4233 21.25 11.6525V28.615C22.6663 27.9037 24.525 27.5 26.875 27.5C29.225 27.5 31.0837 27.9037 32.5 28.615V11.6525C32.2841 11.4233 32.0371 11.2255 31.7663 11.065C30.7038 10.41 29.1138 10 26.875 10Z" fill="black"/>
</svg>
