<svg width="24" height="24" viewBox="0 0 24 24" fill="none" xmlns="http://www.w3.org/2000/svg">
<path d="M8.92627 9H15.0733C15.1402 9 15.2059 9.01792 15.2636 9.05189C15.3213 9.08587 15.3688 9.13466 15.4013 9.19321C15.4337 9.25176 15.4499 9.31793 15.4481 9.38484C15.4464 9.45176 15.4267 9.51699 15.3913 9.57375L12.3178 14.4915C12.2841 14.5454 12.2372 14.5899 12.1816 14.6207C12.1259 14.6516 12.0634 14.6678 11.9998 14.6678C11.9362 14.6678 11.8736 14.6516 11.818 14.6207C11.7624 14.5899 11.7155 14.5454 11.6818 14.4915L8.60827 9.57375C8.57279 9.51699 8.55316 9.45176 8.5514 9.38484C8.54964 9.31793 8.56583 9.25176 8.59828 9.19321C8.63073 9.13466 8.67826 9.08587 8.73594 9.05189C8.79361 9.01792 8.85933 9 8.92627 9Z" fill="black"/>
</svg>
