<svg width="24" height="24" viewBox="0 0 24 24" fill="none" xmlns="http://www.w3.org/2000/svg">
<path d="M18.7501 4.5C19.3468 4.5 19.9191 4.73705 20.3411 5.15901C20.763 5.58097 21.0001 6.15326 21.0001 6.75V11.25C21.0001 11.8467 20.763 12.419 20.3411 12.841C19.9191 13.2629 19.3468 13.5 18.7501 13.5H17.2501V16.0477C17.2501 16.6215 17.0309 17.1737 16.6374 17.5912C16.2438 18.0087 15.7056 18.2601 15.1328 18.294L15.0008 18.2977H7.36507L4.12207 20.151C4.00015 20.2207 3.86112 20.2547 3.72081 20.2492C3.5805 20.2438 3.44454 20.199 3.3284 20.1201C3.21227 20.0412 3.12063 19.9312 3.06391 19.8028C3.00719 19.6743 2.98767 19.5325 3.00757 19.3935L3.75007 14.196V10.0478C3.75007 9.45101 3.98712 8.87872 4.40908 8.45676C4.83104 8.0348 5.40333 7.79775 6.00007 7.79775L9.00007 7.797V6.75C9.00007 6.15326 9.23712 5.58097 9.65908 5.15901C10.081 4.73705 10.6533 4.5 11.2501 4.5H18.7501ZM15.0001 9.29775H6.00007C5.80116 9.29775 5.61039 9.37677 5.46974 9.51742C5.32909 9.65807 5.25007 9.84884 5.25007 10.0478V14.25L5.24257 14.3558L4.71007 18.0878L6.79507 16.8967C6.90835 16.8319 7.03657 16.7978 7.16707 16.7977H15.0008C15.1997 16.7977 15.3905 16.7187 15.5312 16.5781C15.6718 16.4374 15.7508 16.2467 15.7508 16.0477V10.0478C15.7508 9.84884 15.6718 9.65807 15.5312 9.51742C15.3905 9.37677 15.1997 9.29775 15.0008 9.29775H15.0001ZM18.7501 6H11.2501C11.0512 6 10.8604 6.07902 10.7197 6.21967C10.5791 6.36032 10.5001 6.55109 10.5001 6.75V7.797H15.0001C15.5742 7.79679 16.1268 8.01608 16.5445 8.40998C16.9622 8.80387 17.2136 9.34257 17.2471 9.91575L17.2508 10.0478L17.2501 12H18.7501C18.949 12 19.1398 11.921 19.2804 11.7803C19.4211 11.6397 19.5001 11.4489 19.5001 11.25V6.75C19.5001 6.55109 19.4211 6.36032 19.2804 6.21967C19.1398 6.07902 18.949 6 18.7501 6Z" fill="black"/>
</svg>
