<svg width="40" height="40" viewBox="0 0 40 40" fill="none" xmlns="http://www.w3.org/2000/svg">
<path d="M31.3325 26.25C31.4456 26.2501 31.5565 26.2808 31.6534 26.3389C31.7504 26.397 31.8298 26.4803 31.8832 26.58C31.9365 26.6797 31.9619 26.7919 31.9565 26.9049C31.9511 27.0178 31.9151 27.1271 31.8525 27.2213L28.02 32.97C27.9629 33.0556 27.8856 33.1258 27.7949 33.1743C27.7042 33.2229 27.6029 33.2483 27.5 33.2483C27.3971 33.2483 27.2958 33.2229 27.2051 33.1743C27.1144 33.1258 27.0371 33.0556 26.98 32.97L23.1475 27.2213C23.0849 27.1271 23.0489 27.0178 23.0435 26.9049C23.0381 26.7919 23.0635 26.6797 23.1168 26.58C23.1702 26.4803 23.2496 26.397 23.3466 26.3389C23.4435 26.2808 23.5544 26.2501 23.6675 26.25H31.3325ZM17.5 26.25C17.8315 26.25 18.1495 26.3817 18.3839 26.6161C18.6183 26.8505 18.75 27.1685 18.75 27.5C18.75 27.8315 18.6183 28.1495 18.3839 28.3839C18.1495 28.6183 17.8315 28.75 17.5 28.75H10C9.66848 28.75 9.35054 28.6183 9.11612 28.3839C8.8817 28.1495 8.75 27.8315 8.75 27.5C8.75 27.1685 8.8817 26.8505 9.11612 26.6161C9.35054 26.3817 9.66848 26.25 10 26.25H17.5ZM25 18.75C25.3315 18.75 25.6495 18.8817 25.8839 19.1161C26.1183 19.3505 26.25 19.6685 26.25 20C26.25 20.3315 26.1183 20.6495 25.8839 20.8839C25.6495 21.1183 25.3315 21.25 25 21.25H10C9.66848 21.25 9.35054 21.1183 9.11612 20.8839C8.8817 20.6495 8.75 20.3315 8.75 20C8.75 19.6685 8.8817 19.3505 9.11612 19.1161C9.35054 18.8817 9.66848 18.75 10 18.75H25ZM30 11.25C30.3315 11.25 30.6495 11.3817 30.8839 11.6161C31.1183 11.8505 31.25 12.1685 31.25 12.5C31.25 12.8315 31.1183 13.1495 30.8839 13.3839C30.6495 13.6183 30.3315 13.75 30 13.75H10C9.66848 13.75 9.35054 13.6183 9.11612 13.3839C8.8817 13.1495 8.75 12.8315 8.75 12.5C8.75 12.1685 8.8817 11.8505 9.11612 11.6161C9.35054 11.3817 9.66848 11.25 10 11.25H30Z" fill="black"/>
</svg>
