<svg width="24" height="24" viewBox="0 0 24 24" fill="none" xmlns="http://www.w3.org/2000/svg">
<path opacity="0.35" d="M16.1611 12.5894C16.1915 12.5252 16.2395 12.4709 16.2995 12.4329C16.3595 12.3949 16.4291 12.3748 16.5001 12.3748C16.5712 12.3748 16.6407 12.3949 16.7007 12.4329C16.7608 12.4709 16.8087 12.5252 16.8391 12.5894L17.7031 14.4164L19.5564 14.6977C19.6194 14.7072 19.679 14.7326 19.7295 14.7715C19.78 14.8104 19.8197 14.8616 19.845 14.9201C19.8702 14.9787 19.8801 15.0427 19.8737 15.1062C19.8673 15.1696 19.8448 15.2303 19.8084 15.2827L19.7679 15.3314L18.4194 16.7024L18.7464 18.6892C18.757 18.7535 18.7507 18.8195 18.7281 18.8806C18.7054 18.9418 18.6672 18.996 18.6172 19.0378C18.5673 19.0797 18.5072 19.1078 18.4431 19.1194C18.3789 19.131 18.3128 19.1257 18.2514 19.1039L18.1959 19.0784L16.5001 18.1477L14.8044 19.0784C14.7473 19.1098 14.683 19.1258 14.6178 19.1248C14.5527 19.1238 14.4889 19.1059 14.4328 19.0727C14.3767 19.0395 14.3302 18.9923 14.2979 18.9357C14.2656 18.8791 14.2486 18.8151 14.2486 18.7499L14.2539 18.6892L14.5801 16.7024L13.2324 15.3314C13.1877 15.286 13.1554 15.2299 13.1385 15.1685C13.1216 15.107 13.1205 15.0423 13.1356 14.9804C13.1506 14.9185 13.1811 14.8614 13.2243 14.8146C13.2675 14.7677 13.3219 14.7327 13.3824 14.7127L13.4439 14.6977L15.2964 14.4164L16.1611 12.5894ZM7.16112 12.5894C7.19149 12.5252 7.23948 12.4709 7.29949 12.4329C7.35951 12.3949 7.42908 12.3748 7.50012 12.3748C7.57116 12.3748 7.64073 12.3949 7.70075 12.4329C7.76076 12.4709 7.80875 12.5252 7.83912 12.5894L8.70312 14.4164L10.5564 14.6977C10.6194 14.7072 10.679 14.7326 10.7295 14.7715C10.78 14.8104 10.8197 14.8616 10.845 14.9201C10.8702 14.9787 10.8801 15.0427 10.8737 15.1062C10.8673 15.1696 10.8448 15.2303 10.8084 15.2827L10.7679 15.3314L9.41937 16.7024L9.74637 18.6892C9.75701 18.7535 9.7507 18.8195 9.72805 18.8806C9.70541 18.9418 9.66721 18.996 9.61724 19.0378C9.56726 19.0797 9.50723 19.1078 9.44307 19.1194C9.37891 19.131 9.31284 19.1257 9.25137 19.1039L9.19587 19.0784L7.50012 18.1477L5.80437 19.0784C5.74727 19.1098 5.68298 19.1258 5.61782 19.1248C5.55267 19.1238 5.4889 19.1059 5.4328 19.0727C5.37671 19.0395 5.33022 18.9923 5.29792 18.9357C5.26562 18.8791 5.24863 18.8151 5.24862 18.7499L5.25387 18.6892L5.58012 16.7024L4.23237 15.3314C4.18774 15.286 4.15544 15.2299 4.1385 15.1685C4.12156 15.107 4.12055 15.0423 4.13556 14.9804C4.15057 14.9185 4.1811 14.8614 4.22429 14.8146C4.26747 14.7677 4.32188 14.7327 4.38237 14.7127L4.44387 14.6977L6.29637 14.4164L7.16112 12.5894Z" fill="black"/>
<path d="M10.7966 6.16645L8.94405 6.4477L8.8818 6.4627C8.82137 6.48277 8.76704 6.5179 8.72394 6.56478C8.68084 6.61166 8.65039 6.66875 8.63546 6.73065C8.62052 6.79256 8.6216 6.85725 8.63859 6.91862C8.65558 6.97999 8.68791 7.03603 8.73255 7.08145L10.0803 8.45245L9.75405 10.4392L9.7488 10.4992C9.74863 10.5644 9.76544 10.6285 9.79759 10.6852C9.82974 10.7419 9.87612 10.7892 9.93215 10.8225C9.98818 10.8559 10.0519 10.874 10.1171 10.8752C10.1823 10.8763 10.2466 10.8605 10.3038 10.8292L12.0003 9.89695L13.6961 10.8277L13.7516 10.8532C13.813 10.8749 13.8791 10.8803 13.9433 10.8687C14.0074 10.8571 14.0674 10.829 14.1174 10.7871C14.1674 10.7452 14.2056 10.691 14.2282 10.6299C14.2509 10.5688 14.2572 10.5028 14.2466 10.4384L13.9196 8.4517L15.2681 7.0807L15.3086 7.03195C15.345 6.97961 15.3674 6.91886 15.3738 6.85542C15.3802 6.79199 15.3704 6.72797 15.3451 6.66941C15.3199 6.61086 15.2802 6.5597 15.2297 6.52077C15.1792 6.48185 15.1196 6.45644 15.0566 6.44695L13.2033 6.1657L12.3393 4.3387C12.3089 4.27448 12.2609 4.22021 12.2009 4.18221C12.1409 4.1442 12.0713 4.12402 12.0003 4.12402C11.9293 4.12402 11.8597 4.1442 11.7997 4.18221C11.7397 4.22021 11.6917 4.27448 11.6613 4.3387L10.7966 6.1657V6.16645Z" fill="black"/>
</svg>
