<svg width="32" height="32" viewBox="0 0 32 32" fill="none" xmlns="http://www.w3.org/2000/svg">
<path d="M17.2707 13.339C17.4551 13.1547 17.7051 13.0512 17.9657 13.0512C18.2264 13.0512 18.4764 13.1547 18.6607 13.339C20.5807 15.259 20.5807 18.708 18.6607 20.628L14.7297 24.56C12.8097 26.48 9.35974 26.48 7.43974 24.56C5.52074 22.64 5.52074 19.19 7.43974 17.271L8.42374 16.288C8.60904 16.1084 8.85751 16.0089 9.11554 16.011C9.37356 16.013 9.62044 16.1164 9.80289 16.2989C9.98535 16.4813 10.0887 16.7282 10.0908 16.9862C10.0928 17.2442 9.9933 17.4927 9.81374 17.678L8.83074 18.661C7.67874 19.813 7.67874 22.018 8.83074 23.17C9.98274 24.322 12.1877 24.322 13.3397 23.17L17.2717 19.237C18.4237 18.086 18.4237 15.881 17.2717 14.729C17.0874 14.5447 16.9839 14.2947 16.9839 14.034C16.9839 13.7733 17.0874 13.5233 17.2717 13.339H17.2707ZM17.2707 7.43901C19.1907 5.52001 22.6407 5.52001 24.5607 7.43901C26.4797 9.35901 26.4797 12.809 24.5607 14.729L23.5767 15.712C23.3914 15.8916 23.143 15.9911 22.8849 15.989C22.6269 15.987 22.38 15.8836 22.1976 15.7012C22.0151 15.5187 21.9117 15.2718 21.9097 15.0138C21.9077 14.7558 22.0072 14.5073 22.1867 14.322L23.1697 13.339C24.3217 12.187 24.3217 9.98201 23.1697 8.83001C22.0177 7.67801 19.8127 7.67801 18.6607 8.83001L14.7287 12.763C13.5767 13.914 13.5767 16.119 14.7287 17.271C14.8224 17.3617 14.897 17.4702 14.9483 17.5901C14.9997 17.7099 15.0266 17.8388 15.0276 17.9692C15.0287 18.0996 15.0037 18.2289 14.9543 18.3495C14.9049 18.4702 14.832 18.5798 14.7398 18.672C14.6476 18.7642 14.5379 18.8372 14.4173 18.8866C14.2966 18.936 14.1673 18.9609 14.0369 18.9599C13.9066 18.9589 13.7777 18.9319 13.6578 18.8806C13.5379 18.8293 13.4295 18.7546 13.3387 18.661C11.4187 16.741 11.4187 13.292 13.3387 11.372L17.2707 7.43901Z" fill="black"/>
</svg>
