<svg width="32" height="32" viewBox="0 0 32 32" fill="none" xmlns="http://www.w3.org/2000/svg">
<path d="M16 6C21.523 6 26 10.477 26 16C26 21.523 21.523 26 16 26C10.477 26 6 21.523 6 16C6 10.477 10.477 6 16 6ZM16 8C13.8783 8 11.8434 8.84285 10.3431 10.3431C8.84285 11.8434 8 13.8783 8 16C8 18.1217 8.84285 20.1566 10.3431 21.6569C11.8434 23.1571 13.8783 24 16 24C18.1217 24 20.1566 23.1571 21.6569 21.6569C23.1571 20.1566 24 18.1217 24 16C24 13.8783 23.1571 11.8434 21.6569 10.3431C20.1566 8.84285 18.1217 8 16 8ZM16 10C16.2652 10 16.5196 10.1054 16.7071 10.2929C16.8946 10.4804 17 10.7348 17 11V15.585L19.707 18.293C19.8792 18.4652 19.9826 18.6943 19.9979 18.9373C20.0132 19.1803 19.9393 19.4206 19.79 19.613L19.707 19.707C19.5195 19.8945 19.2652 19.9998 19 19.9998C18.7348 19.9998 18.4805 19.8945 18.293 19.707L15.293 16.707L15.22 16.625C15.078 16.4476 15.0004 16.2272 15 16L15.004 16.09C15.0019 16.0667 15.0005 16.0434 15 16.02V11C15 10.7348 15.1054 10.4804 15.2929 10.2929C15.4804 10.1054 15.7348 10 16 10Z" fill="black"/>
</svg>
