<svg width="32" height="32" viewBox="0 0 32 32" fill="none" xmlns="http://www.w3.org/2000/svg">
<path d="M11.894 10.447C11.811 10.6131 11.6834 10.7528 11.5255 10.8504C11.3676 10.9481 11.1857 10.9999 11 11H7V23H25V11H21C20.8143 10.9999 20.6324 10.9481 20.4745 10.8504C20.3166 10.7528 20.189 10.6131 20.106 10.447L19.382 9H12.618L11.894 10.447ZM19.382 7C19.7535 7.00001 20.1176 7.10349 20.4336 7.29884C20.7496 7.49419 21.0049 7.77369 21.171 8.106L21.618 9H25C25.5304 9 26.0391 9.21071 26.4142 9.58579C26.7893 9.96086 27 10.4696 27 11V23C27 23.5304 26.7893 24.0391 26.4142 24.4142C26.0391 24.7893 25.5304 25 25 25H7C6.46957 25 5.96086 24.7893 5.58579 24.4142C5.21071 24.0391 5 23.5304 5 23V11C5 10.4696 5.21071 9.96086 5.58579 9.58579C5.96086 9.21071 6.46957 9 7 9H10.382L10.829 8.106C10.9951 7.77369 11.2504 7.49419 11.5664 7.29884C11.8824 7.10349 12.2465 7.00001 12.618 7H19.382ZM16 12C14.6739 12 13.4021 12.5268 12.4645 13.4645C11.5268 14.4021 11 15.6739 11 17C11 18.3261 11.5268 19.5979 12.4645 20.5355C13.4021 21.4732 14.6739 22 16 22C17.3261 22 18.5979 21.4732 19.5355 20.5355C20.4732 19.5979 21 18.3261 21 17C21 15.6739 20.4732 14.4021 19.5355 13.4645C18.5979 12.5268 17.3261 12 16 12ZM16 14C16.7956 14 17.5587 14.3161 18.1213 14.8787C18.6839 15.4413 19 16.2044 19 17C19 17.7956 18.6839 18.5587 18.1213 19.1213C17.5587 19.6839 16.7956 20 16 20C15.2044 20 14.4413 19.6839 13.8787 19.1213C13.3161 18.5587 13 17.7956 13 17C13 16.2044 13.3161 15.4413 13.8787 14.8787C14.4413 14.3161 15.2044 14 16 14Z" fill="black"/>
</svg>
