<svg width="40" height="40" viewBox="0 0 40 40" fill="none" xmlns="http://www.w3.org/2000/svg">
<path d="M21.6375 7.5C23.3175 7.5 24.7437 8.52375 25.4312 10.0587C25.6712 10.595 25.7725 11.1337 25.8987 12.2787L26.16 14.8837L29.1125 15.1462C29.604 15.1949 30.0811 15.3399 30.5164 15.5732C30.9518 15.8064 31.3369 16.1231 31.6497 16.5054C31.9624 16.8876 32.1968 17.3277 32.3393 17.8006C32.4817 18.2735 32.5296 18.7699 32.48 19.2613L32.0987 22.8088C31.4237 28.8375 31.0025 30.6362 29.9137 31.5125C29.1875 32.0975 28.5012 32.4187 27.6787 32.4875L27.42 32.5L27.0325 32.495H18.8275L18.6825 32.49L18.5362 32.4825L18.39 32.47C17.6415 32.3842 16.9358 32.0764 16.3637 31.5862C15.8137 32.0937 15.1012 32.4275 14.295 32.49L14.0225 32.5H11.0475C9.07625 32.5 7.6075 30.8912 7.50625 29.025L7.5 28.815V18.6825C7.5 16.7987 8.8975 15.1225 10.83 15.005L11.0462 15H14.0225C14.6675 15 15.2575 15.1725 15.7637 15.4688L16.13 15.215C16.8662 14.705 17.1562 14.2338 17.19 13.0463L17.1937 12.7988C17.1937 11.5075 17.2912 10.8363 17.6762 10.0713L17.9725 9.53875C18.385 8.815 19.0087 8.23125 19.7675 7.88125C20.38 7.60125 20.9812 7.5 21.6375 7.5ZM14.0225 17.5H11.0475L10.9187 17.5087C10.4562 17.5775 10.0838 18.005 10.025 18.5363L10.0175 18.6837V28.8162L10.025 28.9637C10.0838 29.495 10.4562 29.9225 10.9187 29.9912L11.0462 30H14.0225L14.1512 29.9912C14.6137 29.9225 14.985 29.495 15.0437 28.9637L15.0525 28.8162V18.6837L15.0437 18.5363C14.985 18.005 14.6137 17.5775 14.1512 17.5087L14.0225 17.5ZM21.6375 10C21.3576 9.99085 21.079 10.0429 20.8212 10.1525C20.5415 10.2863 20.3107 10.5045 20.1612 10.7763L19.9512 11.1437C19.8075 11.415 19.7362 11.6625 19.7162 12.3388L19.7112 12.7988C19.7112 15.2113 18.815 16.3588 17.72 17.1588L17.57 17.265V28.745L17.5775 28.89C17.64 29.4163 18.03 29.8425 18.54 29.9613L18.6812 29.9862L18.8275 29.995H27.1425L27.34 30L27.4312 29.9975C27.675 29.985 27.9062 29.91 28.3287 29.5712C28.7262 29.2512 29.275 25.7288 29.9762 19.0037C30.0076 18.6981 29.9252 18.3916 29.7449 18.1428C29.5646 17.894 29.299 17.7204 28.9987 17.655L28.835 17.63L23.93 17.1975L23.8862 16.9413L23.8037 16.3888C23.5287 14.38 23.3962 11.6675 23.1312 11.075C22.8287 10.3987 22.2687 10 21.6375 10Z" fill="black"/>
</svg>
