<svg width="32" height="32" viewBox="0 0 32 32" fill="none" xmlns="http://www.w3.org/2000/svg">
<path d="M24.007 6C25.107 6 26 6.893 26 7.993V24.007C26 25.107 25.107 26 24.007 26H7.993C6.893 26 6 25.107 6 24.007V7.993C6 6.893 6.893 6 7.993 6H24.007ZM24 8H8V24L9.078 23.998C9.365 22.278 10.46 21.152 12.553 20.106C12.7407 20.0122 12.9531 19.9797 13.1602 20.0133C13.3673 20.0469 13.5586 20.1447 13.707 20.293C13.939 20.524 14.167 20.683 14.408 20.789C14.766 20.947 15.087 20.993 15.796 20.999L16 21C16.855 21 17.201 20.962 17.592 20.789C17.832 20.683 18.062 20.524 18.292 20.293C18.4405 20.1445 18.632 20.0465 18.8393 20.0129C19.0466 19.9794 19.2592 20.0119 19.447 20.106C21.54 21.152 22.635 22.279 22.922 23.999L24 24V8ZM19.13 22.2C18.9018 22.3642 18.6571 22.5043 18.4 22.618C17.675 22.938 17.124 23 16 23C14.876 23 14.325 22.939 13.6 22.618C13.3429 22.5043 13.0982 22.3642 12.87 22.2C11.877 22.763 11.222 23.289 11 24H21C20.778 23.289 20.123 22.763 19.13 22.2ZM16 10C17.3261 10 18.5979 10.5268 19.5355 11.4645C20.4732 12.4021 21 13.6739 21 15C21 16.3261 20.4732 17.5979 19.5355 18.5355C18.5979 19.4732 17.3261 20 16 20C14.6739 20 13.4021 19.4732 12.4645 18.5355C11.5268 17.5979 11 16.3261 11 15C11 13.6739 11.5268 12.4021 12.4645 11.4645C13.4021 10.5268 14.6739 10 16 10ZM16 12C15.2044 12 14.4413 12.3161 13.8787 12.8787C13.3161 13.4413 13 14.2044 13 15C13 15.7956 13.3161 16.5587 13.8787 17.1213C14.4413 17.6839 15.2044 18 16 18C16.7956 18 17.5587 17.6839 18.1213 17.1213C18.6839 16.5587 19 15.7956 19 15C19 14.2044 18.6839 13.4413 18.1213 12.8787C17.5587 12.3161 16.7956 12 16 12Z" fill="black"/>
</svg>
