<svg width="40" height="40" viewBox="0 0 40 40" fill="none" xmlns="http://www.w3.org/2000/svg">
<path d="M21.5888 16.6737C21.8192 16.4433 22.1317 16.3139 22.4575 16.3139C22.7834 16.3139 23.0959 16.4433 23.3263 16.6737C25.7263 19.0737 25.7263 23.3849 23.3263 25.7849L18.4125 30.6999C16.0125 33.0999 11.7 33.0999 9.30004 30.6999C6.90129 28.2999 6.90129 23.9874 9.30004 21.5887L10.53 20.3599C10.7617 20.1355 11.0723 20.0111 11.3948 20.0136C11.7173 20.0162 12.0259 20.1454 12.254 20.3735C12.482 20.6016 12.6113 20.9102 12.6138 21.2327C12.6164 21.5552 12.492 21.8658 12.2675 22.0974L11.0388 23.3262C9.59879 24.7662 9.59879 27.5224 11.0388 28.9624C12.4788 30.4024 15.235 30.4024 16.675 28.9624L21.59 24.0462C23.03 22.6074 23.03 19.8512 21.59 18.4112C21.3597 18.1808 21.2303 17.8683 21.2303 17.5424C21.2303 17.2166 21.3597 16.9041 21.59 16.6737H21.5888ZM21.5888 9.2987C23.9888 6.89995 28.3013 6.89995 30.7013 9.2987C33.1 11.6987 33.1 16.0112 30.7013 18.4112L29.4713 19.6399C29.2397 19.8644 28.9291 19.9888 28.6065 19.9862C28.284 19.9837 27.9754 19.8545 27.7473 19.6264C27.5193 19.3983 27.39 19.0897 27.3875 18.7672C27.385 18.4447 27.5093 18.1341 27.7338 17.9024L28.9625 16.6737C30.4025 15.2337 30.4025 12.4774 28.9625 11.0374C27.5225 9.59745 24.7663 9.59745 23.3263 11.0374L18.4113 15.9537C16.9713 17.3924 16.9713 20.1487 18.4113 21.5887C18.5283 21.7021 18.6217 21.8377 18.6858 21.9875C18.7499 22.1374 18.7836 22.2985 18.7849 22.4614C18.7862 22.6244 18.755 22.786 18.6933 22.9369C18.6315 23.0877 18.5403 23.2247 18.4251 23.34C18.3098 23.4552 18.1728 23.5464 18.022 23.6082C17.8711 23.6699 17.7095 23.7011 17.5465 23.6998C17.3836 23.6985 17.2225 23.6648 17.0726 23.6007C16.9228 23.5366 16.7872 23.4432 16.6738 23.3262C14.2738 20.9262 14.2738 16.6149 16.6738 14.2149L21.5888 9.2987Z" fill="black"/>
</svg>
