<svg width="40" height="40" viewBox="0 0 40 40" fill="none" xmlns="http://www.w3.org/2000/svg">
<path d="M20 5C28.2838 5 35 11.7163 35 20C35 28.2838 28.2838 35 20 35C11.7163 35 5 28.2838 5 20C5 11.7163 11.7163 5 20 5ZM24.635 26.25H15.365C15.9437 28.1787 16.775 30.2013 17.865 32.3162C19.2782 32.5605 20.7228 32.5614 22.1362 32.3187C23.2237 30.2013 24.0575 28.1787 24.6362 26.25H24.635ZM12.765 26.25H9.1725C10.433 28.4275 12.3187 30.176 14.585 31.2687C13.8503 29.6451 13.2418 27.9672 12.765 26.25ZM30.8275 26.2512L27.2362 26.25C26.7593 27.9669 26.1504 29.6444 25.415 31.2675C27.6814 30.176 29.5672 28.4283 30.8275 26.2512ZM12.025 17.5013L7.75 17.5C7.32832 19.5772 7.43927 21.7273 8.0725 23.75H12.2063C11.9893 22.5117 11.8785 21.2571 11.875 20C11.875 19.1825 11.925 18.35 12.025 17.5V17.5013ZM25.4562 17.5H14.5438C14.4313 18.3538 14.375 19.1875 14.375 20C14.375 21.2038 14.5 22.4538 14.7475 23.75H25.2525C25.5012 22.4538 25.625 21.2038 25.625 20C25.625 19.1875 25.5688 18.3538 25.4562 17.5ZM32.25 17.5H27.975C28.075 18.35 28.125 19.1825 28.125 20C28.125 21.2175 28.015 22.4675 27.7938 23.75H31.9275C32.5607 21.7273 32.6717 19.5772 32.25 17.5ZM14.585 8.7325L14.46 8.79125C11.8183 10.1014 9.72243 12.3 8.54 15.0013H12.4538C12.9038 12.99 13.615 10.9012 14.585 8.7325ZM20 7.5C19.2725 7.5 18.5588 7.5625 17.865 7.68125L17.9838 7.45375C16.5938 10.1163 15.6088 12.6313 15.0212 15.0013H24.9775C24.3913 12.6313 23.4062 10.1163 22.0175 7.45375L22.135 7.68125C21.4298 7.56023 20.7155 7.4996 20 7.5ZM25.4163 8.73125L25.42 8.74375C26.3875 10.9075 27.0975 12.9938 27.5463 15.0013H31.46C30.2585 12.2568 28.1147 10.0328 25.4163 8.73125Z" fill="black"/>
</svg>
