<svg width="40" height="40" viewBox="0 0 40 40" fill="none" xmlns="http://www.w3.org/2000/svg">
<path d="M18.75 7.5C20.8684 7.5 22.9438 8.09813 24.7373 9.22555C26.5308 10.353 27.9695 11.9639 28.8879 13.8728C29.8062 15.7818 30.167 17.9113 29.9285 20.0163C29.6901 22.1212 28.8622 24.1161 27.54 25.7713L33.17 31.4013C33.2862 31.5174 33.3783 31.6553 33.4411 31.807C33.504 31.9587 33.5364 32.1214 33.5364 32.2856C33.5364 32.4499 33.504 32.6125 33.4411 32.7642C33.3783 32.916 33.2862 33.0539 33.17 33.17C33.0539 33.2861 32.916 33.3783 32.7643 33.4411C32.6125 33.504 32.4499 33.5363 32.2857 33.5363C32.1214 33.5363 31.9588 33.504 31.807 33.4411C31.6553 33.3783 31.5174 33.2861 31.4013 33.17L25.7713 27.54C24.3672 28.6616 22.7148 29.4305 20.9525 29.7823C19.1902 30.1341 17.3692 30.0586 15.6421 29.5622C13.9149 29.0657 12.3318 28.1627 11.0254 26.9288C9.71887 25.6948 8.72701 24.1659 8.13279 22.4699C7.53858 20.7739 7.35931 18.9602 7.61 17.1807C7.86068 15.4012 8.53403 13.7076 9.57366 12.2418C10.6133 10.7759 11.989 9.58047 13.5855 8.75549C15.182 7.9305 16.9529 7.49999 18.75 7.5ZM18.75 10C16.4294 10 14.2038 10.9219 12.5628 12.5628C10.9219 14.2038 10 16.4294 10 18.75C10 21.0706 10.9219 23.2962 12.5628 24.9372C14.2038 26.5781 16.4294 27.5 18.75 27.5C21.0707 27.5 23.2963 26.5781 24.9372 24.9372C26.5782 23.2962 27.5 21.0706 27.5 18.75C27.5 16.4294 26.5782 14.2038 24.9372 12.5628C23.2963 10.9219 21.0707 10 18.75 10ZM23.75 17.5C24.0816 17.5 24.3995 17.6317 24.6339 17.8661C24.8683 18.1005 25 18.4185 25 18.75C25 19.0815 24.8683 19.3995 24.6339 19.6339C24.3995 19.8683 24.0816 20 23.75 20H13.75C13.4185 20 13.1006 19.8683 12.8662 19.6339C12.6317 19.3995 12.5 19.0815 12.5 18.75C12.5 18.4185 12.6317 18.1005 12.8662 17.8661C13.1006 17.6317 13.4185 17.5 13.75 17.5H23.75Z" fill="black"/>
</svg>
