<svg width="24" height="24" viewBox="0 0 24 24" fill="none" xmlns="http://www.w3.org/2000/svg">
<path d="M16.5 4.5C16.8978 4.5 17.2794 4.65804 17.5607 4.93934C17.842 5.22064 18 5.60218 18 6V13.98C18.0001 14.1778 17.961 14.3737 17.885 14.5563C17.8091 14.739 17.6978 14.9048 17.5575 15.0443L13.512 19.0643C13.2309 19.3435 12.8507 19.5001 12.4545 19.5H7.5C7.10218 19.5 6.72064 19.342 6.43934 19.0607C6.15804 18.7794 6 18.3978 6 18V6C6 5.60218 6.15804 5.22064 6.43934 4.93934C6.72064 4.65804 7.10218 4.5 7.5 4.5H16.5ZM16.5 6H7.5V18H12V14.9925C12 14.1698 12.6727 13.5 13.4925 13.5H16.5V6ZM15.4395 15H13.5V16.9395L15.4395 15ZM14.25 10.5C14.4489 10.5 14.6397 10.579 14.7803 10.7197C14.921 10.8603 15 11.0511 15 11.25C15 11.4489 14.921 11.6397 14.7803 11.7803C14.6397 11.921 14.4489 12 14.25 12H9.75C9.55109 12 9.36032 11.921 9.21967 11.7803C9.07902 11.6397 9 11.4489 9 11.25C9 11.0511 9.07902 10.8603 9.21967 10.7197C9.36032 10.579 9.55109 10.5 9.75 10.5H14.25ZM14.25 7.5C14.4489 7.5 14.6397 7.57902 14.7803 7.71967C14.921 7.86032 15 8.05109 15 8.25C15 8.44891 14.921 8.63968 14.7803 8.78033C14.6397 8.92098 14.4489 9 14.25 9H9.75C9.55109 9 9.36032 8.92098 9.21967 8.78033C9.07902 8.63968 9 8.44891 9 8.25C9 8.05109 9.07902 7.86032 9.21967 7.71967C9.36032 7.57902 9.55109 7.5 9.75 7.5H14.25Z" fill="black"/>
</svg>
