<svg width="32" height="32" viewBox="0 0 32 32" fill="none" xmlns="http://www.w3.org/2000/svg">
<path d="M11.3161 8.68345L23.3166 20.6839C23.4491 20.8166 23.5452 20.9813 23.5956 21.1621C23.6459 21.3428 23.6488 21.5335 23.6039 21.7156C23.5591 21.8978 23.468 22.0653 23.3395 22.202C23.211 22.3387 23.0494 22.4399 22.8704 22.496L5.41516 27.9507C5.22525 28.0098 5.02279 28.0159 4.82969 27.9683C4.63658 27.9206 4.46017 27.8211 4.31953 27.6805C4.17889 27.5398 4.07938 27.3634 4.03175 27.1703C3.98411 26.9772 3.99018 26.7748 4.04929 26.5848L9.50404 9.12965C9.55992 8.95051 9.66107 8.78882 9.79771 8.6602C9.93435 8.53158 10.1019 8.44038 10.284 8.39541C10.4662 8.35044 10.6569 8.35322 10.8377 8.40348C11.0185 8.45375 11.1833 8.5498 11.3161 8.68236V8.68345ZM9.45385 16.6037L6.75266 25.2473L9.45385 24.4029V16.6037ZM11.6358 12.0872V23.7211L13.9202 23.0076C13.8526 22.8632 13.8176 22.7056 13.8177 22.5461V14.9095C13.8177 14.724 13.8635 14.5495 13.9453 14.3968L11.6358 12.0883V12.0872ZM15.9996 16.4521V22.3574L20.4986 20.9512L15.9996 16.4521ZM26.909 14.9095C27.1984 14.9095 27.4759 15.0244 27.6805 15.229C27.8851 15.4336 28 15.7111 28 16.0004C28 16.2898 27.8851 16.5673 27.6805 16.7719C27.4759 16.9765 27.1984 17.0914 26.909 17.0914H22.5453C22.2559 17.0914 21.9784 16.9765 21.7738 16.7719C21.5692 16.5673 21.4543 16.2898 21.4543 16.0004C21.4543 15.7111 21.5692 15.4336 21.7738 15.229C21.9784 15.0244 22.2559 14.9095 22.5453 14.9095H26.909ZM26.5894 5.4106C26.7939 5.61518 26.9088 5.89262 26.9088 6.1819C26.9088 6.47118 26.7939 6.74862 26.5894 6.9532L21.1347 12.408C20.9289 12.6067 20.6533 12.7166 20.3673 12.7142C20.0812 12.7117 19.8076 12.5969 19.6053 12.3947C19.4031 12.1924 19.2883 11.9188 19.2858 11.6327C19.2834 11.3467 19.3933 11.0711 19.592 10.8653L25.0468 5.4106C25.2514 5.20608 25.5288 5.09118 25.8181 5.09118C26.1074 5.09118 26.3848 5.20608 26.5894 5.4106ZM15.9996 4C16.2889 4 16.5664 4.11494 16.771 4.31953C16.9756 4.52412 17.0905 4.80161 17.0905 5.09095V9.45475C17.0905 9.74409 16.9756 10.0216 16.771 10.2262C16.5664 10.4308 16.2889 10.5457 15.9996 10.5457C15.7102 10.5457 15.4327 10.4308 15.2281 10.2262C15.0235 10.0216 14.9086 9.74409 14.9086 9.45475V5.09095C14.9086 4.80161 15.0235 4.52412 15.2281 4.31953C15.4327 4.11494 15.7102 4 15.9996 4Z" fill="black"/>
</svg>
