<svg width="32" height="32" viewBox="0 0 32 32" fill="none" xmlns="http://www.w3.org/2000/svg">
<path d="M9.27122 18.758C9.08371 18.5704 8.97842 18.3159 8.97852 18.0507C8.97861 17.7854 9.08408 17.531 9.27172 17.3435C9.45936 17.156 9.7138 17.0507 9.97907 17.0508C10.2443 17.0509 10.4987 17.1564 10.6862 17.344L14.7142 21.372L22.0642 8.64202C22.1868 8.43005 22.3829 8.27041 22.6153 8.19337C22.8477 8.11633 23.1003 8.12723 23.3252 8.22402L23.4302 8.27702C23.6599 8.40964 23.8275 8.62805 23.8961 8.88423C23.9648 9.1404 23.9288 9.41334 23.7962 9.64302L15.7962 23.499C15.7926 23.5057 15.789 23.5124 15.7852 23.519L15.7602 23.556C15.7231 23.6099 15.6812 23.6605 15.6352 23.707L15.6972 23.641C15.6782 23.6636 15.6582 23.6853 15.6372 23.706L15.6322 23.711C15.6076 23.7359 15.5816 23.7593 15.5542 23.781L15.5292 23.801C15.4919 23.8293 15.4524 23.8547 15.4112 23.877L15.3852 23.89C15.3262 23.9207 15.2642 23.9452 15.2002 23.963C15.1942 23.963 15.1872 23.965 15.1802 23.967C15.151 23.9755 15.1213 23.9822 15.0912 23.987C15.0862 23.987 15.0802 23.987 15.0742 23.989C15.0474 23.9939 15.0204 23.9973 14.9932 23.999H14.9572C14.9319 24.0005 14.9065 24.0005 14.8812 23.999L14.8512 23.996C14.6134 23.9791 14.3896 23.8768 14.2212 23.708L9.27122 18.758Z" fill="black"/>
</svg>
