<svg width="40" height="40" viewBox="0 0 40 40" fill="none" xmlns="http://www.w3.org/2000/svg">
<path d="M24.7231 14.6006L24.7231 24.8456C24.7231 24.9572 24.6933 25.0667 24.6367 25.1628C24.58 25.2589 24.4987 25.3382 24.4011 25.3922C24.3035 25.4463 24.1933 25.4733 24.0817 25.4704C23.9702 25.4674 23.8615 25.4347 23.7669 25.3756L15.5706 20.2531C15.4808 20.1969 15.4066 20.1188 15.3552 20.0261C15.3039 19.9334 15.2769 19.8291 15.2769 19.7231C15.2769 19.6171 15.3039 19.5128 15.3552 19.4201C15.4066 19.3274 15.4808 19.2493 15.5706 19.1931L23.7669 14.0706C23.8615 14.0115 23.9702 13.9787 24.0817 13.9758C24.1933 13.9729 24.3035 13.9999 24.4011 14.0539C24.4987 14.108 24.58 14.1872 24.6367 14.2834C24.6933 14.3795 24.7231 14.489 24.7231 14.6006Z" fill="black"/>
</svg>
