<svg width="24" height="24" viewBox="0 0 24 24" fill="none" xmlns="http://www.w3.org/2000/svg">
<path d="M14.625 2.25C14.9759 2.25094 15.323 2.32222 15.6459 2.45962C15.9688 2.59702 16.2608 2.79776 16.5047 3.04996C16.7487 3.30217 16.9396 3.60072 17.0662 3.92798C17.1928 4.25524 17.2525 4.60455 17.2418 4.95527C17.231 5.30599 17.1501 5.65101 17.0037 5.96991C16.8574 6.28882 16.6486 6.57514 16.3896 6.81196C16.1307 7.04878 15.827 7.23129 15.4963 7.34869C15.1656 7.4661 14.8148 7.51602 14.4645 7.4955L14.4683 7.503L14.5118 7.605L14.5643 7.7475L14.5853 7.815C14.6704 8.1064 14.6955 8.41203 14.6591 8.71342C14.6228 9.01481 14.5257 9.3057 14.3738 9.5685L14.0767 10.0808H14.6768C15.4718 10.0808 16.194 10.4978 16.5743 11.115L18.8752 15.105C19.1689 15.6215 19.2464 16.2332 19.0907 16.8066C18.935 17.38 18.5589 17.8685 18.0443 18.1656C17.5298 18.4627 16.9186 18.5442 16.3442 18.3923C15.7698 18.2405 15.2787 17.8676 14.9783 17.355L13.3755 14.58L10.3718 14.5808L10.1895 14.5905C9.84826 14.5929 9.51097 14.5175 9.20325 14.37L9.05025 14.289C8.71101 14.0932 8.42877 13.8123 8.23145 13.474C8.03414 13.1356 7.92859 12.7517 7.92525 12.36L7.9275 12.2603L7.9365 12.1223L7.9515 11.9978L7.95975 11.9475L7.9905 11.802L8.0175 11.7023C8.08425 11.4698 8.1885 11.2508 8.325 11.0543L8.27175 11.1353L9.1845 9.55425L8.424 9.24675L7.4265 9.82425C6.93021 10.1108 6.34331 10.1971 5.78554 10.0657C5.22777 9.93424 4.74116 9.59494 4.425 9.117L4.353 9C4.05464 8.48322 3.97379 7.86909 4.12823 7.2927C4.28266 6.71631 4.65974 6.22488 5.1765 5.9265L7.125 4.8015C7.39455 4.64567 7.69353 4.54754 8.003 4.51332C8.31247 4.47911 8.62567 4.50956 8.92275 4.60275L8.97975 4.62225L9.09225 4.6635L12.2197 5.928C12.0448 5.52843 11.9721 5.09156 12.0084 4.65687C12.0446 4.22218 12.1886 3.80337 12.4274 3.4383C12.6661 3.07323 12.992 2.77341 13.3757 2.56594C13.7594 2.35847 14.1888 2.24988 14.625 2.25ZM8.4735 6.03375C8.30339 5.98054 8.11986 5.98985 7.956 6.06L7.875 6.1005L5.9265 7.2255C5.75565 7.32566 5.63134 7.48934 5.58072 7.68081C5.5301 7.87228 5.55727 8.07601 5.65629 8.24752C5.75532 8.41904 5.91817 8.54442 6.1093 8.59631C6.30043 8.6482 6.50433 8.62239 6.6765 8.5245L8.15025 7.674C8.19959 7.64562 8.25474 7.62885 8.31153 7.62495C8.36832 7.62105 8.42524 7.63013 8.478 7.6515L10.9462 8.649L10.9935 8.6715C11.0796 8.72123 11.1425 8.80314 11.1682 8.8992C11.194 8.99527 11.1805 9.09762 11.1307 9.18375L9.5595 11.9063C9.5149 11.9704 9.48096 12.0413 9.459 12.1163L9.441 12.1838L9.4335 12.2333L9.429 12.2775L9.4245 12.3465C9.42532 12.4545 9.44944 12.561 9.49522 12.6588C9.54099 12.7566 9.60734 12.8433 9.68973 12.9131C9.77212 12.9829 9.86861 13.0341 9.97259 13.0631C10.0766 13.0922 10.1856 13.0985 10.2922 13.0815L14.0258 13.08C14.0916 13.08 14.1562 13.0973 14.2132 13.1302C14.2702 13.1632 14.3176 13.2105 14.3505 13.2675L16.2772 16.605C16.3261 16.691 16.3915 16.7665 16.4697 16.8271C16.5479 16.8877 16.6373 16.9322 16.7327 16.9581C16.8282 16.984 16.9278 16.9908 17.0259 16.9781C17.124 16.9653 17.2186 16.9333 17.3042 16.8838C17.3899 16.8344 17.4649 16.7685 17.525 16.6899C17.5851 16.6113 17.629 16.5216 17.6543 16.426C17.6796 16.3304 17.6857 16.2307 17.6723 16.1327C17.6589 16.0347 17.6263 15.9403 17.5763 15.855L15.3412 11.9828C15.2777 11.8615 15.1822 11.7599 15.0651 11.689C14.9479 11.6182 14.8137 11.5807 14.6768 11.5808H12.129C12.0632 11.5807 11.9985 11.5634 11.9415 11.5305C11.8845 11.4976 11.8372 11.4503 11.8042 11.3932C11.7713 11.3362 11.754 11.2716 11.754 11.2057C11.754 11.1399 11.7713 11.0753 11.8043 11.0183L13.0748 8.8185C13.1254 8.73108 13.1577 8.63428 13.1699 8.53398C13.182 8.43368 13.1736 8.33197 13.1453 8.235L13.1318 8.193L13.089 8.09175C13.007 7.93197 12.8701 7.80709 12.7035 7.74L8.53125 6.05475L8.4735 6.03375ZM14.625 3.75C14.3266 3.75 14.0405 3.86853 13.8295 4.07951C13.6185 4.29048 13.5 4.57663 13.5 4.875C13.5 5.17337 13.6185 5.45952 13.8295 5.6705C14.0405 5.88147 14.3266 6 14.625 6C14.9234 6 15.2095 5.88147 15.4205 5.6705C15.6315 5.45952 15.75 5.17337 15.75 4.875C15.75 4.57663 15.6315 4.29048 15.4205 4.07951C15.2095 3.86853 14.9234 3.75 14.625 3.75ZM4.82475 12.081C4.97386 12.0809 5.11962 12.1252 5.24342 12.2083C5.36723 12.2914 5.46344 12.4095 5.51979 12.5476C5.57614 12.6856 5.59006 12.8373 5.55977 12.9833C5.52948 13.1293 5.45636 13.263 5.34975 13.3673C4.79983 14.0395 4.49958 14.8815 4.5 15.75C4.49944 16.612 4.79584 17.4478 5.33931 18.1169C5.88279 18.7859 6.64016 19.2473 7.48395 19.4234C8.32774 19.5995 9.20643 19.4795 9.97212 19.0836C10.7378 18.6878 11.3438 18.0403 11.688 17.25L13.0605 17.2508C13.1276 17.2507 13.1934 17.2686 13.2512 17.3026C13.309 17.3367 13.3565 17.3856 13.389 17.4443L14.418 19.3065C14.4505 19.3652 14.498 19.4141 14.5558 19.4481C14.6136 19.4821 14.6794 19.5001 14.7465 19.5H16.5C16.6989 19.5 16.8897 19.579 17.0303 19.7197C17.171 19.8603 17.25 20.0511 17.25 20.25C17.25 20.4489 17.171 20.6397 17.0303 20.7803C16.8897 20.921 16.6989 21 16.5 21H13.8727C13.8186 20.9996 13.7652 20.9876 13.7161 20.9646C13.6671 20.9417 13.6235 20.9085 13.5885 20.8673L13.5502 20.8125L12.4478 18.903C11.7862 19.7838 10.8643 20.4342 9.8127 20.762C8.76106 21.0899 7.63294 21.0787 6.58803 20.73C5.54312 20.3813 4.63437 19.7127 3.99043 18.819C3.34649 17.9252 3 16.8516 3 15.75C3 14.3528 3.765 12.8288 4.4355 12.1425C4.533 12.081 4.69125 12.081 4.82475 12.081Z" fill="black"/>
</svg>
