<svg width="32" height="32" viewBox="0 0 32 32" fill="none" xmlns="http://www.w3.org/2000/svg">
<path d="M19.003 6C20.107 6 20.995 6.89 21 8H23C23.5304 8 24.0391 8.21071 24.4142 8.58579C24.7893 8.96086 25 9.46957 25 10V24C25 24.5304 24.7893 25.0391 24.4142 25.4142C24.0391 25.7893 23.5304 26 23 26H9C8.46957 26 7.96086 25.7893 7.58579 25.4142C7.21071 25.0391 7 24.5304 7 24V10C7 9.46957 7.21071 8.96086 7.58579 8.58579C7.96086 8.21071 8.46957 8 9 8H11L11.005 7.86C11.042 7.35617 11.2676 6.88482 11.6369 6.54004C12.0061 6.19526 12.4918 6.00242 12.997 6H19.003ZM11 10H9V24H23V10H21L20.995 10.14C20.958 10.6438 20.7324 11.1152 20.3631 11.46C19.9939 11.8047 19.5082 11.9976 19.003 12H12.997C12.7345 11.9999 12.4747 11.948 12.2322 11.8474C11.9898 11.7468 11.7696 11.5995 11.5841 11.4137C11.3987 11.228 11.2516 11.0076 11.1514 10.765C11.0512 10.5224 10.9997 10.2625 11 10ZM17 19C17.2652 19 17.5196 19.1054 17.7071 19.2929C17.8946 19.4804 18 19.7348 18 20C18 20.2652 17.8946 20.5196 17.7071 20.7071C17.5196 20.8946 17.2652 21 17 21H12C11.7348 21 11.4804 20.8946 11.2929 20.7071C11.1054 20.5196 11 20.2652 11 20C11 19.7348 11.1054 19.4804 11.2929 19.2929C11.4804 19.1054 11.7348 19 12 19H17ZM20 15C20.2652 15 20.5196 15.1054 20.7071 15.2929C20.8946 15.4804 21 15.7348 21 16C21 16.2652 20.8946 16.5196 20.7071 16.7071C20.5196 16.8946 20.2652 17 20 17H12C11.7348 17 11.4804 16.8946 11.2929 16.7071C11.1054 16.5196 11 16.2652 11 16C11 15.7348 11.1054 15.4804 11.2929 15.2929C11.4804 15.1054 11.7348 15 12 15H20ZM19.002 8H12.997C13.005 8 13 8.005 13 8.01V9.99C13 9.997 13 10 12.998 10H19.003C18.995 10 19 9.995 19 9.99V8.01C19 8.003 19 8 19.002 8Z" fill="black"/>
</svg>
