<svg width="24" height="24" viewBox="0 0 24 24" fill="none" xmlns="http://www.w3.org/2000/svg">
<path d="M12 3C16.9703 3 21 7.02975 21 12C21 16.9703 16.9703 21 12 21C7.02975 21 3 16.9703 3 12C3 7.02975 7.02975 3 12 3ZM14.781 15.75H9.219C9.56625 16.9073 10.065 18.1208 10.719 19.3898C11.5669 19.5363 12.4337 19.5368 13.2817 19.3913C13.9342 18.1207 14.4345 16.9073 14.7817 15.75H14.781ZM7.659 15.75H5.5035C6.25982 17.0565 7.39123 18.1056 8.751 18.7612C8.31017 17.7871 7.94508 16.7803 7.659 15.75ZM18.4965 15.7507L16.3417 15.75C16.0556 16.7801 15.6902 17.7866 15.249 18.7605C16.6088 18.1056 17.7403 17.057 18.4965 15.7507ZM7.215 10.5008L4.65 10.5C4.39699 11.7463 4.46356 13.0364 4.8435 14.25H7.32375C7.1936 13.507 7.12711 12.7543 7.125 12C7.125 11.5095 7.155 11.01 7.215 10.5V10.5008ZM15.2738 10.5H8.72625C8.65875 11.0122 8.625 11.5125 8.625 12C8.625 12.7222 8.7 13.4722 8.8485 14.25H15.1515C15.3007 13.4722 15.375 12.7222 15.375 12C15.375 11.5125 15.3412 11.0122 15.2738 10.5ZM19.35 10.5H16.785C16.845 11.01 16.875 11.5095 16.875 12C16.875 12.7305 16.809 13.4805 16.6763 14.25H19.1565C19.5364 13.0364 19.603 11.7463 19.35 10.5ZM8.751 5.2395L8.676 5.27475C7.09101 6.06085 5.83346 7.38 5.124 9.00075H7.47225C7.74225 7.794 8.169 6.54075 8.751 5.2395ZM12 4.5C11.5635 4.5 11.1353 4.5375 10.719 4.60875L10.7902 4.47225C9.95625 6.06975 9.36525 7.57875 9.01275 9.00075H14.9865C14.6348 7.57875 14.0437 6.06975 13.2105 4.47225L13.281 4.60875C12.8579 4.53614 12.4293 4.49976 12 4.5ZM15.2498 5.23875L15.252 5.24625C15.8325 6.5445 16.2585 7.79625 16.5278 9.00075H18.876C18.1551 7.35408 16.8688 6.01967 15.2498 5.23875Z" fill="black"/>
</svg>
