<svg width="24" height="24" viewBox="0 0 24 24" fill="none" xmlns="http://www.w3.org/2000/svg">
<path d="M12 5.25C12.1989 5.25 12.3897 5.32902 12.5303 5.46967C12.671 5.61032 12.75 5.80109 12.75 6V11.25H18C18.1837 11.25 18.361 11.3175 18.4983 11.4395C18.6356 11.5616 18.7233 11.7298 18.7448 11.9123L18.75 12C18.75 12.1989 18.671 12.3897 18.5303 12.5303C18.3897 12.671 18.1989 12.75 18 12.75H12.75V18C12.75 18.1837 12.6825 18.361 12.5605 18.4983C12.4384 18.6356 12.2702 18.7233 12.0878 18.7448L12 18.75C11.8011 18.75 11.6103 18.671 11.4697 18.5303C11.329 18.3897 11.25 18.1989 11.25 18V12.75H6C5.8163 12.75 5.639 12.6825 5.50172 12.5605C5.36444 12.4384 5.27674 12.2702 5.25525 12.0878L5.25 12C5.25 11.8011 5.32902 11.6103 5.46967 11.4697C5.61032 11.329 5.80109 11.25 6 11.25H11.25V6C11.25 5.8163 11.3175 5.639 11.4395 5.50172C11.5616 5.36444 11.7298 5.27674 11.9123 5.25525L12 5.25Z" fill="black"/>
</svg>
