<svg width="32" height="32" viewBox="0 0 32 32" fill="none" xmlns="http://www.w3.org/2000/svg">
<path d="M18.4328 8.96006L22.0098 12.5091L23.5918 10.9391L20.0148 7.38906L18.4328 8.95906V8.96006ZM20.7198 5.29006L25.7078 10.2401C25.8004 10.3316 25.874 10.4406 25.9242 10.5607C25.9744 10.6809 26.0002 10.8098 26.0002 10.9401C26.0002 11.0703 25.9744 11.1992 25.9242 11.3194C25.874 11.4395 25.8004 11.5485 25.7078 11.6401L22.7148 14.6091C22.5271 14.7946 22.2738 14.8986 22.0098 14.8986C21.7459 14.8986 21.4925 14.7946 21.3048 14.6091L21.0348 14.3421C19.8178 15.7181 19.0118 17.1541 18.5378 18.5861C18.3596 19.1154 18.2304 19.6601 18.1518 20.2131C18.1214 20.4154 18.1043 20.6195 18.1008 20.8241L18.0978 20.9201C17.9828 22.3081 16.5928 22.8021 15.6078 21.8251L13.1108 19.3451C13.0933 19.3658 13.0749 19.3858 13.0558 19.4051L6.69981 25.7121C6.51239 25.8978 6.25904 26.0017 5.99519 26.0012C5.73133 26.0006 5.47843 25.8956 5.29181 25.7091C5.19918 25.6179 5.12556 25.5093 5.07522 25.3895C5.02488 25.2697 4.99882 25.1411 4.99854 25.0112C4.99826 24.8812 5.02377 24.7525 5.0736 24.6325C5.12342 24.5125 5.19657 24.4036 5.28881 24.3121L11.6438 18.0071L11.7038 17.9531L9.04381 15.3131C8.05381 14.3311 8.55581 12.9901 9.93081 12.8451L10.0568 12.8391C10.1618 12.8401 10.3718 12.8291 10.6678 12.7891C11.2249 12.7112 11.7738 12.583 12.3078 12.4061C13.7508 11.9361 15.1978 11.1341 16.5838 9.92806L16.3158 9.66006C16.2232 9.56854 16.1496 9.45954 16.0994 9.33938C16.0492 9.21922 16.0234 9.09029 16.0234 8.96006C16.0234 8.82984 16.0492 8.70091 16.0994 8.58075C16.1496 8.46059 16.2232 8.35159 16.3158 8.26006L19.3078 5.29006C19.4956 5.10423 19.7491 5 20.0133 5C20.2775 5 20.531 5.10423 20.7188 5.29006H20.7198ZM17.9998 11.3301C16.3778 12.7631 14.6598 13.7221 12.9308 14.2861C12.3088 14.4881 11.7458 14.6231 11.2558 14.7061L16.2178 19.6301C16.3018 19.1441 16.4378 18.5851 16.6418 17.9681C17.2098 16.2531 18.1758 14.5481 19.6218 12.9381L19.4778 12.7961L19.3518 12.6711C18.9009 12.2238 18.4497 11.7763 17.9988 11.3291L17.9998 11.3301Z" fill="black"/>
</svg>
