<svg width="32" height="32" viewBox="0 0 32 32" fill="none" xmlns="http://www.w3.org/2000/svg">
<path d="M13.055 29.325L13.037 29.272C13.013 29.1901 13.0006 29.1053 13 29.02V25C12.1605 24.3704 11.5403 23.4925 11.2274 22.4908C10.9145 21.4892 10.9247 20.4144 11.2566 19.4189C11.5884 18.4233 12.2251 17.5574 13.0764 16.9438C13.9278 16.3302 14.9506 16 16 16C17.0494 16 18.0722 16.3302 18.9236 16.9438C19.7749 17.5574 20.4116 18.4233 20.7434 19.4189C21.0753 20.4144 21.0855 21.4892 20.7726 22.4908C20.4597 23.4925 19.8395 24.3704 19 25V24.997V29L18.999 29.02V29.04C18.9985 29.0584 18.9975 29.0767 18.996 29.095V29.078L18.988 29.155C18.9823 29.1945 18.974 29.2336 18.963 29.272L18.95 29.312C18.9423 29.336 18.9337 29.3597 18.924 29.383L18.919 29.395L18.909 29.418C18.8965 29.4453 18.8829 29.472 18.868 29.498L18.874 29.484L18.857 29.516C18.8444 29.5368 18.8311 29.5572 18.817 29.577L18.787 29.618C18.777 29.628 18.769 29.64 18.76 29.65L18.737 29.676L18.714 29.701C18.6759 29.7375 18.6358 29.7719 18.594 29.804C18.55 29.8371 18.5032 29.8663 18.454 29.891L18.389 29.921C18.3446 29.9382 18.2996 29.9535 18.254 29.967L18.229 29.974L18.193 29.981C18.1363 29.9923 18.0788 29.9986 18.021 30H18L17.922 29.997L17.918 29.996L18 30H17.961C17.9423 29.9992 17.9236 29.9979 17.905 29.996H17.918L17.845 29.988C17.8055 29.9823 17.7664 29.974 17.728 29.963L17.688 29.95C17.6623 29.9418 17.6369 29.9325 17.612 29.922L17.593 29.914L16 29.204L14.407 29.914L14.325 29.944L14.272 29.963C14.1965 29.9849 14.1186 29.997 14.04 29.999H14.02L14 30C13.9226 30.0002 13.8454 29.9915 13.77 29.974L13.746 29.967C13.7 29.9549 13.6549 29.9395 13.611 29.921L13.546 29.891C13.5155 29.8745 13.4855 29.8572 13.456 29.839C13.439 29.8278 13.4223 29.8162 13.406 29.804L13.367 29.774L13.324 29.737L13.304 29.719L13.286 29.7C13.2603 29.6743 13.2362 29.6469 13.214 29.618L13.184 29.578C13.1484 29.5275 13.1173 29.4739 13.091 29.418L13.086 29.407L13.081 29.394L13.076 29.384L13.062 29.347L13.077 29.383L13.055 29.325ZM17.001 25.9C16.3407 26.0342 15.6602 26.0342 15 25.9V27.459L15.42 27.273C15.6019 27.1918 15.8039 27.1671 16 27.202C16.1961 27.167 16.3982 27.1917 16.58 27.273L17 27.46L17.001 25.9ZM25 6C25.7652 5.99996 26.5015 6.29233 27.0583 6.81728C27.615 7.34224 27.9501 8.06011 27.995 8.824L28 9V21C28 21.7652 27.7077 22.5015 27.1827 23.0583C26.6578 23.615 25.9399 23.9501 25.176 23.995L25 24H23L22.883 23.993C22.6399 23.9641 22.4159 23.847 22.2534 23.664C22.0909 23.481 22.0011 23.2448 22.0011 23C22.0011 22.7552 22.0909 22.519 22.2534 22.336C22.4159 22.153 22.6399 22.0359 22.883 22.007L23 22H25C25.2449 22 25.4813 21.91 25.6644 21.7473C25.8474 21.5845 25.9643 21.3603 25.993 21.117L26 21V9C26 8.75507 25.91 8.51866 25.7473 8.33563C25.5845 8.15259 25.3603 8.03566 25.117 8.007L25 8H7C6.75507 8.00003 6.51866 8.08996 6.33563 8.25272C6.15259 8.41547 6.03566 8.63975 6.007 8.883L6 9V21C6.00003 21.2449 6.08996 21.4813 6.25272 21.6644C6.41547 21.8474 6.63975 21.9643 6.883 21.993L7 22H9C9.25488 22.0003 9.50003 22.0979 9.68537 22.2728C9.8707 22.4478 9.98224 22.687 9.99717 22.9414C10.0121 23.1958 9.92933 23.4464 9.76574 23.6418C9.60215 23.8373 9.3701 23.9629 9.117 23.993L9 24H7C6.23479 24 5.49849 23.7077 4.94174 23.1827C4.38499 22.6578 4.04989 21.9399 4.005 21.176L4 21V9C3.99996 8.23479 4.29233 7.49849 4.81728 6.94174C5.34224 6.38499 6.06011 6.04989 6.824 6.005L7 6H25ZM16 18C15.2044 18 14.4413 18.3161 13.8787 18.8787C13.3161 19.4413 13 20.2044 13 21C13 21.7956 13.3161 22.5587 13.8787 23.1213C14.4413 23.6839 15.2044 24 16 24C16.7956 24 17.5587 23.6839 18.1213 23.1213C18.6839 22.5587 19 21.7956 19 21C19 20.2044 18.6839 19.4413 18.1213 18.8787C17.5587 18.3161 16.7956 18 16 18ZM23.5 16C23.6326 16 23.7598 16.0527 23.8536 16.1464C23.9473 16.2402 24 16.3674 24 16.5C24 16.6326 23.9473 16.7598 23.8536 16.8536C23.7598 16.9473 23.6326 17 23.5 17H22.5C22.3674 17 22.2402 16.9473 22.1464 16.8536C22.0527 16.7598 22 16.6326 22 16.5C22 16.3674 22.0527 16.2402 22.1464 16.1464C22.2402 16.0527 22.3674 16 22.5 16H23.5ZM9.5 16C9.63261 16 9.75979 16.0527 9.85355 16.1464C9.94732 16.2402 10 16.3674 10 16.5C10 16.6326 9.94732 16.7598 9.85355 16.8536C9.75979 16.9473 9.63261 17 9.5 17H8.5C8.36739 17 8.24021 16.9473 8.14645 16.8536C8.05268 16.7598 8 16.6326 8 16.5C8 16.3674 8.05268 16.2402 8.14645 16.1464C8.24021 16.0527 8.36739 16 8.5 16H9.5ZM14.5 13C14.6326 13 14.7598 13.0527 14.8536 13.1464C14.9473 13.2402 15 13.3674 15 13.5C15 13.6326 14.9473 13.7598 14.8536 13.8536C14.7598 13.9473 14.6326 14 14.5 14H8.5C8.36739 14 8.24021 13.9473 8.14645 13.8536C8.05268 13.7598 8 13.6326 8 13.5C8 13.3674 8.05268 13.2402 8.14645 13.1464C8.24021 13.0527 8.36739 13 8.5 13H14.5ZM23.5 13C23.6326 13 23.7598 13.0527 23.8536 13.1464C23.9473 13.2402 24 13.3674 24 13.5C24 13.6326 23.9473 13.7598 23.8536 13.8536C23.7598 13.9473 23.6326 14 23.5 14H17.5C17.3674 14 17.2402 13.9473 17.1464 13.8536C17.0527 13.7598 17 13.6326 17 13.5C17 13.3674 17.0527 13.2402 17.1464 13.1464C17.2402 13.0527 17.3674 13 17.5 13H23.5ZM23.5 10C23.6326 10 23.7598 10.0527 23.8536 10.1464C23.9473 10.2402 24 10.3674 24 10.5C24 10.6326 23.9473 10.7598 23.8536 10.8536C23.7598 10.9473 23.6326 11 23.5 11H8.5C8.36739 11 8.24021 10.9473 8.14645 10.8536C8.05268 10.7598 8 10.6326 8 10.5C8 10.3674 8.05268 10.2402 8.14645 10.1464C8.24021 10.0527 8.36739 10 8.5 10H23.5Z" fill="black"/>
</svg>
