<svg width="32" height="32" viewBox="0 0 32 32" fill="none" xmlns="http://www.w3.org/2000/svg">
<path d="M24.014 19.164L24 19V10C24 9.73478 23.8946 9.48043 23.7071 9.29289C23.5196 9.10536 23.2652 9 23 9H9C8.73478 9 8.48043 9.10536 8.29289 9.29289C8.10536 9.48043 8 9.73478 8 10V20C8 20.2652 8.10536 20.5196 8.29289 20.7071C8.48043 20.8946 8.73478 21 9 21H21C21.1811 21.0002 21.3588 21.0497 21.514 21.143L24.658 23.028L24.014 19.164ZM26 18.917L26.986 24.836C27.0171 25.0242 26.9936 25.2173 26.9185 25.3927C26.8434 25.568 26.7197 25.7182 26.562 25.8255C26.4044 25.9328 26.2193 25.9928 26.0286 25.9984C25.838 26.004 25.6497 25.9549 25.486 25.857L20.723 23H9C8.20435 23 7.44129 22.6839 6.87868 22.1213C6.31607 21.5587 6 20.7956 6 20V10C6 9.20435 6.31607 8.44129 6.87868 7.87868C7.44129 7.31607 8.20435 7 9 7H23C23.7956 7 24.5587 7.31607 25.1213 7.87868C25.6839 8.44129 26 9.20435 26 10V18.917Z" fill="black"/>
</svg>
