<svg width="40" height="40" viewBox="0 0 40 40" fill="none" xmlns="http://www.w3.org/2000/svg">
<path d="M33.75 8.75C34.9825 8.75 35.4475 10.3212 34.4912 11.0075L34.37 11.085L25.62 16.085C25.479 16.1659 25.3236 16.2186 25.1625 16.24L25 16.25H8.89999C8.73598 16.2499 8.5744 16.2897 8.42917 16.3659C8.28393 16.4421 8.15939 16.5525 8.06624 16.6875L7.99374 16.8113C7.88615 17.0265 7.83013 17.2638 7.83013 17.5044C7.83013 17.745 7.88615 17.9823 7.99374 18.1975C8.14374 18.4975 8.42999 18.7 8.75624 18.7463L8.83999 18.7513L8.89999 18.75L24.6675 18.7487L33.1262 13.8825C33.3163 13.773 33.5319 13.7155 33.7512 13.7158C33.9705 13.716 34.186 13.7739 34.3758 13.8837C34.5657 13.9935 34.7233 14.1514 34.8329 14.3414C34.9424 14.5314 35.0001 14.7469 35 14.9662V20C35 20.2202 34.9419 20.4365 34.8315 20.627C34.7211 20.8176 34.5623 20.9756 34.3712 21.085L25.6212 26.0912C25.4321 26.1995 25.2179 26.2563 25 26.2562H8.84999L8.89999 26.25C8.73598 26.2499 8.5744 26.2897 8.42917 26.3659C8.28393 26.4421 8.15939 26.5525 8.06624 26.6875L7.99374 26.8112C7.88615 27.0265 7.83013 27.2638 7.83013 27.5044C7.83013 27.745 7.88615 27.9823 7.99374 28.1975C8.14374 28.4975 8.42999 28.7 8.75624 28.7463L8.89749 28.7562L24.6675 28.755L33.13 23.915C33.3958 23.7632 33.7081 23.7143 34.0076 23.7774C34.3071 23.8405 34.573 24.0114 34.755 24.2575L34.835 24.3787C34.9871 24.6447 35.0363 24.9572 34.9731 25.257C34.91 25.5568 34.739 25.823 34.4925 26.005L34.3712 26.085L25.6212 31.0912C25.4799 31.1723 25.324 31.225 25.1625 31.2463L25 31.2562H8.89749C8.24551 31.256 7.60646 31.0742 7.0519 30.7314C6.49734 30.3885 6.04914 29.8981 5.75749 29.315C5.49717 28.7943 5.35215 28.2237 5.33231 27.6419C5.31246 27.0601 5.41826 26.4809 5.64249 25.9437L5.75499 25.6962C5.87999 25.445 6.03374 25.2138 6.20999 25.0037C6.03239 24.7929 5.88049 24.5617 5.75749 24.315C5.47652 23.7533 5.33002 23.134 5.32959 22.5059C5.32916 21.8779 5.47479 21.2583 5.75499 20.6962C5.87999 20.4462 6.03374 20.2137 6.20999 20.0037C6.03247 19.7929 5.88057 19.5617 5.75749 19.315C5.49717 18.7943 5.35215 18.2237 5.33231 17.6419C5.31246 17.0601 5.41826 16.4809 5.64249 15.9438L5.75499 15.6962C5.99389 15.217 6.33917 14.7987 6.76443 14.4733C7.1897 14.1479 7.68372 13.924 8.20874 13.8188L8.40374 13.785L19.4912 8.8575C19.5979 8.81036 19.7107 8.77838 19.8262 8.7625L20 8.75H33.75ZM32.5 17.1537L25.6212 21.0912C25.4799 21.1723 25.324 21.225 25.1625 21.2463L25 21.2562H8.89749L8.84249 21.2512C8.66376 21.2616 8.49096 21.3191 8.34166 21.4179C8.19236 21.5167 8.07188 21.6533 7.99249 21.8138C7.8853 22.0286 7.8295 22.2655 7.8295 22.5056C7.8295 22.7458 7.8853 22.9826 7.99249 23.1975C8.07667 23.3654 8.20589 23.5066 8.36571 23.6053C8.52554 23.704 8.70966 23.7562 8.89749 23.7562L8.84999 23.7512L8.89999 23.75H24.665L32.5 19.2425V17.1537ZM29.0412 11.25H20.2625L14.6375 13.75H24.665L29.0412 11.25Z" fill="black"/>
</svg>
