<svg width="32" height="32" viewBox="0 0 32 32" fill="none" xmlns="http://www.w3.org/2000/svg">
<path d="M10.5 12C11.1756 12 11.8368 12.1956 12.4037 12.563C12.9706 12.9305 13.4191 13.4542 13.6949 14.0709C13.9708 14.6877 14.0622 15.3711 13.9583 16.0386C13.8543 16.7062 13.5593 17.3294 13.109 17.833C13.6942 18.2487 14.1713 18.7986 14.5003 19.4366C14.8293 20.0746 15.0007 20.7822 15 21.5V24C15 24.5304 14.7893 25.0391 14.4142 25.4142C14.0391 25.7893 13.5304 26 13 26H8C7.46957 26 6.96086 25.7893 6.58579 25.4142C6.21071 25.0391 6 24.5304 6 24V21.5C6 19.987 6.746 18.649 7.89 17.833C7.4396 17.3293 7.14463 16.706 7.0407 16.0384C6.93676 15.3707 7.02831 14.6873 7.30428 14.0705C7.58026 13.4537 8.02886 12.93 8.59593 12.5626C9.16301 12.1952 9.82431 11.9998 10.5 12ZM10.5 19C9.83696 19 9.20107 19.2634 8.73223 19.7322C8.26339 20.2011 8 20.837 8 21.5V24H13V21.5C13 20.837 12.7366 20.2011 12.2678 19.7322C11.7989 19.2634 11.163 19 10.5 19ZM23 6C24.552 6 26 7.448 26 9V14C26 15.552 24.552 17 23 17H20.303L17.555 18.832C17.4044 18.9325 17.2293 18.9902 17.0485 18.999C16.8677 19.0078 16.6879 18.9673 16.5282 18.8819C16.3686 18.7965 16.2352 18.6693 16.1421 18.514C16.0491 18.3587 16 18.181 16 18V16C16 15.7348 16.1054 15.4804 16.2929 15.2929C16.4804 15.1054 16.7348 15 17 15C17.2652 15 17.5196 15.1054 17.7071 15.2929C17.8946 15.4804 18 15.7348 18 16V16.131L19.445 15.168C19.6093 15.0584 19.8025 15 20 15H23C23.448 15 24 14.448 24 14V9C24 8.552 23.448 8 23 8H15C14.552 8 14 8.552 14 9V10C14 10.2652 13.8946 10.5196 13.7071 10.7071C13.5196 10.8946 13.2652 11 13 11C12.7348 11 12.4804 10.8946 12.2929 10.7071C12.1054 10.5196 12 10.2652 12 10V9C12 7.448 13.448 6 15 6H23ZM10.5 14C10.1022 14 9.72064 14.158 9.43934 14.4393C9.15804 14.7206 9 15.1022 9 15.5C9 15.8978 9.15804 16.2794 9.43934 16.5607C9.72064 16.842 10.1022 17 10.5 17C10.8978 17 11.2794 16.842 11.5607 16.5607C11.842 16.2794 12 15.8978 12 15.5C12 15.1022 11.842 14.7206 11.5607 14.4393C11.2794 14.158 10.8978 14 10.5 14Z" fill="black"/>
</svg>
