<svg width="24" height="24" viewBox="0 0 24 24" fill="none" xmlns="http://www.w3.org/2000/svg">
<path d="M18.7995 15.75C18.8673 15.75 18.9339 15.7685 18.9921 15.8033C19.0503 15.8382 19.0979 15.8882 19.1299 15.948C19.1619 16.0078 19.1771 16.0752 19.1739 16.1429C19.1706 16.2107 19.1491 16.2763 19.1115 16.3328L16.812 19.782C16.7778 19.8334 16.7314 19.8755 16.6769 19.9046C16.6225 19.9337 16.5617 19.949 16.5 19.949C16.4383 19.949 16.3775 19.9337 16.3231 19.9046C16.2686 19.8755 16.2222 19.8334 16.188 19.782L13.8885 16.3328C13.8509 16.2763 13.8294 16.2107 13.8261 16.1429C13.8229 16.0752 13.8381 16.0078 13.8701 15.948C13.9021 15.8882 13.9497 15.8382 14.0079 15.8033C14.0661 15.7685 14.1327 15.75 14.2005 15.75H18.7995ZM10.5 15.75C10.6989 15.75 10.8897 15.829 11.0303 15.9697C11.171 16.1103 11.25 16.3011 11.25 16.5C11.25 16.6989 11.171 16.8897 11.0303 17.0303C10.8897 17.171 10.6989 17.25 10.5 17.25H6C5.80109 17.25 5.61032 17.171 5.46967 17.0303C5.32902 16.8897 5.25 16.6989 5.25 16.5C5.25 16.3011 5.32902 16.1103 5.46967 15.9697C5.61032 15.829 5.80109 15.75 6 15.75H10.5ZM15 11.25C15.1989 11.25 15.3897 11.329 15.5303 11.4697C15.671 11.6103 15.75 11.8011 15.75 12C15.75 12.1989 15.671 12.3897 15.5303 12.5303C15.3897 12.671 15.1989 12.75 15 12.75H6C5.80109 12.75 5.61032 12.671 5.46967 12.5303C5.32902 12.3897 5.25 12.1989 5.25 12C5.25 11.8011 5.32902 11.6103 5.46967 11.4697C5.61032 11.329 5.80109 11.25 6 11.25H15ZM18 6.75C18.1989 6.75 18.3897 6.82902 18.5303 6.96967C18.671 7.11032 18.75 7.30109 18.75 7.5C18.75 7.69891 18.671 7.88968 18.5303 8.03033C18.3897 8.17098 18.1989 8.25 18 8.25H6C5.80109 8.25 5.61032 8.17098 5.46967 8.03033C5.32902 7.88968 5.25 7.69891 5.25 7.5C5.25 7.30109 5.32902 7.11032 5.46967 6.96967C5.61032 6.82902 5.80109 6.75 6 6.75H18Z" fill="black"/>
</svg>
