<svg width="24" height="24" viewBox="0 0 24 24" fill="none" xmlns="http://www.w3.org/2000/svg">
<path d="M18.0105 14.373L18 14.25V7.5C18 7.30109 17.921 7.11032 17.7803 6.96967C17.6397 6.82902 17.4489 6.75 17.25 6.75H6.75C6.55109 6.75 6.36032 6.82902 6.21967 6.96967C6.07902 7.11032 6 7.30109 6 7.5V15C6 15.1989 6.07902 15.3897 6.21967 15.5303C6.36032 15.671 6.55109 15.75 6.75 15.75H15.75C15.8858 15.7502 16.0191 15.7872 16.1355 15.8573L18.4935 17.271L18.0105 14.373ZM19.5 14.1877L20.2395 18.627C20.2628 18.7681 20.2452 18.913 20.1889 19.0445C20.1326 19.176 20.0398 19.2886 19.9215 19.3691C19.8033 19.4496 19.6645 19.4946 19.5215 19.4988C19.3785 19.503 19.2373 19.4662 19.1145 19.3927L15.5422 17.25H6.75C6.15326 17.25 5.58097 17.0129 5.15901 16.591C4.73705 16.169 4.5 15.5967 4.5 15V7.5C4.5 6.90326 4.73705 6.33097 5.15901 5.90901C5.58097 5.48705 6.15326 5.25 6.75 5.25H17.25C17.8467 5.25 18.419 5.48705 18.841 5.90901C19.2629 6.33097 19.5 6.90326 19.5 7.5V14.1877Z" fill="black"/>
</svg>
