<svg width="40" height="40" viewBox="0 0 40 40" fill="none" xmlns="http://www.w3.org/2000/svg">
<path d="M31.1695 31.2885C33.3153 28.6959 34.4873 25.4346 34.4826 22.0692C34.4826 14.0706 27.9985 7.58643 19.9998 7.58643C12.0012 7.58643 5.51709 14.0706 5.51709 22.0692C5.51709 25.5713 6.76123 28.7837 8.83019 31.2885L5.92123 34.1975C5.79317 34.3255 5.69158 34.4776 5.62228 34.6449C5.55297 34.8122 5.5173 34.9915 5.5173 35.1726C5.5173 35.3537 5.55297 35.5331 5.62228 35.7004C5.69158 35.8677 5.79317 36.0197 5.92123 36.1478C6.04929 36.2759 6.20132 36.3775 6.36864 36.4468C6.53596 36.5161 6.71529 36.5517 6.8964 36.5517C7.07751 36.5517 7.25684 36.5161 7.42416 36.4468C7.59148 36.3775 7.74351 36.2759 7.87157 36.1478L10.7805 33.2388C13.2854 35.3078 16.4964 36.5519 19.9998 36.5519C23.5033 36.5519 26.7143 35.3078 29.2192 33.2388L32.1281 36.1478C32.2559 36.2763 32.4079 36.3783 32.5752 36.4479C32.7426 36.5175 32.922 36.5534 33.1033 36.5534C33.2845 36.5534 33.464 36.5175 33.6314 36.4479C33.7987 36.3783 33.9507 36.2763 34.0785 36.1478C34.2067 36.0198 34.3084 35.8678 34.3778 35.7005C34.4472 35.5332 34.4829 35.3538 34.4829 35.1726C34.4829 34.9915 34.4472 34.8121 34.3778 34.6448C34.3084 34.4775 34.2067 34.3254 34.0785 34.1975L31.1695 31.2885ZM19.9998 35.1726C12.7626 35.1726 6.8964 29.3064 6.8964 22.0692C6.8964 14.8319 12.7626 8.96574 19.9998 8.96574C27.2371 8.96574 33.1033 14.8319 33.1033 22.0692C33.1033 29.3064 27.2371 35.1726 19.9998 35.1726Z" fill="black"/>
<path d="M19.9998 36.5519C12.0136 36.5519 5.51709 30.0554 5.51709 22.0692C5.51709 14.083 12.0136 7.58643 19.9998 7.58643C27.9861 7.58643 34.4826 14.083 34.4826 22.0692C34.4826 30.0554 27.9861 36.5519 19.9998 36.5519ZM19.9998 10.345C13.535 10.345 8.27571 15.6044 8.27571 22.0692C8.27571 28.534 13.535 33.7933 19.9998 33.7933C26.4647 33.7933 31.724 28.534 31.724 22.0692C31.724 15.6044 26.4647 10.345 19.9998 10.345Z" fill="black"/>
<path d="M3.70353 16.4871C4.03204 15.5205 4.44657 14.5852 4.94215 13.6926C4.41763 12.9054 4.13784 11.9806 4.13801 11.0347C4.13801 8.37262 6.30353 6.20711 8.9656 6.20711C9.94767 6.20711 10.8608 6.50504 11.6235 7.01125C12.5161 6.51566 13.4514 6.10113 14.418 5.77262C13.7127 5.03785 12.8661 4.45322 11.9291 4.05383C10.9922 3.65444 9.98413 3.44854 8.9656 3.44849C6.9544 3.45104 5.0263 4.25112 3.60416 5.67326C2.18203 7.09539 1.38195 9.02349 1.37939 11.0347C1.37945 12.0532 1.58535 13.0612 1.98474 13.9982C2.38413 14.9352 2.96876 15.7818 3.70353 16.4871ZM21.3794 23.4485H13.7932V20.6899H18.6208V13.1037H21.3794V23.4485ZM28.3766 7.01125C29.1638 6.48673 30.0886 6.20693 31.0346 6.20711C33.6966 6.20711 35.8621 8.37262 35.8621 11.0347C35.8621 12.0168 35.5642 12.9299 35.058 13.6926C35.5532 14.5781 35.9628 15.5147 36.2966 16.4871C37.0314 15.7818 37.616 14.9352 38.0154 13.9982C38.4148 13.0612 38.6207 12.0532 38.6208 11.0347C38.6208 6.85262 35.2166 3.44849 31.0346 3.44849C30.016 3.44854 29.008 3.65444 28.071 4.05383C27.1341 4.45322 26.2875 5.03785 25.5822 5.77262C26.5546 6.1078 27.4911 6.51745 28.3766 7.01125Z" fill="black"/>
</svg>
