<svg width="32" height="32" viewBox="0 0 32 32" fill="none" xmlns="http://www.w3.org/2000/svg">
<path d="M25 24C25.2652 24 25.5196 24.1054 25.7071 24.2929C25.8946 24.4804 26 24.7348 26 25C26 25.2652 25.8946 25.5196 25.7071 25.7071C25.5196 25.8946 25.2652 26 25 26H7C6.73478 26 6.48043 25.8946 6.29289 25.7071C6.10536 25.5196 6 25.2652 6 25C6 24.7348 6.10536 24.4804 6.29289 24.2929C6.48043 24.1054 6.73478 24 7 24H25ZM16 6C16.2652 6 16.5196 6.10536 16.7071 6.29289C16.8946 6.48043 17 6.73478 17 7V18.585L20.293 15.293C20.4816 15.1108 20.7342 15.01 20.9964 15.0123C21.2586 15.0146 21.5094 15.1198 21.6948 15.3052C21.8802 15.4906 21.9854 15.7414 21.9877 16.0036C21.99 16.2658 21.8892 16.5184 21.707 16.707L16.707 21.707C16.5195 21.8945 16.2652 21.9998 16 21.9998C15.7348 21.9998 15.4805 21.8945 15.293 21.707L10.293 16.707C10.1108 16.5184 10.01 16.2658 10.0123 16.0036C10.0146 15.7414 10.1198 15.4906 10.3052 15.3052C10.4906 15.1198 10.7414 15.0146 11.0036 15.0123C11.2658 15.01 11.5184 15.1108 11.707 15.293L15 18.585V7C15 6.73478 15.1054 6.48043 15.2929 6.29289C15.4804 6.10536 15.7348 6 16 6Z" fill="black"/>
</svg>
