<svg width="32" height="32" viewBox="0 0 32 32" fill="none" xmlns="http://www.w3.org/2000/svg">
<path d="M13.9998 16.9999C14.265 16.9999 14.5194 17.1053 14.7069 17.2928C14.8944 17.4803 14.9998 17.7347 14.9998 17.9999V22.9999C14.9998 23.2651 14.8944 23.5195 14.7069 23.707C14.5194 23.8946 14.265 23.9999 13.9998 23.9999C13.7346 23.9999 13.4802 23.8946 13.2927 23.707C13.1051 23.5195 12.9998 23.2651 12.9998 22.9999L12.9988 20.4149L7.70679 25.7069C7.53459 25.8791 7.30549 25.9825 7.06247 25.9978C6.81944 26.0131 6.57919 25.9392 6.38679 25.7899L6.29279 25.7069C6.10532 25.5194 6 25.2651 6 24.9999C6 24.7348 6.10532 24.4804 6.29279 24.2929L11.5838 18.9999H8.99979C8.75485 18.9999 8.51845 18.91 8.33541 18.7472C8.15238 18.5844 8.03544 18.3602 8.00679 18.1169L7.99979 17.9999C7.99979 17.7347 8.10514 17.4803 8.29268 17.2928C8.48022 17.1053 8.73457 16.9999 8.99979 16.9999H13.9998ZM24.2928 6.29292C24.4814 6.11076 24.734 6.00997 24.9962 6.01224C25.2584 6.01452 25.5092 6.11969 25.6946 6.3051C25.88 6.49051 25.9852 6.74132 25.9875 7.00352C25.9897 7.26571 25.8889 7.51832 25.7068 7.70692L20.4138 12.9999H22.9998C23.2447 13 23.4811 13.0899 23.6642 13.2526C23.8472 13.4154 23.9641 13.6397 23.9928 13.8829L23.9998 13.9999C23.9998 14.2651 23.8944 14.5195 23.7069 14.707C23.5194 14.8946 23.265 14.9999 22.9998 14.9999H17.9998C17.7346 14.9999 17.4802 14.8946 17.2927 14.707C17.1051 14.5195 16.9998 14.2651 16.9998 13.9999V8.99992C16.9998 8.7347 17.1051 8.48035 17.2927 8.29281C17.4802 8.10528 17.7346 7.99992 17.9998 7.99992C18.265 7.99992 18.5194 8.10528 18.7069 8.29281C18.8944 8.48035 18.9998 8.7347 18.9998 8.99992V11.5839L24.2928 6.29292Z" fill="black"/>
</svg>
