<svg width="24" height="24" viewBox="0 0 24 24" fill="none" xmlns="http://www.w3.org/2000/svg">
<path d="M6.96965 6.96965C7.11029 6.82904 7.30102 6.75006 7.4999 6.75006C7.69877 6.75006 7.8895 6.82904 8.03015 6.96965L11.9999 10.9386L15.9696 6.96965C16.0988 6.84051 16.2706 6.76294 16.4529 6.75148C16.6352 6.74002 16.8153 6.79546 16.9596 6.9074L17.0301 6.96965C17.1707 7.11029 17.2497 7.30102 17.2497 7.4999C17.2497 7.69877 17.1707 7.8895 17.0301 8.03015L13.0611 11.9999L17.0301 15.9696C17.1593 16.0988 17.2369 16.2706 17.2483 16.4529C17.2598 16.6352 17.2043 16.8153 17.0924 16.9596L17.0301 17.0301C16.8895 17.1707 16.6988 17.2497 16.4999 17.2497C16.301 17.2497 16.1103 17.1707 15.9696 17.0301L11.9999 13.0611L8.03015 17.0301C7.901 17.1593 7.72918 17.2369 7.54691 17.2483C7.36464 17.2598 7.18445 17.2043 7.04015 17.0924L6.96965 17.0301C6.82904 16.8895 6.75006 16.6988 6.75006 16.4999C6.75006 16.301 6.82904 16.1103 6.96965 15.9696L10.9386 11.9999L6.96965 8.03015C6.84051 7.901 6.76294 7.72918 6.75148 7.54691C6.74002 7.36464 6.79546 7.18445 6.9074 7.04015L6.96965 6.96965Z" fill="black"/>
</svg>
