<svg width="40" height="40" viewBox="0 0 40 40" fill="none" xmlns="http://www.w3.org/2000/svg">
<path d="M21.0926 8.14259L33.5926 30.6426C33.6984 30.8329 33.7526 31.0475 33.75 31.2652C33.7474 31.4829 33.6879 31.6961 33.5776 31.8838C33.4672 32.0715 33.3097 32.2271 33.1207 32.3351C32.9317 32.4432 32.7178 32.5001 32.5001 32.5001H7.50005C7.28233 32.5001 7.06838 32.4432 6.87939 32.3351C6.6904 32.2271 6.53292 32.0715 6.42254 31.8838C6.31217 31.6961 6.25272 31.4829 6.25009 31.2652C6.24746 31.0475 6.30174 30.8329 6.40755 30.6426L18.9076 8.14259C19.0158 7.94782 19.1742 7.78554 19.3663 7.67256C19.5584 7.55958 19.7772 7.5 20.0001 7.5C20.2229 7.5 20.4417 7.55958 20.6338 7.67256C20.8259 7.78554 20.9843 7.94782 21.0926 8.14259ZM20.0001 11.3251L9.62505 30.0001H30.3751L20.0001 11.3251ZM20.0001 25.0001C20.3316 25.0001 20.6495 25.1318 20.8839 25.3662C21.1184 25.6006 21.2501 25.9186 21.2501 26.2501C21.2501 26.5816 21.1184 26.8996 20.8839 27.134C20.6495 27.3684 20.3316 27.5001 20.0001 27.5001C19.6685 27.5001 19.3506 27.3684 19.1162 27.134C18.8818 26.8996 18.7501 26.5816 18.7501 26.2501C18.7501 25.9186 18.8818 25.6006 19.1162 25.3662C19.3506 25.1318 19.6685 25.0001 20.0001 25.0001ZM20.0001 16.2501C20.3316 16.2501 20.6495 16.3818 20.8839 16.6162C21.1184 16.8506 21.2501 17.1686 21.2501 17.5001V22.5001C21.2501 22.8316 21.1184 23.1496 20.8839 23.384C20.6495 23.6184 20.3316 23.7501 20.0001 23.7501C19.6685 23.7501 19.3506 23.6184 19.1162 23.384C18.8818 23.1496 18.7501 22.8316 18.7501 22.5001V17.5001C18.7501 17.1686 18.8818 16.8506 19.1162 16.6162C19.3506 16.3818 19.6685 16.2501 20.0001 16.2501Z" fill="black"/>
</svg>
