<svg width="32" height="32" viewBox="0 0 32 32" fill="none" xmlns="http://www.w3.org/2000/svg">
<path d="M16 6C21.523 6 26 10.477 26 16C26 21.523 21.523 26 16 26C10.477 26 6 21.523 6 16C6 10.477 10.477 6 16 6ZM16 8C13.8783 8 11.8434 8.84285 10.3431 10.3431C8.84285 11.8434 8 13.8783 8 16C8 18.1217 8.84285 20.1566 10.3431 21.6569C11.8434 23.1571 13.8783 24 16 24C18.1217 24 20.1566 23.1571 21.6569 21.6569C23.1571 20.1566 24 18.1217 24 16C24 13.8783 23.1571 11.8434 21.6569 10.3431C20.1566 8.84285 18.1217 8 16 8ZM19.143 11.486C19.2842 11.2691 19.504 11.1154 19.7563 11.0572C20.0085 10.999 20.2734 11.0409 20.4954 11.174C20.7174 11.3071 20.8791 11.5211 20.9465 11.771C21.014 12.021 20.9819 12.2873 20.857 12.514L16.057 20.514C15.9788 20.6442 15.872 20.755 15.7447 20.8377C15.6173 20.9205 15.4728 20.9732 15.3221 20.9918C15.1713 21.0104 15.0183 20.9945 14.8747 20.9451C14.731 20.8958 14.6005 20.8143 14.493 20.707L11.293 17.507C11.1108 17.3184 11.01 17.0658 11.0123 16.8036C11.0146 16.5414 11.1198 16.2906 11.3052 16.1052C11.4906 15.9198 11.7414 15.8146 12.0036 15.8123C12.2658 15.81 12.5184 15.9108 12.707 16.093L15.001 18.387L19.143 11.486Z" fill="black"/>
</svg>
