<svg width="24" height="24" viewBox="0 0 24 24" fill="none" xmlns="http://www.w3.org/2000/svg">
<path d="M12.5303 7.71975L16.2803 11.4698C16.4169 11.6112 16.4925 11.8007 16.4908 11.9973C16.489 12.1939 16.4102 12.3821 16.2711 12.5211C16.1321 12.6602 15.9439 12.739 15.7473 12.7408C15.5507 12.7425 15.3612 12.6669 15.2197 12.5303L12.75 10.0605V18.75C12.75 18.9489 12.671 19.1397 12.5303 19.2803C12.3897 19.421 12.1989 19.5 12 19.5C11.8011 19.5 11.6103 19.421 11.4697 19.2803C11.329 19.1397 11.25 18.9489 11.25 18.75V10.0605L8.78025 12.5303C8.6388 12.6669 8.44935 12.7425 8.2527 12.7408C8.05605 12.739 7.86794 12.6602 7.72889 12.5211C7.58983 12.3821 7.51095 12.1939 7.50924 11.9973C7.50754 11.8007 7.58313 11.6112 7.71975 11.4698L11.4698 7.71975C11.6104 7.57915 11.8011 7.50016 12 7.50016C12.1989 7.50016 12.3896 7.57915 12.5303 7.71975ZM18.75 4.5C18.9489 4.5 19.1397 4.57902 19.2803 4.71967C19.421 4.86032 19.5 5.05109 19.5 5.25C19.5 5.44891 19.421 5.63968 19.2803 5.78033C19.1397 5.92098 18.9489 6 18.75 6H5.25C5.05109 6 4.86032 5.92098 4.71967 5.78033C4.57902 5.63968 4.5 5.44891 4.5 5.25C4.5 5.05109 4.57902 4.86032 4.71967 4.71967C4.86032 4.57902 5.05109 4.5 5.25 4.5H18.75Z" fill="black"/>
</svg>
