<svg width="40" height="40" viewBox="0 0 40 40" fill="none" xmlns="http://www.w3.org/2000/svg">
<path d="M23.7538 7.5C25.1375 7.5 26.25 8.61875 26.25 10.0125V12.5H31.26C32.64 12.5 33.75 13.6263 33.75 15.0087V29.9912C33.75 30.6534 33.4883 31.2887 33.0219 31.7586C32.5554 32.2286 31.9221 32.4951 31.26 32.5H8.74002C8.41177 32.4989 8.08697 32.433 7.78416 32.3063C7.48136 32.1796 7.20649 31.9945 6.97525 31.7615C6.74402 31.5285 6.56095 31.2523 6.43651 30.9485C6.31208 30.6448 6.2487 30.3195 6.25002 29.9912V15.0087C6.25002 13.63 7.37252 12.5 8.74002 12.5H13.75V10.0125C13.75 8.62875 14.8713 7.5 16.2463 7.5H23.7538ZM31.2488 17.87L31.1 18.0237C28.375 20.995 24.65 22.5 20 22.5C15.2625 22.5 11.4875 20.94 8.75002 17.8575L8.75127 19.7625V26.9L8.75002 29.9912L8.87127 29.9925H9.33877L9.45127 29.9938H10.3263L10.5075 29.995H12.0413L12.2988 29.9963L15.0588 29.9975H15.415L19.965 29.9988H20.4388L30.6025 30H31.26L31.2575 29.875V29.7575L31.255 29.505V29.2863L31.2538 29.1625V28.885L31.2525 28.7313V28.2113L31.25 28.0175V27.3787V27.145V25.54L31.2488 25.2375V18.5812V17.87ZM19.5613 15.0013H9.68252C11.9988 18.3538 15.3975 20 20 20C24.6 20 27.9975 18.355 30.3138 15.0063H30.3488H29.6738L29.4925 15.005H27.9588L27.7013 15.0038L24.9413 15.0025H24.585L20.035 15.0013H19.5613ZM23.7525 10H16.2463C16.2563 10 16.25 10.0063 16.25 10.0125V12.4875C16.25 12.4962 16.25 12.5 16.2475 12.5H23.7538C23.7438 12.5 23.75 12.4937 23.75 12.4875V10.0125C23.75 10.0038 23.75 10 23.7525 10Z" fill="black"/>
</svg>
