<svg width="40" height="40" viewBox="0 0 40 40" fill="none" xmlns="http://www.w3.org/2000/svg">
<path d="M35.0002 23.3332H33.3335V11.6665C33.3335 10.3404 32.8067 9.06865 31.869 8.13097C30.9314 7.19329 29.6596 6.6665 28.3335 6.6665H11.6668C10.3407 6.6665 9.06898 7.19329 8.1313 8.13097C7.19361 9.06865 6.66683 10.3404 6.66683 11.6665V23.3332H5.00016C4.55814 23.3332 4.13421 23.5088 3.82165 23.8213C3.50909 24.1339 3.3335 24.5578 3.3335 24.9998V28.3332C3.3335 29.6592 3.86028 30.931 4.79796 31.8687C5.73564 32.8064 7.00741 33.3332 8.3335 33.3332H31.6668C32.9929 33.3332 34.2647 32.8064 35.2024 31.8687C36.14 30.931 36.6668 29.6592 36.6668 28.3332V24.9998C36.6668 24.5578 36.4912 24.1339 36.1787 23.8213C35.8661 23.5088 35.4422 23.3332 35.0002 23.3332ZM10.0002 11.6665C10.0002 11.2245 10.1758 10.8006 10.4883 10.488C10.8009 10.1754 11.2248 9.99984 11.6668 9.99984H28.3335C28.7755 9.99984 29.1994 10.1754 29.512 10.488C29.8246 10.8006 30.0002 11.2245 30.0002 11.6665V23.3332H10.0002V11.6665ZM33.3335 28.3332C33.3335 28.7752 33.1579 29.1991 32.8453 29.5117C32.5328 29.8242 32.1089 29.9998 31.6668 29.9998H8.3335C7.89147 29.9998 7.46755 29.8242 7.15499 29.5117C6.84242 29.1991 6.66683 28.7752 6.66683 28.3332V26.6665H33.3335V28.3332Z" fill="#11161A"/>
</svg>
