<svg width="40" height="40" viewBox="0 0 40 40" fill="none" xmlns="http://www.w3.org/2000/svg">
<path d="M13.8128 13.8125C14.0472 13.5782 14.3651 13.4465 14.6965 13.4465C15.028 13.4465 15.3459 13.5782 15.5803 13.8125L20.0003 18.2325L24.4203 13.8125C24.6369 13.596 24.9256 13.4666 25.2313 13.4489C25.5371 13.4312 25.8388 13.5263 26.079 13.7163L26.1878 13.8125C26.4221 14.0469 26.5537 14.3648 26.5537 14.6963C26.5537 15.0277 26.4221 15.3456 26.1878 15.58L21.7678 20L26.1878 24.42C26.4042 24.6367 26.5336 24.9253 26.5514 25.2311C26.5691 25.5369 26.474 25.8385 26.284 26.0788L26.1878 26.1875C25.9534 26.4219 25.6355 26.5535 25.304 26.5535C24.9726 26.5535 24.6547 26.4219 24.4203 26.1875L20.0003 21.7675L15.5803 26.1875C15.3636 26.404 15.075 26.5334 14.7692 26.5511C14.4634 26.5689 14.1618 26.4737 13.9215 26.2838L13.8128 26.1875C13.5784 25.9531 13.4468 25.6352 13.4468 25.3038C13.4468 24.9723 13.5784 24.6544 13.8128 24.42L18.2328 20L13.8128 15.58C13.5963 15.3633 13.4669 15.0747 13.4491 14.7689C13.4314 14.4632 13.5265 14.1615 13.7165 13.9213L13.8128 13.8125Z" fill="black"/>
</svg>
