<svg width="24" height="24" viewBox="0 0 24 24" fill="none" xmlns="http://www.w3.org/2000/svg">
<path d="M12.0203 3.75L12.0383 3.75075C12.2009 3.7596 12.3561 3.82091 12.4808 3.9255L17.2486 7.926V7.5C17.2486 7.30109 17.3276 7.11032 17.4683 6.96967C17.6089 6.82902 17.7997 6.75 17.9986 6.75C18.1975 6.75 18.3883 6.82902 18.5289 6.96967C18.6696 7.11032 18.7486 7.30109 18.7486 7.5V9.1845L19.9501 10.1925C20.1025 10.3204 20.1978 10.5036 20.2151 10.7018C20.2324 10.8999 20.1702 11.0969 20.0423 11.2492C19.9144 11.4016 19.7312 11.4969 19.5331 11.5142C19.3349 11.5315 19.138 11.4694 18.9856 11.3415L11.9986 5.4795L6.74859 9.88425V18H8.99859V14.25C8.99859 14.0511 9.07761 13.8603 9.21826 13.7197C9.35891 13.579 9.54968 13.5 9.74859 13.5H14.2486C14.4475 13.5 14.6383 13.579 14.7789 13.7197C14.9196 13.8603 14.9986 14.0511 14.9986 14.25V18H17.2486V13.5C17.2486 13.3011 17.3276 13.1103 17.4683 12.9697C17.6089 12.829 17.7997 12.75 17.9986 12.75C18.1975 12.75 18.3883 12.829 18.5289 12.9697C18.6696 13.1103 18.7486 13.3011 18.7486 13.5V18.75C18.7486 18.9337 18.6811 19.111 18.5591 19.2483C18.437 19.3856 18.2688 19.4733 18.0863 19.4948L18.0001 19.5H14.2501C14.0512 19.5 13.8604 19.421 13.7198 19.2803C13.5791 19.1397 13.5001 18.9489 13.5001 18.75L13.4993 15H10.4993V18.75C10.4993 18.9337 10.4319 19.111 10.3098 19.2483C10.1877 19.3856 10.0195 19.4733 9.83709 19.4948L9.75009 19.5H6.00009C5.80118 19.5 5.61041 19.421 5.46976 19.2803C5.32911 19.1397 5.25009 18.9489 5.25009 18.75L5.24934 11.1428L5.01309 11.3415C4.93764 11.4048 4.85046 11.4527 4.75653 11.4823C4.66259 11.512 4.56374 11.5228 4.46561 11.5142C4.36748 11.5057 4.272 11.4779 4.18462 11.4324C4.09724 11.3869 4.01967 11.3247 3.95634 11.2492C3.89301 11.1738 3.84516 11.0866 3.81552 10.9927C3.78588 10.8988 3.77504 10.7999 3.7836 10.7018C3.79217 10.6036 3.81998 10.5082 3.86545 10.4208C3.91091 10.3334 3.97314 10.2558 4.04859 10.1925L11.5178 3.9255L11.5463 3.903C11.5559 3.89551 11.5657 3.88826 11.5756 3.88125L11.5178 3.9255C11.6528 3.81289 11.8228 3.75083 11.9986 3.75H12.0203Z" fill="black"/>
</svg>
