<svg width="32" height="32" viewBox="0 0 32 32" fill="none" xmlns="http://www.w3.org/2000/svg">
<path d="M12.0002 20.0001C11.7365 20.0001 11.4787 20.0783 11.2594 20.2248C11.0401 20.3713 10.8692 20.5795 10.7683 20.8232C10.6674 21.0668 10.641 21.3349 10.6924 21.5935C10.7439 21.8522 10.8709 22.0898 11.0574 22.2762C11.2438 22.4627 11.4814 22.5897 11.74 22.6411C11.9987 22.6926 12.2668 22.6662 12.5104 22.5653C12.754 22.4643 12.9623 22.2934 13.1088 22.0742C13.2553 21.8549 13.3335 21.5971 13.3335 21.3334C13.3335 20.9798 13.193 20.6407 12.943 20.3906C12.6929 20.1406 12.3538 20.0001 12.0002 20.0001ZM2.66683 18.6667C2.31321 18.6667 1.97407 18.8072 1.72402 19.0573C1.47397 19.3073 1.3335 19.6465 1.3335 20.0001V22.6667C1.3335 23.0204 1.47397 23.3595 1.72402 23.6096C1.97407 23.8596 2.31321 24.0001 2.66683 24.0001C3.02045 24.0001 3.35959 23.8596 3.60964 23.6096C3.85969 23.3595 4.00016 23.0204 4.00016 22.6667V20.0001C4.00016 19.6465 3.85969 19.3073 3.60964 19.0573C3.35959 18.8072 3.02045 18.6667 2.66683 18.6667ZM29.3335 18.6667C28.9799 18.6667 28.6407 18.8072 28.3907 19.0573C28.1406 19.3073 28.0002 19.6465 28.0002 20.0001V22.6667C28.0002 23.0204 28.1406 23.3595 28.3907 23.6096C28.6407 23.8596 28.9799 24.0001 29.3335 24.0001C29.6871 24.0001 30.0263 23.8596 30.2763 23.6096C30.5264 23.3595 30.6668 23.0204 30.6668 22.6667V20.0001C30.6668 19.6465 30.5264 19.3073 30.2763 19.0573C30.0263 18.8072 29.6871 18.6667 29.3335 18.6667ZM22.6668 9.33342H17.3335V7.62675C17.7365 7.39407 18.0717 7.05996 18.3056 6.65764C18.5395 6.25532 18.664 5.79878 18.6668 5.33341C18.6668 4.62617 18.3859 3.94789 17.8858 3.4478C17.3857 2.9477 16.7074 2.66675 16.0002 2.66675C15.2929 2.66675 14.6146 2.9477 14.1145 3.4478C13.6144 3.94789 13.3335 4.62617 13.3335 5.33341C13.3363 5.79878 13.4609 6.25532 13.6948 6.65764C13.9287 7.05996 14.2638 7.39407 14.6668 7.62675V9.33342H9.3335C8.27263 9.33342 7.25521 9.75484 6.50507 10.505C5.75492 11.2551 5.3335 12.2725 5.3335 13.3334V25.3334C5.3335 26.3943 5.75492 27.4117 6.50507 28.1618C7.25521 28.912 8.27263 29.3334 9.3335 29.3334H22.6668C23.7277 29.3334 24.7451 28.912 25.4953 28.1618C26.2454 27.4117 26.6668 26.3943 26.6668 25.3334V13.3334C26.6668 12.2725 26.2454 11.2551 25.4953 10.505C24.7451 9.75484 23.7277 9.33342 22.6668 9.33342ZM18.2935 12.0001L17.6268 14.6667H14.3735L13.7068 12.0001H18.2935ZM24.0002 25.3334C24.0002 25.687 23.8597 26.0262 23.6096 26.2762C23.3596 26.5263 23.0205 26.6667 22.6668 26.6667H9.3335C8.97987 26.6667 8.64074 26.5263 8.39069 26.2762C8.14064 26.0262 8.00016 25.687 8.00016 25.3334V19.3334V13.3334C8.00016 12.9798 8.14064 12.6407 8.39069 12.3906C8.64074 12.1406 8.97987 12.0001 9.3335 12.0001H10.9602L12.0002 16.3201C12.0732 16.6159 12.2453 16.8778 12.4879 17.0622C12.7305 17.2466 13.0289 17.3423 13.3335 17.3334H18.6668C18.9714 17.3423 19.2698 17.2466 19.5124 17.0622C19.755 16.8778 19.9272 16.6159 20.0002 16.3201L21.0402 12.0001H22.6668C23.0205 12.0001 23.3596 12.1406 23.6096 12.3906C23.8597 12.6407 24.0002 12.9798 24.0002 13.3334V25.3334ZM20.0002 20.0001C19.7365 20.0001 19.4787 20.0783 19.2594 20.2248C19.0401 20.3713 18.8692 20.5795 18.7683 20.8232C18.6674 21.0668 18.641 21.3349 18.6924 21.5935C18.7439 21.8522 18.8709 22.0898 19.0574 22.2762C19.2438 22.4627 19.4814 22.5897 19.74 22.6411C19.9987 22.6926 20.2668 22.6662 20.5104 22.5653C20.754 22.4643 20.9623 22.2934 21.1088 22.0742C21.2553 21.8549 21.3335 21.5971 21.3335 21.3334C21.3335 20.9798 21.193 20.6407 20.943 20.3906C20.6929 20.1406 20.3538 20.0001 20.0002 20.0001Z" fill="#11161A"/>
</svg>
