<svg width="32" height="32" viewBox="0 0 32 32" fill="none" xmlns="http://www.w3.org/2000/svg">
<path d="M16.0039 5L16.2889 5.002C21.1419 5.066 26.0039 6.766 26.0039 9.333V9.37C26.0319 9.784 25.9319 10.215 25.6729 10.603L25.5829 10.728L22.9349 13.728C23.3749 13.9602 23.7129 14.3479 23.8829 14.8155C24.053 15.2832 24.043 15.7973 23.8549 16.258L23.7929 16.394L22.7929 18.394C22.6391 18.7019 22.4084 18.965 22.1232 19.1577C21.838 19.3504 21.5079 19.4662 21.1649 19.494L21.0039 19.5H19.0029V24.5C19.0029 25.554 18.5229 25.847 17.4839 26.497C16.4439 27.147 16.1079 27.5 15.0039 27.5C14.4993 27.5002 14.0133 27.3096 13.6433 26.9665C13.2733 26.6234 13.0467 26.1532 13.0089 25.65L13.0039 25.5V18.186L6.42486 10.728C6.12206 10.3454 5.97236 9.86385 6.00486 9.377L6.00386 9.333C6.00386 6.715 11.0579 5 16.0039 5ZM20.5879 13.405C19.1429 13.785 17.5519 14 16.0039 14C14.4549 14 12.8639 13.784 11.4189 13.405L15.0039 17.5V25.5L17.0039 24.5V17.5L20.5879 13.405ZM22.0039 15.5H21.3709L19.6069 17.499L21.0039 17.5L22.0039 15.5ZM16.0039 7C11.5849 7 8.00386 8.597 8.00386 9.333C8.00386 10.07 11.5849 12 16.0039 12C20.4219 12 24.0039 10.07 24.0039 9.333C24.0039 8.597 20.4219 7 16.0039 7Z" fill="black"/>
</svg>
