<svg width="32" height="32" viewBox="0 0 32 32" fill="none" xmlns="http://www.w3.org/2000/svg">
<path d="M15.23 19.558L21.598 13.19C22.1607 12.6275 22.477 11.8644 22.4772 11.0687C22.4774 10.273 22.1615 9.50979 21.599 8.947C21.3204 8.66833 20.9897 8.44726 20.6258 8.2964C20.2618 8.14553 19.8717 8.06784 19.4777 8.06775C18.6819 8.06756 17.9187 8.38348 17.356 8.946L10.991 15.312C10.5256 15.7759 10.1563 16.327 9.90436 16.9338C9.65238 17.5406 9.52262 18.1912 9.52253 18.8483C9.52244 19.5054 9.65201 20.156 9.90382 20.7629C10.1556 21.3698 10.5247 21.921 10.99 22.385C11.9292 23.3213 13.2016 23.8468 14.5278 23.846C15.854 23.8453 17.1258 23.3184 18.064 22.381L23.01 17.435C23.1975 17.2474 23.4518 17.1419 23.7171 17.1418C23.9824 17.1417 24.2368 17.247 24.4245 17.4345C24.6121 17.622 24.7176 17.8764 24.7177 18.1416C24.7178 18.4069 24.6125 18.6614 24.425 18.849L19.479 23.795C16.745 26.529 12.306 26.53 9.57496 23.799C8.92414 23.1492 8.40785 22.3775 8.05566 21.5279C7.70347 20.6784 7.52228 19.7677 7.52246 18.8481C7.52265 17.9284 7.7042 17.0178 8.05674 16.1684C8.40928 15.319 8.92587 14.5475 9.57696 13.898L15.942 7.533C16.8812 6.60223 18.1508 6.08141 19.4731 6.08449C20.7954 6.08757 22.0626 6.61431 22.9975 7.54944C23.9324 8.48457 24.4588 9.75195 24.4615 11.0742C24.4642 12.3965 23.943 13.666 23.012 14.605L16.645 20.972C16.3667 21.251 16.0362 21.4723 15.6723 21.6233C15.3084 21.7743 14.9182 21.8519 14.5242 21.8518C14.1303 21.8518 13.7402 21.7739 13.3763 21.6227C13.0125 21.4716 12.682 21.2501 12.404 20.971C11.8416 20.4087 11.5255 19.6462 11.5251 18.8509C11.5247 18.0557 11.8401 17.2928 12.402 16.73L17.354 11.778C17.5426 11.5958 17.7952 11.495 18.0574 11.4973C18.3196 11.4996 18.5704 11.6048 18.7558 11.7902C18.9412 11.9756 19.0464 12.2264 19.0486 12.4886C19.0509 12.7508 18.9501 13.0034 18.768 13.192L13.816 18.144C13.6294 18.3317 13.5248 18.5857 13.5252 18.8504C13.5255 19.1151 13.6308 19.3688 13.818 19.556C13.9102 19.6494 14.0201 19.7235 14.1412 19.7742C14.2623 19.8249 14.3923 19.8511 14.5235 19.8513C14.6548 19.8515 14.7848 19.8256 14.9061 19.7753C15.0273 19.725 15.1374 19.6511 15.23 19.558Z" fill="black"/>
</svg>
