<svg width="32" height="32" viewBox="0 0 32 32" fill="none" xmlns="http://www.w3.org/2000/svg">
<path d="M15.9999 9C20.4499 9 24.0759 11.417 26.7299 15.997C26.9206 16.3259 27.0137 16.7024 26.9981 17.0823C26.9825 17.4622 26.8589 17.8298 26.6419 18.142C23.9599 21.998 20.3569 24 15.9999 24C11.6429 24 8.03987 21.998 5.35787 18.142C5.14083 17.8298 5.01727 17.4622 5.00168 17.0823C4.9861 16.7024 5.07913 16.3259 5.26987 15.997C7.92387 11.417 11.5499 9 15.9999 9ZM15.9999 11C12.3179 11 9.31787 13 6.99987 17C9.31787 20.333 12.3179 22 15.9999 22C19.6819 22 22.6819 20.333 24.9999 17C22.6819 13 19.6819 11 15.9999 11ZM15.9999 12C17.0607 12 18.0782 12.4214 18.8283 13.1716C19.5784 13.9217 19.9999 14.9391 19.9999 16C19.9999 17.0609 19.5784 18.0783 18.8283 18.8284C18.0782 19.5786 17.0607 20 15.9999 20C14.939 20 13.9216 19.5786 13.1714 18.8284C12.4213 18.0783 11.9999 17.0609 11.9999 16C11.9999 14.9391 12.4213 13.9217 13.1714 13.1716C13.9216 12.4214 14.939 12 15.9999 12ZM15.9999 14C15.4694 14 14.9607 14.2107 14.5857 14.5858C14.2106 14.9609 13.9999 15.4696 13.9999 16C13.9999 16.5304 14.2106 17.0391 14.5857 17.4142C14.9607 17.7893 15.4694 18 15.9999 18C16.5303 18 17.039 17.7893 17.4141 17.4142C17.7892 17.0391 17.9999 16.5304 17.9999 16C17.9999 15.4696 17.7892 14.9609 17.4141 14.5858C17.039 14.2107 16.5303 14 15.9999 14Z" fill="black"/>
</svg>
