<svg width="40" height="40" viewBox="0 0 40 40" fill="none" xmlns="http://www.w3.org/2000/svg">
<path d="M24.375 3.75C24.9598 3.75156 25.5384 3.87036 26.0765 4.09936C26.6146 4.32836 27.1013 4.66293 27.5079 5.08327C27.9145 5.50361 28.2327 6.00121 28.4437 6.54663C28.6546 7.09206 28.7541 7.67425 28.7362 8.25879C28.7184 8.84332 28.5835 9.41834 28.3395 9.94985C28.0956 10.4814 27.7476 10.9586 27.3161 11.3533C26.8845 11.748 26.3783 12.0521 25.8272 12.2478C25.2761 12.4435 24.6913 12.5267 24.1075 12.4925L24.1138 12.505L24.1863 12.675L24.2738 12.9125L24.3088 13.025C24.4506 13.5107 24.4925 14.0201 24.4319 14.5224C24.3713 15.0247 24.2095 15.5095 23.9563 15.9475L23.4612 16.8013H24.4613C25.7863 16.8013 26.99 17.4963 27.6238 18.525L31.4587 25.175C31.9482 26.0358 32.0773 27.0553 31.8178 28.011C31.5584 28.9667 30.9314 29.7809 30.0739 30.276C29.2163 30.7712 28.1977 30.907 27.2403 30.6539C26.2829 30.4008 25.4646 29.7793 24.9638 28.925L22.2925 24.3L17.2863 24.3013L16.9825 24.3175C16.4138 24.3215 15.8516 24.1959 15.3387 23.95L15.0838 23.815C14.5184 23.4887 14.0479 23.0205 13.7191 22.4566C13.3902 21.8927 13.2143 21.2528 13.2088 20.6L13.2125 20.4338L13.2275 20.2038L13.2525 19.9963L13.2662 19.9125L13.3175 19.67L13.3625 19.5038C13.4737 19.1163 13.6475 18.7513 13.875 18.4238L13.7863 18.5588L15.3075 15.9238L14.04 15.4113L12.3775 16.3738C11.5504 16.8513 10.5722 16.9952 9.64256 16.7761C8.71294 16.5571 7.90193 15.9916 7.375 15.195L7.255 15C6.75774 14.1387 6.62299 13.1152 6.88038 12.1545C7.13777 11.1939 7.76623 10.3748 8.6275 9.8775L11.875 8.0025C12.3242 7.74278 12.8226 7.57923 13.3383 7.5222C13.8541 7.46518 14.3761 7.51594 14.8713 7.67125L14.9662 7.70375L15.1538 7.7725L20.3662 9.88C20.0746 9.21406 19.9535 8.48594 20.014 7.76145C20.0744 7.03696 20.3144 6.33895 20.7123 5.7305C21.1102 5.12206 21.6534 4.62235 22.2929 4.27657C22.9324 3.93078 23.648 3.7498 24.375 3.75ZM14.1225 10.0563C13.839 9.96757 13.5331 9.98309 13.26 10.1L13.125 10.1675L9.8775 12.0425C9.59274 12.2094 9.38557 12.4822 9.3012 12.8014C9.21683 13.1205 9.26211 13.46 9.42716 13.7459C9.5922 14.0317 9.86362 14.2407 10.1822 14.3272C10.5007 14.4137 10.8406 14.3706 11.1275 14.2075L13.5837 12.79C13.666 12.7427 13.7579 12.7147 13.8525 12.7083C13.9472 12.7018 14.0421 12.7169 14.13 12.7525L18.2438 14.415L18.3225 14.4525C18.466 14.5354 18.5708 14.6719 18.6137 14.832C18.6566 14.9921 18.6341 15.1627 18.5512 15.3063L15.9325 19.8438C15.8582 19.9506 15.8016 20.0688 15.765 20.1938L15.735 20.3063L15.7225 20.3888L15.715 20.4625L15.7075 20.5775C15.7089 20.7575 15.7491 20.935 15.8254 21.098C15.9017 21.2609 16.0122 21.4055 16.1496 21.5218C16.2869 21.6381 16.4477 21.7234 16.621 21.7719C16.7943 21.8203 16.976 21.8308 17.1537 21.8025L23.3763 21.8C23.486 21.8 23.5937 21.8289 23.6887 21.8837C23.7838 21.9386 23.8626 22.0175 23.9175 22.1125L27.1287 27.675C27.2102 27.8183 27.3192 27.9441 27.4495 28.0451C27.5798 28.1461 27.7288 28.2203 27.8879 28.2635C28.047 28.3067 28.213 28.318 28.3765 28.2968C28.54 28.2755 28.6976 28.2221 28.8404 28.1397C28.9832 28.0573 29.1082 27.9474 29.2084 27.8165C29.3085 27.6855 29.3817 27.5361 29.4239 27.3767C29.466 27.2173 29.4762 27.0512 29.4539 26.8878C29.4315 26.7245 29.3771 26.5672 29.2937 26.425L25.5688 19.9713C25.4629 19.7691 25.3037 19.5998 25.1085 19.4817C24.9132 19.3636 24.6894 19.3012 24.4613 19.3013H20.215C20.1053 19.3012 19.9975 19.2724 19.9025 19.2175C19.8075 19.1627 19.7286 19.0838 19.6737 18.9887C19.6189 18.8937 19.59 18.786 19.59 18.6762C19.59 18.5665 19.6189 18.4588 19.6737 18.3638L21.7913 14.6975C21.8756 14.5518 21.9296 14.3905 21.9498 14.2233C21.97 14.0561 21.956 13.8866 21.9088 13.725L21.8863 13.655L21.815 13.4862C21.6783 13.2199 21.4502 13.0118 21.1725 12.9L14.2188 10.0913L14.1225 10.0563ZM24.375 6.25C23.8777 6.25 23.4008 6.44754 23.0492 6.79918C22.6975 7.15081 22.5 7.62772 22.5 8.125C22.5 8.62228 22.6975 9.0992 23.0492 9.45083C23.4008 9.80246 23.8777 10 24.375 10C24.8723 10 25.3492 9.80246 25.7008 9.45083C26.0525 9.0992 26.25 8.62228 26.25 8.125C26.25 7.62772 26.0525 7.15081 25.7008 6.79918C25.3492 6.44754 24.8723 6.25 24.375 6.25ZM8.04125 20.135C8.28977 20.1348 8.5327 20.2086 8.73904 20.3472C8.94538 20.4857 9.10574 20.6825 9.19965 20.9126C9.29357 21.1427 9.31677 21.3956 9.26629 21.6389C9.21581 21.8822 9.09394 22.105 8.91625 22.2788C7.99972 23.3992 7.49931 24.8024 7.5 26.25C7.49906 27.6866 7.99306 29.0797 8.89885 30.1948C9.80465 31.3098 11.0669 32.0788 12.4732 32.3723C13.8796 32.6658 15.344 32.4658 16.6202 31.8061C17.8964 31.1463 18.9063 30.0671 19.48 28.75L21.7675 28.7513C21.8793 28.7511 21.989 28.781 22.0853 28.8377C22.1816 28.8945 22.2609 28.976 22.315 29.0738L24.03 32.1775C24.0841 32.2753 24.1634 32.3568 24.2597 32.4135C24.356 32.4702 24.4657 32.5001 24.5775 32.5H27.5C27.8315 32.5 28.1495 32.6317 28.3839 32.8661C28.6183 33.1005 28.75 33.4185 28.75 33.75C28.75 34.0815 28.6183 34.3995 28.3839 34.6339C28.1495 34.8683 27.8315 35 27.5 35H23.1213C23.031 34.9994 22.942 34.9793 22.8602 34.9411C22.7785 34.9029 22.7059 34.8475 22.6475 34.7788L22.5837 34.6875L20.7463 31.505C19.6436 32.973 18.1072 34.0569 16.3545 34.6034C14.6018 35.1499 12.7216 35.1312 10.98 34.55C9.23853 33.9688 7.72394 32.8545 6.65072 31.365C5.57749 29.8754 5 28.0859 5 26.25C5 23.9213 6.275 21.3813 7.3925 20.2375C7.555 20.135 7.81875 20.135 8.04125 20.135Z" fill="black"/>
</svg>
