<svg width="40" height="40" viewBox="0 0 40 40" fill="none" xmlns="http://www.w3.org/2000/svg">
<path d="M28.75 8.75C29.7446 8.75 30.6984 9.14509 31.4017 9.84835C32.1049 10.5516 32.5 11.5054 32.5 12.5V23.6462L33.7325 31.045C33.7713 31.2802 33.7421 31.5217 33.6482 31.7408C33.5543 31.96 33.3996 32.1477 33.2025 32.2819C33.0054 32.416 32.7741 32.491 32.5358 32.498C32.2975 32.505 32.0621 32.4436 31.8575 32.3212L25.9037 28.75H11.25C10.2554 28.75 9.30161 28.3549 8.59835 27.6516C7.89509 26.9484 7.5 25.9946 7.5 25V12.5C7.5 11.5054 7.89509 10.5516 8.59835 9.84835C9.30161 9.14509 10.2554 8.75 11.25 8.75H28.75ZM28.75 11.25H11.25C10.9185 11.25 10.6005 11.3817 10.3661 11.6161C10.1317 11.8505 10 12.1685 10 12.5V25C10 25.3315 10.1317 25.6495 10.3661 25.8839C10.6005 26.1183 10.9185 26.25 11.25 26.25H26.25C26.4764 26.2503 26.6985 26.3121 26.8925 26.4287L30.8225 28.785L30.0175 23.955L30 23.75V12.5C30 12.1685 29.8683 11.8505 29.6339 11.6161C29.3995 11.3817 29.0815 11.25 28.75 11.25ZM20 13.75C20.3315 13.75 20.6495 13.8817 20.8839 14.1161C21.1183 14.3505 21.25 14.6685 21.25 15V17.5H23.75C24.0815 17.5 24.3995 17.6317 24.6339 17.8661C24.8683 18.1005 25 18.4185 25 18.75C25 19.0815 24.8683 19.3995 24.6339 19.6339C24.3995 19.8683 24.0815 20 23.75 20H21.25V22.5C21.25 22.8315 21.1183 23.1495 20.8839 23.3839C20.6495 23.6183 20.3315 23.75 20 23.75C19.6685 23.75 19.3505 23.6183 19.1161 23.3839C18.8817 23.1495 18.75 22.8315 18.75 22.5V20H16.25C15.9185 20 15.6005 19.8683 15.3661 19.6339C15.1317 19.3995 15 19.0815 15 18.75C15 18.4185 15.1317 18.1005 15.3661 17.8661C15.6005 17.6317 15.9185 17.5 16.25 17.5H18.75V15C18.75 14.6685 18.8817 14.3505 19.1161 14.1161C19.3505 13.8817 19.6685 13.75 20 13.75Z" fill="black"/>
</svg>
