<svg width="40" height="40" viewBox="0 0 40 40" fill="none" xmlns="http://www.w3.org/2000/svg">
<path d="M20.0052 6.25L20.3614 6.2525C26.4277 6.3325 32.5052 8.4575 32.5052 11.6663V11.7125C32.5402 12.23 32.4152 12.7687 32.0914 13.2537L31.9789 13.41L28.6689 17.16C29.219 17.4503 29.6415 17.9348 29.854 18.5194C30.0666 19.1039 30.0541 19.7467 29.8189 20.3225L29.7414 20.4925L28.4914 22.9925C28.2992 23.3774 28.0109 23.7062 27.6544 23.9471C27.2979 24.188 26.8853 24.3328 26.4564 24.3675L26.2552 24.375H23.7539V30.625C23.7539 31.9425 23.1539 32.3088 21.8552 33.1213C20.5552 33.9338 20.1352 34.375 18.7552 34.375C18.1245 34.3752 17.517 34.137 17.0545 33.7081C16.592 33.2793 16.3087 32.6914 16.2614 32.0625L16.2552 31.875V22.7325L8.03144 13.41C7.65294 12.9317 7.46581 12.3298 7.50644 11.7212L7.50519 11.6663C7.50519 8.39375 13.8227 6.25 20.0052 6.25ZM25.7352 16.7562C23.9289 17.2312 21.9402 17.5 20.0052 17.5C18.0689 17.5 16.0802 17.23 14.2739 16.7562L18.7552 21.875V31.875L21.2552 30.625V21.875L25.7352 16.7562ZM27.5052 19.375H26.7139L24.5089 21.8738L26.2552 21.875L27.5052 19.375ZM20.0052 8.75C14.4814 8.75 10.0052 10.7463 10.0052 11.6663C10.0052 12.5875 14.4814 15 20.0052 15C25.5277 15 30.0052 12.5875 30.0052 11.6663C30.0052 10.7463 25.5277 8.75 20.0052 8.75Z" fill="black"/>
</svg>
