<svg width="40" height="40" viewBox="0 0 40 40" fill="none" xmlns="http://www.w3.org/2000/svg">
<path opacity="0.35" d="M26.9347 20.9825C26.9853 20.8755 27.0653 20.7851 27.1653 20.7217C27.2654 20.6584 27.3813 20.6248 27.4997 20.6248C27.6181 20.6248 27.7341 20.6584 27.8341 20.7217C27.9341 20.7851 28.0141 20.8755 28.0647 20.9825L29.5047 24.0276L32.5935 24.4963C32.6985 24.5121 32.7979 24.5545 32.882 24.6193C32.9662 24.6842 33.0324 24.7695 33.0744 24.8671C33.1165 24.9647 33.1329 25.0714 33.1223 25.1771C33.1116 25.2828 33.0742 25.3841 33.0135 25.4713L32.946 25.5525L30.6985 27.8376L31.2435 31.1488C31.2612 31.256 31.2507 31.366 31.2129 31.4679C31.1752 31.5698 31.1115 31.6601 31.0282 31.7299C30.945 31.7997 30.8449 31.8465 30.738 31.8659C30.631 31.8852 30.5209 31.8763 30.4185 31.8401L30.326 31.7976L27.4997 30.2463L24.6735 31.7976C24.5783 31.8499 24.4711 31.8765 24.3626 31.8749C24.254 31.8732 24.1477 31.8432 24.0542 31.788C23.9607 31.7327 23.8832 31.654 23.8294 31.5597C23.7756 31.4654 23.7472 31.3587 23.7472 31.2501L23.756 31.1488L24.2997 27.8376L22.0535 25.5525C21.9791 25.4768 21.9252 25.3833 21.897 25.2809C21.8688 25.1786 21.8671 25.0707 21.8921 24.9675C21.9171 24.8643 21.968 24.7692 22.04 24.6911C22.112 24.6131 22.2026 24.5546 22.3035 24.5213L22.406 24.4963L25.4935 24.0276L26.9347 20.9825ZM11.9347 20.9825C11.9853 20.8755 12.0653 20.7851 12.1653 20.7217C12.2654 20.6584 12.3813 20.6248 12.4997 20.6248C12.6181 20.6248 12.7341 20.6584 12.8341 20.7217C12.9341 20.7851 13.0141 20.8755 13.0647 20.9825L14.5047 24.0276L17.5935 24.4963C17.6985 24.5121 17.7979 24.5545 17.882 24.6193C17.9662 24.6842 18.0324 24.7695 18.0744 24.8671C18.1165 24.9647 18.1329 25.0714 18.1223 25.1771C18.1116 25.2828 18.0742 25.3841 18.0135 25.4713L17.946 25.5525L15.6985 27.8376L16.2435 31.1488C16.2612 31.256 16.2507 31.366 16.2129 31.4679C16.1752 31.5698 16.1115 31.6601 16.0282 31.7299C15.945 31.7997 15.8449 31.8465 15.738 31.8659C15.631 31.8852 15.5209 31.8763 15.4185 31.8401L15.326 31.7976L12.4997 30.2463L9.67346 31.7976C9.5783 31.8499 9.47115 31.8765 9.36255 31.8749C9.25396 31.8732 9.14768 31.8432 9.05418 31.788C8.96069 31.7327 8.88321 31.654 8.82938 31.5597C8.77555 31.4654 8.74723 31.3587 8.74721 31.2501L8.75596 31.1488L9.29971 27.8376L7.05346 25.5525C6.97908 25.4768 6.92524 25.3833 6.89701 25.2809C6.86878 25.1786 6.86709 25.0707 6.89211 24.9675C6.91712 24.8643 6.96802 24.7692 7.03999 24.6911C7.11196 24.6131 7.20264 24.5546 7.30346 24.5213L7.40596 24.4963L10.4935 24.0276L11.9347 20.9825Z" fill="black"/>
<path d="M17.9933 10.2776L14.9058 10.7463L14.802 10.7713C14.7013 10.8048 14.6108 10.8633 14.5389 10.9415C14.4671 11.0196 14.4163 11.1147 14.3914 11.2179C14.3666 11.3211 14.3684 11.4289 14.3967 11.5312C14.425 11.6335 14.4789 11.7269 14.5533 11.8026L16.7995 14.0876L16.2558 17.3988L16.247 17.4988C16.2467 17.6075 16.2748 17.7143 16.3283 17.8088C16.3819 17.9033 16.4592 17.9822 16.5526 18.0377C16.646 18.0933 16.7522 18.1235 16.8608 18.1254C16.9695 18.1274 17.0767 18.101 17.172 18.0488L19.9995 16.4951L22.8258 18.0463L22.9183 18.0888C23.0207 18.1251 23.1309 18.1339 23.2378 18.1146C23.3447 18.0953 23.4448 18.0484 23.5281 17.9787C23.6114 17.9089 23.675 17.8186 23.7128 17.7167C23.7505 17.6148 23.761 17.5048 23.7433 17.3976L23.1983 14.0863L25.4458 11.8013L25.5133 11.7201C25.574 11.6329 25.6114 11.5316 25.6221 11.4259C25.6328 11.3201 25.6163 11.2134 25.5743 11.1158C25.5322 11.0183 25.466 10.933 25.3818 10.8681C25.2977 10.8032 25.1984 10.7609 25.0933 10.7451L22.0045 10.2763L20.5645 7.23133C20.5139 7.1243 20.4339 7.03385 20.3339 6.97051C20.2339 6.90716 20.1179 6.87354 19.9995 6.87354C19.8811 6.87354 19.7652 6.90716 19.6652 6.97051C19.5651 7.03385 19.4851 7.1243 19.4345 7.23133L17.9933 10.2763V10.2776Z" fill="black"/>
</svg>
