<svg width="24" height="24" viewBox="0 0 24 24" fill="none" xmlns="http://www.w3.org/2000/svg">
<path d="M7.875 9C8.38171 9.00001 8.87758 9.14666 9.30277 9.42227C9.72797 9.69789 10.0643 10.0907 10.2712 10.5532C10.4781 11.0158 10.5467 11.5283 10.4687 12.029C10.3907 12.5296 10.1695 12.997 9.83175 13.3748C10.2707 13.6865 10.6285 14.099 10.8752 14.5775C11.122 15.056 11.2505 15.5866 11.25 16.125V18C11.25 18.3978 11.092 18.7794 10.8107 19.0607C10.5294 19.342 10.1478 19.5 9.75 19.5H6C5.60218 19.5 5.22064 19.342 4.93934 19.0607C4.65804 18.7794 4.5 18.3978 4.5 18V16.125C4.5 14.9902 5.0595 13.9867 5.9175 13.3748C5.5797 12.997 5.35847 12.5295 5.28052 12.0288C5.20257 11.528 5.27123 11.0154 5.47821 10.5529C5.68519 10.0903 6.02164 9.69752 6.44695 9.42197C6.87226 9.14642 7.36823 8.99986 7.875 9ZM7.875 14.25C7.37772 14.25 6.90081 14.4475 6.54917 14.7992C6.19754 15.1508 6 15.6277 6 16.125V18H9.75V16.125C9.75 15.6277 9.55246 15.1508 9.20083 14.7992C8.84919 14.4475 8.37228 14.25 7.875 14.25ZM17.25 4.5C18.414 4.5 19.5 5.586 19.5 6.75V10.5C19.5 11.664 18.414 12.75 17.25 12.75H15.2272L13.1663 14.124C13.0533 14.1994 12.922 14.2426 12.7864 14.2492C12.6508 14.2558 12.5159 14.2255 12.3962 14.1614C12.2765 14.0973 12.1764 14.002 12.1066 13.8855C12.0368 13.769 12 13.6358 12 13.5V12C12 11.8011 12.079 11.6103 12.2197 11.4697C12.3603 11.329 12.5511 11.25 12.75 11.25C12.9489 11.25 13.1397 11.329 13.2803 11.4697C13.421 11.6103 13.5 11.8011 13.5 12V12.0983L14.5837 11.376C14.707 11.2938 14.8519 11.25 15 11.25H17.25C17.586 11.25 18 10.836 18 10.5V6.75C18 6.414 17.586 6 17.25 6H11.25C10.914 6 10.5 6.414 10.5 6.75V7.5C10.5 7.69891 10.421 7.88968 10.2803 8.03033C10.1397 8.17098 9.94891 8.25 9.75 8.25C9.55109 8.25 9.36032 8.17098 9.21967 8.03033C9.07902 7.88968 9 7.69891 9 7.5V6.75C9 5.586 10.086 4.5 11.25 4.5H17.25ZM7.875 10.5C7.57663 10.5 7.29048 10.6185 7.0795 10.8295C6.86853 11.0405 6.75 11.3266 6.75 11.625C6.75 11.9234 6.86853 12.2095 7.0795 12.4205C7.29048 12.6315 7.57663 12.75 7.875 12.75C8.17337 12.75 8.45952 12.6315 8.6705 12.4205C8.88147 12.2095 9 11.9234 9 11.625C9 11.3266 8.88147 11.0405 8.6705 10.8295C8.45952 10.6185 8.17337 10.5 7.875 10.5Z" fill="black"/>
</svg>
