<svg width="40" height="40" viewBox="0 0 40 40" fill="none" xmlns="http://www.w3.org/2000/svg">
<path d="M16.8312 10.7725L8.71621 17.4388C8.33617 17.7487 8.02986 18.1393 7.8195 18.5823C7.60914 19.0253 7.5 19.5096 7.5 20C7.5 20.4904 7.60914 20.9747 7.8195 21.4177C8.02986 21.8607 8.33617 22.2513 8.71621 22.5613L16.8312 29.2275L16.9912 29.3513C19.1575 30.9313 22.37 29.47 22.37 26.665V25.8325L22.58 25.8613C24.2362 26.1113 25.2875 26.7563 26.89 28.3063C29.2225 30.565 32.5 28.4113 32.5 25.6688L32.495 25.295C32.3375 19.2425 28.3575 15.395 22.7475 14.4325L22.37 14.3713V13.3338C22.37 10.46 18.995 8.99626 16.8312 10.7725ZM19.87 13.335V16.6938C25.0825 16.6938 30 19.37 30 25.6688C30 26.4188 29.1625 27.0275 28.6287 26.51C25.2262 23.2163 22.7562 23.2163 19.87 23.2163V26.6663C19.87 27.3788 18.9862 27.7625 18.4175 27.295L10.3037 20.63C10.2091 20.5545 10.1328 20.4586 10.0803 20.3496C10.0278 20.2405 10.0006 20.121 10.0006 20C10.0006 19.879 10.0278 19.7595 10.0803 19.6504C10.1328 19.5414 10.2091 19.4455 10.3037 19.37L18.4175 12.705C18.9862 12.2375 19.87 12.6213 19.87 13.335Z" fill="black"/>
</svg>
