<svg width="40" height="40" viewBox="0 0 40 40" fill="none" xmlns="http://www.w3.org/2000/svg">
<path d="M20 6.25C27.5938 6.25 33.75 12.4062 33.75 20C33.75 27.5938 27.5938 33.75 20 33.75C12.5262 33.75 6.44625 27.7875 6.255 20.36L6.25 20L6.25875 19.8538C6.29638 19.5374 6.45339 19.2473 6.69771 19.0428C6.94203 18.8383 7.2552 18.7349 7.57326 18.7535C7.89131 18.7722 8.19023 18.9116 8.40894 19.1433C8.62765 19.375 8.74965 19.6814 8.75 20C8.74998 22.2109 9.40142 24.3729 10.623 26.2157C11.8445 28.0586 13.582 29.5006 15.6183 30.3618C17.6547 31.2229 19.8996 31.4649 22.0727 31.0575C24.2458 30.6502 26.2507 29.6116 27.8369 28.0714C29.4231 26.5312 30.5204 24.5578 30.9916 22.3976C31.4627 20.2375 31.287 17.9864 30.4862 15.9256C29.6854 13.8647 28.2952 12.0855 26.4891 10.8102C24.683 9.53495 22.5412 8.8201 20.3312 8.755L20 8.75L19.8538 8.74125C19.5374 8.70362 19.2473 8.54661 19.0428 8.30229C18.8383 8.05797 18.7349 7.7448 18.7535 7.42674C18.7722 7.10869 18.9116 6.80977 19.1433 6.59106C19.375 6.37235 19.6814 6.25035 20 6.25ZM20 11.25C22.0161 11.25 23.9703 11.9461 25.5322 13.2208C27.0942 14.4954 28.1681 16.2703 28.5724 18.2454C28.9766 20.2205 28.6865 22.2747 27.7509 24.0605C26.8153 25.8463 25.2918 27.2543 23.4379 28.0464C21.5839 28.8385 19.5133 28.966 17.5762 28.4076C15.639 27.8491 13.9542 26.6388 12.8064 24.9813C11.6587 23.3239 11.1185 21.3209 11.2772 19.3111C11.436 17.3013 12.2838 15.408 13.6775 13.9513C13.7789 13.8117 13.9081 13.6946 14.0569 13.6074C14.2057 13.5202 14.371 13.4647 14.5423 13.4445C14.7137 13.4243 14.8873 13.4398 15.0524 13.49C15.2174 13.5401 15.3703 13.6239 15.5014 13.7361C15.6325 13.8482 15.7389 13.9862 15.814 14.1415C15.8892 14.2968 15.9313 14.466 15.9379 14.6384C15.9445 14.8107 15.9153 14.9826 15.8522 15.1432C15.7891 15.3037 15.6934 15.4495 15.5712 15.5712L15.58 15.58C14.5574 16.6023 13.9209 17.9476 13.779 19.3865C13.6371 20.8255 13.9985 22.2692 14.8016 23.4716C15.6048 24.6739 16.8 25.5607 18.1836 25.9806C19.5673 26.4006 21.0537 26.3278 22.3897 25.7746C23.7257 25.2215 24.8285 24.2222 25.5104 22.9471C26.1922 21.672 26.4108 20.2 26.129 18.7817C25.8471 17.3635 25.0822 16.0869 23.9647 15.1694C22.8471 14.2519 21.446 13.7503 20 13.75H19.9987L19.8538 13.7413C19.5374 13.7036 19.2473 13.5466 19.0428 13.3023C18.8383 13.058 18.7349 12.7448 18.7535 12.4267C18.7722 12.1087 18.9116 11.8098 19.1433 11.5911C19.375 11.3723 19.6814 11.2504 20 11.25ZM19.8538 18.7413C19.5374 18.7036 19.2473 18.5466 19.0428 18.3023C18.8383 18.058 18.7349 17.7448 18.7535 17.4267C18.7722 17.1087 18.9116 16.8098 19.1433 16.5911C19.375 16.3723 19.6814 16.2504 20 16.25C20.7323 16.25 21.4486 16.4645 22.0604 16.8669C22.6722 17.2693 23.1529 17.842 23.443 18.5144C23.7331 19.1868 23.82 19.9294 23.6929 20.6506C23.5659 21.3718 23.2305 22.04 22.728 22.5728C22.2256 23.1055 21.5782 23.4796 20.8657 23.6487C20.1532 23.8178 19.4068 23.7745 18.7185 23.5243C18.0303 23.2741 17.4304 22.8279 16.9928 22.2407C16.5553 21.6535 16.2992 20.951 16.2563 20.22L16.25 20L16.2587 19.8538C16.2964 19.5374 16.4534 19.2473 16.6977 19.0428C16.942 18.8383 17.2552 18.7349 17.5733 18.7535C17.8913 18.7722 18.1902 18.9116 18.4089 19.1433C18.6277 19.375 18.7496 19.6814 18.75 20C18.75 20.241 18.8196 20.4769 18.9505 20.6792C19.0814 20.8815 19.268 21.0417 19.4879 21.1404C19.7077 21.2392 19.9514 21.2723 20.1896 21.2357C20.4278 21.1991 20.6504 21.0945 20.8305 20.9344C21.0106 20.7743 21.1406 20.5655 21.2048 20.3332C21.269 20.1009 21.2647 19.855 21.1924 19.6251C21.1201 19.3952 20.9829 19.1912 20.7973 19.0374C20.6117 18.8837 20.3856 18.7869 20.1463 18.7587L20 18.75L19.8538 18.7413Z" fill="black"/>
</svg>
