<svg width="40" height="40" viewBox="0 0 40 40" fill="none" xmlns="http://www.w3.org/2000/svg">
<path d="M23.7537 7.5C25.1338 7.5 26.2437 8.6125 26.25 10H28.75C29.413 10 30.0489 10.2634 30.5178 10.7322C30.9866 11.2011 31.25 11.837 31.25 12.5V30C31.25 30.663 30.9866 31.2989 30.5178 31.7678C30.0489 32.2366 29.413 32.5 28.75 32.5H11.25C10.587 32.5 9.95107 32.2366 9.48223 31.7678C9.01339 31.2989 8.75 30.663 8.75 30V12.5C8.75 11.837 9.01339 11.2011 9.48223 10.7322C9.95107 10.2634 10.587 10 11.25 10H13.75L13.7563 9.825C13.8025 9.19521 14.0845 8.60603 14.5461 8.17505C15.0077 7.74408 15.6148 7.50302 16.2462 7.5H23.7537ZM13.75 12.5H11.25V30H28.75V12.5H26.25L26.2438 12.675C26.1975 13.3048 25.9155 13.894 25.4539 14.3249C24.9923 14.7559 24.3852 14.997 23.7537 15H16.2462C15.9182 14.9998 15.5933 14.935 15.2903 14.8093C14.9873 14.6836 14.712 14.4993 14.4802 14.2672C14.2484 14.035 14.0646 13.7594 13.9393 13.4562C13.814 13.153 13.7497 12.8281 13.75 12.5ZM21.25 23.75C21.5815 23.75 21.8995 23.8817 22.1339 24.1161C22.3683 24.3505 22.5 24.6685 22.5 25C22.5 25.3315 22.3683 25.6495 22.1339 25.8839C21.8995 26.1183 21.5815 26.25 21.25 26.25H15C14.6685 26.25 14.3505 26.1183 14.1161 25.8839C13.8817 25.6495 13.75 25.3315 13.75 25C13.75 24.6685 13.8817 24.3505 14.1161 24.1161C14.3505 23.8817 14.6685 23.75 15 23.75H21.25ZM25 18.75C25.3315 18.75 25.6495 18.8817 25.8839 19.1161C26.1183 19.3505 26.25 19.6685 26.25 20C26.25 20.3315 26.1183 20.6495 25.8839 20.8839C25.6495 21.1183 25.3315 21.25 25 21.25H15C14.6685 21.25 14.3505 21.1183 14.1161 20.8839C13.8817 20.6495 13.75 20.3315 13.75 20C13.75 19.6685 13.8817 19.3505 14.1161 19.1161C14.3505 18.8817 14.6685 18.75 15 18.75H25ZM23.7525 10H16.2462C16.2562 10 16.25 10.0063 16.25 10.0125V12.4875C16.25 12.4962 16.25 12.5 16.2475 12.5H23.7537C23.7438 12.5 23.75 12.4937 23.75 12.4875V10.0125C23.75 10.0038 23.75 10 23.7525 10Z" fill="black"/>
</svg>
