<svg width="24" height="24" viewBox="0 0 24 24" fill="none" xmlns="http://www.w3.org/2000/svg">
<path d="M11.9999 15.75L15.5586 17.553L14.8806 13.743L17.6901 11.103L13.8014 10.5585L11.9999 7.04104V15.75ZM7.77811 19.5705C7.6538 19.6334 7.51443 19.6604 7.37563 19.6486C7.23683 19.6367 7.10408 19.5864 6.99226 19.5033C6.88045 19.4202 6.79398 19.3076 6.74255 19.1782C6.69113 19.0487 6.67677 18.9075 6.70111 18.7703L7.49986 14.28L4.14136 11.1248C4.03808 11.028 3.96431 10.9039 3.92858 10.7669C3.89285 10.6299 3.89662 10.4856 3.93945 10.3507C3.98228 10.2158 4.06243 10.0957 4.17062 10.0044C4.27882 9.91312 4.41064 9.85431 4.55086 9.83479L9.21886 9.18154L11.3324 5.05354C11.3953 4.93069 11.4909 4.82759 11.6087 4.75559C11.7265 4.6836 11.8618 4.64551 11.9999 4.64551C12.1379 4.64551 12.2732 4.6836 12.391 4.75559C12.5088 4.82759 12.6044 4.93069 12.6674 5.05354L14.7809 9.18154L19.4489 9.83554C19.5889 9.85517 19.7206 9.91401 19.8286 10.0053C19.9367 10.0965 20.0167 10.2164 20.0595 10.3512C20.1023 10.486 20.1062 10.6302 20.0706 10.767C20.035 10.9039 19.9614 11.0279 19.8584 11.1248L16.4999 14.28L17.2986 18.7703C17.3229 18.9075 17.3086 19.0487 17.2572 19.1782C17.2057 19.3076 17.1193 19.4202 17.0074 19.5033C16.8956 19.5864 16.7629 19.6367 16.6241 19.6486C16.4853 19.6604 16.3459 19.6334 16.2216 19.5705L11.9999 17.4315L7.77811 19.5705Z" fill="black"/>
</svg>
