<svg width="40" height="40" viewBox="0 0 40 40" fill="none" xmlns="http://www.w3.org/2000/svg">
<path d="M20 7.5C26.9037 7.5 32.5 13.0963 32.5 20C32.5 26.9037 26.9037 32.5 20 32.5C13.0963 32.5 7.5 26.9037 7.5 20C7.5 13.0963 13.0963 7.5 20 7.5ZM20 10C17.3478 10 14.8043 11.0536 12.9289 12.9289C11.0536 14.8043 10 17.3478 10 20C10 22.6522 11.0536 25.1957 12.9289 27.0711C14.8043 28.9464 17.3478 30 20 30C22.6522 30 25.1957 28.9464 27.0711 27.0711C28.9464 25.1957 30 22.6522 30 20C30 17.3478 28.9464 14.8043 27.0711 12.9289C25.1957 11.0536 22.6522 10 20 10ZM23.9287 14.3575C24.1053 14.0863 24.3801 13.8942 24.6953 13.8215C25.0106 13.7487 25.3418 13.8011 25.6193 13.9675C25.8967 14.1339 26.0989 14.4014 26.1832 14.7138C26.2675 15.0262 26.2273 15.3591 26.0713 15.6425L20.0712 25.6425C19.9735 25.8053 19.84 25.9437 19.6809 26.0472C19.5217 26.1507 19.341 26.2166 19.1526 26.2398C18.9641 26.2631 18.7729 26.2431 18.5933 26.1814C18.4138 26.1197 18.2506 26.0179 18.1163 25.8838L14.1163 21.8837C13.8886 21.648 13.7626 21.3322 13.7654 21.0045C13.7683 20.6768 13.8997 20.3632 14.1315 20.1315C14.3632 19.8997 14.6768 19.7683 15.0045 19.7654C15.3322 19.7626 15.648 19.8886 15.8837 20.1163L18.7513 22.9837L23.9287 14.3575Z" fill="black"/>
</svg>
