<svg width="40" height="40" viewBox="0 0 40 40" fill="none" xmlns="http://www.w3.org/2000/svg">
<path d="M32.7165 6.08344C32.5229 5.92681 32.2966 5.81556 32.0543 5.75788C31.8121 5.70019 31.5599 5.69754 31.3165 5.75011C29.5356 6.12335 27.6971 6.1281 25.9142 5.76408C24.1314 5.40006 22.4419 4.67496 20.9498 3.63344C20.6709 3.4399 20.3394 3.33618 19.9998 3.33618C19.6603 3.33618 19.3288 3.4399 19.0498 3.63344C17.5578 4.67496 15.8683 5.40006 14.0855 5.76408C12.3026 6.1281 10.4641 6.12335 8.68318 5.75011C8.43974 5.69754 8.18762 5.70019 7.94535 5.75788C7.70307 5.81556 7.47681 5.92681 7.28318 6.08344C7.08981 6.2403 6.93405 6.4385 6.82733 6.66347C6.72062 6.88843 6.66567 7.13445 6.66651 7.38344V19.8001C6.66503 22.1897 7.23447 24.545 8.3274 26.67C9.42034 28.795 11.0051 30.6282 12.9498 32.0168L19.0332 36.3501C19.3154 36.5511 19.6533 36.6591 19.9998 36.6591C20.3464 36.6591 20.6842 36.5511 20.9665 36.3501L27.0498 32.0168C28.9945 30.6282 30.5794 28.795 31.6723 26.67C32.7652 24.545 33.3347 22.1897 33.3332 19.8001V7.38344C33.334 7.13445 33.2791 6.88843 33.1724 6.66347C33.0656 6.4385 32.9099 6.2403 32.7165 6.08344ZM29.9998 19.8001C30.0011 21.658 29.5587 23.4894 28.7093 25.1418C27.8599 26.7942 26.6281 28.2199 25.1165 29.3001L19.9998 32.9501L14.8832 29.3001C13.3716 28.2199 12.1398 26.7942 11.2904 25.1418C10.441 23.4894 9.99857 21.658 9.99985 19.8001V9.30011C13.4939 9.59916 16.9932 8.78848 19.9998 6.98344C23.0064 8.78848 26.5058 9.59916 29.9998 9.30011V19.8001Z" fill="#11161A"/>
</svg>
