<svg width="40" height="40" viewBox="0 0 40 40" fill="none" xmlns="http://www.w3.org/2000/svg">
<path d="M25 7.5C25.3315 7.5 25.6495 7.6317 25.8839 7.86612C26.1183 8.10054 26.25 8.41848 26.25 8.75V10H30C30.663 10 31.2989 10.2634 31.7678 10.7322C32.2366 11.2011 32.5 11.837 32.5 12.5V23.2325C32.4999 23.8955 32.2364 24.5313 31.7675 25L25 31.7675C24.5313 32.2364 23.8955 32.4999 23.2325 32.5H10C9.33696 32.5 8.70107 32.2366 8.23223 31.7678C7.76339 31.2989 7.5 30.663 7.5 30V12.5C7.5 11.837 7.76339 11.2011 8.23223 10.7322C8.70107 10.2634 9.33696 10 10 10H13.75V8.75C13.75 8.41848 13.8817 8.10054 14.1161 7.86612C14.3505 7.6317 14.6685 7.5 15 7.5C15.3315 7.5 15.6495 7.6317 15.8839 7.86612C16.1183 8.10054 16.25 8.41848 16.25 8.75V10H23.75V8.75C23.75 8.41848 23.8817 8.10054 24.1161 7.86612C24.3505 7.6317 24.6685 7.5 25 7.5ZM30 18.75H10V30H22.5V25C22.5 24.337 22.7634 23.7011 23.2322 23.2322C23.7011 22.7634 24.337 22.5 25 22.5H30V18.75ZM28.2312 25H25V28.2312L28.2312 25ZM13.75 12.5H10V16.25H30V12.5H26.25C26.25 12.8315 26.1183 13.1495 25.8839 13.3839C25.6495 13.6183 25.3315 13.75 25 13.75C24.6685 13.75 24.3505 13.6183 24.1161 13.3839C23.8817 13.1495 23.75 12.8315 23.75 12.5H16.25C16.25 12.8315 16.1183 13.1495 15.8839 13.3839C15.6495 13.6183 15.3315 13.75 15 13.75C14.6685 13.75 14.3505 13.6183 14.1161 13.3839C13.8817 13.1495 13.75 12.8315 13.75 12.5Z" fill="black"/>
</svg>
