<svg width="32" height="32" viewBox="0 0 32 32" fill="none" xmlns="http://www.w3.org/2000/svg">
<path d="M23 15.9754V15.9554C23 15.9324 22.998 15.9094 22.996 15.8854L23 15.9754C22.9994 15.7518 22.9245 15.5347 22.787 15.3584L22.78 15.3504L22.707 15.2684L16.707 9.26838C16.5184 9.08622 16.2658 8.98543 16.0036 8.98771C15.7414 8.98998 15.4906 9.09515 15.3052 9.28056C15.1198 9.46597 15.0146 9.71678 15.0123 9.97898C15.01 10.2412 15.1108 10.4938 15.293 10.6824L19.586 14.9754L10 14.9754C9.73478 14.9754 9.48043 15.0807 9.29289 15.2683C9.10536 15.4558 9 15.7102 9 15.9754C9 16.2406 9.10536 16.495 9.29289 16.6825C9.48043 16.87 9.73478 16.9754 10 16.9754H19.586L15.293 21.2684C15.1975 21.3606 15.1213 21.471 15.0689 21.593C15.0165 21.715 14.9889 21.8462 14.9877 21.979C14.9866 22.1118 15.0119 22.2434 15.0622 22.3663C15.1125 22.4892 15.1867 22.6009 15.2806 22.6948C15.3745 22.7887 15.4862 22.8629 15.609 22.9132C15.7319 22.9635 15.8636 22.9888 15.9964 22.9876C16.1292 22.9865 16.2604 22.9589 16.3824 22.9065C16.5044 22.8541 16.6148 22.7779 16.707 22.6824L22.707 16.6824L22.78 16.6004C22.7823 16.5977 22.7847 16.5951 22.787 16.5924L22.707 16.6824C22.8895 16.4988 22.9944 16.2521 23 15.9934V15.9754Z" fill="black"/>
</svg>
