<svg width="40" height="40" viewBox="0 0 40 40" fill="none" xmlns="http://www.w3.org/2000/svg">
<path d="M20 7.5C26.9037 7.5 32.5 13.0963 32.5 20C32.5 26.9037 26.9037 32.5 20 32.5C13.0963 32.5 7.5 26.9037 7.5 20C7.5 13.0963 13.0963 7.5 20 7.5ZM20 10C17.3478 10 14.8043 11.0536 12.9289 12.9289C11.0536 14.8043 10 17.3478 10 20C10 22.6522 11.0536 25.1957 12.9289 27.0711C14.8043 28.9464 17.3478 30 20 30C22.6522 30 25.1957 28.9464 27.0711 27.0711C28.9464 25.1957 30 22.6522 30 20C30 17.3478 28.9464 14.8043 27.0711 12.9289C25.1957 11.0536 22.6522 10 20 10ZM20 12.5C20.3315 12.5 20.6495 12.6317 20.8839 12.8661C21.1183 13.1005 21.25 13.4185 21.25 13.75V19.4812L24.6338 22.8662C24.849 23.0815 24.9783 23.3679 24.9974 23.6716C25.0165 23.9754 24.9241 24.2757 24.7375 24.5163L24.6338 24.6338C24.3993 24.8681 24.0815 24.9997 23.75 24.9997C23.4185 24.9997 23.1007 24.8681 22.8662 24.6338L19.1163 20.8838L19.025 20.7812C18.8475 20.5595 18.7505 20.284 18.75 20L18.755 20.1125C18.7523 20.0834 18.7506 20.0542 18.75 20.025V13.75C18.75 13.4185 18.8817 13.1005 19.1161 12.8661C19.3505 12.6317 19.6685 12.5 20 12.5Z" fill="black"/>
</svg>
