<svg width="32" height="32" viewBox="0 0 32 32" fill="none" xmlns="http://www.w3.org/2000/svg">
<path d="M15.9999 9H15.9799C15.9569 9 15.9339 9.002 15.9099 9.004L15.9999 9C15.7763 9.0006 15.5593 9.07553 15.3829 9.213L15.3749 9.22L15.2929 9.293L9.29292 15.293C9.11076 15.4816 9.00997 15.7342 9.01224 15.9964C9.01452 16.2586 9.11969 16.5094 9.3051 16.6948C9.49051 16.8802 9.74132 16.9854 10.0035 16.9877C10.2657 16.99 10.5183 16.8892 10.7069 16.707L14.9999 12.414V22C14.9999 22.2652 15.1053 22.5196 15.2928 22.7071C15.4803 22.8946 15.7347 23 15.9999 23C16.2651 23 16.5195 22.8946 16.707 22.7071C16.8946 22.5196 16.9999 22.2652 16.9999 22V12.414L21.2929 16.707C21.3852 16.8025 21.4955 16.8787 21.6175 16.9311C21.7395 16.9835 21.8707 17.0111 22.0035 17.0123C22.1363 17.0134 22.268 16.9881 22.3909 16.9378C22.5138 16.8875 22.6254 16.8133 22.7193 16.7194C22.8132 16.6255 22.8875 16.5138 22.9377 16.391C22.988 16.2681 23.0133 16.1364 23.0122 16.0036C23.011 15.8708 22.9834 15.7396 22.931 15.6176C22.8786 15.4956 22.8024 15.3852 22.7069 15.293L16.7069 9.293L16.6249 9.22C16.6223 9.21765 16.6196 9.21532 16.6169 9.213L16.7069 9.293C16.5234 9.1105 16.2767 9.00559 16.0179 9H15.9999Z" fill="black"/>
</svg>
