<svg width="24" height="24" viewBox="0 0 24 24" fill="none" xmlns="http://www.w3.org/2000/svg">
<path d="M11.9999 6.75C15.3374 6.75 18.0569 8.56275 20.0474 11.9977C20.1905 12.2444 20.2602 12.5268 20.2486 12.8117C20.2369 13.0967 20.1442 13.3724 19.9814 13.6065C17.9699 16.4985 15.2677 18 11.9999 18C8.73216 18 6.02991 16.4985 4.01841 13.6065C3.85562 13.3724 3.76295 13.0967 3.75126 12.8117C3.73957 12.5268 3.80935 12.2444 3.95241 11.9977C5.94291 8.56275 8.66241 6.75 11.9999 6.75ZM11.9999 8.25C9.23841 8.25 6.98841 9.75 5.24991 12.75C6.98841 15.2498 9.23841 16.5 11.9999 16.5C14.7614 16.5 17.0114 15.2498 18.7499 12.75C17.0114 9.75 14.7614 8.25 11.9999 8.25ZM11.9999 9C12.7956 9 13.5586 9.31607 14.1212 9.87868C14.6838 10.4413 14.9999 11.2044 14.9999 12C14.9999 12.7956 14.6838 13.5587 14.1212 14.1213C13.5586 14.6839 12.7956 15 11.9999 15C11.2043 15 10.4412 14.6839 9.87858 14.1213C9.31598 13.5587 8.99991 12.7956 8.99991 12C8.99991 11.2044 9.31598 10.4413 9.87858 9.87868C10.4412 9.31607 11.2043 9 11.9999 9ZM11.9999 10.5C11.6021 10.5 11.2206 10.658 10.9392 10.9393C10.6579 11.2206 10.4999 11.6022 10.4999 12C10.4999 12.3978 10.6579 12.7794 10.9392 13.0607C11.2206 13.342 11.6021 13.5 11.9999 13.5C12.3977 13.5 12.7793 13.342 13.0606 13.0607C13.3419 12.7794 13.4999 12.3978 13.4999 12C13.4999 11.6022 13.3419 11.2206 13.0606 10.9393C12.7793 10.658 12.3977 10.5 11.9999 10.5Z" fill="black"/>
</svg>
