<svg width="40" height="40" viewBox="0 0 40 40" fill="none" xmlns="http://www.w3.org/2000/svg">
<path d="M20 11.25C20.3315 11.25 20.6495 11.3817 20.8839 11.6161C21.1183 11.8505 21.25 12.1685 21.25 12.5V18.75H27.5C27.8062 18.75 28.1017 18.8624 28.3305 19.0659C28.5593 19.2693 28.7054 19.5497 28.7412 19.8538L28.75 20C28.75 20.3315 28.6183 20.6495 28.3839 20.8839C28.1495 21.1183 27.8315 21.25 27.5 21.25H21.25V27.5C21.25 27.8062 21.1376 28.1017 20.9341 28.3305C20.7307 28.5593 20.4503 28.7054 20.1463 28.7412L20 28.75C19.6685 28.75 19.3505 28.6183 19.1161 28.3839C18.8817 28.1495 18.75 27.8315 18.75 27.5V21.25H12.5C12.1938 21.25 11.8983 21.1376 11.6695 20.9341C11.4407 20.7307 11.2946 20.4503 11.2587 20.1463L11.25 20C11.25 19.6685 11.3817 19.3505 11.6161 19.1161C11.8505 18.8817 12.1685 18.75 12.5 18.75H18.75V12.5C18.75 12.1938 18.8624 11.8983 19.0659 11.6695C19.2693 11.4407 19.5497 11.2946 19.8538 11.2587L20 11.25Z" fill="black"/>
</svg>
