<svg width="40" height="40" viewBox="0 0 40 40" fill="none" xmlns="http://www.w3.org/2000/svg">
<path d="M19.0538 10.2C19.3519 10.0684 19.6742 10.0005 20 10.0005C20.3259 10.0005 20.6481 10.0684 20.9463 10.2L34.2238 16.025C35.2588 16.4787 35.2588 18.0512 34.2238 18.5062L32.5 19.2612L32.5013 25.3737C32.7663 25.4662 32.9963 25.6525 33.1538 25.9037L33.2313 26.0487L33.8563 27.39C34.165 28.0525 33.915 28.8575 33.2975 29.1887C33.1258 29.2812 32.9338 29.3298 32.7388 29.33H31.875C31.185 29.33 30.625 28.73 30.625 27.9887V26.65C30.625 26.1537 30.8763 25.72 31.25 25.4875V19.81L28.75 20.9075V24.4762C28.75 25.855 28.0925 27.1312 27.0175 27.8662L26.8113 27.9975C24.5638 29.3262 22.2888 30 20 30C17.7125 30 15.4375 29.3262 13.1875 27.9962C12.0625 27.33 11.3388 26.0962 11.2575 24.7325L11.25 24.475V20.9062L5.77626 18.5062C4.79001 18.0725 4.74376 16.6262 5.63626 16.0962L5.77626 16.0237L19.0538 10.2ZM32.1125 26.6487H31.875V27.9887H32.7388L32.1138 26.6487H32.1125ZM26.25 22.0025L20.9463 24.33C20.6481 24.4616 20.3259 24.5295 20 24.5295C19.6742 24.5295 19.3519 24.4616 19.0538 24.33L13.75 22.0037V24.475C13.75 24.855 13.9 25.2125 14.1538 25.4625L14.2688 25.5625L14.3963 25.65C16.2863 26.7675 18.15 27.3187 20 27.3187C21.85 27.3187 23.7125 26.7687 25.6038 25.6487C25.9588 25.4387 26.1938 25.0612 26.2413 24.6362L26.25 24.475V22.0025ZM19.9988 12.68L9.55126 17.265L19.9988 21.8487L30.4475 17.265L19.9988 12.68Z" fill="black"/>
</svg>
