<svg width="40" height="40" viewBox="0 0 40 40" fill="none" xmlns="http://www.w3.org/2000/svg">
<path d="M15.2769 24.8457V14.6007C15.2769 14.4891 15.3067 14.3796 15.3633 14.2835C15.42 14.1873 15.5013 14.1081 15.5989 14.054C15.6965 14 15.8067 13.973 15.9183 13.9759C16.0298 13.9788 16.1385 14.0116 16.2331 14.0707L24.4294 19.1932C24.5193 19.2494 24.5934 19.3275 24.6448 19.4202C24.6961 19.5129 24.7231 19.6172 24.7231 19.7232C24.7231 19.8292 24.6961 19.9335 24.6448 20.0262C24.5934 20.1189 24.5193 20.197 24.4294 20.2532L16.2331 25.3757C16.1385 25.4348 16.0298 25.4676 15.9183 25.4705C15.8067 25.4734 15.6965 25.4464 15.5989 25.3924C15.5013 25.3383 15.42 25.2591 15.3633 25.1629C15.3067 25.0668 15.2769 24.9573 15.2769 24.8457Z" fill="black"/>
</svg>
