<svg width="40" height="40" viewBox="0 0 40 40" fill="none" xmlns="http://www.w3.org/2000/svg">
<path d="M20.7325 7.5C21.3955 7.50014 22.0313 7.76363 22.5 8.2325L29.2675 15C29.7364 15.4687 29.9999 16.1045 30 16.7675V30C30 30.663 29.7366 31.2989 29.2678 31.7678C28.7989 32.2366 28.163 32.5 27.5 32.5H12.5C11.837 32.5 11.2011 32.2366 10.7322 31.7678C10.2634 31.2989 10 30.663 10 30V10C10 9.33696 10.2634 8.70107 10.7322 8.23223C11.2011 7.76339 11.837 7.5 12.5 7.5H20.7325ZM12.5 10V30H27.5V18.75H20.9375C20.3573 18.75 19.8009 18.5195 19.3907 18.1093C18.9805 17.6991 18.75 17.1427 18.75 16.5625V10H12.5ZM26.9825 16.25L21.25 10.5187V16.25H26.9825Z" fill="black"/>
</svg>
