<svg width="40" height="40" viewBox="0 0 40 40" fill="none" xmlns="http://www.w3.org/2000/svg">
<path d="M11.5885 23.4475C11.3541 23.213 11.2225 22.8949 11.2227 22.5633C11.2228 22.2317 11.3546 21.9138 11.5892 21.6794C11.8237 21.445 12.1418 21.3134 12.4734 21.3135C12.8049 21.3136 13.1229 21.4455 13.3573 21.68L18.3923 26.715L27.5798 10.8025C27.733 10.5376 27.9781 10.338 28.2686 10.2417C28.5591 10.1454 28.8749 10.159 29.156 10.28L29.2873 10.3463C29.5744 10.512 29.7839 10.7851 29.8697 11.1053C29.9555 11.4255 29.9105 11.7667 29.7448 12.0538L19.7448 29.3738C19.7403 29.3822 19.7357 29.3905 19.731 29.3988L19.6998 29.445C19.6533 29.5124 19.6011 29.5756 19.5435 29.6338L19.621 29.5513C19.5973 29.5795 19.5722 29.6066 19.546 29.6325L19.5398 29.6388C19.5091 29.6699 19.4765 29.6991 19.4423 29.7263L19.411 29.7513C19.3643 29.7866 19.315 29.8184 19.2635 29.8463L19.231 29.8625C19.1573 29.9009 19.0798 29.9315 18.9998 29.9538C18.9923 29.9538 18.9835 29.9563 18.9748 29.9588C18.9382 29.9694 18.9011 29.9777 18.8635 29.9838C18.8573 29.9838 18.8498 29.9838 18.8423 29.9863C18.8088 29.9924 18.775 29.9966 18.741 29.9988H18.696C18.6644 30.0006 18.6327 30.0006 18.601 29.9988L18.5635 29.995C18.2662 29.9739 17.9866 29.846 17.776 29.635L11.5885 23.4475Z" fill="black"/>
</svg>
