<svg width="32" height="32" viewBox="0 0 32 32" fill="none" xmlns="http://www.w3.org/2000/svg">
<path opacity="0.35" d="M21.5482 16.786C21.5887 16.7004 21.6526 16.628 21.7327 16.5773C21.8127 16.5267 21.9054 16.4998 22.0002 16.4998C22.0949 16.4998 22.1876 16.5267 22.2677 16.5773C22.3477 16.628 22.4117 16.7004 22.4522 16.786L23.6042 19.222L26.0752 19.597C26.1592 19.6096 26.2387 19.6435 26.306 19.6954C26.3733 19.7473 26.4263 19.8155 26.4599 19.8936C26.4936 19.9717 26.5067 20.057 26.4982 20.1416C26.4897 20.2262 26.4597 20.3072 26.4112 20.377L26.3572 20.442L24.5592 22.27L24.9952 24.919C25.0094 25.0048 25.0009 25.0927 24.9707 25.1743C24.9405 25.2558 24.8896 25.328 24.823 25.3839C24.7564 25.4397 24.6763 25.4772 24.5908 25.4926C24.5052 25.5081 24.4171 25.501 24.3352 25.472L24.2612 25.438L22.0002 24.197L19.7392 25.438C19.663 25.4799 19.5773 25.5012 19.4904 25.4998C19.4036 25.4985 19.3185 25.4745 19.2437 25.4303C19.1689 25.3861 19.107 25.3232 19.0639 25.2477C19.0208 25.1723 18.9982 25.0869 18.9982 25L19.0052 24.919L19.4402 22.27L17.6432 20.442C17.5837 20.3814 17.5406 20.3066 17.518 20.2247C17.4954 20.1428 17.4941 20.0565 17.5141 19.974C17.5341 19.8914 17.5748 19.8153 17.6324 19.7529C17.69 19.6904 17.7625 19.6436 17.8432 19.617L17.9252 19.597L20.3952 19.222L21.5482 16.786ZM9.54816 16.786C9.58865 16.7004 9.65264 16.628 9.73266 16.5773C9.81268 16.5267 9.90544 16.4998 10.0002 16.4998C10.0949 16.4998 10.1876 16.5267 10.2677 16.5773C10.3477 16.628 10.4117 16.7004 10.4522 16.786L11.6042 19.222L14.0752 19.597C14.1592 19.6096 14.2387 19.6435 14.306 19.6954C14.3733 19.7473 14.4263 19.8155 14.4599 19.8936C14.4936 19.9717 14.5067 20.057 14.4982 20.1416C14.4897 20.2262 14.4597 20.3072 14.4112 20.377L14.3572 20.442L12.5592 22.27L12.9952 24.919C13.0093 25.0048 13.0009 25.0927 12.9707 25.1743C12.9405 25.2558 12.8896 25.328 12.823 25.3839C12.7564 25.4397 12.6763 25.4772 12.5908 25.4926C12.5052 25.5081 12.4171 25.501 12.3352 25.472L12.2612 25.438L10.0002 24.197L7.73916 25.438C7.66303 25.4799 7.57731 25.5012 7.49043 25.4998C7.40356 25.4985 7.31853 25.4745 7.24374 25.4303C7.16894 25.3861 7.10696 25.3232 7.06389 25.2477C7.02083 25.1723 6.99817 25.0869 6.99816 25L7.00516 24.919L7.44016 22.27L5.64316 20.442C5.58366 20.3814 5.54058 20.3066 5.518 20.2247C5.49541 20.1428 5.49406 20.0565 5.51407 19.974C5.53409 19.8914 5.5748 19.8153 5.63238 19.7529C5.68996 19.6904 5.7625 19.6436 5.84316 19.617L5.92516 19.597L8.39516 19.222L9.54816 16.786Z" fill="black"/>
<path d="M14.3949 8.22201L11.9249 8.59701L11.8419 8.61701C11.7613 8.64377 11.6889 8.69062 11.6314 8.75312C11.574 8.81563 11.5334 8.89174 11.5135 8.97428C11.4935 9.05682 11.495 9.14308 11.5176 9.22491C11.5403 9.30674 11.5834 9.38146 11.6429 9.44201L13.4399 11.27L13.0049 13.919L12.9979 13.999C12.9977 14.0859 13.0201 14.1714 13.063 14.247C13.1058 14.3226 13.1677 14.3857 13.2424 14.4301C13.3171 14.4746 13.4021 14.4987 13.489 14.5003C13.5759 14.5019 13.6617 14.4807 13.7379 14.439L15.9999 13.196L18.2609 14.437L18.3349 14.471C18.4169 14.5 18.505 14.5071 18.5905 14.4917C18.6761 14.4762 18.7561 14.4387 18.8227 14.3829C18.8894 14.327 18.9403 14.2548 18.9705 14.1733C19.0007 14.0918 19.0091 14.0038 18.9949 13.918L18.5589 11.269L20.3569 9.44101L20.4109 9.37601C20.4595 9.30623 20.4894 9.22522 20.498 9.14064C20.5065 9.05606 20.4933 8.9707 20.4597 8.89263C20.4261 8.81456 20.3731 8.74635 20.3058 8.69445C20.2384 8.64254 20.159 8.60867 20.0749 8.59601L17.6039 8.22101L16.4519 5.78501C16.4114 5.69939 16.3474 5.62703 16.2674 5.57636C16.1874 5.52568 16.0946 5.49878 15.9999 5.49878C15.9052 5.49878 15.8124 5.52568 15.7324 5.57636C15.6524 5.62703 15.5884 5.69939 15.5479 5.78501L14.3949 8.22101V8.22201Z" fill="black"/>
</svg>
