<svg width="40" height="40" viewBox="0 0 40 40" fill="none" xmlns="http://www.w3.org/2000/svg">
<path d="M16.6163 21.6162C16.852 21.3886 17.1678 21.2626 17.4955 21.2654C17.8232 21.2683 18.1368 21.3997 18.3685 21.6315C18.6003 21.8632 18.7317 22.1768 18.7346 22.5045C18.7374 22.8322 18.6114 23.148 18.3837 23.3838L11.7675 30H15C15.3062 30 15.6017 30.1124 15.8305 30.3159C16.0593 30.5193 16.2054 30.7997 16.2413 31.1037L16.25 31.25C16.25 31.5815 16.1183 31.8995 15.8839 32.1339C15.6495 32.3683 15.3315 32.5 15 32.5H8.75C8.41848 32.5 8.10054 32.3683 7.86612 32.1339C7.6317 31.8995 7.5 31.5815 7.5 31.25V25C7.5 24.6685 7.6317 24.3505 7.86612 24.1161C8.10054 23.8817 8.41848 23.75 8.75 23.75C9.08152 23.75 9.39946 23.8817 9.63388 24.1161C9.8683 24.3505 10 24.6685 10 25L9.99875 28.2312L16.6163 21.6162ZM31.25 7.5C31.5815 7.5 31.8995 7.6317 32.1339 7.86612C32.3683 8.10054 32.5 8.41848 32.5 8.75V15C32.5 15.3315 32.3683 15.6495 32.1339 15.8839C31.8995 16.1183 31.5815 16.25 31.25 16.25C30.9185 16.25 30.6005 16.1183 30.3661 15.8839C30.1317 15.6495 30 15.3315 30 15L29.9988 11.7687L23.3838 18.3837C23.1685 18.599 22.8821 18.7283 22.5784 18.7474C22.2746 18.7665 21.9743 18.6741 21.7337 18.4875L21.6162 18.3837C21.3819 18.1493 21.2503 17.8315 21.2503 17.5C21.2503 17.1685 21.3819 16.8507 21.6162 16.6163L28.23 10H25C24.6938 9.99996 24.3983 9.88755 24.1695 9.68411C23.9407 9.48066 23.7946 9.20031 23.7587 8.89625L23.75 8.75C23.75 8.41848 23.8817 8.10054 24.1161 7.86612C24.3505 7.6317 24.6685 7.5 25 7.5H31.25Z" fill="black"/>
</svg>
