<svg width="40" height="40" viewBox="0 0 40 40" fill="none" xmlns="http://www.w3.org/2000/svg">
<path d="M29.4176 6.395C29.6082 6.29465 29.8214 6.24523 30.0366 6.25151C30.2519 6.25779 30.4618 6.31957 30.6462 6.43085C30.8305 6.54214 30.983 6.69916 31.0888 6.88669C31.1946 7.07423 31.2502 7.28592 31.2501 7.50125V32.5012C31.2502 32.7143 31.1959 32.9239 31.0922 33.1101C30.9885 33.2963 30.8389 33.4528 30.6577 33.5649C30.4765 33.677 30.2696 33.7409 30.0567 33.7505C29.8438 33.7602 29.632 33.7153 29.4414 33.62L20.1551 28.9762L14.5301 33.4775C14.3556 33.617 14.1468 33.7072 13.9255 33.7386C13.7043 33.77 13.4786 33.7416 13.2721 33.6562C13.0656 33.5708 12.8858 33.4316 12.7513 33.2531C12.6169 33.0746 12.5327 32.8633 12.5076 32.6412L12.5001 32.5012V24.525L5.69139 21.1212C5.49827 21.0248 5.33343 20.8799 5.21291 20.7008C5.0924 20.5217 5.02032 20.3144 5.00371 20.0992C4.98709 19.884 5.0265 19.6681 5.1181 19.4726C5.2097 19.2771 5.35037 19.1087 5.52639 18.9837L5.66764 18.8962L29.4176 6.395ZM28.7501 10.7275L20.7251 26.4662L28.7501 30.4787V10.7275ZM26.9139 11.5737L15.0001 23.91V29.9L19.2189 26.525C19.2564 26.4962 19.2939 26.4687 19.3326 26.445L26.9139 11.5737ZM25.4176 11.3237L8.98764 19.9712L14.3089 22.6337C14.3514 22.655 14.3926 22.6787 14.4314 22.7037L25.4176 11.3237Z" fill="black"/>
</svg>
