<svg width="32" height="32" viewBox="0 0 32 32" fill="none" xmlns="http://www.w3.org/2000/svg">
<path d="M8.00016 8.00008C8.00016 7.29284 8.28111 6.61456 8.78121 6.11446C9.28131 5.61437 9.95959 5.33341 10.6668 5.33341C11.0205 5.33341 11.3596 5.19294 11.6096 4.94289C11.8597 4.69284 12.0002 4.3537 12.0002 4.00008C12.0002 3.64646 11.8597 3.30732 11.6096 3.05727C11.3596 2.80722 11.0205 2.66675 10.6668 2.66675C9.25234 2.66675 7.89579 3.22865 6.89559 4.22885C5.8954 5.22904 5.3335 6.58559 5.3335 8.00008V12.0001C5.3335 12.7073 5.05254 13.3856 4.55245 13.8857C4.05235 14.3858 3.37407 14.6667 2.66683 14.6667C2.31321 14.6667 1.97407 14.8072 1.72402 15.0573C1.47397 15.3073 1.3335 15.6465 1.3335 16.0001C1.3335 16.3537 1.47397 16.6928 1.72402 16.9429C1.97407 17.1929 2.31321 17.3334 2.66683 17.3334C3.37407 17.3334 4.05235 17.6144 4.55245 18.1145C5.05254 18.6146 5.3335 19.2928 5.3335 20.0001V24.0001C5.3335 25.4146 5.8954 26.7711 6.89559 27.7713C7.89579 28.7715 9.25234 29.3334 10.6668 29.3334C11.0205 29.3334 11.3596 29.1929 11.6096 28.9429C11.8597 28.6928 12.0002 28.3537 12.0002 28.0001C12.0002 27.6465 11.8597 27.3073 11.6096 27.0573C11.3596 26.8072 11.0205 26.6667 10.6668 26.6667C9.95959 26.6667 9.28131 26.3858 8.78121 25.8857C8.28111 25.3856 8.00016 24.7073 8.00016 24.0001V20.0001C7.99588 19.2408 7.82951 18.4912 7.5122 17.8013C7.19488 17.1115 6.73392 16.4974 6.16016 16.0001C6.73392 15.5028 7.19488 14.8886 7.5122 14.1988C7.82951 13.509 7.99588 12.7594 8.00016 12.0001V8.00008ZM29.3335 14.6667C28.6263 14.6667 27.948 14.3858 27.4479 13.8857C26.9478 13.3856 26.6668 12.7073 26.6668 12.0001V8.00008C26.6668 6.58559 26.1049 5.22904 25.1047 4.22885C24.1045 3.22865 22.748 2.66675 21.3335 2.66675C20.9799 2.66675 20.6407 2.80722 20.3907 3.05727C20.1406 3.30732 20.0002 3.64646 20.0002 4.00008C20.0002 4.3537 20.1406 4.69284 20.3907 4.94289C20.6407 5.19294 20.9799 5.33341 21.3335 5.33341C22.0407 5.33341 22.719 5.61437 23.2191 6.11446C23.7192 6.61456 24.0002 7.29284 24.0002 8.00008V12.0001C24.0044 12.7594 24.1708 13.509 24.4881 14.1988C24.8054 14.8886 25.2664 15.5028 25.8402 16.0001C25.2664 16.4974 24.8054 17.1115 24.4881 17.8013C24.1708 18.4912 24.0044 19.2408 24.0002 20.0001V24.0001C24.0002 24.7073 23.7192 25.3856 23.2191 25.8857C22.719 26.3858 22.0407 26.6667 21.3335 26.6667C20.9799 26.6667 20.6407 26.8072 20.3907 27.0573C20.1406 27.3073 20.0002 27.6465 20.0002 28.0001C20.0002 28.3537 20.1406 28.6928 20.3907 28.9429C20.6407 29.1929 20.9799 29.3334 21.3335 29.3334C22.748 29.3334 24.1045 28.7715 25.1047 27.7713C26.1049 26.7711 26.6668 25.4146 26.6668 24.0001V20.0001C26.6668 19.2928 26.9478 18.6146 27.4479 18.1145C27.948 17.6144 28.6263 17.3334 29.3335 17.3334C29.6871 17.3334 30.0263 17.1929 30.2763 16.9429C30.5264 16.6928 30.6668 16.3537 30.6668 16.0001C30.6668 15.6465 30.5264 15.3073 30.2763 15.0573C30.0263 14.8072 29.6871 14.6667 29.3335 14.6667Z" fill="#11161A"/>
</svg>
