<svg width="40" height="40" viewBox="0 0 40 40" fill="none" xmlns="http://www.w3.org/2000/svg">
<path d="M27.5 8.75C28.163 8.75 28.7989 9.01339 29.2678 9.48223C29.7366 9.95107 30 10.587 30 11.25V28.75C30 29.413 29.7366 30.0489 29.2678 30.5178C28.7989 30.9866 28.163 31.25 27.5 31.25H12.5C11.837 31.25 11.2011 30.9866 10.7322 30.5178C10.2634 30.0489 10 29.413 10 28.75V11.25C10 10.587 10.2634 9.95107 10.7322 9.48223C11.2011 9.01339 11.837 8.75 12.5 8.75H27.5ZM16.1325 20.635L12.5 24.2675V28.75H22.4438L16.1325 20.635ZM27.5 11.25H12.5V20.73L15.3663 17.8663C15.4916 17.741 15.6421 17.6438 15.8078 17.5812C15.9735 17.5185 16.1506 17.4918 16.3275 17.5028C16.5043 17.5138 16.6768 17.5622 16.8334 17.6449C16.9901 17.7276 17.1274 17.8427 17.2362 17.9825L25.6125 28.75H27.5V11.25ZM23.75 12.5C24.7446 12.5 25.6984 12.8951 26.4017 13.5983C27.1049 14.3016 27.5 15.2554 27.5 16.25C27.5 17.2446 27.1049 18.1984 26.4017 18.9017C25.6984 19.6049 24.7446 20 23.75 20C22.7554 20 21.8016 19.6049 21.0983 18.9017C20.3951 18.1984 20 17.2446 20 16.25C20 15.2554 20.3951 14.3016 21.0983 13.5983C21.8016 12.8951 22.7554 12.5 23.75 12.5ZM23.75 15C23.4185 15 23.1005 15.1317 22.8661 15.3661C22.6317 15.6005 22.5 15.9185 22.5 16.25C22.5 16.5815 22.6317 16.8995 22.8661 17.1339C23.1005 17.3683 23.4185 17.5 23.75 17.5C24.0815 17.5 24.3995 17.3683 24.6339 17.1339C24.8683 16.8995 25 16.5815 25 16.25C25 15.9185 24.8683 15.6005 24.6339 15.3661C24.3995 15.1317 24.0815 15 23.75 15Z" fill="black"/>
</svg>
