<svg width="32" height="32" viewBox="0 0 32 32" fill="none" xmlns="http://www.w3.org/2000/svg">
<path d="M17.883 25.993C17.6299 25.9629 17.3979 25.8373 17.2343 25.6418C17.0707 25.4464 16.9879 25.1958 17.0028 24.9414C17.0178 24.687 17.1293 24.4478 17.3146 24.2728C17.5 24.0979 17.7451 24.0003 18 24H22V15H16.75C16.2859 15 15.8408 14.8156 15.5126 14.4874C15.1844 14.1592 15 13.7141 15 13.25V8H10V16C10 16.2652 9.89464 16.5196 9.70711 16.7071C9.51957 16.8946 9.26522 17 9 17C8.73478 17 8.48043 16.8946 8.29289 16.7071C8.10536 16.5196 8 16.2652 8 16V8C8 7.46957 8.21071 6.96086 8.58579 6.58579C8.96086 6.21071 9.46957 6 10 6H16.586C17.1164 6.00011 17.625 6.2109 18 6.586L23.414 12C23.7891 12.375 23.9999 12.8836 24 13.414V24C24 24.5304 23.7893 25.0391 23.4142 25.4142C23.0391 25.7893 22.5304 26 22 26H18L17.883 25.993ZM12 18C12.2652 18 12.5196 18.1054 12.7071 18.2929C12.8946 18.4804 13 18.7348 13 19V21H15C15.2652 21 15.5196 21.1054 15.7071 21.2929C15.8946 21.4804 16 21.7348 16 22C16 22.2652 15.8946 22.5196 15.7071 22.7071C15.5196 22.8946 15.2652 23 15 23H13V25C13 25.2652 12.8946 25.5196 12.7071 25.7071C12.5196 25.8946 12.2652 26 12 26C11.7348 26 11.4804 25.8946 11.2929 25.7071C11.1054 25.5196 11 25.2652 11 25V23H9C8.73478 23 8.48043 22.8946 8.29289 22.7071C8.10536 22.5196 8 22.2652 8 22C8 21.7348 8.10536 21.4804 8.29289 21.2929C8.48043 21.1054 8.73478 21 9 21H11V19C11 18.7348 11.1054 18.4804 11.2929 18.2929C11.4804 18.1054 11.7348 18 12 18ZM17 8.415V13H21.586L17 8.415Z" fill="black"/>
</svg>
