<svg width="40" height="40" viewBox="0 0 40 40" fill="none" xmlns="http://www.w3.org/2000/svg">
<path d="M10 26.25C9.66848 26.25 9.35054 26.3817 9.11612 26.6161C8.8817 26.8505 8.75 27.1685 8.75 27.5C8.75 27.8315 8.8817 28.1495 9.11612 28.3839C9.35054 28.6183 9.66848 28.75 10 28.75H30C30.3315 28.75 30.6495 28.6183 30.8839 28.3839C31.1183 28.1495 31.25 27.8315 31.25 27.5C31.25 27.1685 31.1183 26.8505 30.8839 26.6161C30.6495 26.3817 30.3315 26.25 30 26.25H10ZM10 18.75C9.66848 18.75 9.35054 18.8817 9.11612 19.1161C8.8817 19.3505 8.75 19.6685 8.75 20C8.75 20.3315 8.8817 20.6495 9.11612 20.8839C9.35054 21.1183 9.66848 21.25 10 21.25H30C30.3315 21.25 30.6495 21.1183 30.8839 20.8839C31.1183 20.6495 31.25 20.3315 31.25 20C31.25 19.6685 31.1183 19.3505 30.8839 19.1161C30.6495 18.8817 30.3315 18.75 30 18.75H10ZM10 11.25C9.66848 11.25 9.35054 11.3817 9.11612 11.6161C8.8817 11.8505 8.75 12.1685 8.75 12.5C8.75 12.8315 8.8817 13.1495 9.11612 13.3839C9.35054 13.6183 9.66848 13.75 10 13.75H30C30.3315 13.75 30.6495 13.6183 30.8839 13.3839C31.1183 13.1495 31.25 12.8315 31.25 12.5C31.25 12.1685 31.1183 11.8505 30.8839 11.6161C30.6495 11.3817 30.3315 11.25 30 11.25H10Z" fill="black"/>
</svg>
