<svg width="32" height="32" viewBox="0 0 32 32" fill="none" xmlns="http://www.w3.org/2000/svg">
<path d="M24.007 6C25.107 6 26 6.893 26 7.993V16C25.9997 16.2549 25.9021 16.5 25.7272 16.6854C25.5522 16.8707 25.313 16.9822 25.0586 16.9972C24.8042 17.0121 24.5536 16.9293 24.3582 16.7657C24.1627 16.6021 24.0371 16.3701 24.007 16.117L24 16H23.999L24 8H8V24L9.078 23.998C9.365 22.278 10.46 21.152 12.553 20.106C12.7407 20.0122 12.9531 19.9797 13.1602 20.0133C13.3673 20.0469 13.5586 20.1447 13.707 20.293C13.939 20.524 14.167 20.683 14.408 20.789C14.766 20.947 15.087 20.993 15.796 20.999H16.003C16.513 21 16.936 21.386 16.993 21.883L17 22C17 22.2449 16.91 22.4813 16.7473 22.6644C16.5845 22.8474 16.3603 22.9643 16.117 22.993L16 23C14.876 23 14.325 22.939 13.6 22.618C13.3429 22.5043 13.0982 22.3642 12.87 22.2C11.877 22.763 11.222 23.289 11 24H16C16.2549 24.0003 16.5 24.0979 16.6854 24.2728C16.8707 24.4478 16.9822 24.687 16.9972 24.9414C17.0121 25.1958 16.9293 25.4464 16.7657 25.6418C16.6021 25.8373 16.3701 25.9629 16.117 25.993L16 26H7.993C6.893 26 6 25.107 6 24.007V7.993C6 6.893 6.893 6 7.993 6H24.007ZM22 18C22.2652 18 22.5196 18.1054 22.7071 18.2929C22.8946 18.4804 23 18.7348 23 19V21H25C25.2652 21 25.5196 21.1054 25.7071 21.2929C25.8946 21.4804 26 21.7348 26 22C26 22.2652 25.8946 22.5196 25.7071 22.7071C25.5196 22.8946 25.2652 23 25 23H23V25C23 25.2652 22.8946 25.5196 22.7071 25.7071C22.5196 25.8946 22.2652 26 22 26C21.7348 26 21.4804 25.8946 21.2929 25.7071C21.1054 25.5196 21 25.2652 21 25V23H19C18.7348 23 18.4804 22.8946 18.2929 22.7071C18.1054 22.5196 18 22.2652 18 22C18 21.7348 18.1054 21.4804 18.2929 21.2929C18.4804 21.1054 18.7348 21 19 21H21V19C21 18.7348 21.1054 18.4804 21.2929 18.2929C21.4804 18.1054 21.7348 18 22 18ZM16 10C17.3261 10 18.5979 10.5268 19.5355 11.4645C20.4732 12.4021 21 13.6739 21 15C21 16.3261 20.4732 17.5979 19.5355 18.5355C18.5979 19.4732 17.3261 20 16 20C14.6739 20 13.4021 19.4732 12.4645 18.5355C11.5268 17.5979 11 16.3261 11 15C11 13.6739 11.5268 12.4021 12.4645 11.4645C13.4021 10.5268 14.6739 10 16 10ZM16 12C15.2044 12 14.4413 12.3161 13.8787 12.8787C13.3161 13.4413 13 14.2044 13 15C13 15.7956 13.3161 16.5587 13.8787 17.1213C14.4413 17.6839 15.2044 18 16 18C16.7956 18 17.5587 17.6839 18.1213 17.1213C18.6839 16.5587 19 15.7956 19 15C19 14.2044 18.6839 13.4413 18.1213 12.8787C17.5587 12.3161 16.7956 12 16 12Z" fill="black"/>
</svg>
