<svg width="32" height="32" viewBox="0 0 32 32" fill="none" xmlns="http://www.w3.org/2000/svg">
<path d="M26.1735 4.86675C26.0186 4.74145 25.8376 4.65245 25.6438 4.6063C25.4499 4.56016 25.2483 4.55803 25.0535 4.60009C23.6288 4.89868 22.158 4.90248 20.7317 4.61126C19.3054 4.32005 17.9538 3.73997 16.7602 2.90675C16.537 2.75192 16.2718 2.66895 16.0002 2.66895C15.7285 2.66895 15.4634 2.75192 15.2402 2.90675C14.0465 3.73997 12.6949 4.32005 11.2687 4.61126C9.84238 4.90248 8.37159 4.89868 6.94684 4.60009C6.75209 4.55803 6.55039 4.56016 6.35657 4.6063C6.16275 4.65245 5.98174 4.74145 5.82684 4.86675C5.67214 4.99224 5.54753 5.1508 5.46216 5.33077C5.37679 5.51075 5.33283 5.70756 5.3335 5.90675V15.8401C5.33232 17.7517 5.78787 19.636 6.66222 21.336C7.53657 23.036 8.80441 24.5025 10.3602 25.6134L15.2268 29.0801C15.4527 29.2409 15.723 29.3273 16.0002 29.3273C16.2774 29.3273 16.5477 29.2409 16.7735 29.0801L21.6402 25.6134C23.1959 24.5025 24.4638 23.036 25.3381 21.336C26.2125 19.636 26.668 17.7517 26.6668 15.8401V5.90675C26.6675 5.70756 26.6236 5.51075 26.5382 5.33077C26.4528 5.1508 26.3282 4.99224 26.1735 4.86675ZM24.0002 15.8401C24.0012 17.3264 23.6472 18.7915 22.9677 20.1134C22.2882 21.4354 21.3028 22.5759 20.0935 23.4401L16.0002 26.3601L11.9068 23.4401C10.6976 22.5759 9.71215 21.4354 9.03264 20.1134C8.35312 18.7915 7.99915 17.3264 8.00017 15.8401V7.44009C10.7954 7.67933 13.5949 7.03078 16.0002 5.58675C18.4054 7.03078 21.2049 7.67933 24.0002 7.44009V15.8401Z" fill="#11161A"/>
</svg>
