<svg width="24" height="24" viewBox="0 0 24 24" fill="none" xmlns="http://www.w3.org/2000/svg">
<path d="M17.6506 3.8369C17.7649 3.77669 17.8928 3.74704 18.022 3.75081C18.1511 3.75458 18.2771 3.79164 18.3877 3.85841C18.4983 3.92519 18.5898 4.0194 18.6533 4.13192C18.7168 4.24444 18.7501 4.37145 18.7501 4.50065V19.5006C18.7501 19.6285 18.7175 19.7543 18.6553 19.866C18.5931 19.9777 18.5033 20.0716 18.3946 20.1388C18.2859 20.2061 18.1617 20.2444 18.034 20.2502C17.9063 20.256 17.7792 20.2291 17.6648 20.1719L12.0931 17.3856L8.71809 20.0864C8.61334 20.1701 8.48807 20.2242 8.35532 20.2431C8.22257 20.2619 8.08719 20.2448 7.96328 20.1936C7.83937 20.1424 7.73146 20.0589 7.65078 19.9518C7.57011 19.8447 7.51963 19.7179 7.50459 19.5847L7.50009 19.5006V14.7149L3.41484 12.6726C3.29896 12.6148 3.20006 12.5279 3.12775 12.4204C3.05544 12.3129 3.01219 12.1886 3.00222 12.0594C2.99226 11.9303 3.0159 11.8008 3.07086 11.6835C3.12582 11.5662 3.21022 11.4651 3.31584 11.3901L3.40059 11.3376L17.6506 3.8369ZM17.2501 6.4364L12.4351 15.8796L17.2501 18.2871V6.4364ZM16.1483 6.94415L9.00009 14.3459V17.9399L11.5313 15.9149C11.5538 15.8976 11.5763 15.8811 11.5996 15.8669L16.1483 6.94415ZM15.2506 6.79415L5.39259 11.9826L8.58534 13.5801C8.61084 13.5929 8.63559 13.6071 8.65884 13.6221L15.2506 6.79415Z" fill="black"/>
</svg>
