<svg width="32" height="32" viewBox="0 0 32 32" fill="none" xmlns="http://www.w3.org/2000/svg">
<path d="M16 6C21.523 6 26 10.477 26 16C26 21.523 21.523 26 16 26C10.477 26 6 21.523 6 16C6 10.477 10.477 6 16 6ZM16 8C13.8783 8 11.8434 8.84285 10.3431 10.3431C8.84285 11.8434 8 13.8783 8 16C8 18.1217 8.84285 20.1566 10.3431 21.6569C11.8434 23.1571 13.8783 24 16 24C18.1217 24 20.1566 23.1571 21.6569 21.6569C23.1571 20.1566 24 18.1217 24 16C24 13.8783 23.1571 11.8434 21.6569 10.3431C20.1566 8.84285 18.1217 8 16 8ZM19.707 13.707L17.414 16L19.707 18.293C20.65 19.236 19.236 20.65 18.293 19.707L16 17.415L13.707 19.707C12.764 20.65 11.35 19.236 12.293 18.293L14.586 16L12.293 13.707C11.35 12.764 12.764 11.35 13.707 12.293L16 14.585L18.293 12.293C19.236 11.35 20.65 12.764 19.707 13.707Z" fill="black"/>
</svg>
