<svg width="24" height="24" viewBox="0 0 24 24" fill="none" xmlns="http://www.w3.org/2000/svg">
<path d="M12 4.5C12.7956 4.5 13.5587 4.81607 14.1213 5.37868C14.6839 5.94129 15 6.70435 15 7.5V9.75H16.4948C16.6919 9.74931 16.8873 9.7875 17.0697 9.86238C17.2521 9.93727 17.4179 10.0474 17.5577 10.1864C17.6975 10.3255 17.8086 10.4907 17.8845 10.6727C17.9603 10.8547 17.9996 11.0498 18 11.247V18.003C17.9996 18.2002 17.9603 18.3953 17.8845 18.5773C17.8086 18.7593 17.6975 18.9245 17.5577 19.0636C17.4179 19.2026 17.2521 19.3127 17.0697 19.3876C16.8873 19.4625 16.6919 19.5007 16.4948 19.5H7.50525C7.30808 19.5007 7.1127 19.4625 6.93031 19.3876C6.74791 19.3127 6.58206 19.2026 6.44226 19.0636C6.30245 18.9245 6.19143 18.7593 6.11554 18.5773C6.03966 18.3953 6.00039 18.2002 6 18.003V11.247C6.00039 11.0498 6.03966 10.8547 6.11554 10.6727C6.19143 10.4907 6.30245 10.3255 6.44226 10.1864C6.58206 10.0474 6.74791 9.93727 6.93031 9.86238C7.1127 9.7875 7.30808 9.74931 7.50525 9.75H9V7.5C9 6.70435 9.31607 5.94129 9.87868 5.37868C10.4413 4.81607 11.2044 4.5 12 4.5ZM16.5 11.247H16.2023L16.1002 11.2477H15.4028L15.2302 11.2485H13.797L13.5675 11.25H7.641H7.50525L7.5045 11.2875L7.50375 11.472V11.6715L7.503 11.7915V12.2235L7.50225 12.3885V12.936L7.5015 13.1325L7.50075 14.4067V14.6265L7.5 18.003H7.79775L7.89975 18.0022H8.59725L8.76975 18.0015H10.203L10.4325 18H16.359H16.4948L16.4955 17.9625L16.4963 17.778V17.5785L16.497 17.4585V17.0265L16.4977 16.8615V16.314L16.4985 16.1175L16.4993 14.8432V14.6235L16.5 11.256V11.247ZM12 12.75C12.414 12.75 12.75 13.083 12.75 13.5V16.5H11.25V13.5C11.25 13.086 11.583 12.75 12 12.75ZM12 6C11.6022 6 11.2206 6.15804 10.9393 6.43934C10.658 6.72064 10.5 7.10217 10.5 7.5V9.75H13.5V7.5C13.5 7.10217 13.342 6.72064 13.0607 6.43934C12.7794 6.15804 12.3978 6 12 6Z" fill="black"/>
</svg>
