<svg width="32" height="32" viewBox="0 0 32 32" fill="none" xmlns="http://www.w3.org/2000/svg">
<path d="M16.0001 23H16.0201C16.0431 23 16.0661 22.998 16.0901 22.996L16.0001 23C16.2237 22.9994 16.4407 22.9245 16.6171 22.787L16.6251 22.78L16.7071 22.707L22.7071 16.707C22.8892 16.5184 22.99 16.2658 22.9878 16.0036C22.9855 15.7414 22.8803 15.4906 22.6949 15.3052C22.5095 15.1198 22.2587 15.0146 21.9965 15.0123C21.7343 15.01 21.4817 15.1108 21.2931 15.293L17.0001 19.586V10C17.0001 9.73478 16.8947 9.48043 16.7072 9.29289C16.5197 9.10536 16.2653 9 16.0001 9C15.7349 9 15.4805 9.10536 15.293 9.29289C15.1054 9.48043 15.0001 9.73478 15.0001 10V19.586L10.7071 15.293C10.6148 15.1975 10.5045 15.1213 10.3825 15.0689C10.2605 15.0165 10.1293 14.9889 9.99648 14.9877C9.8637 14.9866 9.73202 15.0119 9.60913 15.0622C9.48623 15.1125 9.37458 15.1867 9.28069 15.2806C9.18679 15.3745 9.11254 15.4861 9.06226 15.609C9.01198 15.7319 8.98668 15.8636 8.98783 15.9964C8.98898 16.1292 9.01657 16.2604 9.06898 16.3824C9.12139 16.5044 9.19757 16.6148 9.29308 16.707L15.2931 22.707L15.3751 22.78L15.3831 22.787L15.2931 22.707C15.4766 22.8895 15.7233 22.9944 15.9821 23H16.0001Z" fill="black"/>
</svg>
