<svg width="24" height="24" viewBox="0 0 24 24" fill="none" xmlns="http://www.w3.org/2000/svg">
<path d="M7.16112 12.5894C7.19149 12.5252 7.23948 12.4709 7.29949 12.4329C7.35951 12.3949 7.42908 12.3748 7.50012 12.3748C7.57116 12.3748 7.64073 12.3949 7.70075 12.4329C7.76076 12.4709 7.80875 12.5252 7.83912 12.5894L8.70312 14.4164L10.5564 14.6977C10.6194 14.7072 10.679 14.7326 10.7295 14.7715C10.78 14.8104 10.8197 14.8616 10.845 14.9201C10.8702 14.9787 10.8801 15.0427 10.8737 15.1062C10.8673 15.1696 10.8448 15.2303 10.8084 15.2827L10.7679 15.3314L9.41937 16.7024L9.74637 18.6892C9.75701 18.7535 9.7507 18.8195 9.72805 18.8806C9.70541 18.9418 9.66721 18.996 9.61724 19.0378C9.56726 19.0797 9.50723 19.1078 9.44307 19.1194C9.37891 19.131 9.31284 19.1257 9.25137 19.1039L9.19587 19.0784L7.50012 18.1477L5.80437 19.0784C5.74727 19.1098 5.68298 19.1258 5.61782 19.1248C5.55267 19.1238 5.4889 19.1058 5.4328 19.0727C5.37671 19.0395 5.33022 18.9923 5.29792 18.9357C5.26562 18.8791 5.24863 18.8151 5.24862 18.7499L5.25387 18.6892L5.58012 16.7024L4.23237 15.3314C4.18774 15.286 4.15544 15.2299 4.1385 15.1685C4.12156 15.107 4.12055 15.0423 4.13556 14.9804C4.15057 14.9185 4.1811 14.8614 4.22429 14.8146C4.26747 14.7677 4.32188 14.7327 4.38237 14.7127L4.44387 14.6977L6.29637 14.4164L7.16112 12.5894ZM11.6611 4.33943C11.6915 4.27521 11.7395 4.22094 11.7995 4.18294C11.8595 4.14493 11.9291 4.12476 12.0001 4.12476C12.0712 4.12476 12.1407 4.14493 12.2007 4.18294C12.2608 4.22094 12.3088 4.27521 12.3391 4.33943L13.2031 6.16643L15.0564 6.44768C15.1194 6.45717 15.179 6.48258 15.2295 6.52151C15.28 6.56043 15.3197 6.61159 15.345 6.67014C15.3702 6.7287 15.3801 6.79272 15.3737 6.85616C15.3673 6.91959 15.3448 6.98035 15.3084 7.03268L15.2679 7.08143L13.9194 8.45243L14.2464 10.4392C14.257 10.5035 14.2507 10.5695 14.2281 10.6306C14.2054 10.6918 14.1672 10.746 14.1172 10.7878C14.0673 10.8297 14.0072 10.8578 13.9431 10.8694C13.8789 10.881 13.8128 10.8757 13.7514 10.8539L13.6959 10.8284L12.0001 9.89768L10.3044 10.8284C10.2473 10.8598 10.183 10.8758 10.1178 10.8748C10.0527 10.8738 9.9889 10.8558 9.9328 10.8227C9.87671 10.7895 9.83022 10.7423 9.79792 10.6857C9.76562 10.6291 9.74863 10.5651 9.74862 10.4999L9.75387 10.4392L10.0801 8.45243L8.73237 7.08143C8.68774 7.03596 8.65544 6.97987 8.6385 6.91846C8.62156 6.85704 8.62055 6.79232 8.63556 6.73041C8.65057 6.66849 8.6811 6.61142 8.72429 6.56458C8.76747 6.51773 8.82188 6.48267 8.88237 6.46268L8.94387 6.44768L10.7964 6.16643L11.6611 4.33943Z" fill="black"/>
<path opacity="0.35" d="M15.2966 14.4164L13.4441 14.6977L13.3818 14.7127C13.3214 14.7328 13.267 14.7679 13.2239 14.8148C13.1808 14.8617 13.1504 14.9187 13.1355 14.9807C13.1205 15.0426 13.1216 15.1072 13.1386 15.1686C13.1556 15.23 13.1879 15.286 13.2326 15.3314L14.5803 16.7024L14.2541 18.6892L14.2488 18.7492C14.2486 18.8144 14.2654 18.8785 14.2976 18.9352C14.3297 18.9919 14.3761 19.0392 14.4321 19.0725C14.4882 19.1059 14.5519 19.124 14.6171 19.1252C14.6823 19.1263 14.7466 19.1105 14.8038 19.0792L16.5003 18.1469L18.1961 19.0777L18.2516 19.1032C18.313 19.1249 18.3791 19.1303 18.4433 19.1187C18.5074 19.1071 18.5674 19.079 18.6174 19.0371C18.6674 18.9952 18.7056 18.941 18.7282 18.8799C18.7509 18.8188 18.7572 18.7528 18.7466 18.6884L18.4196 16.7017L19.7681 15.3307L19.8086 15.2819C19.845 15.2296 19.8674 15.1689 19.8738 15.1054C19.8802 15.042 19.8704 14.978 19.8451 14.9194C19.8199 14.8609 19.7802 14.8097 19.7297 14.7708C19.6792 14.7318 19.6196 14.7064 19.5566 14.6969L17.7033 14.4157L16.8393 12.5887C16.8089 12.5245 16.7609 12.4702 16.7009 12.4322C16.6409 12.3942 16.5713 12.374 16.5003 12.374C16.4293 12.374 16.3597 12.3942 16.2997 12.4322C16.2397 12.4702 16.1917 12.5245 16.1613 12.5887L15.2966 14.4157V14.4164Z" fill="black"/>
</svg>
