<svg width="24" height="24" viewBox="0 0 24 24" fill="none" xmlns="http://www.w3.org/2000/svg">
<path d="M18.0052 6.75C18.831 6.75 19.5 7.428 19.5 8.2515V15.7485C19.5 16.575 18.8325 17.25 18.0052 17.25H5.99475C5.5977 17.2482 5.21752 17.0892 4.93739 16.8078C4.65726 16.5264 4.5 16.1456 4.5 15.7485V8.2515C4.5 7.425 5.1675 6.75 5.99475 6.75H18.0052ZM5.99925 8.81025L6 15.7477L18.0007 15.75L18 8.5425L14.8538 11.5478L16.2803 12.9697C16.4094 13.0989 16.487 13.2707 16.4984 13.453C16.5099 13.6353 16.4544 13.8154 16.3425 13.9598L16.2803 14.0303C16.1511 14.1594 15.9793 14.237 15.797 14.2484C15.6147 14.2599 15.4346 14.2044 15.2902 14.0925L15.2197 14.0303L13.6448 12.4537L12.45 13.35C12.3337 13.4373 12.1944 13.4889 12.0493 13.4985C11.9041 13.5081 11.7593 13.4752 11.6325 13.404L11.55 13.35L10.35 12.45L10.317 12.4913L10.2802 12.5303L8.78025 14.0303C8.64528 14.1648 8.46417 14.2429 8.27371 14.2487C8.08325 14.2545 7.89772 14.1876 7.75479 14.0616C7.61187 13.9355 7.52227 13.7598 7.5042 13.5701C7.48613 13.3805 7.54094 13.191 7.6575 13.0402L7.71975 12.9697L9.14325 11.5447L5.99925 8.81025ZM12 12L17.25 8.2515L6.75 8.25L12 12Z" fill="black"/>
</svg>
