<svg width="40" height="40" viewBox="0 0 40 40" fill="none" xmlns="http://www.w3.org/2000/svg">
<path d="M30.0088 7.5C31.3838 7.5 32.5 8.61625 32.5 9.99125V30.0088C32.5 31.3838 31.3838 32.5 30.0088 32.5H9.99125C8.61625 32.5 7.5 31.3838 7.5 30.0088V9.99125C7.5 8.61625 8.61625 7.5 9.99125 7.5H30.0088ZM30 10H10V30L11.3475 29.9975C11.7063 27.8475 13.075 26.44 15.6913 25.1325C15.9258 25.0152 16.1913 24.9747 16.4502 25.0166C16.7091 25.0586 16.9482 25.1809 17.1337 25.3662C17.4237 25.655 17.7087 25.8538 18.01 25.9862C18.4575 26.1838 18.8587 26.2413 19.745 26.2488L20 26.25C21.0688 26.25 21.5012 26.2025 21.99 25.9862C22.29 25.8538 22.5775 25.655 22.865 25.3662C23.0506 25.1806 23.29 25.0581 23.5491 25.0162C23.8083 24.9742 24.074 25.0149 24.3088 25.1325C26.925 26.44 28.2938 27.8488 28.6525 29.9988L30 30V10ZM23.9125 27.75C23.6272 27.9553 23.3214 28.1304 23 28.2725C22.0937 28.6725 21.405 28.75 20 28.75C18.595 28.75 17.9063 28.6737 17 28.2725C16.6786 28.1304 16.3728 27.9553 16.0875 27.75C14.8463 28.4538 14.0275 29.1112 13.75 30H26.25C25.9725 29.1112 25.1537 28.4538 23.9125 27.75ZM20 12.5C21.6576 12.5 23.2473 13.1585 24.4194 14.3306C25.5915 15.5027 26.25 17.0924 26.25 18.75C26.25 20.4076 25.5915 21.9973 24.4194 23.1694C23.2473 24.3415 21.6576 25 20 25C18.3424 25 16.7527 24.3415 15.5806 23.1694C14.4085 21.9973 13.75 20.4076 13.75 18.75C13.75 17.0924 14.4085 15.5027 15.5806 14.3306C16.7527 13.1585 18.3424 12.5 20 12.5ZM20 15C19.0054 15 18.0516 15.3951 17.3483 16.0983C16.6451 16.8016 16.25 17.7554 16.25 18.75C16.25 19.7446 16.6451 20.6984 17.3483 21.4017C18.0516 22.1049 19.0054 22.5 20 22.5C20.9946 22.5 21.9484 22.1049 22.6517 21.4017C23.3549 20.6984 23.75 19.7446 23.75 18.75C23.75 17.7554 23.3549 16.8016 22.6517 16.0983C21.9484 15.3951 20.9946 15 20 15Z" fill="black"/>
</svg>
