<svg width="32" height="32" viewBox="0 0 32 32" fill="none" xmlns="http://www.w3.org/2000/svg">
<g clip-path="url(#clip0_58_1269)">
<path d="M28 0H4C1.794 0 0 1.794 0 4V28C0 30.206 1.794 32 4 32H28C30.206 32 32 30.206 32 28V4C32 1.794 30.206 0 28 0Z" fill="#1976D2"/>
<path fill-rule="evenodd" clip-rule="evenodd" d="M27 16H22V12C22 10.896 22.896 11 24 11H26V6H22C20.4087 6 18.8826 6.63214 17.7574 7.75736C16.6321 8.88258 16 10.4087 16 12V16H12V21H16V32H22V21H25L27 16Z" fill="#FAFAFA"/>
</g>
<defs>
<clipPath id="clip0_58_1269">
<rect width="32" height="32" fill="white"/>
</clipPath>
</defs>
</svg>
