<svg width="32" height="32" viewBox="0 0 32 32" fill="none" xmlns="http://www.w3.org/2000/svg">
<path d="M11 6C11.2652 6 11.5196 6.10536 11.7071 6.29289C11.8946 6.48043 12 6.73478 12 7C12 7.26522 11.8946 7.51957 11.7071 7.70711C11.5196 7.89464 11.2652 8 11 8H8V24H24V21L24.007 20.883C24.0371 20.6299 24.1627 20.3979 24.3582 20.2343C24.5536 20.0707 24.8042 19.9879 25.0586 20.0028C25.313 20.0178 25.5522 20.1293 25.7272 20.3146C25.9021 20.5 25.9997 20.7451 26 21V25C26 25.2652 25.8946 25.5196 25.7071 25.7071C25.5196 25.8946 25.2652 26 25 26H7C6.73478 26 6.48043 25.8946 6.29289 25.7071C6.10536 25.5196 6 25.2652 6 25V7C6 6.73478 6.10536 6.48043 6.29289 6.29289C6.48043 6.10536 6.73478 6 7 6H11ZM25 6C25.2652 6 25.5196 6.10536 25.7071 6.29289C25.8946 6.48043 26 6.73478 26 7V15C26 15.2652 25.8946 15.5196 25.7071 15.7071C25.5196 15.8946 25.2652 16 25 16C24.7348 16 24.4804 15.8946 24.2929 15.7071C24.1054 15.5196 24 15.2652 24 15V9.414L13.707 19.707C13.5184 19.8892 13.2658 19.99 13.0036 19.9877C12.7414 19.9854 12.4906 19.8802 12.3052 19.6948C12.1198 19.5094 12.0146 19.2586 12.0123 18.9964C12.01 18.7342 12.1108 18.4816 12.293 18.293L22.586 8H17C16.7348 8 16.4804 7.89464 16.2929 7.70711C16.1054 7.51957 16 7.26522 16 7C16 6.73478 16.1054 6.48043 16.2929 6.29289C16.4804 6.10536 16.7348 6 17 6H25Z" fill="black"/>
</svg>
