<svg width="40" height="40" viewBox="0 0 40 40" fill="none" xmlns="http://www.w3.org/2000/svg">
<path d="M29.9975 7.5C31.3775 7.5 32.5 8.6275 32.5 10.0025V22.4975C32.4984 23.1607 32.2342 23.7963 31.7652 24.2652C31.2963 24.7342 30.6607 24.9984 29.9975 25H25V30C25 30.663 24.7366 31.2989 24.2678 31.7678C23.7989 32.2366 23.163 32.5 22.5 32.5H10C9.33696 32.5 8.70107 32.2366 8.23223 31.7678C7.76339 31.2989 7.5 30.663 7.5 30V17.5C7.5 16.837 7.76339 16.2011 8.23223 15.7322C8.70107 15.2634 9.33696 15 10 15H15V10.0025C15 8.6225 16.1275 7.5 17.5025 7.5H29.9975ZM15 17.5H10V30H22.5V25H17.5025C16.8393 24.9984 16.2037 24.7342 15.7348 24.2652C15.2658 23.7963 15.0017 23.1607 15 22.4975V17.5ZM19.9237 10H17.5025L17.5037 10.3325V16.3762L17.5025 16.745L17.5013 19.6238V20.0763L17.5 22.4975L17.8325 22.4963H23.8762L24.245 22.4975L27.1237 22.4988H29.4925L29.9975 22.5L29.9963 22.1675V19.9812V16.1238L29.9975 15.755L29.9988 12.8762V10.5075L30 10.0025L29.6675 10.0038H23.6238L23.255 10.0025L20.3763 10.0013H19.9237V10Z" fill="black"/>
</svg>
