<svg width="24" height="24" viewBox="0 0 24 24" fill="none" xmlns="http://www.w3.org/2000/svg">
<path d="M21.0001 19.9999H18.0001C17.7349 19.9999 17.4806 19.8945 17.293 19.707C17.1055 19.5195 17.0001 19.2651 17.0001 18.9999V15.9999C18.1938 15.9889 19.344 15.5512 20.2431 14.766C21.1421 13.9808 21.7306 12.8998 21.9021 11.7185C22.0736 10.5373 21.8169 9.3336 21.1783 8.32512C20.5397 7.31665 19.5613 6.56991 18.4201 6.21989C17.8091 4.8159 16.7546 3.65097 15.4182 2.90362C14.0818 2.15627 12.5372 1.86773 11.0211 2.0822C9.50501 2.29668 8.10106 3.00235 7.02439 4.09107C5.94772 5.17979 5.25772 6.59151 5.06013 8.10989C4.10672 8.33822 3.27036 8.90873 2.70987 9.71308C2.14939 10.5174 1.90382 11.4996 2.0198 12.4731C2.13578 13.4466 2.60523 14.3436 3.339 14.9938C4.07277 15.6439 5.01976 16.002 6.00013 15.9999H7.00013V18.9999C7.00013 19.2651 6.89478 19.5195 6.70724 19.707C6.5197 19.8945 6.26535 19.9999 6.00013 19.9999H3.00013C2.73492 19.9999 2.48056 20.1053 2.29303 20.2928C2.10549 20.4803 2.00013 20.7347 2.00013 20.9999C2.00013 21.2651 2.10549 21.5195 2.29303 21.707C2.48056 21.8945 2.73492 21.9999 3.00013 21.9999H6.00013C6.79578 21.9999 7.55885 21.6838 8.12146 21.1212C8.68406 20.5586 9.00013 19.7955 9.00013 18.9999V15.9999H11.0001V20.9999C11.0001 21.2651 11.1055 21.5195 11.293 21.707C11.4806 21.8945 11.7349 21.9999 12.0001 21.9999C12.2654 21.9999 12.5197 21.8945 12.7072 21.707C12.8948 21.5195 13.0001 21.2651 13.0001 20.9999V15.9999H15.0001V18.9999C15.0001 19.7955 15.3162 20.5586 15.8788 21.1212C16.4414 21.6838 17.2045 21.9999 18.0001 21.9999H21.0001C21.2654 21.9999 21.5197 21.8945 21.7072 21.707C21.8948 21.5195 22.0001 21.2651 22.0001 20.9999C22.0001 20.7347 21.8948 20.4803 21.7072 20.2928C21.5197 20.1053 21.2654 19.9999 21.0001 19.9999ZM6.00013 13.9999C5.4697 13.9999 4.96099 13.7892 4.58592 13.4141C4.21085 13.039 4.00013 12.5303 4.00013 11.9999C4.00013 11.4695 4.21085 10.9608 4.58592 10.5857C4.96099 10.2106 5.4697 9.99989 6.00013 9.99989C6.26535 9.99989 6.5197 9.89454 6.70724 9.707C6.89478 9.51946 7.00013 9.26511 7.00013 8.99989C7.00269 7.81717 7.42442 6.67365 8.1904 5.77248C8.95639 4.87131 10.017 4.27085 11.1839 4.07777C12.3507 3.88469 13.5483 4.1115 14.5637 4.7179C15.5791 5.32431 16.3467 6.27103 16.7301 7.38989C16.7873 7.56173 16.89 7.71483 17.0274 7.83283C17.1648 7.95083 17.3316 8.02931 17.5101 8.0599C18.2043 8.17964 18.8342 8.53983 19.2895 9.07736C19.7447 9.61489 19.9963 10.2955 20.0001 10.9999C20.0001 11.7955 19.6841 12.5586 19.1215 13.1212C18.5588 13.6838 17.7958 13.9999 17.0001 13.9999H6.00013Z" fill="#11161A"/>
</svg>
