<svg width="40" height="40" viewBox="0 0 40 40" fill="none" xmlns="http://www.w3.org/2000/svg">
<path d="M29.9975 10C31.3725 10 32.5 11.1225 32.5 12.49V27.51C32.5002 27.8381 32.4355 28.163 32.3096 28.466C32.1838 28.769 31.9992 29.0441 31.7667 29.2755C31.5341 29.5069 31.258 29.6901 30.9544 29.8144C30.6508 29.9387 30.3256 30.0018 29.9975 30H10.0025C9.34116 29.9994 8.7069 29.7372 8.23809 29.2707C7.76928 28.8043 7.50396 28.1713 7.5 27.51V12.49C7.5 11.11 8.61375 10 10.0025 10H29.9975ZM30 12.49L10.0025 12.5L10 27.51L29.9975 27.5L30 12.49ZM18.5388 16.35L23.4013 19.35C23.8663 19.6375 23.8663 20.3625 23.4013 20.65L18.5388 23.65C18.0763 23.9362 17.5 23.575 17.5 23V17C17.5 16.425 18.075 16.0637 18.5388 16.35Z" fill="black"/>
</svg>
