<svg width="32" height="32" viewBox="0 0 32 32" fill="none" xmlns="http://www.w3.org/2000/svg">
<path d="M13.293 17.293C13.4816 17.1108 13.7342 17.01 13.9964 17.0123C14.2586 17.0146 14.5094 17.1198 14.6948 17.3052C14.8802 17.4906 14.9854 17.7414 14.9877 18.0036C14.99 18.2658 14.8892 18.5184 14.707 18.707L9.414 24H12C12.2449 24 12.4813 24.09 12.6644 24.2527C12.8474 24.4155 12.9643 24.6397 12.993 24.883L13 25C13 25.2652 12.8946 25.5196 12.7071 25.7071C12.5196 25.8946 12.2652 26 12 26H7C6.73478 26 6.48043 25.8946 6.29289 25.7071C6.10536 25.5196 6 25.2652 6 25V20C6 19.7348 6.10536 19.4804 6.29289 19.2929C6.48043 19.1054 6.73478 19 7 19C7.26522 19 7.51957 19.1054 7.70711 19.2929C7.89464 19.4804 8 19.7348 8 20L7.999 22.585L13.293 17.293ZM25 6C25.2652 6 25.5196 6.10536 25.7071 6.29289C25.8946 6.48043 26 6.73478 26 7V12C26 12.2652 25.8946 12.5196 25.7071 12.7071C25.5196 12.8946 25.2652 13 25 13C24.7348 13 24.4804 12.8946 24.2929 12.7071C24.1054 12.5196 24 12.2652 24 12L23.999 9.415L18.707 14.707C18.5348 14.8792 18.3057 14.9826 18.0627 14.9979C17.8197 15.0132 17.5794 14.9393 17.387 14.79L17.293 14.707C17.1055 14.5195 17.0002 14.2652 17.0002 14C17.0002 13.7348 17.1055 13.4805 17.293 13.293L22.584 8H20C19.7551 7.99997 19.5187 7.91004 19.3356 7.74728C19.1526 7.58453 19.0357 7.36025 19.007 7.117L19 7C19 6.73478 19.1054 6.48043 19.2929 6.29289C19.4804 6.10536 19.7348 6 20 6H25Z" fill="black"/>
</svg>
