<svg width="40" height="40" viewBox="0 0 40 40" fill="none" xmlns="http://www.w3.org/2000/svg">
<path d="M7.5 12.5001C7.49998 11.1956 8.00974 9.94283 8.9205 9.00898C9.83127 8.07513 11.0709 7.53419 12.375 7.50157C13.679 7.46894 14.9441 7.94723 15.9005 8.83438C16.8568 9.72152 17.4285 10.9473 17.4937 12.2501L17.5 12.5001V15.0001C17.5 15.3316 17.6317 15.6495 17.8661 15.884C18.1005 16.1184 18.4185 16.2501 18.75 16.2501H27.4912C27.8199 16.2489 28.1455 16.3126 28.4495 16.4374C28.7535 16.5622 29.0299 16.7457 29.2629 16.9774C29.4959 17.2092 29.681 17.4846 29.8074 17.7879C29.9339 18.0912 29.9993 18.4165 30 18.7451V30.0051C29.9993 30.3337 29.9339 30.659 29.8074 30.9623C29.681 31.2656 29.4959 31.541 29.2629 31.7727C29.0299 32.0044 28.7535 32.188 28.4495 32.3128C28.1455 32.4376 27.8199 32.5012 27.4912 32.5001H12.5087C12.1801 32.5012 11.8545 32.4376 11.5505 32.3128C11.2465 32.188 10.9701 32.0044 10.7371 31.7727C10.5041 31.541 10.319 31.2656 10.1926 30.9623C10.0661 30.659 10.0007 30.3337 10 30.0051V21.2501L10.0087 21.1038C10.0464 20.7875 10.2034 20.4974 10.4477 20.2929C10.692 20.0884 11.0052 19.9849 11.3233 20.0036C11.6413 20.0223 11.9402 20.1617 12.1589 20.3934C12.3777 20.625 12.4996 20.9315 12.5 21.2501V19.9988L12.5038 19.9788V21.5601L12.5025 21.8876L12.5013 24.0113V24.3776L12.5 30.0051H12.9963L13.1663 30.0038H14.3288L14.6163 30.0026H17.005L17.3875 30.0001H27.265H27.4912L27.4925 29.9376L27.4938 29.6301V29.2976L27.495 29.0976V28.3776L27.4963 28.1026V27.1901L27.4975 26.8626L27.4988 24.7388V24.3726L27.5 18.7601V18.7451H27.0037L26.8337 18.7463H25.6713L25.3837 18.7476H22.995L22.6125 18.7501H16.4825H17.5C16.837 18.7501 16.2011 18.4867 15.7322 18.0178C15.2634 17.549 15 16.9131 15 16.2501V12.5001C15 11.837 14.7366 11.2012 14.2678 10.7323C13.7989 10.2635 13.163 10.0001 12.5 10.0001C11.837 10.0001 11.2011 10.2635 10.7322 10.7323C10.2634 11.2012 10 11.837 10 12.5001V13.7501C10 14.0816 9.8683 14.3995 9.63388 14.634C9.39946 14.8684 9.08152 15.0001 8.75 15.0001C8.41848 15.0001 8.10054 14.8684 7.86612 14.634C7.6317 14.3995 7.5 14.0816 7.5 13.7501V12.5001ZM20 21.2501C20.69 21.2501 21.25 21.8051 21.25 22.5001V27.5001H18.75V22.5001C18.75 21.8101 19.305 21.2501 20 21.2501Z" fill="black"/>
</svg>
