<svg width="24" height="24" viewBox="0 0 24 24" fill="none" xmlns="http://www.w3.org/2000/svg">
<path d="M8.28746 8.28746C8.42811 8.14686 8.61884 8.06787 8.81771 8.06787C9.01658 8.06787 9.20731 8.14686 9.34796 8.28746L12 10.9395L14.652 8.28746C14.782 8.15757 14.9551 8.07994 15.1386 8.06929C15.3221 8.05865 15.5031 8.11573 15.6472 8.22971L15.7125 8.28746C15.8531 8.42811 15.9321 8.61884 15.9321 8.81771C15.9321 9.01658 15.8531 9.20731 15.7125 9.34796L13.0605 12L15.7125 14.652C15.8423 14.782 15.92 14.9551 15.9306 15.1386C15.9413 15.3221 15.8842 15.5031 15.7702 15.6472L15.7125 15.7125C15.5718 15.8531 15.3811 15.9321 15.1822 15.9321C14.9833 15.9321 14.7926 15.8531 14.652 15.7125L12 13.0605L9.34796 15.7125C9.21795 15.8423 9.04478 15.92 8.86132 15.9306C8.67786 15.9413 8.49687 15.8842 8.35271 15.7702L8.28746 15.7125C8.14686 15.5718 8.06787 15.3811 8.06787 15.1822C8.06787 14.9833 8.14686 14.7926 8.28746 14.652L10.9395 12L8.28746 9.34796C8.15757 9.21795 8.07994 9.04478 8.06929 8.86132C8.05865 8.67786 8.11573 8.49687 8.22971 8.35271L8.28746 8.28746Z" fill="black"/>
</svg>
