<svg width="24" height="24" viewBox="0 0 24 24" fill="none" xmlns="http://www.w3.org/2000/svg">
<path d="M12.9532 10.0042C13.0914 9.86597 13.2789 9.78832 13.4744 9.78832C13.6699 9.78832 13.8574 9.86597 13.9957 10.0042C15.4357 11.4442 15.4357 14.0309 13.9957 15.4709L11.0474 18.4199C9.60743 19.8599 7.01993 19.8599 5.57993 18.4199C4.14068 16.9799 4.14068 14.3924 5.57993 12.9532L6.31793 12.2159C6.4569 12.0813 6.64326 12.0066 6.83677 12.0082C7.03029 12.0097 7.21545 12.0872 7.35229 12.2241C7.48913 12.3609 7.56668 12.5461 7.5682 12.7396C7.56973 12.9331 7.4951 13.1195 7.36043 13.2584L6.62318 13.9957C5.75918 14.8597 5.75918 16.5134 6.62318 17.3774C7.48718 18.2414 9.14093 18.2414 10.0049 17.3774L12.9539 14.4277C13.8179 13.5644 13.8179 11.9107 12.9539 11.0467C12.8157 10.9084 12.7381 10.7209 12.7381 10.5254C12.7381 10.3299 12.8157 10.1424 12.9539 10.0042H12.9532ZM12.9532 5.57919C14.3932 4.13994 16.9807 4.13994 18.4207 5.57919C19.8599 7.01919 19.8599 9.60669 18.4207 11.0467L17.6827 11.7839C17.5437 11.9186 17.3573 11.9932 17.1638 11.9917C16.9703 11.9902 16.7852 11.9127 16.6483 11.7758C16.5115 11.639 16.4339 11.4538 16.4324 11.2603C16.4309 11.0668 16.5055 10.8804 16.6402 10.7414L17.3774 10.0042C18.2414 9.14019 18.2414 7.48644 17.3774 6.62244C16.5134 5.75844 14.8597 5.75844 13.9957 6.62244L11.0467 9.57219C10.1827 10.4354 10.1827 12.0892 11.0467 12.9532C11.1169 13.0212 11.1729 13.1026 11.2114 13.1925C11.2499 13.2824 11.2701 13.3791 11.2709 13.4768C11.2716 13.5746 11.2529 13.6716 11.2159 13.7621C11.1788 13.8526 11.1241 13.9348 11.0549 14.004C10.9858 14.0731 10.9036 14.1278 10.8131 14.1649C10.7226 14.2019 10.6256 14.2206 10.5278 14.2199C10.43 14.2191 10.3334 14.1989 10.2435 14.1604C10.1536 14.1219 10.0722 14.0659 10.0042 13.9957C8.56418 12.5557 8.56418 9.96894 10.0042 8.52894L12.9532 5.57919Z" fill="black"/>
</svg>
