<svg width="24" height="24" viewBox="0 0 24 24" fill="none" xmlns="http://www.w3.org/2000/svg">
<path d="M15.75 12C15.75 11.6022 15.908 11.2206 16.1893 10.9393C16.4706 10.658 16.8522 10.5 17.25 10.5C17.6478 10.5 18.0294 10.658 18.3107 10.9393C18.592 11.2206 18.75 11.6022 18.75 12C18.75 12.3978 18.592 12.7794 18.3107 13.0607C18.0294 13.342 17.6478 13.5 17.25 13.5C16.8522 13.5 16.4706 13.342 16.1893 13.0607C15.908 12.7794 15.75 12.3978 15.75 12ZM10.5 12C10.5 11.6022 10.658 11.2206 10.9393 10.9393C11.2206 10.658 11.6022 10.5 12 10.5C12.3978 10.5 12.7794 10.658 13.0607 10.9393C13.342 11.2206 13.5 11.6022 13.5 12C13.5 12.3978 13.342 12.7794 13.0607 13.0607C12.7794 13.342 12.3978 13.5 12 13.5C11.6022 13.5 11.2206 13.342 10.9393 13.0607C10.658 12.7794 10.5 12.3978 10.5 12ZM5.25 12C5.25 11.6022 5.40804 11.2206 5.68934 10.9393C5.97064 10.658 6.35218 10.5 6.75 10.5C7.14782 10.5 7.52936 10.658 7.81066 10.9393C8.09196 11.2206 8.25 11.6022 8.25 12C8.25 12.3978 8.09196 12.7794 7.81066 13.0607C7.52936 13.342 7.14782 13.5 6.75 13.5C6.35218 13.5 5.97064 13.342 5.68934 13.0607C5.40804 12.7794 5.25 12.3978 5.25 12Z" fill="black"/>
</svg>
