<svg width="24" height="24" viewBox="0 0 24 24" fill="none" xmlns="http://www.w3.org/2000/svg">
<path d="M17.9985 6C18.8235 6 19.5 6.6735 19.5 7.494V16.506C19.5001 16.7029 19.4613 16.8978 19.3858 17.0796C19.3103 17.2614 19.1995 17.4265 19.06 17.5653C18.9204 17.7041 18.7548 17.814 18.5726 17.8886C18.3905 17.9632 18.1954 18.0011 17.9985 18H6.0015C5.60469 17.9996 5.22414 17.8423 4.94286 17.5624C4.66157 17.2826 4.50238 16.9028 4.5 16.506V7.494C4.5 6.666 5.16825 6 6.0015 6H17.9985ZM18 7.494L6.0015 7.5L6 16.506L17.9985 16.5L18 7.494ZM11.1233 9.81L14.0408 11.61C14.3198 11.7825 14.3198 12.2175 14.0408 12.39L11.1233 14.19C10.8458 14.3617 10.5 14.145 10.5 13.8V10.2C10.5 9.855 10.845 9.63825 11.1233 9.81Z" fill="black"/>
</svg>
