<svg width="32" height="32" viewBox="0 0 32 32" fill="none" xmlns="http://www.w3.org/2000/svg">
<path d="M26.7299 15.997C26.9206 16.3259 27.0137 16.7024 26.9981 17.0823C26.9825 17.4622 26.8589 17.8298 26.6419 18.142C23.9599 21.998 20.3569 24 15.9999 24C14.8349 24 13.7239 23.857 12.6699 23.573L14.3599 21.883C14.8899 21.961 15.4369 22 15.9999 22C19.6819 22 22.6819 20.333 24.9999 17C24.2439 15.696 23.4159 14.605 22.5159 13.726L23.9299 12.314C24.9569 13.32 25.8919 14.551 26.7299 15.997ZM23.0709 8.93002C23.2584 9.11755 23.3637 9.37185 23.3637 9.63702C23.3637 9.90218 23.2584 10.1565 23.0709 10.344L10.3429 23.071C10.1543 23.2532 9.90169 23.354 9.6395 23.3517C9.3773 23.3494 9.12649 23.2442 8.94108 23.0588C8.75567 22.8734 8.6505 22.6226 8.64822 22.3604C8.64595 22.0982 8.74674 21.8456 8.9289 21.657L21.6569 8.92902C21.8444 8.74155 22.0987 8.63623 22.3639 8.63623C22.6291 8.63623 22.8834 8.74155 23.0709 8.92902V8.93002ZM15.9999 9.00002C16.8599 9.00002 17.6899 9.09002 18.4879 9.27002L16.7299 11.027C16.487 11.009 16.2435 11 15.9999 11C12.3179 11 9.3179 13 6.9999 17C7.5349 17.77 8.1069 18.45 8.7149 19.042L7.2999 20.456C6.58059 19.7478 5.93001 18.973 5.3569 18.142C5.13985 17.8298 5.01629 17.4622 5.0007 17.0823C4.98512 16.7024 5.07815 16.3259 5.2689 15.997C7.9239 11.417 11.5499 9.00002 15.9999 9.00002ZM16.2519 19.992L19.9919 16.252C19.9305 17.2238 19.5168 18.1399 18.8283 18.8284C18.1397 19.5169 17.2237 19.9307 16.2519 19.992ZM15.7489 12.008L12.0079 15.748C12.0693 14.7761 12.4832 13.8599 13.1719 13.1713C13.8606 12.4828 14.7769 12.0691 15.7489 12.008Z" fill="black"/>
</svg>
