<svg width="32" height="32" viewBox="0 0 32 32" fill="none" xmlns="http://www.w3.org/2000/svg">
<path d="M21 16C21 15.4696 21.2107 14.9609 21.5858 14.5858C21.9609 14.2107 22.4696 14 23 14C23.5304 14 24.0391 14.2107 24.4142 14.5858C24.7893 14.9609 25 15.4696 25 16C25 16.5304 24.7893 17.0391 24.4142 17.4142C24.0391 17.7893 23.5304 18 23 18C22.4696 18 21.9609 17.7893 21.5858 17.4142C21.2107 17.0391 21 16.5304 21 16ZM14 16C14 15.4696 14.2107 14.9609 14.5858 14.5858C14.9609 14.2107 15.4696 14 16 14C16.5304 14 17.0391 14.2107 17.4142 14.5858C17.7893 14.9609 18 15.4696 18 16C18 16.5304 17.7893 17.0391 17.4142 17.4142C17.0391 17.7893 16.5304 18 16 18C15.4696 18 14.9609 17.7893 14.5858 17.4142C14.2107 17.0391 14 16.5304 14 16ZM7 16C7 15.4696 7.21071 14.9609 7.58579 14.5858C7.96086 14.2107 8.46957 14 9 14C9.53043 14 10.0391 14.2107 10.4142 14.5858C10.7893 14.9609 11 15.4696 11 16C11 16.5304 10.7893 17.0391 10.4142 17.4142C10.0391 17.7893 9.53043 18 9 18C8.46957 18 7.96086 17.7893 7.58579 17.4142C7.21071 17.0391 7 16.5304 7 16Z" fill="black"/>
</svg>
