<svg width="40" height="40" viewBox="0 0 40 40" fill="none" xmlns="http://www.w3.org/2000/svg">
<path d="M5.03857 17.5276C5.03857 16.1476 6.15107 15.0401 7.54232 15.0401L8.57982 15.0389C8.97307 14.1389 9.47109 13.2884 10.0636 12.5051L9.58357 11.6714C9.25249 11.0987 9.16156 10.4183 9.33068 9.77888C9.49979 9.13942 9.9152 8.59292 10.4861 8.25885L14.8361 5.7476C15.1202 5.58338 15.4341 5.47701 15.7596 5.43464C16.085 5.39226 16.4157 5.41471 16.7324 5.5007C17.0491 5.58668 17.3457 5.7345 17.6051 5.93563C17.8645 6.13676 18.0815 6.38723 18.2436 6.6726L18.7798 7.60135C19.496 7.52964 20.2169 7.51919 20.9348 7.5701L21.4548 6.67135C21.7853 6.09855 22.3291 5.67986 22.9674 5.50677C23.6056 5.33368 24.2865 5.42026 24.8611 5.7476L29.2111 8.2601C29.4953 8.424 29.7444 8.64251 29.9438 8.90307C30.1433 9.16362 30.2892 9.46106 30.3732 9.77825C30.4572 10.0954 30.4776 10.4261 30.4333 10.7512C30.3889 11.0764 30.2807 11.3895 30.1148 11.6726L29.7961 12.2251C30.4849 13.0835 31.0574 14.0292 31.4986 15.0376L32.5361 15.0389C33.9123 15.0389 35.0386 16.1576 35.0386 17.5264V22.5513C35.0386 22.8794 34.9737 23.2042 34.8477 23.507C34.7217 23.8099 34.537 24.0848 34.3043 24.316C34.0716 24.5472 33.7954 24.7301 33.4917 24.8542C33.1881 24.9782 32.8629 25.041 32.5348 25.0388H31.4973C31.0624 26.0353 30.4993 26.9707 29.8223 27.8214L30.1148 28.3288C30.4458 28.9016 30.5365 29.5821 30.3672 30.2216C30.1978 30.8611 29.7822 31.4075 29.2111 31.7414L24.8611 34.2526C24.577 34.4166 24.2632 34.5228 23.9379 34.5651C23.6125 34.6074 23.2821 34.5849 22.9655 34.4989C22.6489 34.4129 22.3524 34.2652 22.0931 34.0641C21.8339 33.8631 21.6169 33.6128 21.4548 33.3276L20.9798 32.5039C20.2329 32.5597 19.4824 32.5492 18.7373 32.4726L18.2436 33.3288C17.9131 33.902 17.369 34.3209 16.7305 34.494C16.0919 34.6671 15.4108 34.5803 14.8361 34.2526L10.4861 31.7401C10.2019 31.5761 9.953 31.3575 9.75368 31.0969C9.55435 30.8363 9.40855 30.5388 9.32466 30.2217C9.24078 29.9045 9.22047 29.5738 9.2649 29.2488C9.30934 28.9237 9.41764 28.6106 9.58357 28.3276L10.0373 27.5389C9.45582 26.7649 8.96628 25.9259 8.57857 25.0388H7.54232C6.88099 25.0392 6.24642 24.7777 5.77726 24.3116C5.30811 23.8455 5.04254 23.2127 5.03857 22.5513V17.5264V17.5276ZM7.53857 22.5501C7.53857 22.5464 7.99232 22.5426 8.89857 22.5414L9.54482 22.5401H10.3536C10.816 24.3306 11.7663 25.9577 13.0986 27.2401L11.7486 29.5776L16.0861 32.0876C16.0811 32.0839 16.5361 31.2876 17.4511 29.7001C19.0346 30.1233 20.6976 30.1521 22.2948 29.7838L23.6198 32.0788L27.9611 29.5751C27.9561 29.5788 27.5461 28.8764 26.7323 27.4689C28.1919 26.1549 29.2323 24.4403 29.7236 22.5389H32.5361V21.9826V21.8514L32.5373 20.3114V20.0576L32.5386 17.5276C32.5386 17.5314 32.2061 17.5339 31.5386 17.5364H30.9786L30.5336 17.5376H30.2911L29.8461 17.5389H29.7248C29.2299 15.6237 28.1781 13.8985 26.7023 12.5814L27.9511 10.4214L23.6136 7.9126C23.6186 7.91635 23.1661 8.7076 22.2561 10.2864C20.6843 9.92968 19.0497 9.95755 17.4911 10.3676L16.0786 7.92135L11.7373 10.4251C11.7436 10.4214 12.2073 11.2176 13.1298 12.8126C11.782 14.0978 10.8207 15.7345 10.3548 17.5376L7.54357 17.5389V18.0964L7.54232 18.2264V20.0201L7.53732 22.1876V22.5513L7.53857 22.5501ZM15.0386 20.0388C15.0386 18.7128 15.5654 17.441 16.503 16.5033C17.4407 15.5656 18.7125 15.0389 20.0386 15.0389C21.3647 15.0389 22.6364 15.5656 23.5741 16.5033C24.5118 17.441 25.0386 18.7128 25.0386 20.0388C25.0386 21.3649 24.5118 22.6367 23.5741 23.5744C22.6364 24.5121 21.3647 25.0388 20.0386 25.0388C18.7125 25.0388 17.4407 24.5121 16.503 23.5744C15.5654 22.6367 15.0386 21.3649 15.0386 20.0388ZM17.5386 20.0388C17.5386 20.7019 17.802 21.3378 18.2708 21.8066C18.7396 22.2755 19.3755 22.5389 20.0386 22.5389C20.7016 22.5389 21.3375 22.2755 21.8063 21.8066C22.2752 21.3378 22.5386 20.7019 22.5386 20.0388C22.5386 19.3758 22.2752 18.7399 21.8063 18.2711C21.3375 17.8022 20.7016 17.5389 20.0386 17.5389C19.3755 17.5389 18.7396 17.8022 18.2708 18.2711C17.802 18.7399 17.5386 19.3758 17.5386 20.0388Z" fill="black"/>
</svg>
