<svg width="40" height="40" viewBox="0 0 40 40" fill="none" xmlns="http://www.w3.org/2000/svg">
<path d="M20 7.5C26.9037 7.5 32.5 13.0963 32.5 20C32.5 26.9037 26.9037 32.5 20 32.5C13.0963 32.5 7.5 26.9037 7.5 20C7.5 13.0963 13.0963 7.5 20 7.5ZM20 10C17.3478 10 14.8043 11.0536 12.9289 12.9289C11.0536 14.8043 10 17.3478 10 20C10 22.6522 11.0536 25.1957 12.9289 27.0711C14.8043 28.9464 17.3478 30 20 30C22.6522 30 25.1957 28.9464 27.0711 27.0711C28.9464 25.1957 30 22.6522 30 20C30 17.3478 28.9464 14.8043 27.0711 12.9289C25.1957 11.0536 22.6522 10 20 10ZM24.6338 17.1337L21.7675 20L24.6338 22.8662C25.8125 24.045 24.045 25.8125 22.8662 24.6338L20 21.7688L17.1337 24.6338C15.955 25.8125 14.1875 24.045 15.3663 22.8662L18.2325 20L15.3663 17.1337C14.1875 15.955 15.955 14.1875 17.1337 15.3663L20 18.2312L22.8662 15.3663C24.045 14.1875 25.8125 15.955 24.6338 17.1337Z" fill="black"/>
</svg>
