<svg width="32" height="32" viewBox="0 0 32 32" fill="none" xmlns="http://www.w3.org/2000/svg">
<path d="M27.9999 26.6669H23.9999C23.6462 26.6669 23.3071 26.5264 23.057 26.2763C22.807 26.0263 22.6665 25.6871 22.6665 25.3335V21.3335C24.258 21.3188 25.7917 20.7353 26.9905 19.6883C28.1892 18.6414 28.9738 17.2001 29.2025 15.6251C29.4312 14.05 29.0888 12.4451 28.2374 11.1005C27.3859 9.75586 26.0815 8.76021 24.5599 8.29352C23.7452 6.42152 22.3392 4.86829 20.5573 3.87182C18.7754 2.87535 16.7159 2.49063 14.6945 2.7766C12.673 3.06257 10.8011 4.00346 9.36553 5.45509C7.92997 6.90671 7.00997 8.789 6.74652 10.8135C5.4753 11.1179 4.36015 11.8786 3.61284 12.9511C2.86553 14.0236 2.5381 15.3332 2.69274 16.6311C2.84738 17.9291 3.47331 19.1251 4.45168 19.992C5.43004 20.8589 6.69269 21.3363 7.99985 21.3335H9.33319V25.3335C9.33319 25.6871 9.19271 26.0263 8.94266 26.2763C8.69261 26.5264 8.35348 26.6669 7.99985 26.6669H3.99985C3.64623 26.6669 3.30709 26.8073 3.05704 27.0574C2.807 27.3074 2.66652 27.6466 2.66652 28.0002C2.66652 28.3538 2.807 28.6929 3.05704 28.943C3.30709 29.193 3.64623 29.3335 3.99985 29.3335H7.99985C9.06072 29.3335 10.0781 28.9121 10.8283 28.1619C11.5784 27.4118 11.9999 26.3944 11.9999 25.3335V21.3335H14.6665V28.0002C14.6665 28.3538 14.807 28.6929 15.057 28.943C15.3071 29.193 15.6462 29.3335 15.9999 29.3335C16.3535 29.3335 16.6926 29.193 16.9427 28.943C17.1927 28.6929 17.3332 28.3538 17.3332 28.0002V21.3335H19.9999V25.3335C19.9999 26.3944 20.4213 27.4118 21.1714 28.1619C21.9216 28.9121 22.939 29.3335 23.9999 29.3335H27.9999C28.3535 29.3335 28.6926 29.193 28.9427 28.943C29.1927 28.6929 29.3332 28.3538 29.3332 28.0002C29.3332 27.6466 29.1927 27.3074 28.9427 27.0574C28.6926 26.8073 28.3535 26.6669 27.9999 26.6669ZM7.99985 18.6669C7.29261 18.6669 6.61433 18.3859 6.11424 17.8858C5.61414 17.3857 5.33319 16.7074 5.33319 16.0002C5.33319 15.2929 5.61414 14.6147 6.11424 14.1146C6.61433 13.6145 7.29261 13.3335 7.99985 13.3335C8.35348 13.3335 8.69261 13.193 8.94266 12.943C9.19271 12.6929 9.33319 12.3538 9.33319 12.0002C9.33659 10.4232 9.8989 8.89852 10.9202 7.69696C11.9415 6.4954 13.3557 5.69479 14.9115 5.43735C16.4673 5.17991 18.064 5.48233 19.4179 6.29086C20.7719 7.0994 21.7953 8.3617 22.3065 9.85352C22.3827 10.0826 22.5197 10.2868 22.7029 10.4441C22.8861 10.6014 23.1085 10.7061 23.3465 10.7469C24.2721 10.9065 25.1119 11.3868 25.7189 12.1035C26.326 12.8202 26.6614 13.7276 26.6665 14.6669C26.6665 15.7277 26.2451 16.7451 25.4949 17.4953C24.7448 18.2454 23.7274 18.6669 22.6665 18.6669H7.99985Z" fill="#11161A"/>
</svg>
