<svg width="40" height="40" viewBox="0 0 40 40" fill="none" xmlns="http://www.w3.org/2000/svg">
<path d="M27.5 7.5C28.163 7.5 28.7989 7.76339 29.2678 8.23223C29.7366 8.70107 30 9.33696 30 10V23.3C30.0001 23.6297 29.935 23.9561 29.8084 24.2605C29.6818 24.565 29.4963 24.8413 29.2625 25.0737L22.52 31.7738C22.0515 32.2391 21.4179 32.5002 20.7575 32.5H12.5C11.837 32.5 11.2011 32.2366 10.7322 31.7678C10.2634 31.2989 10 30.663 10 30V10C10 9.33696 10.2634 8.70107 10.7322 8.23223C11.2011 7.76339 11.837 7.5 12.5 7.5H27.5ZM27.5 10H12.5V30H20V24.9875C20 23.6162 21.1212 22.5 22.4875 22.5H27.5V10ZM25.7325 25H22.5V28.2325L25.7325 25ZM23.75 17.5C24.0815 17.5 24.3995 17.6317 24.6339 17.8661C24.8683 18.1005 25 18.4185 25 18.75C25 19.0815 24.8683 19.3995 24.6339 19.6339C24.3995 19.8683 24.0815 20 23.75 20H16.25C15.9185 20 15.6005 19.8683 15.3661 19.6339C15.1317 19.3995 15 19.0815 15 18.75C15 18.4185 15.1317 18.1005 15.3661 17.8661C15.6005 17.6317 15.9185 17.5 16.25 17.5H23.75ZM23.75 12.5C24.0815 12.5 24.3995 12.6317 24.6339 12.8661C24.8683 13.1005 25 13.4185 25 13.75C25 14.0815 24.8683 14.3995 24.6339 14.6339C24.3995 14.8683 24.0815 15 23.75 15H16.25C15.9185 15 15.6005 14.8683 15.3661 14.6339C15.1317 14.3995 15 14.0815 15 13.75C15 13.4185 15.1317 13.1005 15.3661 12.8661C15.6005 12.6317 15.9185 12.5 16.25 12.5H23.75Z" fill="black"/>
</svg>
