<svg width="32" height="32" viewBox="0 0 32 32" fill="none" xmlns="http://www.w3.org/2000/svg">
<path d="M12.3905 9.39052C12.6406 9.14048 12.9797 9 13.3333 9C13.687 9 14.0261 9.14048 14.2761 9.39052C14.5262 9.64057 14.6667 9.97971 14.6667 10.3333V21C14.6667 21.3536 14.5262 21.6928 14.2761 21.9428C14.0261 22.1929 13.687 22.3333 13.3333 22.3333C12.9797 22.3333 12.6406 22.1929 12.3905 21.9428C12.1405 21.6928 12 21.3536 12 21V10.3333C12 9.97971 12.1405 9.64057 12.3905 9.39052Z" fill="black"/>
<path d="M17.7239 9.39052C17.9739 9.14048 18.313 9 18.6667 9C19.0203 9 19.3594 9.14048 19.6095 9.39052C19.8595 9.64057 20 9.97971 20 10.3333V21C20 21.3536 19.8595 21.6928 19.6095 21.9428C19.3594 22.1929 19.0203 22.3333 18.6667 22.3333C18.313 22.3333 17.9739 22.1929 17.7239 21.9428C17.4738 21.6928 17.3333 21.3536 17.3333 21V10.3333C17.3333 9.97971 17.4738 9.64057 17.7239 9.39052Z" fill="black"/>
</svg>
