<svg width="40" height="40" viewBox="0 0 40 40" fill="none" xmlns="http://www.w3.org/2000/svg">
<path d="M9.99984 10.0002C9.99984 9.11611 10.351 8.26826 10.9761 7.64314C11.6013 7.01802 12.4491 6.66683 13.3332 6.66683C13.7752 6.66683 14.1991 6.49124 14.5117 6.17867C14.8242 5.86611 14.9998 5.44219 14.9998 5.00016C14.9998 4.55814 14.8242 4.13421 14.5117 3.82165C14.1991 3.50909 13.7752 3.3335 13.3332 3.3335C11.5651 3.3335 9.86937 4.03588 8.61912 5.28612C7.36888 6.53636 6.6665 8.23205 6.6665 10.0002V15.0002C6.6665 15.8842 6.31531 16.7321 5.69019 17.3572C5.06507 17.9823 4.21723 18.3335 3.33317 18.3335C2.89114 18.3335 2.46722 18.5091 2.15466 18.8217C1.8421 19.1342 1.6665 19.5581 1.6665 20.0002C1.6665 20.4422 1.8421 20.8661 2.15466 21.1787C2.46722 21.4912 2.89114 21.6668 3.33317 21.6668C4.21723 21.6668 5.06507 22.018 5.69019 22.6431C6.31531 23.2683 6.6665 24.1161 6.6665 25.0002V30.0002C6.6665 31.7683 7.36888 33.464 8.61912 34.7142C9.86937 35.9645 11.5651 36.6668 13.3332 36.6668C13.7752 36.6668 14.1991 36.4912 14.5117 36.1787C14.8242 35.8661 14.9998 35.4422 14.9998 35.0002C14.9998 34.5581 14.8242 34.1342 14.5117 33.8217C14.1991 33.5091 13.7752 33.3335 13.3332 33.3335C12.4491 33.3335 11.6013 32.9823 10.9761 32.3572C10.351 31.7321 9.99984 30.8842 9.99984 30.0002V25.0002C9.99448 24.0511 9.78653 23.114 9.38988 22.2517C8.99323 21.3895 8.41704 20.6218 7.69984 20.0002C8.41704 19.3785 8.99323 18.6109 9.38988 17.7486C9.78653 16.8863 9.99448 15.9493 9.99984 15.0002V10.0002ZM36.6665 18.3335C35.7824 18.3335 34.9346 17.9823 34.3095 17.3572C33.6844 16.7321 33.3332 15.8842 33.3332 15.0002V10.0002C33.3332 8.23205 32.6308 6.53636 31.3805 5.28612C30.1303 4.03588 28.4346 3.3335 26.6665 3.3335C26.2245 3.3335 25.8006 3.50909 25.488 3.82165C25.1754 4.13421 24.9998 4.55814 24.9998 5.00016C24.9998 5.44219 25.1754 5.86611 25.488 6.17867C25.8006 6.49124 26.2245 6.66683 26.6665 6.66683C27.5506 6.66683 28.3984 7.01802 29.0235 7.64314C29.6486 8.26826 29.9998 9.11611 29.9998 10.0002V15.0002C30.0052 15.9493 30.2131 16.8863 30.6098 17.7486C31.0064 18.6109 31.5826 19.3785 32.2998 20.0002C31.5826 20.6218 31.0064 21.3895 30.6098 22.2517C30.2131 23.114 30.0052 24.0511 29.9998 25.0002V30.0002C29.9998 30.8842 29.6486 31.7321 29.0235 32.3572C28.3984 32.9823 27.5506 33.3335 26.6665 33.3335C26.2245 33.3335 25.8006 33.5091 25.488 33.8217C25.1754 34.1342 24.9998 34.5581 24.9998 35.0002C24.9998 35.4422 25.1754 35.8661 25.488 36.1787C25.8006 36.4912 26.2245 36.6668 26.6665 36.6668C28.4346 36.6668 30.1303 35.9645 31.3805 34.7142C32.6308 33.464 33.3332 31.7683 33.3332 30.0002V25.0002C33.3332 24.1161 33.6844 23.2683 34.3095 22.6431C34.9346 22.018 35.7824 21.6668 36.6665 21.6668C37.1085 21.6668 37.5325 21.4912 37.845 21.1787C38.1576 20.8661 38.3332 20.4422 38.3332 20.0002C38.3332 19.5581 38.1576 19.1342 37.845 18.8217C37.5325 18.5091 37.1085 18.3335 36.6665 18.3335Z" fill="#11161A"/>
</svg>
