<svg width="32" height="32" viewBox="0 0 32 32" fill="none" xmlns="http://www.w3.org/2000/svg">
<path d="M19.5658 21H25.2588L20.0088 12L17.1588 16.988L19.5658 21ZM19.9998 9.00002C20.1748 8.99895 20.347 9.04429 20.4987 9.13142C20.6505 9.21855 20.7765 9.34436 20.8638 9.49602L27.8638 21.496C27.9525 21.648 27.9995 21.8207 28.0001 21.9966C28.0007 22.1726 27.9549 22.3456 27.8672 22.4981C27.7796 22.6507 27.6532 22.7775 27.5009 22.8656C27.3486 22.9537 27.1758 23.0001 26.9998 23H18.9998C18.8272 22.9999 18.6575 22.955 18.5073 22.8699C18.3571 22.7847 18.2316 22.6621 18.1428 22.514L15.9988 18.942L13.8568 22.514C13.7681 22.6621 13.6425 22.7847 13.4923 22.8699C13.3421 22.955 13.1725 22.9999 12.9998 23H4.99981C4.82385 23.0001 4.651 22.9537 4.4987 22.8656C4.3464 22.7775 4.22005 22.6507 4.13241 22.4981C4.04476 22.3456 3.99892 22.1726 3.99952 21.9966C4.00011 21.8207 4.04713 21.648 4.13581 21.496L11.1358 9.49602C11.2125 9.36279 11.3193 9.2493 11.4476 9.16458C11.5759 9.07986 11.7222 9.02626 11.8748 9.00802L11.9998 9.00002H19.9998ZM11.9908 12L6.74081 21H12.4338L14.8408 16.988L11.9908 12ZM18.2758 11H13.7218L15.9998 14.984L18.2758 11Z" fill="black"/>
</svg>
