<svg width="40" height="40" viewBox="0 0 40 40" fill="none" xmlns="http://www.w3.org/2000/svg">
<path d="M13.75 7.5C14.0815 7.5 14.3995 7.6317 14.6339 7.86612C14.8683 8.10054 15 8.41848 15 8.75C15 9.08152 14.8683 9.39946 14.6339 9.63388C14.3995 9.8683 14.0815 10 13.75 10H10V30H30V26.25L30.0088 26.1037C30.0464 25.7874 30.2034 25.4973 30.4477 25.2928C30.692 25.0883 31.0052 24.9849 31.3233 25.0035C31.6413 25.0222 31.9402 25.1616 32.1589 25.3933C32.3777 25.625 32.4996 25.9314 32.5 26.25V31.25C32.5 31.5815 32.3683 31.8995 32.1339 32.1339C31.8995 32.3683 31.5815 32.5 31.25 32.5H8.75C8.41848 32.5 8.10054 32.3683 7.86612 32.1339C7.6317 31.8995 7.5 31.5815 7.5 31.25V8.75C7.5 8.41848 7.6317 8.10054 7.86612 7.86612C8.10054 7.6317 8.41848 7.5 8.75 7.5H13.75ZM31.25 7.5C31.5815 7.5 31.8995 7.6317 32.1339 7.86612C32.3683 8.10054 32.5 8.41848 32.5 8.75V18.75C32.5 19.0815 32.3683 19.3995 32.1339 19.6339C31.8995 19.8683 31.5815 20 31.25 20C30.9185 20 30.6005 19.8683 30.3661 19.6339C30.1317 19.3995 30 19.0815 30 18.75V11.7675L17.1337 24.6338C16.898 24.8614 16.5822 24.9874 16.2545 24.9846C15.9268 24.9817 15.6132 24.8503 15.3815 24.6185C15.1497 24.3868 15.0183 24.0732 15.0154 23.7455C15.0126 23.4178 15.1386 23.102 15.3663 22.8662L28.2325 10H21.25C20.9185 10 20.6005 9.8683 20.3661 9.63388C20.1317 9.39946 20 9.08152 20 8.75C20 8.41848 20.1317 8.10054 20.3661 7.86612C20.6005 7.6317 20.9185 7.5 21.25 7.5H31.25Z" fill="black"/>
</svg>
