<svg width="32" height="32" viewBox="0 0 32 32" fill="none" xmlns="http://www.w3.org/2000/svg">
<path d="M19.9199 6.92008C20.4239 6.33912 20.8083 5.66431 21.0508 4.9344C21.2934 4.20449 21.3893 3.43385 21.3332 2.66675C19.7857 2.79166 18.3492 3.51949 17.3332 4.69341C16.8467 5.25605 16.478 5.91059 16.249 6.61827C16.0199 7.32596 15.9352 8.07241 15.9999 8.81342C16.7547 8.8197 17.5009 8.65221 18.1807 8.32389C18.8604 7.99558 19.4555 7.51525 19.9199 6.92008ZM23.2799 16.8401C23.2888 15.8184 23.5579 14.8158 24.0618 13.927C24.5657 13.0382 25.2878 12.2924 26.1599 11.7601C25.6095 10.9671 24.8819 10.3132 24.0349 9.85031C23.1878 9.38744 22.2445 9.12829 21.2799 9.09342C19.1999 8.88008 17.2799 10.3067 16.1732 10.3067C15.0665 10.3067 13.5065 9.12008 11.7732 9.14675C10.6401 9.18408 9.53591 9.51446 8.56848 10.1057C7.60105 10.6969 6.80336 11.5287 6.25322 12.5201C3.90655 16.6001 5.65322 22.6667 7.99988 25.9601C9.06655 27.5734 10.3999 29.4001 12.1599 29.3334C13.9199 29.2667 14.4932 28.2401 16.5332 28.2401C18.5732 28.2401 19.1999 29.3334 20.9332 29.2934C22.6665 29.2534 23.8932 27.6401 25.0132 26.0267C25.8066 24.8555 26.4264 23.5755 26.8532 22.2267C25.7965 21.7761 24.895 21.0258 24.2599 20.0685C23.6249 19.1112 23.2842 17.9889 23.2799 16.8401Z" fill="black"/>
</svg>
