<svg width="24" height="24" viewBox="0 0 24 24" fill="none" xmlns="http://www.w3.org/2000/svg">
<path d="M11.4696 4.71971C11.6102 4.57911 11.801 4.50012 11.9998 4.50012C12.1987 4.50012 12.3894 4.57911 12.5301 4.71971L18.5301 10.7197C18.6667 10.8612 18.7423 11.0506 18.7406 11.2473C18.7389 11.4439 18.66 11.632 18.521 11.7711C18.3819 11.9101 18.1938 11.989 17.9971 11.9907C17.8005 11.9924 17.611 11.9168 17.4696 11.7802L12.7498 7.06046V18.75C12.7498 18.9337 12.6824 19.111 12.5603 19.2482C12.4382 19.3855 12.27 19.4732 12.0876 19.4947L11.9998 19.5C11.8009 19.5 11.6102 19.4209 11.4695 19.2803C11.3289 19.1396 11.2498 18.9489 11.2498 18.75V7.06046L6.53009 11.7802C6.40094 11.9093 6.22912 11.9869 6.04685 11.9984C5.86458 12.0098 5.68439 11.9544 5.54009 11.8425L5.46959 11.7802C5.32899 11.6396 5.25 11.4488 5.25 11.25C5.25 11.0511 5.32899 10.8604 5.46959 10.7197L11.4696 4.71971Z" fill="black"/>
</svg>
