<svg width="40" height="40" viewBox="0 0 40 40" fill="none" xmlns="http://www.w3.org/2000/svg">
<path d="M10 23.7501V28.7501H15V23.7501H10ZM15 21.2501C15.663 21.2501 16.2989 21.5135 16.7678 21.9823C17.2366 22.4511 17.5 23.087 17.5 23.7501V28.7501C17.5 29.4131 17.2366 30.049 16.7678 30.5178C16.2989 30.9867 15.663 31.2501 15 31.2501H10C9.33696 31.2501 8.70107 30.9867 8.23223 30.5178C7.76339 30.049 7.5 29.4131 7.5 28.7501V23.7501C7.5 23.087 7.76339 22.4511 8.23223 21.9823C8.70107 21.5135 9.33696 21.2501 10 21.2501H15ZM27.5 27.5001C27.8315 27.5001 28.1495 27.6318 28.3839 27.8662C28.6183 28.1006 28.75 28.4185 28.75 28.7501C28.75 29.0816 28.6183 29.3995 28.3839 29.6339C28.1495 29.8684 27.8315 30.0001 27.5 30.0001H25C24.6685 30.0001 24.3505 29.8684 24.1161 29.6339C23.8817 29.3995 23.75 29.0816 23.75 28.7501C23.75 28.4185 23.8817 28.1006 24.1161 27.8662C24.3505 27.6318 24.6685 27.5001 25 27.5001H27.5ZM21.25 27.5001C21.5815 27.5001 21.8995 27.6318 22.1339 27.8662C22.3683 28.1006 22.5 28.4185 22.5 28.7501C22.5 29.0816 22.3683 29.3995 22.1339 29.6339C21.8995 29.8684 21.5815 30.0001 21.25 30.0001C20.9185 30.0001 20.6005 29.8684 20.3661 29.6339C20.1317 29.3995 20 29.0816 20 28.7501C20 28.4185 20.1317 28.1006 20.3661 27.8662C20.6005 27.6318 20.9185 27.5001 21.25 27.5001ZM31.25 22.5001C31.5815 22.5001 31.8995 22.6318 32.1339 22.8662C32.3683 23.1006 32.5 23.4185 32.5 23.7501C32.5 24.0816 32.3683 24.3995 32.1339 24.6339C31.8995 24.8684 31.5815 25.0001 31.25 25.0001H21.25C20.9185 25.0001 20.6005 24.8684 20.3661 24.6339C20.1317 24.3995 20 24.0816 20 23.7501C20 23.4185 20.1317 23.1006 20.3661 22.8662C20.6005 22.6318 20.9185 22.5001 21.25 22.5001H31.25ZM16.8925 7.67881C17.1764 7.84937 17.3811 8.12565 17.4615 8.44698C17.5419 8.7683 17.4914 9.10839 17.3213 9.39256L12.8212 16.8926C12.7235 17.0554 12.59 17.1938 12.4309 17.2972C12.2717 17.4007 12.091 17.4666 11.9026 17.4899C11.7141 17.5131 11.5229 17.4931 11.3433 17.4315C11.1638 17.3698 11.0006 17.268 10.8662 17.1338L7.86625 14.1338C7.63855 13.8981 7.51256 13.5823 7.51541 13.2546C7.51826 12.9268 7.64972 12.6133 7.88148 12.3815C8.11324 12.1498 8.42675 12.0183 8.7545 12.0155C9.08224 12.0126 9.398 12.1386 9.63375 12.3663L11.5013 14.2338L15.1787 8.10756C15.3493 7.82362 15.6256 7.61899 15.9469 7.5386C16.2682 7.45821 16.6083 7.50864 16.8925 7.67881ZM27.5 13.7501C27.8315 13.7501 28.1495 13.8818 28.3839 14.1162C28.6183 14.3506 28.75 14.6685 28.75 15.0001C28.75 15.3316 28.6183 15.6495 28.3839 15.8839C28.1495 16.1184 27.8315 16.2501 27.5 16.2501H25C24.6685 16.2501 24.3505 16.1184 24.1161 15.8839C23.8817 15.6495 23.75 15.3316 23.75 15.0001C23.75 14.6685 23.8817 14.3506 24.1161 14.1162C24.3505 13.8818 24.6685 13.7501 25 13.7501H27.5ZM21.25 13.7501C21.5815 13.7501 21.8995 13.8818 22.1339 14.1162C22.3683 14.3506 22.5 14.6685 22.5 15.0001C22.5 15.3316 22.3683 15.6495 22.1339 15.8839C21.8995 16.1184 21.5815 16.2501 21.25 16.2501C20.9185 16.2501 20.6005 16.1184 20.3661 15.8839C20.1317 15.6495 20 15.3316 20 15.0001C20 14.6685 20.1317 14.3506 20.3661 14.1162C20.6005 13.8818 20.9185 13.7501 21.25 13.7501ZM31.25 8.75006C31.5815 8.75006 31.8995 8.88176 32.1339 9.11618C32.3683 9.3506 32.5 9.66854 32.5 10.0001C32.5 10.3316 32.3683 10.6495 32.1339 10.8839C31.8995 11.1184 31.5815 11.2501 31.25 11.2501H21.25C20.9185 11.2501 20.6005 11.1184 20.3661 10.8839C20.1317 10.6495 20 10.3316 20 10.0001C20 9.66854 20.1317 9.3506 20.3661 9.11618C20.6005 8.88176 20.9185 8.75006 21.25 8.75006H31.25Z" fill="black"/>
</svg>
