<svg width="32" height="32" viewBox="0 0 32 32" fill="none" xmlns="http://www.w3.org/2000/svg">
<path d="M20.0981 19.5569H11.9021C11.8129 19.5569 11.7253 19.533 11.6484 19.4877C11.5715 19.4424 11.5081 19.3773 11.4648 19.2993C11.4216 19.2212 11.4 19.133 11.4023 19.0438C11.4047 18.9545 11.4308 18.8676 11.4781 18.7919L15.5761 12.2349C15.6211 12.163 15.6836 12.1037 15.7578 12.0626C15.8319 12.0215 15.9153 11.9999 16.0001 11.9999C16.0849 11.9999 16.1684 12.0215 16.2425 12.0626C16.3167 12.1037 16.3792 12.163 16.4241 12.2349L20.5221 18.7919C20.5694 18.8676 20.5956 18.9545 20.598 19.0438C20.6003 19.133 20.5787 19.2212 20.5355 19.2993C20.4922 19.3773 20.4288 19.4424 20.3519 19.4877C20.275 19.533 20.1874 19.5569 20.0981 19.5569Z" fill="black"/>
</svg>
