<svg width="24" height="24" viewBox="0 0 24 24" fill="none" xmlns="http://www.w3.org/2000/svg">
<path d="M8.25 4.5C8.44891 4.5 8.63968 4.57902 8.78033 4.71967C8.92098 4.86032 9 5.05109 9 5.25C9 5.44891 8.92098 5.63968 8.78033 5.78033C8.63968 5.92098 8.44891 6 8.25 6H6V18H18V15.75L18.0052 15.6622C18.0278 15.4724 18.122 15.2984 18.2686 15.1757C18.4152 15.053 18.6031 14.9909 18.794 15.0021C18.9848 15.0133 19.1641 15.097 19.2954 15.236C19.4266 15.375 19.4998 15.5588 19.5 15.75V18.75C19.5 18.9489 19.421 19.1397 19.2803 19.2803C19.1397 19.421 18.9489 19.5 18.75 19.5H5.25C5.05109 19.5 4.86032 19.421 4.71967 19.2803C4.57902 19.1397 4.5 18.9489 4.5 18.75V5.25C4.5 5.05109 4.57902 4.86032 4.71967 4.71967C4.86032 4.57902 5.05109 4.5 5.25 4.5H8.25ZM18.75 4.5C18.9489 4.5 19.1397 4.57902 19.2803 4.71967C19.421 4.86032 19.5 5.05109 19.5 5.25V11.25C19.5 11.4489 19.421 11.6397 19.2803 11.7803C19.1397 11.921 18.9489 12 18.75 12C18.5511 12 18.3603 11.921 18.2197 11.7803C18.079 11.6397 18 11.4489 18 11.25V7.0605L10.2802 14.7803C10.1388 14.9169 9.94935 14.9925 9.7527 14.9908C9.55605 14.989 9.36794 14.9102 9.22889 14.7711C9.08983 14.6321 9.01095 14.4439 9.00924 14.2473C9.00754 14.0507 9.08313 13.8612 9.21975 13.7197L16.9395 6H12.75C12.5511 6 12.3603 5.92098 12.2197 5.78033C12.079 5.63968 12 5.44891 12 5.25C12 5.05109 12.079 4.86032 12.2197 4.71967C12.3603 4.57902 12.5511 4.5 12.75 4.5H18.75Z" fill="black"/>
</svg>
