<svg width="32" height="32" viewBox="0 0 32 32" fill="none" xmlns="http://www.w3.org/2000/svg">
<path d="M4.03076 14.0221C4.03076 12.9181 4.92076 12.0321 6.03376 12.0321L6.86376 12.0311C7.17836 11.3111 7.57677 10.6307 8.05076 10.0041L7.66676 9.33708C7.40189 8.87899 7.32915 8.33467 7.46445 7.8231C7.59974 7.31154 7.93206 6.87434 8.38876 6.60708L11.8688 4.59808C12.0961 4.4667 12.3472 4.38161 12.6076 4.34771C12.8679 4.31381 13.1324 4.33177 13.3858 4.40056C13.6392 4.46935 13.8765 4.5876 14.084 4.7485C14.2915 4.90941 14.4651 5.10978 14.5948 5.33808L15.0238 6.08108C15.5967 6.02371 16.1734 6.01535 16.7478 6.05608L17.1638 5.33708C17.4282 4.87884 17.8632 4.54389 18.3738 4.40542C18.8844 4.26695 19.4291 4.33621 19.8888 4.59808L23.3688 6.60808C23.5962 6.7392 23.7954 6.91401 23.955 7.12245C24.1145 7.3309 24.2313 7.56885 24.2985 7.8226C24.3657 8.07636 24.382 8.3409 24.3465 8.60099C24.3111 8.86109 24.2245 9.11159 24.0918 9.33808L23.8368 9.78008C24.3879 10.4668 24.8458 11.2234 25.1988 12.0301L26.0288 12.0311C27.1298 12.0311 28.0308 12.9261 28.0308 14.0211V18.0411C28.0308 18.3035 27.9789 18.5633 27.878 18.8056C27.7772 19.0479 27.6295 19.2679 27.4433 19.4528C27.2571 19.6378 27.0362 19.7841 26.7933 19.8833C26.5504 19.9826 26.2902 20.0328 26.0278 20.0311H25.1978C24.8498 20.8282 24.3994 21.5765 23.8578 22.2571L24.0918 22.6631C24.3565 23.1213 24.4291 23.6657 24.2936 24.1773C24.1582 24.6889 23.8256 25.126 23.3688 25.3931L19.8888 27.4021C19.6615 27.5333 19.4105 27.6183 19.1502 27.6521C18.8899 27.6859 18.6256 27.6679 18.3723 27.5991C18.119 27.5303 17.8818 27.4121 17.6744 27.2513C17.467 27.0905 17.2935 26.8902 17.1638 26.6621L16.7838 26.0031C16.1862 26.0478 15.5858 26.0394 14.9898 25.9781L14.5948 26.6631C14.3304 27.1216 13.8951 27.4567 13.3843 27.5952C12.8734 27.7337 12.3285 27.6643 11.8688 27.4021L8.38876 25.3921C8.16143 25.2609 7.96231 25.086 7.80285 24.8775C7.64338 24.669 7.52674 24.4311 7.45963 24.1773C7.39252 23.9236 7.37628 23.6591 7.41183 23.399C7.44737 23.139 7.53401 22.8885 7.66676 22.6621L8.02976 22.0311C7.56456 21.4119 7.17293 20.7407 6.86276 20.0311H6.03376C5.5047 20.0314 4.99703 19.8222 4.62171 19.4493C4.24639 19.0764 4.03393 18.5701 4.03076 18.0411V14.0211V14.0221ZM6.03076 18.0401C6.03076 18.0371 6.39376 18.0341 7.11876 18.0331L7.63576 18.0321H8.28276C8.65269 19.4645 9.4129 20.7661 10.4788 21.7921L9.39876 23.6621L12.8688 25.6701C12.8648 25.6671 13.2288 25.0301 13.9608 23.7601C15.2276 24.0987 16.558 24.1217 17.8358 23.8271L18.8958 25.6631L22.3688 23.6601C22.3648 23.6631 22.0368 23.1011 21.3858 21.9751C22.5534 20.924 23.3857 19.5522 23.7788 18.0311H26.0288V17.5861V17.4811L26.0298 16.2491V16.0461L26.0308 14.0221C26.0308 14.0251 25.7648 14.0271 25.2308 14.0291H24.7828L24.4268 14.0301H24.2328L23.8768 14.0311H23.7798C23.3839 12.499 22.5424 11.1188 21.3618 10.0651L22.3608 8.33708L18.8908 6.33008C18.8948 6.33308 18.5328 6.96608 17.8048 8.22908C16.5474 7.94374 15.2397 7.96604 13.9928 8.29408L12.8628 6.33708L9.38976 8.34008C9.39476 8.33708 9.76576 8.97408 10.5038 10.2501C9.42549 11.2782 8.65648 12.5876 8.28376 14.0301L6.03476 14.0311V14.4771L6.03376 14.5811V16.0161L6.02976 17.7501V18.0411L6.03076 18.0401ZM12.0308 16.0311C12.0308 14.9702 12.4522 13.9528 13.2023 13.2027C13.9525 12.4525 14.9699 12.0311 16.0308 12.0311C17.0916 12.0311 18.109 12.4525 18.8592 13.2027C19.6093 13.9528 20.0308 14.9702 20.0308 16.0311C20.0308 17.0919 19.6093 18.1094 18.8592 18.8595C18.109 19.6097 17.0916 20.0311 16.0308 20.0311C14.9699 20.0311 13.9525 19.6097 13.2023 18.8595C12.4522 18.1094 12.0308 17.0919 12.0308 16.0311ZM14.0308 16.0311C14.0308 16.5615 14.2415 17.0702 14.6165 17.4453C14.9916 17.8204 15.5003 18.0311 16.0308 18.0311C16.5612 18.0311 17.0699 17.8204 17.445 17.4453C17.82 17.0702 18.0308 16.5615 18.0308 16.0311C18.0308 15.5006 17.82 14.9919 17.445 14.6169C17.0699 14.2418 16.5612 14.0311 16.0308 14.0311C15.5003 14.0311 14.9916 14.2418 14.6165 14.6169C14.2415 14.9919 14.0308 15.5006 14.0308 16.0311Z" fill="black"/>
</svg>
