<svg width="32" height="32" viewBox="0 0 32 32" fill="none" xmlns="http://www.w3.org/2000/svg">
<path d="M27.9998 8.00033H22.6665V6.66699C22.6665 5.60613 22.2451 4.58871 21.4949 3.83857C20.7448 3.08842 19.7274 2.66699 18.6665 2.66699H13.3332C12.2723 2.66699 11.2549 3.08842 10.5047 3.83857C9.7546 4.58871 9.33317 5.60613 9.33317 6.66699V8.00033H3.99984C3.64622 8.00033 3.30708 8.1408 3.05703 8.39085C2.80698 8.6409 2.6665 8.98004 2.6665 9.33366V14.667C2.66951 15.2262 2.78972 15.7785 3.01938 16.2883C3.24903 16.7982 3.58304 17.2542 3.99984 17.627V25.3337C3.99984 26.3945 4.42126 27.4119 5.17141 28.1621C5.92156 28.9122 6.93897 29.3337 7.99984 29.3337H23.9998C25.0607 29.3337 26.0781 28.9122 26.8283 28.1621C27.5784 27.4119 27.9998 26.3945 27.9998 25.3337V17.627C28.4166 17.2542 28.7506 16.7982 28.9803 16.2883C29.21 15.7785 29.3302 15.2262 29.3332 14.667V9.33366C29.3332 8.98004 29.1927 8.6409 28.9426 8.39085C28.6926 8.1408 28.3535 8.00033 27.9998 8.00033ZM11.9998 6.66699C11.9998 6.31337 12.1403 5.97423 12.3904 5.72418C12.6404 5.47413 12.9795 5.33366 13.3332 5.33366H18.6665C19.0201 5.33366 19.3593 5.47413 19.6093 5.72418C19.8594 5.97423 19.9998 6.31337 19.9998 6.66699V8.00033H11.9998V6.66699ZM25.3332 25.3337C25.3332 25.6873 25.1927 26.0264 24.9426 26.2765C24.6926 26.5265 24.3535 26.667 23.9998 26.667H7.99984C7.64622 26.667 7.30708 26.5265 7.05703 26.2765C6.80698 26.0264 6.6665 25.6873 6.6665 25.3337V18.667H9.33317V20.0003C9.33317 20.3539 9.47365 20.6931 9.7237 20.9431C9.97374 21.1932 10.3129 21.3337 10.6665 21.3337C11.0201 21.3337 11.3593 21.1932 11.6093 20.9431C11.8594 20.6931 11.9998 20.3539 11.9998 20.0003V18.667H19.9998V20.0003C19.9998 20.3539 20.1403 20.6931 20.3904 20.9431C20.6404 21.1932 20.9795 21.3337 21.3332 21.3337C21.6868 21.3337 22.0259 21.1932 22.276 20.9431C22.526 20.6931 22.6665 20.3539 22.6665 20.0003V18.667H25.3332V25.3337ZM26.6665 14.667C26.6665 15.0206 26.526 15.3598 26.276 15.6098C26.0259 15.8598 25.6868 16.0003 25.3332 16.0003H22.6665V14.667C22.6665 14.3134 22.526 13.9742 22.276 13.7242C22.0259 13.4741 21.6868 13.3337 21.3332 13.3337C20.9795 13.3337 20.6404 13.4741 20.3904 13.7242C20.1403 13.9742 19.9998 14.3134 19.9998 14.667V16.0003H11.9998V14.667C11.9998 14.3134 11.8594 13.9742 11.6093 13.7242C11.3593 13.4741 11.0201 13.3337 10.6665 13.3337C10.3129 13.3337 9.97374 13.4741 9.7237 13.7242C9.47365 13.9742 9.33317 14.3134 9.33317 14.667V16.0003H6.6665C6.31288 16.0003 5.97374 15.8598 5.7237 15.6098C5.47365 15.3598 5.33317 15.0206 5.33317 14.667V10.667H26.6665V14.667Z" fill="#11161A"/>
</svg>
