<svg width="40" height="40" viewBox="0 0 40 40" fill="none" xmlns="http://www.w3.org/2000/svg">
<path d="M20.0002 28.75H20.0252C20.054 28.75 20.0827 28.7475 20.1127 28.745L20.0002 28.75C20.2797 28.7492 20.551 28.6556 20.7715 28.4838L20.7815 28.475L20.884 28.3838L28.384 20.8838C28.6117 20.648 28.7377 20.3322 28.7348 20.0045C28.732 19.6768 28.6005 19.3632 28.3688 19.1315C28.137 18.8997 27.8235 18.7683 27.4957 18.7654C27.168 18.7626 26.8522 18.8886 26.6165 19.1163L21.2502 24.4825V12.5C21.2502 12.1685 21.1185 11.8505 20.8841 11.6161C20.6497 11.3817 20.3317 11.25 20.0002 11.25C19.6687 11.25 19.3508 11.3817 19.1163 11.6161C18.8819 11.8505 18.7502 12.1685 18.7502 12.5V24.4825L13.384 19.1163C13.2687 18.9969 13.1307 18.9016 12.9782 18.8361C12.8257 18.7706 12.6617 18.7361 12.4957 18.7347C12.3298 18.7332 12.1652 18.7649 12.0115 18.8277C11.8579 18.8906 11.7183 18.9834 11.601 19.1008C11.4836 19.2181 11.3908 19.3577 11.3279 19.5113C11.2651 19.6649 11.2335 19.8295 11.2349 19.9955C11.2364 20.1615 11.2708 20.3255 11.3363 20.478C11.4019 20.6305 11.4971 20.7684 11.6165 20.8838L19.1165 28.3838L19.219 28.475L19.229 28.4838L19.1165 28.3838C19.3459 28.6119 19.6543 28.743 19.9777 28.75H20.0002Z" fill="black"/>
</svg>
