<svg width="32" height="32" viewBox="0 0 32 32" fill="none" xmlns="http://www.w3.org/2000/svg">
<path d="M16.586 6C17.1164 6.00011 17.625 6.2109 18 6.586L23.414 12C23.7891 12.375 23.9999 12.8836 24 13.414V24C24 24.5304 23.7893 25.0391 23.4142 25.4142C23.0391 25.7893 22.5304 26 22 26H10C9.46957 26 8.96086 25.7893 8.58579 25.4142C8.21071 25.0391 8 24.5304 8 24V8C8 7.46957 8.21071 6.96086 8.58579 6.58579C8.96086 6.21071 9.46957 6 10 6H16.586ZM10 8V24H22V15H16.75C16.2859 15 15.8408 14.8156 15.5126 14.4874C15.1844 14.1592 15 13.7141 15 13.25V8H10ZM21.586 13L17 8.415V13H21.586Z" fill="black"/>
</svg>
