<svg width="40" height="40" viewBox="0 0 40 40" fill="none" xmlns="http://www.w3.org/2000/svg">
<path d="M28.75 19.9693V19.9443C28.75 19.9155 28.7475 19.8868 28.745 19.8568L28.75 19.9693C28.7492 19.6898 28.6556 19.4184 28.4837 19.198L28.475 19.188L28.3837 19.0855L20.8837 11.5855C20.648 11.3578 20.3322 11.2318 20.0045 11.2347C19.6768 11.2375 19.3632 11.369 19.1315 11.6007C18.8997 11.8325 18.7683 12.146 18.7654 12.4738C18.7626 12.8015 18.8886 13.1173 19.1162 13.353L24.4825 18.7193H12.5C12.1685 18.7193 11.8505 18.851 11.6161 19.0854C11.3817 19.3198 11.25 19.6377 11.25 19.9693C11.25 20.3008 11.3817 20.6187 11.6161 20.8531C11.8505 21.0876 12.1685 21.2193 12.5 21.2193H24.4825L19.1162 26.5855C18.9969 26.7008 18.9016 26.8387 18.8361 26.9913C18.7706 27.1438 18.7361 27.3078 18.7347 27.4738C18.7332 27.6397 18.7649 27.8043 18.8277 27.958C18.8906 28.1116 18.9834 28.2511 19.1008 28.3685C19.2181 28.4859 19.3577 28.5787 19.5113 28.6415C19.6649 28.7044 19.8295 28.736 19.9955 28.7346C20.1615 28.7331 20.3255 28.6986 20.478 28.6331C20.6305 28.5676 20.7684 28.4724 20.8837 28.353L28.3837 20.853L28.475 20.7505C28.4779 20.7472 28.4809 20.7439 28.4837 20.7405L28.3837 20.853C28.6119 20.6236 28.743 20.3152 28.75 19.9918V19.9693Z" fill="black"/>
</svg>
