<svg width="32" height="32" viewBox="0 0 32 32" fill="none" xmlns="http://www.w3.org/2000/svg">
<path d="M23.998 8C25.098 8 26 8.898 26 9.992V22.008C26.0001 22.2705 25.9484 22.5304 25.8477 22.7728C25.747 23.0152 25.5994 23.2353 25.4133 23.4204C25.2273 23.6055 25.0064 23.752 24.7635 23.8515C24.5206 23.951 24.2605 24.0014 23.998 24H8.002C7.47293 23.9995 6.96552 23.7898 6.59047 23.4166C6.21543 23.0434 6.00317 22.5371 6 22.008V9.992C6 8.888 6.891 8 8.002 8H23.998ZM24 9.992L8.002 10L8 22.008L23.998 22L24 9.992ZM14.831 13.08L18.721 15.48C19.093 15.71 19.093 16.29 18.721 16.52L14.831 18.92C14.461 19.149 14 18.86 14 18.4V13.6C14 13.14 14.46 12.851 14.831 13.08Z" fill="black"/>
</svg>
