<svg width="40" height="40" viewBox="0 0 40 40" fill="none" xmlns="http://www.w3.org/2000/svg">
<path d="M20.8838 12.8663L27.1338 19.1163C27.3614 19.352 27.4874 19.6678 27.4846 19.9955C27.4817 20.3232 27.3503 20.6368 27.1185 20.8685C26.8868 21.1003 26.5732 21.2317 26.2455 21.2346C25.9178 21.2374 25.602 21.1114 25.3662 20.8838L21.25 16.7675V31.25C21.25 31.5815 21.1183 31.8995 20.8839 32.1339C20.6495 32.3683 20.3315 32.5 20 32.5C19.6685 32.5 19.3505 32.3683 19.1161 32.1339C18.8817 31.8995 18.75 31.5815 18.75 31.25V16.7675L14.6337 20.8838C14.398 21.1114 14.0822 21.2374 13.7545 21.2346C13.4268 21.2317 13.1132 21.1003 12.8815 20.8685C12.6497 20.6368 12.5183 20.3232 12.5154 19.9955C12.5126 19.6678 12.6386 19.352 12.8663 19.1163L19.1163 12.8663C19.3507 12.6319 19.6685 12.5003 20 12.5003C20.3315 12.5003 20.6493 12.6319 20.8838 12.8663ZM31.25 7.5C31.5815 7.5 31.8995 7.6317 32.1339 7.86612C32.3683 8.10054 32.5 8.41848 32.5 8.75C32.5 9.08152 32.3683 9.39946 32.1339 9.63388C31.8995 9.8683 31.5815 10 31.25 10H8.75C8.41848 10 8.10054 9.8683 7.86612 9.63388C7.6317 9.39946 7.5 9.08152 7.5 8.75C7.5 8.41848 7.6317 8.10054 7.86612 7.86612C8.10054 7.6317 8.41848 7.5 8.75 7.5H31.25Z" fill="black"/>
</svg>
