<svg width="24" height="24" viewBox="0 0 24 24" fill="none" xmlns="http://www.w3.org/2000/svg">
<path d="M12.2197 5.46971C12.3604 5.32911 12.5511 5.25012 12.75 5.25012C12.9489 5.25012 13.1396 5.32911 13.2803 5.46971L19.2803 11.4697C19.4209 11.6104 19.4998 11.8011 19.4998 12C19.4998 12.1988 19.4209 12.3896 19.2803 12.5302L13.2803 18.5302C13.1388 18.6668 12.9493 18.7424 12.7527 18.7407C12.5561 18.739 12.3679 18.6601 12.2289 18.5211C12.0898 18.382 12.011 18.1939 12.0092 17.9973C12.0075 17.8006 12.0831 17.6112 12.2197 17.4697L16.9387 12.75H5.25C5.0663 12.7499 4.889 12.6825 4.75172 12.5604C4.61444 12.4384 4.52674 12.2702 4.50525 12.0877L4.5 12C4.5 11.801 4.57902 11.6103 4.71967 11.4696C4.86032 11.329 5.05109 11.25 5.25 11.25H16.9387L12.2197 6.53021C12.0906 6.40107 12.013 6.22924 12.0016 6.04697C11.9901 5.8647 12.0456 5.68451 12.1575 5.54021L12.2197 5.46971Z" fill="black"/>
</svg>
