<svg width="32" height="32" viewBox="0 0 32 32" fill="none" xmlns="http://www.w3.org/2000/svg">
<path d="M15 24C15 24.2652 15.1054 24.5196 15.2929 24.7071C15.4804 24.8946 15.7348 25 16 25C16.2652 25 16.5196 24.8946 16.7071 24.7071C16.8946 24.5196 17 24.2652 17 24H19C19 24.7957 18.6839 25.5587 18.1213 26.1213C17.5587 26.6839 16.7956 27 16 27C15.2044 27 14.4413 26.6839 13.8787 26.1213C13.3161 25.5587 13 24.7957 13 24H15ZM16 5C16.552 5 17 5.443 17 5.999V7.001L16.998 7.046C21.115 7.46 24 10.65 24 15V17C24 18.67 24.22 19.306 24.747 19.898C24.793 19.95 24.842 20.003 24.951 20.121C25.69 20.931 26 21.644 26 23C26 23.2652 25.8946 23.5196 25.7071 23.7071C25.5196 23.8946 25.2652 24 25 24H7C6.73478 24 6.48043 23.8946 6.29289 23.7071C6.10536 23.5196 6 23.2652 6 23C6 21.644 6.31 20.93 7.05 20.121L7.253 19.898C7.779 19.306 8 18.671 8 17V15C8 10.682 10.866 7.524 15.003 7.06C15.0005 7.04011 14.9995 7.02005 15 7V5.999C14.9997 5.86766 15.0254 5.73755 15.0756 5.61616C15.1258 5.49477 15.1994 5.38449 15.2924 5.29166C15.3853 5.19883 15.4956 5.12528 15.6171 5.07522C15.7385 5.02517 15.8687 4.99961 16 5ZM16.077 9C12.467 9 10 11.43 10 15V17C10 19.142 9.614 20.252 8.747 21.227C8.69 21.292 8.627 21.359 8.525 21.471C8.347 21.666 8.225 21.821 8.145 22H23.855C23.775 21.822 23.653 21.666 23.475 21.47C23.4003 21.3897 23.3263 21.3086 23.253 21.227C22.386 20.252 22 19.142 22 17V15C22 11.436 19.572 9 16.077 9Z" fill="black"/>
</svg>
