<svg width="40" height="40" viewBox="0 0 40 40" fill="none" xmlns="http://www.w3.org/2000/svg">
<path d="M19.9998 11.25H19.9748C19.946 11.25 19.9173 11.2525 19.8873 11.255L19.9998 11.25C19.7203 11.2508 19.449 11.3444 19.2285 11.5163L19.2185 11.525L19.116 11.6163L11.616 19.1163C11.3883 19.352 11.2623 19.6678 11.2652 19.9955C11.268 20.3232 11.3995 20.6368 11.6313 20.8685C11.863 21.1003 12.1765 21.2317 12.5043 21.2346C12.832 21.2374 13.1478 21.1114 13.3835 20.8838L18.7498 15.5175V27.5C18.7498 27.8315 18.8815 28.1495 19.1159 28.3839C19.3503 28.6183 19.6683 28.75 19.9998 28.75C20.3313 28.75 20.6492 28.6183 20.8837 28.3839C21.1181 28.1495 21.2498 27.8315 21.2498 27.5V15.5175L26.616 20.8838C26.7313 21.0031 26.8693 21.0984 27.0218 21.1639C27.1743 21.2294 27.3383 21.2639 27.5043 21.2653C27.6702 21.2668 27.8348 21.2351 27.9885 21.1723C28.1421 21.1094 28.2817 21.0166 28.399 20.8992C28.5164 20.7819 28.6092 20.6423 28.6721 20.4887C28.7349 20.3351 28.7665 20.1705 28.7651 20.0045C28.7636 19.8385 28.7292 19.6745 28.6637 19.522C28.5981 19.3695 28.5029 19.2316 28.3835 19.1163L20.8835 11.6163L20.781 11.525C20.7777 11.5221 20.7744 11.5191 20.771 11.5163L20.8835 11.6163C20.6541 11.3881 20.3457 11.257 20.0223 11.25H19.9998Z" fill="black"/>
</svg>
