<svg width="24" height="24" viewBox="0 0 24 24" fill="none" xmlns="http://www.w3.org/2000/svg">
<path d="M16.125 4.5C17.7345 4.5 18.9607 4.8165 19.8465 5.361C20.4277 5.71875 20.7667 6.1065 20.9205 6.41475C20.9727 6.51882 20.9999 6.63359 21 6.75V18.75C21 19.5413 19.9328 19.7933 19.5795 19.0853C19.5833 19.0943 19.5645 19.0658 19.5158 19.0095C19.383 18.864 19.2293 18.7391 19.0597 18.639C18.4222 18.246 17.4683 18 16.125 18C14.7817 18 13.8278 18.246 13.1903 18.639C12.9878 18.7627 12.8392 18.8895 12.7343 19.0095C12.7159 19.0305 12.6982 19.052 12.681 19.074C12.6361 19.1716 12.5694 19.2575 12.486 19.3253C12.3637 19.4315 12.2091 19.4931 12.0472 19.5H11.9528C11.7908 19.4931 11.636 19.4318 11.5133 19.326C11.4302 19.2576 11.3636 19.1715 11.3182 19.074C11.3016 19.0518 11.2841 19.0303 11.2657 19.0095C11.133 18.864 10.9793 18.7391 10.8098 18.639C10.1723 18.246 9.21825 18 7.875 18C6.53175 18 5.57775 18.246 4.94025 18.639C4.73775 18.7627 4.58925 18.8895 4.48425 19.0095C4.4355 19.0658 4.41675 19.0943 4.4205 19.0853C4.06725 19.7933 3 19.5413 3 18.75V6.75C3.00012 6.63359 3.02734 6.51882 3.0795 6.41475C3.23325 6.10725 3.57225 5.71875 4.1535 5.361C5.04 4.8165 6.2655 4.5 7.875 4.5C9.4845 4.5 10.7108 4.8165 11.5965 5.361C11.7465 5.454 11.8815 5.5485 12.0015 5.64375C12.1293 5.54098 12.2636 5.44653 12.4035 5.361C13.29 4.8165 14.5155 4.5 16.125 4.5ZM7.875 6C6.53175 6 5.57775 6.246 4.94025 6.639C4.77771 6.7353 4.62952 6.85396 4.5 6.9915V17.169C5.34975 16.7423 6.465 16.5 7.875 16.5C9.285 16.5 10.4002 16.7423 11.25 17.169V6.9915C11.1205 6.85396 10.9723 6.7353 10.8098 6.639C10.1723 6.246 9.21825 6 7.875 6ZM16.125 6C14.7817 6 13.8278 6.246 13.1903 6.639C13.0277 6.7353 12.8795 6.85396 12.75 6.9915V17.169C13.5997 16.7423 14.715 16.5 16.125 16.5C17.535 16.5 18.6503 16.7423 19.5 17.169V6.9915C19.3705 6.85396 19.2223 6.7353 19.0597 6.639C18.4222 6.246 17.4683 6 16.125 6Z" fill="black"/>
</svg>
