<svg width="32" height="32" viewBox="0 0 32 32" fill="none" xmlns="http://www.w3.org/2000/svg">
<path d="M16 9C16.2652 9 16.5196 9.10536 16.7071 9.29289C16.8946 9.48043 17 9.73478 17 10V15H22C22.2449 15 22.4813 15.09 22.6644 15.2527C22.8474 15.4155 22.9643 15.6397 22.993 15.883L23 16C23 16.2652 22.8946 16.5196 22.7071 16.7071C22.5196 16.8946 22.2652 17 22 17H17V22C17 22.2449 16.91 22.4813 16.7473 22.6644C16.5845 22.8474 16.3603 22.9643 16.117 22.993L16 23C15.7348 23 15.4804 22.8946 15.2929 22.7071C15.1054 22.5196 15 22.2652 15 22V17H10C9.75507 17 9.51866 16.91 9.33563 16.7473C9.15259 16.5845 9.03566 16.3603 9.007 16.117L9 16C9 15.7348 9.10536 15.4804 9.29289 15.2929C9.48043 15.1054 9.73478 15 10 15H15V10C15 9.75507 15.09 9.51866 15.2527 9.33563C15.4155 9.15259 15.6397 9.03566 15.883 9.007L16 9Z" fill="black"/>
</svg>
