<svg width="24" height="24" viewBox="0 0 24 24" fill="none" xmlns="http://www.w3.org/2000/svg">
<path d="M6 15.75C5.80109 15.75 5.61032 15.829 5.46967 15.9697C5.32902 16.1103 5.25 16.3011 5.25 16.5C5.25 16.6989 5.32902 16.8897 5.46967 17.0303C5.61032 17.171 5.80109 17.25 6 17.25H18C18.1989 17.25 18.3897 17.171 18.5303 17.0303C18.671 16.8897 18.75 16.6989 18.75 16.5C18.75 16.3011 18.671 16.1103 18.5303 15.9697C18.3897 15.829 18.1989 15.75 18 15.75H6ZM6 11.25C5.80109 11.25 5.61032 11.329 5.46967 11.4697C5.32902 11.6103 5.25 11.8011 5.25 12C5.25 12.1989 5.32902 12.3897 5.46967 12.5303C5.61032 12.671 5.80109 12.75 6 12.75H18C18.1989 12.75 18.3897 12.671 18.5303 12.5303C18.671 12.3897 18.75 12.1989 18.75 12C18.75 11.8011 18.671 11.6103 18.5303 11.4697C18.3897 11.329 18.1989 11.25 18 11.25H6ZM6 6.75C5.80109 6.75 5.61032 6.82902 5.46967 6.96967C5.32902 7.11032 5.25 7.30109 5.25 7.5C5.25 7.69891 5.32902 7.88968 5.46967 8.03033C5.61032 8.17098 5.80109 8.25 6 8.25H18C18.1989 8.25 18.3897 8.17098 18.5303 8.03033C18.671 7.88968 18.75 7.69891 18.75 7.5C18.75 7.30109 18.671 7.11032 18.5303 6.96967C18.3897 6.82902 18.1989 6.75 18 6.75H6Z" fill="black"/>
</svg>
