<svg width="40" height="40" viewBox="0 0 40 40" fill="none" xmlns="http://www.w3.org/2000/svg">
<path d="M20 26.25C20.663 26.25 21.2989 26.5134 21.7678 26.9822C22.2366 27.4511 22.5 28.087 22.5 28.75C22.5 29.413 22.2366 30.0489 21.7678 30.5178C21.2989 30.9866 20.663 31.25 20 31.25C19.337 31.25 18.7011 30.9866 18.2322 30.5178C17.7634 30.0489 17.5 29.413 17.5 28.75C17.5 28.087 17.7634 27.4511 18.2322 26.9822C18.7011 26.5134 19.337 26.25 20 26.25ZM20 17.5C20.663 17.5 21.2989 17.7634 21.7678 18.2322C22.2366 18.7011 22.5 19.337 22.5 20C22.5 20.663 22.2366 21.2989 21.7678 21.7678C21.2989 22.2366 20.663 22.5 20 22.5C19.337 22.5 18.7011 22.2366 18.2322 21.7678C17.7634 21.2989 17.5 20.663 17.5 20C17.5 19.337 17.7634 18.7011 18.2322 18.2322C18.7011 17.7634 19.337 17.5 20 17.5ZM20 8.75C20.663 8.75 21.2989 9.01339 21.7678 9.48223C22.2366 9.95107 22.5 10.587 22.5 11.25C22.5 11.913 22.2366 12.5489 21.7678 13.0178C21.2989 13.4866 20.663 13.75 20 13.75C19.337 13.75 18.7011 13.4866 18.2322 13.0178C17.7634 12.5489 17.5 11.913 17.5 11.25C17.5 10.587 17.7634 9.95107 18.2322 9.48223C18.7011 9.01339 19.337 8.75 20 8.75Z" fill="black"/>
</svg>
