<svg width="32" height="32" viewBox="0 0 32 32" fill="none" xmlns="http://www.w3.org/2000/svg">
<path d="M24.007 9C25.108 9 26 9.904 26 11.002V20.998C26 22.1 25.11 23 24.007 23H7.993C7.4636 22.9976 6.95669 22.7856 6.58319 22.4105C6.20968 22.0353 5.99999 21.5274 6 20.998V11.002C6 9.9 6.89 9 7.993 9H24.007ZM7.999 11.747L8 20.997L24.001 21L24 11.39L19.805 15.397L21.707 17.293C21.8792 17.4652 21.9826 17.6943 21.9979 17.9373C22.0132 18.1803 21.9393 18.4206 21.79 18.613L21.707 18.707C21.5348 18.8792 21.3057 18.9826 21.0627 18.9979C20.8197 19.0132 20.5794 18.9393 20.387 18.79L20.293 18.707L18.193 16.605L16.6 17.8C16.4449 17.9164 16.2592 17.9852 16.0657 17.998C15.8722 18.0108 15.6791 17.967 15.51 17.872L15.4 17.8L13.8 16.6L13.756 16.655L13.707 16.707L11.707 18.707C11.527 18.8863 11.2856 18.9905 11.0316 18.9982C10.7777 19.006 10.5303 18.9168 10.3397 18.7488C10.1492 18.5807 10.0297 18.3464 10.0056 18.0935C9.98151 17.8406 10.0546 17.588 10.21 17.387L10.293 17.293L12.191 15.393L7.999 11.747ZM16 16L23 11.002L9 11L16 16Z" fill="black"/>
</svg>
