<svg width="24" height="24" viewBox="0 0 24 24" fill="none" xmlns="http://www.w3.org/2000/svg">
<path d="M14.2523 4.5C15.0802 4.5 15.7463 5.1675 15.75 6H17.25C17.6478 6 18.0294 6.15804 18.3107 6.43934C18.592 6.72064 18.75 7.10218 18.75 7.5V18C18.75 18.3978 18.592 18.7794 18.3107 19.0607C18.0294 19.342 17.6478 19.5 17.25 19.5H6.75C6.35218 19.5 5.97064 19.342 5.68934 19.0607C5.40804 18.7794 5.25 18.3978 5.25 18V7.5C5.25 7.10218 5.40804 6.72064 5.68934 6.43934C5.97064 6.15804 6.35218 6 6.75 6H8.25L8.25375 5.895C8.2815 5.51713 8.45073 5.16362 8.72766 4.90503C9.0046 4.64645 9.36886 4.50181 9.74775 4.5H14.2523ZM8.25 7.5H6.75V18H17.25V7.5H15.75L15.7463 7.605C15.7185 7.98287 15.5493 8.33638 15.2723 8.59497C14.9954 8.85355 14.6311 8.99819 14.2523 9H9.74775C9.5509 8.9999 9.356 8.96102 9.17418 8.88557C8.99237 8.81013 8.82719 8.6996 8.6881 8.5603C8.54902 8.42101 8.43874 8.25567 8.36356 8.07374C8.28839 7.89181 8.2498 7.69685 8.25 7.5ZM12.75 14.25C12.9489 14.25 13.1397 14.329 13.2803 14.4697C13.421 14.6103 13.5 14.8011 13.5 15C13.5 15.1989 13.421 15.3897 13.2803 15.5303C13.1397 15.671 12.9489 15.75 12.75 15.75H9C8.80109 15.75 8.61032 15.671 8.46967 15.5303C8.32902 15.3897 8.25 15.1989 8.25 15C8.25 14.8011 8.32902 14.6103 8.46967 14.4697C8.61032 14.329 8.80109 14.25 9 14.25H12.75ZM15 11.25C15.1989 11.25 15.3897 11.329 15.5303 11.4697C15.671 11.6103 15.75 11.8011 15.75 12C15.75 12.1989 15.671 12.3897 15.5303 12.5303C15.3897 12.671 15.1989 12.75 15 12.75H9C8.80109 12.75 8.61032 12.671 8.46967 12.5303C8.32902 12.3897 8.25 12.1989 8.25 12C8.25 11.8011 8.32902 11.6103 8.46967 11.4697C8.61032 11.329 8.80109 11.25 9 11.25H15ZM14.2515 6H9.74775C9.75375 6 9.75 6.00375 9.75 6.0075V7.4925C9.75 7.49775 9.75 7.5 9.7485 7.5H14.2523C14.2463 7.5 14.25 7.49625 14.25 7.4925V6.0075C14.25 6.00225 14.25 6 14.2515 6Z" fill="black"/>
</svg>
