<svg width="40" height="40" viewBox="0 0 40 40" fill="none" xmlns="http://www.w3.org/2000/svg">
<path d="M14.9998 25.0002C14.6702 25.0002 14.348 25.0979 14.0739 25.281C13.7998 25.4642 13.5862 25.7245 13.46 26.029C13.3339 26.3336 13.3009 26.6687 13.3652 26.992C13.4295 27.3153 13.5882 27.6123 13.8213 27.8453C14.0544 28.0784 14.3514 28.2372 14.6747 28.3015C14.998 28.3658 15.3331 28.3328 15.6376 28.2066C15.9422 28.0805 16.2025 27.8669 16.3856 27.5928C16.5688 27.3187 16.6665 26.9965 16.6665 26.6668C16.6665 26.2248 16.4909 25.8009 16.1783 25.4883C15.8658 25.1758 15.4419 25.0002 14.9998 25.0002ZM3.33317 23.3335C2.89114 23.3335 2.46722 23.5091 2.15466 23.8217C1.8421 24.1342 1.6665 24.5581 1.6665 25.0002V28.3335C1.6665 28.7755 1.8421 29.1994 2.15466 29.512C2.46722 29.8246 2.89114 30.0002 3.33317 30.0002C3.7752 30.0002 4.19912 29.8246 4.51168 29.512C4.82424 29.1994 4.99984 28.7755 4.99984 28.3335V25.0002C4.99984 24.5581 4.82424 24.1342 4.51168 23.8217C4.19912 23.5091 3.7752 23.3335 3.33317 23.3335ZM36.6665 23.3335C36.2245 23.3335 35.8005 23.5091 35.488 23.8217C35.1754 24.1342 34.9998 24.5581 34.9998 25.0002V28.3335C34.9998 28.7755 35.1754 29.1994 35.488 29.512C35.8005 29.8246 36.2245 30.0002 36.6665 30.0002C37.1085 30.0002 37.5325 29.8246 37.845 29.512C38.1576 29.1994 38.3332 28.7755 38.3332 28.3335V25.0002C38.3332 24.5581 38.1576 24.1342 37.845 23.8217C37.5325 23.5091 37.1085 23.3335 36.6665 23.3335ZM28.3332 11.6668H21.6665V9.5335C22.1703 9.24265 22.5892 8.82502 22.8816 8.32211C23.174 7.81921 23.3297 7.24854 23.3332 6.66683C23.3332 5.78277 22.982 4.93493 22.3569 4.30981C21.7317 3.68469 20.8839 3.3335 19.9998 3.3335C19.1158 3.3335 18.2679 3.68469 17.6428 4.30981C17.0177 4.93493 16.6665 5.78277 16.6665 6.66683C16.67 7.24854 16.8257 7.81921 17.1181 8.32211C17.4105 8.82502 17.8294 9.24265 18.3332 9.5335V11.6668H11.6665C10.3404 11.6668 9.06865 12.1936 8.13097 13.1313C7.19329 14.069 6.6665 15.3407 6.6665 16.6668V31.6668C6.6665 32.9929 7.19329 34.2647 8.13097 35.2024C9.06865 36.14 10.3404 36.6668 11.6665 36.6668H28.3332C29.6593 36.6668 30.931 36.14 31.8687 35.2024C32.8064 34.2647 33.3332 32.9929 33.3332 31.6668V16.6668C33.3332 15.3407 32.8064 14.069 31.8687 13.1313C30.931 12.1936 29.6593 11.6668 28.3332 11.6668ZM22.8665 15.0002L22.0332 18.3335H17.9665L17.1332 15.0002H22.8665ZM29.9998 31.6668C29.9998 32.1089 29.8242 32.5328 29.5117 32.8453C29.1991 33.1579 28.7752 33.3335 28.3332 33.3335H11.6665C11.2245 33.3335 10.8006 33.1579 10.488 32.8453C10.1754 32.5328 9.99984 32.1089 9.99984 31.6668V24.1668V16.6668C9.99984 16.2248 10.1754 15.8009 10.488 15.4883C10.8006 15.1758 11.2245 15.0002 11.6665 15.0002H13.6998L14.9998 20.4002C15.0911 20.77 15.3062 21.0973 15.6095 21.3278C15.9127 21.5583 16.2858 21.6779 16.6665 21.6668H23.3332C23.7139 21.6779 24.0869 21.5583 24.3902 21.3278C24.6934 21.0973 24.9086 20.77 24.9998 20.4002L26.2998 15.0002H28.3332C28.7752 15.0002 29.1991 15.1758 29.5117 15.4883C29.8242 15.8009 29.9998 16.2248 29.9998 16.6668V31.6668ZM24.9998 25.0002C24.6702 25.0002 24.348 25.0979 24.0739 25.281C23.7998 25.4642 23.5862 25.7245 23.46 26.029C23.3339 26.3336 23.3009 26.6687 23.3652 26.992C23.4295 27.3153 23.5882 27.6123 23.8213 27.8453C24.0544 28.0784 24.3514 28.2372 24.6747 28.3015C24.998 28.3658 25.3331 28.3328 25.6376 28.2066C25.9422 28.0805 26.2025 27.8669 26.3856 27.5928C26.5688 27.3187 26.6665 26.9965 26.6665 26.6668C26.6665 26.2248 26.4909 25.8009 26.1783 25.4883C25.8658 25.1758 25.4419 25.0002 24.9998 25.0002Z" fill="#11161A"/>
</svg>
