<svg width="24" height="24" viewBox="0 0 24 24" fill="none" xmlns="http://www.w3.org/2000/svg">
<path d="M20.25 5.25C20.9895 5.25 21.2685 6.19275 20.6947 6.6045L20.622 6.651L15.372 9.651C15.2874 9.69955 15.1942 9.73114 15.0975 9.744L15 9.75H5.33999C5.24159 9.74996 5.14464 9.77384 5.0575 9.81956C4.97036 9.86529 4.89563 9.9315 4.83974 10.0125L4.79624 10.0868C4.73169 10.2159 4.69808 10.3583 4.69808 10.5026C4.69808 10.647 4.73169 10.7894 4.79624 10.9185C4.88624 11.0985 5.05799 11.22 5.25374 11.2477L5.30399 11.2508L5.33999 11.25L14.8005 11.2492L19.8757 8.3295C19.9898 8.26383 20.1191 8.22933 20.2507 8.22945C20.3823 8.22958 20.5116 8.26433 20.6255 8.33022C20.7394 8.39611 20.834 8.49082 20.8997 8.60483C20.9655 8.71884 21 8.84815 21 8.97975V12C21 12.1321 20.9652 12.2619 20.8989 12.3762C20.8327 12.4905 20.7374 12.5853 20.6227 12.651L15.3727 15.6547C15.2592 15.7197 15.1308 15.7538 15 15.7537H5.30999L5.33999 15.75C5.24159 15.75 5.14464 15.7738 5.0575 15.8196C4.97036 15.8653 4.89563 15.9315 4.83974 16.0125L4.79624 16.0868C4.73169 16.2159 4.69808 16.3583 4.69808 16.5026C4.69808 16.647 4.73169 16.7894 4.79624 16.9185C4.88624 17.0985 5.05799 17.22 5.25374 17.2477L5.33849 17.2537L14.8005 17.253L19.878 14.349C20.0375 14.2579 20.2248 14.2286 20.4046 14.2664C20.5843 14.3043 20.7438 14.4068 20.853 14.5545L20.901 14.6273C20.9923 14.7868 21.0218 14.9743 20.9839 15.1542C20.946 15.3341 20.8434 15.4938 20.6955 15.603L20.6227 15.651L15.3727 18.6547C15.2879 18.7034 15.1944 18.735 15.0975 18.7477L15 18.7537H5.33849C4.9473 18.7536 4.56388 18.6445 4.23114 18.4388C3.8984 18.2331 3.62949 17.9389 3.45449 17.589C3.2983 17.2766 3.21129 16.9342 3.19938 16.5852C3.18748 16.2361 3.25096 15.8886 3.38549 15.5662L3.45299 15.4177C3.52799 15.267 3.62024 15.1283 3.72599 15.0023C3.61944 14.8757 3.5283 14.737 3.45449 14.589C3.28591 14.252 3.19801 13.8804 3.19775 13.5036C3.19749 13.1267 3.28488 12.755 3.45299 12.4177C3.52799 12.2677 3.62024 12.1283 3.72599 12.0023C3.61948 11.8757 3.52834 11.737 3.45449 11.589C3.2983 11.2766 3.21129 10.9342 3.19938 10.5852C3.18748 10.2361 3.25096 9.88856 3.38549 9.56625L3.45299 9.41775C3.59634 9.13021 3.8035 8.87924 4.05866 8.684C4.31382 8.48876 4.61023 8.35443 4.92524 8.29125L5.04224 8.271L11.6947 5.3145C11.7588 5.28622 11.8264 5.26703 11.8957 5.2575L12 5.25H20.25ZM19.5 10.2922L15.3727 12.6547C15.2879 12.7034 15.1944 12.735 15.0975 12.7477L15 12.7537H5.33849L5.30549 12.7507C5.19826 12.757 5.09457 12.7915 5.00499 12.8507C4.91541 12.91 4.84313 12.992 4.79549 13.0883C4.73118 13.2172 4.6977 13.3593 4.6977 13.5034C4.6977 13.6475 4.73118 13.7896 4.79549 13.9185C4.846 14.0192 4.92354 14.104 5.01943 14.1632C5.11532 14.2224 5.2258 14.2537 5.33849 14.2537L5.30999 14.2507L5.33999 14.25H14.799L19.5 11.5455V10.2922ZM17.4247 6.75H12.1575L8.7825 8.25H14.799L17.4247 6.75Z" fill="black"/>
</svg>
