<svg width="40" height="40" viewBox="0 0 40 40" fill="none" xmlns="http://www.w3.org/2000/svg">
<path d="M26.25 20C26.25 19.337 26.5134 18.7011 26.9822 18.2322C27.4511 17.7634 28.087 17.5 28.75 17.5C29.413 17.5 30.0489 17.7634 30.5178 18.2322C30.9866 18.7011 31.25 19.337 31.25 20C31.25 20.663 30.9866 21.2989 30.5178 21.7678C30.0489 22.2366 29.413 22.5 28.75 22.5C28.087 22.5 27.4511 22.2366 26.9822 21.7678C26.5134 21.2989 26.25 20.663 26.25 20ZM17.5 20C17.5 19.337 17.7634 18.7011 18.2322 18.2322C18.7011 17.7634 19.337 17.5 20 17.5C20.663 17.5 21.2989 17.7634 21.7678 18.2322C22.2366 18.7011 22.5 19.337 22.5 20C22.5 20.663 22.2366 21.2989 21.7678 21.7678C21.2989 22.2366 20.663 22.5 20 22.5C19.337 22.5 18.7011 22.2366 18.2322 21.7678C17.7634 21.2989 17.5 20.663 17.5 20ZM8.75 20C8.75 19.337 9.01339 18.7011 9.48223 18.2322C9.95107 17.7634 10.587 17.5 11.25 17.5C11.913 17.5 12.5489 17.7634 13.0178 18.2322C13.4866 18.7011 13.75 19.337 13.75 20C13.75 20.663 13.4866 21.2989 13.0178 21.7678C12.5489 22.2366 11.913 22.5 11.25 22.5C10.587 22.5 9.95107 22.2366 9.48223 21.7678C9.01339 21.2989 8.75 20.663 8.75 20Z" fill="black"/>
</svg>
