<svg width="32" height="32" viewBox="0 0 32 32" fill="none" xmlns="http://www.w3.org/2000/svg">
<path d="M16.293 7.29303C16.4805 7.10556 16.7348 7.00024 17 7.00024C17.2652 7.00024 17.5195 7.10556 17.707 7.29303L25.707 15.293C25.8945 15.4806 25.9998 15.7349 25.9998 16C25.9998 16.2652 25.8945 16.5195 25.707 16.707L17.707 24.707C17.5184 24.8892 17.2658 24.99 17.0036 24.9877C16.7414 24.9854 16.4906 24.8803 16.3052 24.6948C16.1198 24.5094 16.0146 24.2586 16.0123 23.9964C16.01 23.7342 16.1108 23.4816 16.293 23.293L22.585 17H7C6.75507 17 6.51866 16.9101 6.33563 16.7473C6.15259 16.5846 6.03566 16.3603 6.007 16.117L6 16C6 15.7348 6.10536 15.4805 6.29289 15.2929C6.48043 15.1054 6.73478 15 7 15H22.585L16.293 8.70703C16.1208 8.53484 16.0174 8.30574 16.0021 8.06271C15.9868 7.81969 16.0607 7.57943 16.21 7.38703L16.293 7.29303Z" fill="black"/>
</svg>
