<svg width="24" height="24" viewBox="0 0 24 24" fill="none" xmlns="http://www.w3.org/2000/svg">
<path d="M14.2523 4.5C15.0825 4.5 15.75 5.17125 15.75 6.0075V7.5H18.756C19.584 7.5 20.25 8.17575 20.25 9.00525V17.9948C20.25 18.392 20.093 18.7732 19.8131 19.0552C19.5333 19.3371 19.1533 19.497 18.756 19.5H5.24401C5.04706 19.4993 4.85218 19.4598 4.6705 19.3838C4.48882 19.3078 4.32389 19.1967 4.18515 19.0569C4.04641 18.9171 3.93657 18.7514 3.86191 18.5691C3.78725 18.3869 3.74922 18.1917 3.75001 17.9948V9.00525C3.75001 8.178 4.42351 7.5 5.24401 7.5H8.25001V6.0075C8.25001 5.17725 8.92276 4.5 9.74776 4.5H14.2523ZM18.7493 10.722L18.66 10.8142C17.025 12.597 14.79 13.5 12 13.5C9.15751 13.5 6.89251 12.564 5.25001 10.7145L5.25076 11.8575V16.14L5.25001 17.9948L5.32276 17.9955H5.60326L5.67076 17.9963H6.19576L6.30451 17.997H7.22476L7.37926 17.9977L9.03526 17.9985H9.24901L11.979 17.9993H12.2633L18.3615 18H18.756L18.7545 17.925V17.8545L18.753 17.703V17.5718L18.7523 17.4975V17.331L18.7515 17.2388V16.9268L18.75 16.8105V16.4272V16.287V15.324L18.7493 15.1425V11.1487V10.722ZM11.7368 9.00075H5.80951C7.19926 11.0123 9.23851 12 12 12C14.76 12 16.7985 11.013 18.1883 9.00375H18.2093H17.8043L17.6955 9.003H16.7753L16.6208 9.00225L14.9648 9.0015H14.751L12.021 9.00075H11.7368ZM14.2515 6H9.74776C9.75376 6 9.75001 6.00375 9.75001 6.0075V7.4925C9.75001 7.49775 9.75001 7.5 9.74851 7.5H14.2523C14.2463 7.5 14.25 7.49625 14.25 7.4925V6.0075C14.25 6.00225 14.25 6 14.2515 6Z" fill="black"/>
</svg>
