<svg width="24" height="24" viewBox="0 0 24 24" fill="none" xmlns="http://www.w3.org/2000/svg">
<path d="M12.9825 4.5C13.9905 4.5 14.8462 5.11425 15.2587 6.03525C15.4027 6.357 15.4635 6.68025 15.5392 7.36725L15.696 8.93025L17.4675 9.08775C17.7624 9.11692 18.0486 9.20396 18.3099 9.34389C18.5711 9.48382 18.8021 9.67389 18.9898 9.90322C19.1775 10.1326 19.3181 10.3966 19.4036 10.6804C19.489 10.9641 19.5177 11.2619 19.488 11.5568L19.2592 13.6852C18.8542 17.3025 18.6015 18.3817 17.9482 18.9075C17.5125 19.2585 17.1007 19.4513 16.6072 19.4925L16.452 19.5L16.2195 19.497H11.2965L11.2095 19.494L11.1217 19.4895L11.034 19.482C10.5849 19.4305 10.1615 19.2459 9.81825 18.9517C9.48825 19.2562 9.06075 19.4565 8.577 19.494L8.4135 19.5H6.6285C5.44575 19.5 4.5645 18.5347 4.50375 17.415L4.5 17.289V11.2095C4.5 10.0793 5.3385 9.0735 6.498 9.003L6.62775 9H8.4135C8.8005 9 9.1545 9.1035 9.45825 9.28125L9.678 9.129C10.1197 8.823 10.2937 8.54025 10.314 7.82775L10.3162 7.67925C10.3162 6.9045 10.3747 6.50175 10.6057 6.04275L10.7835 5.72325C11.031 5.289 11.4052 4.93875 11.8605 4.72875C12.228 4.56075 12.5887 4.5 12.9825 4.5ZM8.4135 10.5H6.6285L6.55125 10.5052C6.27375 10.5465 6.05025 10.803 6.015 11.1218L6.0105 11.2102V17.2897L6.015 17.3783C6.05025 17.697 6.27375 17.9535 6.55125 17.9948L6.62775 18H8.4135L8.49075 17.9948C8.76825 17.9535 8.991 17.697 9.02625 17.3783L9.0315 17.2897V11.2102L9.02625 11.1218C8.991 10.803 8.76825 10.5465 8.49075 10.5052L8.4135 10.5ZM12.9825 6C12.8145 5.99451 12.6474 6.02573 12.4927 6.0915C12.3249 6.1718 12.1864 6.30268 12.0967 6.46575L11.9707 6.68625C11.8845 6.849 11.8417 6.9975 11.8297 7.40325L11.8267 7.67925C11.8267 9.12675 11.289 9.81525 10.632 10.2952L10.542 10.359V17.247L10.5465 17.334C10.584 17.6497 10.818 17.9055 11.124 17.9767L11.2087 17.9918L11.2965 17.997H16.2855L16.404 18L16.4587 17.9985C16.605 17.991 16.7437 17.946 16.9972 17.7428C17.2357 17.5507 17.565 15.4373 17.9857 11.4023C18.0045 11.2189 17.9551 11.035 17.8469 10.8857C17.7388 10.7364 17.5794 10.6322 17.3992 10.593L17.301 10.578L14.358 10.3185L14.3317 10.1648L14.2822 9.83325C14.1172 8.628 14.0377 7.0005 13.8787 6.645C13.6972 6.23925 13.3612 6 12.9825 6Z" fill="black"/>
</svg>
