<svg width="40" height="40" viewBox="0 0 40 40" fill="none" xmlns="http://www.w3.org/2000/svg">
<path d="M33.4126 19.9963C33.651 20.4074 33.7673 20.878 33.7479 21.3529C33.7284 21.8278 33.5739 22.2873 33.3026 22.6775C29.9501 27.4975 25.4464 30 20.0001 30C18.5439 30 17.1551 29.8213 15.8376 29.4663L17.9501 27.3538C18.6126 27.4513 19.2964 27.5 20.0001 27.5C24.6026 27.5 28.3526 25.4163 31.2501 21.25C30.3051 19.62 29.2701 18.2563 28.1451 17.1575L29.9126 15.3925C31.1964 16.65 32.3651 18.1888 33.4126 19.9963ZM28.8389 11.1625C29.0732 11.3969 29.2048 11.7148 29.2048 12.0463C29.2048 12.3777 29.0732 12.6956 28.8389 12.93L12.9289 28.8388C12.6931 29.0665 12.3774 29.1925 12.0496 29.1896C11.7219 29.1868 11.4084 29.0553 11.1766 28.8235C10.9448 28.5918 10.8134 28.2783 10.8105 27.9505C10.8077 27.6228 10.9337 27.307 11.1614 27.0713L27.0714 11.1613C27.3058 10.9269 27.6237 10.7953 27.9551 10.7953C28.2866 10.7953 28.6045 10.9269 28.8389 11.1613V11.1625ZM20.0001 11.25C21.0751 11.25 22.1126 11.3625 23.1101 11.5875L20.9126 13.7838C20.609 13.7612 20.3046 13.7499 20.0001 13.75C15.3976 13.75 11.6476 16.25 8.75012 21.25C9.41887 22.2125 10.1339 23.0625 10.8939 23.8025L9.12512 25.57C8.22598 24.6847 7.41276 23.7162 6.69637 22.6775C6.42506 22.2873 6.27061 21.8278 6.25113 21.3529C6.23164 20.878 6.34793 20.4074 6.58637 19.9963C9.90512 14.2713 14.4376 11.25 20.0001 11.25ZM20.3151 24.99L24.9901 20.315C24.9134 21.5298 24.3963 22.6748 23.5356 23.5355C22.6749 24.3962 21.5299 24.9133 20.3151 24.99ZM19.6864 15.01L15.0101 19.685C15.0868 18.4701 15.6042 17.3249 16.4651 16.4642C17.326 15.6035 18.4714 15.0864 19.6864 15.01Z" fill="black"/>
</svg>
