<svg width="24" height="24" viewBox="0 0 24 24" fill="none" xmlns="http://www.w3.org/2000/svg">
<path d="M12 4.5C16.1423 4.5 19.5 7.85775 19.5 12C19.5 16.1423 16.1423 19.5 12 19.5C7.85775 19.5 4.5 16.1423 4.5 12C4.5 7.85775 7.85775 4.5 12 4.5ZM12 6C10.4087 6 8.88258 6.63214 7.75736 7.75736C6.63214 8.88258 6 10.4087 6 12C6 13.5913 6.63214 15.1174 7.75736 16.2426C8.88258 17.3679 10.4087 18 12 18C13.5913 18 15.1174 17.3679 16.2426 16.2426C17.3679 15.1174 18 13.5913 18 12C18 10.4087 17.3679 8.88258 16.2426 7.75736C15.1174 6.63214 13.5913 6 12 6ZM12 7.5C12.1989 7.5 12.3897 7.57902 12.5303 7.71967C12.671 7.86032 12.75 8.05109 12.75 8.25V11.6888L14.7803 13.7197C14.9094 13.8489 14.987 14.0207 14.9984 14.203C15.0099 14.3853 14.9544 14.5654 14.8425 14.7098L14.7803 14.7803C14.6396 14.9209 14.4489 14.9998 14.25 14.9998C14.0511 14.9998 13.8604 14.9209 13.7197 14.7803L11.4698 12.5303L11.415 12.4688C11.3085 12.3357 11.2503 12.1704 11.25 12L11.253 12.0675C11.2514 12.05 11.2504 12.0325 11.25 12.015V8.25C11.25 8.05109 11.329 7.86032 11.4697 7.71967C11.6103 7.57902 11.8011 7.5 12 7.5Z" fill="black"/>
</svg>
