<svg width="32" height="32" viewBox="0 0 32 32" fill="none" xmlns="http://www.w3.org/2000/svg">
<path d="M11.4998 7C12.0334 6.99983 12.5599 7.12166 13.0392 7.35616C13.5184 7.59066 13.9377 7.93163 14.265 8.353C14.5923 8.77438 14.819 9.26501 14.9276 9.78739C15.0362 10.3098 15.024 10.8501 14.8918 11.367L19.1388 13.917C19.6399 13.459 20.2634 13.1566 20.9333 13.0467C21.6032 12.9368 22.2906 13.024 22.9117 13.2978C23.5329 13.5716 24.0611 14.0202 24.4319 14.5888C24.8027 15.1574 25.0001 15.8216 25.0001 16.5005C25.0001 17.1794 24.8027 17.8436 24.4319 18.4122C24.0611 18.9808 23.5329 19.4294 22.9117 19.7032C22.2906 19.977 21.6032 20.0642 20.9333 19.9543C20.2634 19.8444 19.6399 19.542 19.1388 19.084L14.8918 21.632C15.1006 22.4463 15.0094 23.3086 14.6347 24.0612C14.26 24.8138 13.627 25.4064 12.8514 25.7306C12.0757 26.0548 11.2093 26.089 10.4105 25.827C9.61168 25.5649 8.9339 25.0241 8.50106 24.3034C8.06823 23.5827 7.90925 22.7303 8.05322 21.902C8.19718 21.0737 8.63446 20.325 9.28509 19.7926C9.93573 19.2602 10.7562 18.9798 11.5966 19.0027C12.437 19.0255 13.2411 19.3501 13.8618 19.917L18.1078 17.368C17.9622 16.7982 17.9622 16.2008 18.1078 15.631L13.8608 13.083C13.4409 13.467 12.9337 13.7428 12.3832 13.8865C11.8326 14.0302 11.2553 14.0376 10.7013 13.9079C10.1473 13.7782 9.63326 13.5154 9.20371 13.1423C8.77415 12.7691 8.44205 12.2969 8.23617 11.7664C8.03029 11.236 7.95684 10.6633 8.02218 10.0981C8.08751 9.53287 8.28967 8.99209 8.61113 8.52261C8.9326 8.05312 9.36368 7.66909 9.86703 7.40378C10.3704 7.13846 10.9308 6.99987 11.4998 7ZM11.4998 21C11.2093 21 10.925 21.0843 10.6815 21.2428C10.438 21.4013 10.2458 21.6271 10.1282 21.8928C10.0105 22.1585 9.97261 22.4526 10.019 22.7394C10.0653 23.0262 10.194 23.2934 10.3893 23.5084C10.5847 23.7235 10.8382 23.8772 11.1193 23.9509C11.4003 24.0246 11.6967 24.0151 11.9724 23.9236C12.2482 23.832 12.4914 23.6624 12.6725 23.4352C12.8537 23.2081 12.9649 22.9332 12.9928 22.644L12.9728 22.782C13.017 22.5477 13.0049 22.3062 12.9376 22.0774C12.8703 21.8487 12.7498 21.6391 12.5858 21.466L12.6118 21.493C12.5358 21.4094 12.4506 21.3346 12.3578 21.27L12.4158 21.312C12.3791 21.2836 12.341 21.2569 12.3018 21.232L12.3578 21.27C12.327 21.2481 12.2953 21.2275 12.2628 21.208L12.3028 21.232C12.2639 21.2075 12.2238 21.1848 12.1828 21.164L12.2628 21.208C12.1627 21.1488 12.056 21.1014 11.9448 21.067L11.9208 21.06C11.7841 21.0201 11.6423 20.9999 11.4998 21ZM21.4998 15C21.3308 15 21.1688 15.028 21.0168 15.08L21.0558 15.067C20.9447 15.1011 20.838 15.1481 20.7378 15.207L20.8158 15.165C20.7758 15.185 20.7358 15.208 20.6978 15.232L20.7378 15.208C20.7048 15.228 20.6728 15.248 20.6408 15.27L20.6978 15.232C20.659 15.2569 20.6212 15.2836 20.5848 15.312L20.6408 15.27C20.6022 15.2969 20.5648 15.3256 20.5288 15.356L20.5848 15.312C20.5499 15.3388 20.5162 15.3672 20.4838 15.397L20.5288 15.357C20.4941 15.3862 20.4608 15.4168 20.4288 15.449L20.4838 15.397C20.45 15.4278 20.4177 15.4602 20.3868 15.494L20.4288 15.449C20.2549 15.6269 20.1278 15.845 20.0588 16.084L20.0268 16.215C20.0088 16.3089 19.9998 16.4044 19.9998 16.5L20.0048 16.631L20.0068 16.643C20.0367 16.9642 20.1701 17.2671 20.3868 17.506L20.3548 17.469C20.3788 17.497 20.4028 17.524 20.4278 17.549L20.3878 17.506C20.4178 17.54 20.4498 17.572 20.4828 17.603L20.4278 17.549C20.4618 17.584 20.4978 17.617 20.5338 17.648L20.4838 17.603C20.5148 17.633 20.5488 17.661 20.5838 17.688L20.5338 17.648C20.5638 17.673 20.5938 17.697 20.6268 17.72L20.5838 17.688C20.6779 17.7605 20.7803 17.8216 20.8888 17.87L20.8108 17.833C20.8508 17.853 20.8908 17.873 20.9328 17.889L20.8888 17.87C20.9378 17.892 20.9878 17.911 21.0388 17.928L20.9328 17.889C21.1379 17.9726 21.3588 18.0098 21.5799 17.9978C21.801 17.9859 22.0167 17.9252 22.2116 17.82C22.4064 17.7148 22.5756 17.5678 22.7069 17.3896C22.8382 17.2113 22.9284 17.0061 22.971 16.7889C23.0137 16.5716 23.0077 16.3476 22.9535 16.1329C22.8993 15.9182 22.7983 15.7182 22.6576 15.5472C22.517 15.3762 22.3402 15.2384 22.1401 15.1438C21.9399 15.0492 21.7212 15.0001 21.4998 15ZM11.4998 9C11.2727 9.00003 11.0486 9.05161 10.8444 9.15086C10.6401 9.25012 10.4611 9.39444 10.3208 9.57297C10.1804 9.75149 10.0824 9.95955 10.0342 10.1815C9.98599 10.4034 9.98877 10.6333 10.0424 10.854C10.096 11.0747 10.1989 11.2803 10.3436 11.4553C10.4882 11.6304 10.6707 11.7704 10.8773 11.8646C11.0839 11.9589 11.3092 12.005 11.5362 11.9996C11.7632 11.9941 11.986 11.9371 12.1878 11.833L12.1308 11.861C12.1698 11.843 12.2078 11.824 12.2438 11.803L12.1878 11.833C12.2278 11.813 12.2648 11.791 12.3018 11.768L12.2438 11.803C12.2858 11.779 12.3268 11.753 12.3658 11.725L12.3018 11.768C12.3408 11.743 12.3778 11.718 12.4138 11.69L12.3658 11.725C12.4028 11.699 12.4398 11.67 12.4748 11.64L12.4138 11.69C12.4488 11.662 12.4838 11.634 12.5158 11.604L12.4748 11.64C12.5081 11.6114 12.5401 11.5814 12.5708 11.55L12.5158 11.604C12.5496 11.5728 12.582 11.5401 12.6128 11.506L12.5708 11.551C12.7299 11.3887 12.85 11.1924 12.9222 10.9769C12.9945 10.7614 13.0169 10.5324 12.9878 10.307C12.9409 9.94555 12.764 9.61354 12.4902 9.37301C12.2164 9.13248 11.8643 8.99989 11.4998 9Z" fill="black"/>
</svg>
