<svg width="40" height="40" viewBox="0 0 40 40" fill="none" xmlns="http://www.w3.org/2000/svg">
<path d="M30.0088 11.25C31.385 11.25 32.5 12.38 32.5 13.7525V26.2475C32.5 27.625 31.3875 28.75 30.0088 28.75H9.99125C9.3295 28.747 8.69586 28.4821 8.22898 28.0131C7.7621 27.5441 7.49999 26.9093 7.5 26.2475V13.7525C7.5 12.375 8.6125 11.25 9.99125 11.25H30.0088ZM9.99875 14.6837L10 26.2463L30.0012 26.25L30 14.2375L24.7563 19.2463L27.1338 21.6162C27.349 21.8315 27.4783 22.1179 27.4974 22.4216C27.5165 22.7254 27.4241 23.0257 27.2375 23.2663L27.1338 23.3838C26.9185 23.599 26.6321 23.7283 26.3284 23.7474C26.0246 23.7665 25.7243 23.6741 25.4837 23.4875L25.3662 23.3838L22.7413 20.7562L20.75 22.25C20.5561 22.3955 20.324 22.4815 20.0821 22.4975C19.8402 22.5135 19.5989 22.4587 19.3875 22.34L19.25 22.25L17.25 20.75L17.195 20.8188L17.1337 20.8838L14.6337 23.3838C14.4088 23.6079 14.107 23.7381 13.7895 23.7478C13.4721 23.7575 13.1629 23.646 12.9247 23.4359C12.6864 23.2259 12.5371 22.9331 12.507 22.6169C12.4769 22.3008 12.5682 21.985 12.7625 21.7337L12.8663 21.6162L15.2387 19.2412L9.99875 14.6837ZM20 20L28.75 13.7525L11.25 13.75L20 20Z" fill="black"/>
</svg>
