<svg width="32" height="32" viewBox="0 0 32 32" fill="none" xmlns="http://www.w3.org/2000/svg">
<path d="M23.998 6C25.102 6 26 6.902 26 8.002V17.998C25.9987 18.5286 25.7873 19.037 25.4122 19.4122C25.037 19.7873 24.5286 19.9987 23.998 20H20V24C20 24.5304 19.7893 25.0391 19.4142 25.4142C19.0391 25.7893 18.5304 26 18 26H8C7.46957 26 6.96086 25.7893 6.58579 25.4142C6.21071 25.0391 6 24.5304 6 24V14C6 13.4696 6.21071 12.9609 6.58579 12.5858C6.96086 12.2107 7.46957 12 8 12H12V8.002C12 6.898 12.902 6 14.002 6H23.998ZM12 14H8V24H18V20H14.002C13.4714 19.9987 12.963 19.7873 12.5878 19.4122C12.2127 19.037 12.0013 18.5286 12 17.998V14ZM15.939 8H14.002L14.003 8.266V13.101L14.002 13.396L14.001 15.699V16.061L14 17.998L14.266 17.997H19.101L19.396 17.998L21.699 17.999H23.594L23.998 18L23.997 17.734V15.985V12.899L23.998 12.604L23.999 10.301V8.406L24 8.002L23.734 8.003H18.899L18.604 8.002L16.301 8.001H15.939V8Z" fill="black"/>
</svg>
