<svg width="32" height="32" viewBox="0 0 32 32" fill="none" xmlns="http://www.w3.org/2000/svg">
<path d="M19.5 3C19.9678 3.00125 20.4307 3.09629 20.8612 3.27949C21.2917 3.46269 21.6811 3.73034 22.0063 4.06662C22.3316 4.40289 22.5862 4.80096 22.7549 5.23731C22.9237 5.67365 23.0033 6.1394 22.989 6.60703C22.9747 7.07466 22.8668 7.53467 22.6716 7.95988C22.4765 8.38509 22.1981 8.76685 21.8528 9.08261C21.5076 9.39837 21.1026 9.64171 20.6617 9.79825C20.2208 9.95479 19.753 10.0214 19.286 9.994L19.291 10.004L19.349 10.14L19.419 10.33L19.447 10.42C19.5605 10.8085 19.594 11.216 19.5455 11.6179C19.4971 12.0197 19.3676 12.4076 19.165 12.758L18.769 13.441H19.569C20.629 13.441 21.592 13.997 22.099 14.82L25.167 20.14C25.5585 20.8287 25.6618 21.6443 25.4542 22.4088C25.2467 23.1733 24.7451 23.8247 24.0591 24.2208C23.373 24.6169 22.5581 24.7256 21.7922 24.5231C21.0264 24.3206 20.3717 23.8234 19.971 23.14L17.834 19.44L13.829 19.441L13.586 19.454C13.131 19.4572 12.6813 19.3567 12.271 19.16L12.067 19.052C11.6147 18.791 11.2384 18.4164 10.9753 17.9653C10.7122 17.5142 10.5715 17.0022 10.567 16.48L10.57 16.347L10.582 16.163L10.602 15.997L10.613 15.93L10.654 15.736L10.69 15.603C10.779 15.293 10.918 15.001 11.1 14.739L11.029 14.847L12.246 12.739L11.232 12.329L9.902 13.099C9.24029 13.481 8.45775 13.5961 7.71405 13.4209C6.97035 13.2457 6.32154 12.7933 5.9 12.156L5.804 12C5.40619 11.311 5.29839 10.4921 5.5043 9.72361C5.71022 8.95509 6.21298 8.29984 6.902 7.902L9.5 6.402C9.8594 6.19422 10.258 6.06338 10.6707 6.01776C11.0833 5.97215 11.5009 6.01275 11.897 6.137L11.973 6.163L12.123 6.218L16.293 7.904C16.0597 7.37124 15.9628 6.78875 16.0112 6.20916C16.0595 5.62957 16.2515 5.07116 16.5698 4.5844C16.8881 4.09764 17.3227 3.69788 17.8343 3.42125C18.3459 3.14462 18.9184 2.99984 19.5 3ZM11.298 8.045C11.0712 7.97406 10.8265 7.98647 10.608 8.08L10.5 8.134L7.902 9.634C7.67419 9.76755 7.50846 9.98579 7.44096 10.2411C7.37347 10.4964 7.40969 10.768 7.54173 10.9967C7.67376 11.2254 7.89089 11.3926 8.14574 11.4618C8.40058 11.5309 8.67244 11.4965 8.902 11.366L10.867 10.232C10.9328 10.1942 11.0063 10.1718 11.082 10.1666C11.1578 10.1614 11.2337 10.1735 11.304 10.202L14.595 11.532L14.658 11.562C14.7728 11.6283 14.8566 11.7375 14.8909 11.8656C14.9253 11.9937 14.9073 12.1302 14.841 12.245L12.746 15.875C12.6865 15.9605 12.6413 16.0551 12.612 16.155L12.588 16.245L12.578 16.311L12.572 16.37L12.566 16.462C12.5671 16.606 12.5993 16.748 12.6603 16.8784C12.7213 17.0088 12.8098 17.1244 12.9196 17.2175C13.0295 17.3105 13.1581 17.3787 13.2968 17.4175C13.4354 17.4562 13.5808 17.4646 13.723 17.442L18.701 17.44C18.7888 17.44 18.875 17.4631 18.951 17.507C19.027 17.5509 19.0901 17.614 19.134 17.69L21.703 22.14C21.7682 22.2546 21.8554 22.3553 21.9596 22.4361C22.0639 22.5169 22.183 22.5763 22.3103 22.6108C22.4376 22.6454 22.5704 22.6544 22.7012 22.6374C22.832 22.6204 22.9581 22.5777 23.0723 22.5118C23.1865 22.4458 23.2866 22.3579 23.3667 22.2532C23.4468 22.1484 23.5054 22.0288 23.5391 21.9013C23.5728 21.7738 23.581 21.6409 23.5631 21.5103C23.5452 21.3796 23.5017 21.2538 23.435 21.14L20.455 15.977C20.3703 15.8153 20.243 15.6799 20.0868 15.5854C19.9306 15.4909 19.7515 15.441 19.569 15.441H16.172C16.0842 15.441 15.998 15.4179 15.922 15.374C15.846 15.3301 15.7829 15.267 15.739 15.191C15.6951 15.115 15.672 15.0288 15.672 14.941C15.672 14.8532 15.6951 14.767 15.739 14.691L17.433 11.758C17.5005 11.6414 17.5437 11.5124 17.5598 11.3786C17.576 11.2449 17.5648 11.1093 17.527 10.98L17.509 10.924L17.452 10.789C17.3426 10.576 17.1601 10.4095 16.938 10.32L11.375 8.073L11.298 8.045ZM19.5 5C19.1022 5 18.7206 5.15804 18.4393 5.43934C18.158 5.72064 18 6.10218 18 6.5C18 6.89783 18.158 7.27936 18.4393 7.56066C18.7206 7.84197 19.1022 8 19.5 8C19.8978 8 20.2794 7.84197 20.5607 7.56066C20.842 7.27936 21 6.89783 21 6.5C21 6.10218 20.842 5.72064 20.5607 5.43934C20.2794 5.15804 19.8978 5 19.5 5ZM6.433 16.108C6.63181 16.1078 6.82616 16.1669 6.99123 16.2777C7.1563 16.3885 7.28459 16.546 7.35972 16.7301C7.43485 16.9142 7.45341 17.1165 7.41303 17.3111C7.37264 17.5058 7.27515 17.684 7.133 17.823C6.39978 18.7194 5.99944 19.8419 6 21C5.99925 22.1493 6.39445 23.2638 7.11908 24.1558C7.84372 25.0479 8.85354 25.6631 9.9786 25.8978C11.1036 26.1326 12.2752 25.9726 13.2962 25.4448C14.3171 24.9171 15.125 24.0537 15.584 23L17.414 23.001C17.5034 23.0009 17.5912 23.0248 17.6682 23.0702C17.7453 23.1156 17.8087 23.1808 17.852 23.259L19.224 25.742C19.2673 25.8202 19.3307 25.8854 19.4078 25.9308C19.4848 25.9762 19.5726 26.0001 19.662 26H22C22.2652 26 22.5196 26.1054 22.7071 26.2929C22.8946 26.4804 23 26.7348 23 27C23 27.2652 22.8946 27.5196 22.7071 27.7071C22.5196 27.8946 22.2652 28 22 28H18.497C18.4248 27.9995 18.3536 27.9834 18.2882 27.9529C18.2228 27.9223 18.1647 27.878 18.118 27.823L18.067 27.75L16.597 25.204C15.7149 26.3784 14.4858 27.2455 13.0836 27.6827C11.6814 28.1199 10.1772 28.105 8.78403 27.64C7.39082 27.175 6.17915 26.2836 5.32057 25.092C4.46199 23.9003 4 22.4688 4 21C4 19.137 5.02 17.105 5.914 16.19C6.044 16.108 6.255 16.108 6.433 16.108Z" fill="black"/>
</svg>
