<svg width="32" height="32" viewBox="0 0 32 32" fill="none" xmlns="http://www.w3.org/2000/svg">
<path d="M8.8265 17.44C8.66104 17.4999 8.51078 17.5954 8.38635 17.7199C8.26193 17.8443 8.16639 17.9946 8.1065 18.16C8.00952 18.4023 7.98577 18.6678 8.03822 18.9234C8.09067 19.1791 8.217 19.4138 8.40155 19.5983C8.5861 19.7829 8.82075 19.9092 9.07642 19.9616C9.33209 20.0141 9.59753 19.9903 9.83984 19.8933C10.0014 19.8258 10.1502 19.7311 10.2798 19.6133C10.3976 19.4837 10.4923 19.3349 10.5598 19.1733C10.6345 19.0151 10.671 18.8416 10.6665 18.6667C10.6616 18.3137 10.5235 17.9755 10.2798 17.72C10.0923 17.535 9.85424 17.4097 9.59559 17.3598C9.33694 17.31 9.06932 17.3379 8.8265 17.44ZM26.3465 12.1067L24.5332 6.73335C24.2566 5.95099 23.7435 5.27402 23.065 4.79623C22.3866 4.31844 21.5763 4.06348 20.7465 4.06668H11.2532C10.4234 4.06348 9.6131 4.31844 8.93464 4.79623C8.25617 5.27402 7.7431 5.95099 7.4665 6.73335L5.65317 12.1467C4.80027 12.37 4.04506 12.8689 3.50494 13.5657C2.96483 14.2626 2.67007 15.1184 2.6665 16V21.3333C2.66882 22.1586 2.92634 22.9629 3.40376 23.6361C3.88117 24.3093 4.5551 24.8183 5.33317 25.0933V26.6667C5.33317 27.0203 5.47365 27.3594 5.7237 27.6095C5.97374 27.8595 6.31288 28 6.6665 28C7.02013 28 7.35926 27.8595 7.60931 27.6095C7.85936 27.3594 7.99984 27.0203 7.99984 26.6667V25.3333H23.9998V26.6667C23.9998 27.0203 24.1403 27.3594 24.3904 27.6095C24.6404 27.8595 24.9795 28 25.3332 28C25.6868 28 26.0259 27.8595 26.276 27.6095C26.526 27.3594 26.6665 27.0203 26.6665 26.6667V25.0933C27.4446 24.8183 28.1185 24.3093 28.5959 23.6361C29.0733 22.9629 29.3309 22.1586 29.3332 21.3333V16C29.3296 15.1184 29.0348 14.2626 28.4947 13.5657C27.9546 12.8689 27.1994 12.37 26.3465 12.1467V12.1067ZM9.9865 7.57335C10.076 7.30852 10.2464 7.0785 10.4737 6.9158C10.701 6.75311 10.9736 6.66596 11.2532 6.66668H20.7465C21.0373 6.6515 21.325 6.73192 21.5658 6.89563C21.8065 7.05935 21.9871 7.29737 22.0798 7.57335L23.4798 12H8.51984L9.9865 7.57335ZM26.6665 21.3333C26.6665 21.687 26.526 22.0261 26.276 22.2762C26.0259 22.5262 25.6868 22.6667 25.3332 22.6667H6.6665C6.31288 22.6667 5.97374 22.5262 5.7237 22.2762C5.47365 22.0261 5.33317 21.687 5.33317 21.3333V16C5.33317 15.6464 5.47365 15.3073 5.7237 15.0572C5.97374 14.8072 6.31288 14.6667 6.6665 14.6667H25.3332C25.6868 14.6667 26.0259 14.8072 26.276 15.0572C26.526 15.3073 26.6665 15.6464 26.6665 16V21.3333ZM22.1598 17.44C21.9944 17.4999 21.8441 17.5954 21.7197 17.7199C21.5953 17.8443 21.4997 17.9946 21.4398 18.16C21.3428 18.4023 21.3191 18.6678 21.3716 18.9234C21.424 19.1791 21.5503 19.4138 21.7349 19.5983C21.9194 19.7829 22.1541 19.9092 22.4098 19.9616C22.6654 20.0141 22.9309 19.9903 23.1732 19.8933C23.3386 19.8335 23.4889 19.7379 23.6133 19.6135C23.7378 19.4891 23.8333 19.3388 23.8932 19.1733C23.9678 19.0151 24.0043 18.8416 23.9998 18.6667C23.9949 18.3137 23.8568 17.9755 23.6132 17.72C23.4257 17.535 23.1876 17.4097 22.9289 17.3598C22.6703 17.31 22.4027 17.3379 22.1598 17.44ZM17.3332 17.3333H14.6665C14.3129 17.3333 13.9737 17.4738 13.7237 17.7239C13.4736 17.9739 13.3332 18.3131 13.3332 18.6667C13.3332 19.0203 13.4736 19.3594 13.7237 19.6095C13.9737 19.8595 14.3129 20 14.6665 20H17.3332C17.6868 20 18.0259 19.8595 18.276 19.6095C18.526 19.3594 18.6665 19.0203 18.6665 18.6667C18.6665 18.3131 18.526 17.9739 18.276 17.7239C18.0259 17.4738 17.6868 17.3333 17.3332 17.3333Z" fill="#11161A"/>
</svg>
