<svg width="24" height="24" viewBox="0 0 24 24" fill="none" xmlns="http://www.w3.org/2000/svg">
<path d="M6.95341 14.0685C6.81278 13.9278 6.73382 13.737 6.73389 13.538C6.73396 13.339 6.81306 13.1483 6.95379 13.0076C7.09452 12.867 7.28535 12.788 7.4843 12.7881C7.68326 12.7882 7.87403 12.8673 8.01466 13.008L11.0357 16.029L16.5482 6.48152C16.6401 6.32254 16.7871 6.20281 16.9615 6.14503C17.1358 6.08724 17.3252 6.09543 17.4939 6.16802L17.5727 6.20777C17.7449 6.30723 17.8706 6.47104 17.9221 6.66317C17.9736 6.8553 17.9466 7.06001 17.8472 7.23227L11.8472 17.6243C11.8445 17.6293 11.8417 17.6343 11.8389 17.6393L11.8202 17.667C11.7923 17.7074 11.7609 17.7453 11.7264 17.7803L11.7729 17.7308C11.7586 17.7477 11.7436 17.7639 11.7279 17.7795L11.7242 17.7833C11.7057 17.8019 11.6862 17.8195 11.6657 17.8358L11.6469 17.8508C11.6189 17.872 11.5893 17.891 11.5584 17.9078L11.5389 17.9175C11.4947 17.9405 11.4482 17.9589 11.4002 17.9723C11.3957 17.9723 11.3904 17.9738 11.3852 17.9753C11.3632 17.9816 11.3409 17.9866 11.3184 17.9903C11.3147 17.9903 11.3102 17.9903 11.3057 17.9918C11.2856 17.9955 11.2653 17.998 11.2449 17.9993H11.2179C11.1989 18.0004 11.1799 18.0004 11.1609 17.9993L11.1384 17.997C10.96 17.9843 10.7922 17.9076 10.6659 17.781L6.95341 14.0685Z" fill="black"/>
</svg>
