<svg width="32" height="32" viewBox="0 0 32 32" fill="none" xmlns="http://www.w3.org/2000/svg">
<path d="M24.9998 6C25.265 6 25.5194 6.10536 25.7069 6.29289C25.8944 6.48043 25.9998 6.73478 25.9998 7V25C25.9998 25.2652 25.8944 25.5196 25.7069 25.7071C25.5194 25.8946 25.265 26 24.9998 26H18.9998C18.7346 26 18.4802 25.8946 18.2927 25.7071C18.1051 25.5196 17.9998 25.2652 17.9998 25V22C17.9998 21.7348 18.1051 21.4804 18.2927 21.2929C18.4802 21.1054 18.7346 21 18.9998 21C19.265 21 19.5194 21.1054 19.7069 21.2929C19.8944 21.4804 19.9998 21.7348 19.9998 22V24H23.9998V8H19.9998V10C19.9998 10.2652 19.8944 10.5196 19.7069 10.7071C19.5194 10.8946 19.265 11 18.9998 11C18.7346 11 18.4802 10.8946 18.2927 10.7071C18.1051 10.5196 17.9998 10.2652 17.9998 10V7C17.9998 6.73478 18.1051 6.48043 18.2927 6.29289C18.4802 6.10536 18.7346 6 18.9998 6H24.9998ZM11.2928 10.293C11.4814 10.1108 11.734 10.01 11.9962 10.0123C12.2584 10.0146 12.5092 10.1198 12.6946 10.3052C12.88 10.4906 12.9852 10.7414 12.9875 11.0036C12.9897 11.2658 12.8889 11.5184 12.7068 11.707L9.41379 15H20.9998C21.2447 15 21.4811 15.09 21.6642 15.2527C21.8472 15.4155 21.9641 15.6397 21.9928 15.883L21.9998 16C21.9998 16.2652 21.8944 16.5196 21.7069 16.7071C21.5194 16.8946 21.265 17 20.9998 17H9.41379L12.7068 20.293C12.879 20.4652 12.9824 20.6943 12.9977 20.9373C13.013 21.1803 12.939 21.4206 12.7898 21.613L12.7068 21.707C12.5193 21.8945 12.265 21.9998 11.9998 21.9998C11.7346 21.9998 11.4803 21.8945 11.2928 21.707L6.29279 16.707C6.10532 16.5195 6 16.2652 6 16C6 15.7348 6.10532 15.4805 6.29279 15.293L11.2928 10.293Z" fill="black"/>
</svg>
