<svg width="32" height="32" viewBox="0 0 32 32" fill="none" xmlns="http://www.w3.org/2000/svg">
<path d="M16.874 6.51407L26.874 24.5141C26.9587 24.6663 27.0021 24.838 27 25.0122C26.9979 25.1863 26.9504 25.3569 26.862 25.507C26.7737 25.6572 26.6478 25.7816 26.4966 25.8681C26.3454 25.9546 26.1742 26.0001 26 26.0001H6.00004C5.82586 26.0001 5.65471 25.9546 5.50351 25.8681C5.35232 25.7816 5.22634 25.6572 5.13804 25.507C5.04973 25.3569 5.00218 25.1863 5.00007 25.0122C4.99797 24.838 5.04139 24.6663 5.12604 24.5141L15.126 6.51407C15.2127 6.35826 15.3394 6.22843 15.4931 6.13805C15.6467 6.04766 15.8218 6 16 6C16.1783 6 16.3534 6.04766 16.507 6.13805C16.6607 6.22843 16.7874 6.35826 16.874 6.51407ZM16 9.06007L7.70004 24.0001H24.3L16 9.06007ZM16 20.0001C16.2653 20.0001 16.5196 20.1054 16.7071 20.293C16.8947 20.4805 17 20.7349 17 21.0001C17 21.2653 16.8947 21.5196 16.7071 21.7072C16.5196 21.8947 16.2653 22.0001 16 22.0001C15.7348 22.0001 15.4805 21.8947 15.2929 21.7072C15.1054 21.5196 15 21.2653 15 21.0001C15 20.7349 15.1054 20.4805 15.2929 20.293C15.4805 20.1054 15.7348 20.0001 16 20.0001ZM16 13.0001C16.2653 13.0001 16.5196 13.1054 16.7071 13.293C16.8947 13.4805 17 13.7349 17 14.0001V18.0001C17 18.2653 16.8947 18.5196 16.7071 18.7072C16.5196 18.8947 16.2653 19.0001 16 19.0001C15.7348 19.0001 15.4805 18.8947 15.2929 18.7072C15.1054 18.5196 15 18.2653 15 18.0001V14.0001C15 13.7349 15.1054 13.4805 15.2929 13.293C15.4805 13.1054 15.7348 13.0001 16 13.0001Z" fill="black"/>
</svg>
