<svg width="24" height="24" viewBox="0 0 24 24" fill="none" xmlns="http://www.w3.org/2000/svg">
<path d="M4.5 7.50005C4.49999 6.71738 4.80584 5.9657 5.3523 5.40539C5.89876 4.84508 6.64256 4.52051 7.42498 4.50094C8.2074 4.48137 8.96649 4.76834 9.54028 5.30063C10.1141 5.83291 10.4571 6.56836 10.4963 7.35005L10.5 7.50005V9.00005C10.5 9.19896 10.579 9.38973 10.7197 9.53038C10.8603 9.67103 11.0511 9.75005 11.25 9.75005H16.4948C16.6919 9.74936 16.8873 9.78755 17.0697 9.86243C17.2521 9.93732 17.4179 10.0474 17.5577 10.1865C17.6975 10.3255 17.8086 10.4907 17.8845 10.6727C17.9603 10.8547 17.9996 11.0499 18 11.247V18.003C17.9996 18.2002 17.9603 18.3954 17.8845 18.5774C17.8086 18.7594 17.6975 18.9246 17.5577 19.0636C17.4179 19.2027 17.2521 19.3128 17.0697 19.3877C16.8873 19.4625 16.6919 19.5007 16.4948 19.5H7.50525C7.30808 19.5007 7.1127 19.4625 6.93031 19.3877C6.74791 19.3128 6.58206 19.2027 6.44226 19.0636C6.30245 18.9246 6.19143 18.7594 6.11554 18.5774C6.03966 18.3954 6.00039 18.2002 6 18.003V12.75L6.00525 12.6623C6.02783 12.4725 6.12204 12.2984 6.26863 12.1757C6.41522 12.0531 6.60312 11.991 6.79395 12.0022C6.98479 12.0134 7.16414 12.097 7.29536 12.236C7.42659 12.375 7.49979 12.5589 7.5 12.75V11.9993L7.50225 11.9873V12.936L7.5015 13.1325L7.50075 14.4068V14.6265L7.5 18.003H7.79775L7.89975 18.0023H8.59725L8.76975 18.0015H10.203L10.4325 18H16.359H16.4948L16.4955 17.9625L16.4963 17.778V17.5785L16.497 17.4585V17.0265L16.4977 16.8615V16.314L16.4985 16.1175L16.4993 14.8433V14.6235L16.5 11.256V11.247H16.2023L16.1002 11.2478H15.4028L15.2302 11.2485H13.797L13.5675 11.25H9.8895H10.5C10.1022 11.25 9.72064 11.092 9.43934 10.8107C9.15804 10.5294 9 10.1479 9 9.75005V7.50005C9 7.10222 8.84196 6.72069 8.56066 6.43939C8.27936 6.15808 7.89782 6.00005 7.5 6.00005C7.10218 6.00005 6.72064 6.15808 6.43934 6.43939C6.15804 6.72069 6 7.10222 6 7.50005V8.25005C6 8.44896 5.92098 8.63973 5.78033 8.78038C5.63968 8.92103 5.44891 9.00005 5.25 9.00005C5.05109 9.00005 4.86032 8.92103 4.71967 8.78038C4.57902 8.63973 4.5 8.44896 4.5 8.25005V7.50005ZM12 12.75C12.414 12.75 12.75 13.083 12.75 13.5V16.5H11.25V13.5C11.25 13.086 11.583 12.75 12 12.75Z" fill="black"/>
</svg>
