<svg width="32" height="32" viewBox="0 0 32 32" fill="none" xmlns="http://www.w3.org/2000/svg">
<path d="M10 12.0001C8.93913 12.0001 7.92172 12.4215 7.17157 13.1717C6.42143 13.9218 6 14.9392 6 16.0001C6 17.0609 6.42143 18.0784 7.17157 18.8285C7.92172 19.5787 8.93913 20.0001 10 20.0001C10.2652 20.0001 10.5196 20.1054 10.7071 20.293C10.8946 20.4805 11 20.7349 11 21.0001C11 21.2653 10.8946 21.5197 10.7071 21.7072C10.5196 21.8947 10.2652 22.0001 10 22.0001C8.4087 22.0001 6.88258 21.3679 5.75736 20.2427C4.63214 19.1175 4 17.5914 4 16.0001C4 14.4088 4.63214 12.8827 5.75736 11.7574C6.88258 10.6322 8.4087 10.0001 10 10.0001H14.586L13.293 8.70708C13.1975 8.61483 13.1213 8.50449 13.0689 8.38249C13.0165 8.26048 12.9889 8.12926 12.9877 7.99648C12.9866 7.8637 13.0119 7.73202 13.0622 7.60913C13.1125 7.48623 13.1867 7.37458 13.2806 7.28069C13.3745 7.18679 13.4861 7.11254 13.609 7.06226C13.7319 7.01198 13.8636 6.98668 13.9964 6.98783C14.1292 6.98898 14.2604 7.01657 14.3824 7.06898C14.5044 7.12139 14.6148 7.19757 14.707 7.29308L17.707 10.2931C17.8945 10.4806 17.9998 10.7349 17.9998 11.0001C17.9998 11.2652 17.8945 11.5196 17.707 11.7071L14.707 14.7071C14.5184 14.8892 14.2658 14.99 14.0036 14.9878C13.7414 14.9855 13.4906 14.8803 13.3052 14.6949C13.1198 14.5095 13.0146 14.2587 13.0123 13.9965C13.01 13.7343 13.1108 13.4817 13.293 13.2931L14.586 12.0001H10ZM22 20.0001C23.0609 20.0001 24.0783 19.5787 24.8284 18.8285C25.5786 18.0784 26 17.0609 26 16.0001C26 14.9392 25.5786 13.9218 24.8284 13.1717C24.0783 12.4215 23.0609 12.0001 22 12.0001C21.7348 12.0001 21.4804 11.8947 21.2929 11.7072C21.1054 11.5197 21 11.2653 21 11.0001C21 10.7349 21.1054 10.4805 21.2929 10.293C21.4804 10.1054 21.7348 10.0001 22 10.0001C23.5913 10.0001 25.1174 10.6322 26.2426 11.7574C27.3679 12.8827 28 14.4088 28 16.0001C28 17.5914 27.3679 19.1175 26.2426 20.2427C25.1174 21.3679 23.5913 22.0001 22 22.0001H17.414L18.707 23.2931C18.8892 23.4817 18.99 23.7343 18.9877 23.9965C18.9854 24.2587 18.8802 24.5095 18.6948 24.6949C18.5094 24.8803 18.2586 24.9855 17.9964 24.9878C17.7342 24.99 17.4816 24.8892 17.293 24.7071L14.293 21.7071C14.1055 21.5196 14.0002 21.2652 14.0002 21.0001C14.0002 20.7349 14.1055 20.4806 14.293 20.2931L17.293 17.2931C17.4816 17.1109 17.7342 17.0101 17.9964 17.0124C18.2586 17.0147 18.5094 17.1199 18.6948 17.3053C18.8802 17.4907 18.9854 17.7415 18.9877 18.0037C18.99 18.2659 18.8892 18.5185 18.707 18.7071L17.414 20.0001H22Z" fill="black"/>
</svg>
