<svg width="32" height="32" viewBox="0 0 32 32" fill="none" xmlns="http://www.w3.org/2000/svg">
<path d="M15 6C16.6947 6 18.355 6.47851 19.7898 7.38044C21.2246 8.28238 22.3756 9.57109 23.1103 11.0983C23.845 12.6255 24.1336 14.3291 23.9428 16.013C23.7521 17.697 23.0897 19.2929 22.032 20.617L26.536 25.121C26.6289 25.2139 26.7026 25.3242 26.7529 25.4456C26.8032 25.567 26.8291 25.6971 26.8291 25.8285C26.8291 25.9599 26.8032 26.09 26.7529 26.2114C26.7026 26.3328 26.6289 26.4431 26.536 26.536C26.4431 26.6289 26.3328 26.7026 26.2114 26.7529C26.09 26.8032 25.9599 26.8291 25.8285 26.8291C25.6971 26.8291 25.567 26.8032 25.4456 26.7529C25.3242 26.7026 25.2139 26.6289 25.121 26.536L20.617 22.032C19.4937 22.9293 18.1718 23.5444 16.762 23.8258C15.3521 24.1073 13.8954 24.0469 12.5137 23.6497C11.1319 23.2526 9.86547 22.5302 8.82029 21.543C7.7751 20.5559 6.98161 19.3327 6.50623 17.9759C6.03086 16.6191 5.88745 15.1682 6.088 13.7445C6.28855 12.3209 6.82722 10.9661 7.65893 9.79341C8.49063 8.62074 9.59116 7.66438 10.8684 7.00439C12.1456 6.3444 13.5624 6 15 6ZM15 8C13.1435 8 11.363 8.7375 10.0503 10.0503C8.73753 11.363 8.00003 13.1435 8.00003 15C8.00003 16.8565 8.73753 18.637 10.0503 19.9497C11.363 21.2625 13.1435 22 15 22C16.8565 22 18.637 21.2625 19.9498 19.9497C21.2625 18.637 22 16.8565 22 15C22 13.1435 21.2625 11.363 19.9498 10.0503C18.637 8.7375 16.8565 8 15 8ZM19 14C19.2652 14 19.5196 14.1054 19.7071 14.2929C19.8947 14.4804 20 14.7348 20 15C20 15.2652 19.8947 15.5196 19.7071 15.7071C19.5196 15.8946 19.2652 16 19 16H11C10.7348 16 10.4805 15.8946 10.2929 15.7071C10.1054 15.5196 10 15.2652 10 15C10 14.7348 10.1054 14.4804 10.2929 14.2929C10.4805 14.1054 10.7348 14 11 14H19Z" fill="black"/>
</svg>
