<svg width="24" height="24" viewBox="0 0 24 24" fill="none" xmlns="http://www.w3.org/2000/svg">
<path d="M14.834 8.76026L14.834 14.9073C14.834 14.9742 14.8161 15.0399 14.7821 15.0976C14.7481 15.1553 14.6993 15.2028 14.6408 15.2352C14.5822 15.2677 14.5161 15.2839 14.4491 15.2821C14.3822 15.2804 14.317 15.2607 14.2602 15.2253L9.34248 12.1518C9.28855 12.118 9.24407 12.0712 9.21324 12.0155C9.18241 11.9599 9.16623 11.8974 9.16623 11.8338C9.16623 11.7702 9.18241 11.7076 9.21324 11.652C9.24407 11.5963 9.28855 11.5495 9.34248 11.5158L14.2602 8.44225C14.317 8.40678 14.3822 8.38714 14.4491 8.38538C14.5161 8.38363 14.5822 8.39981 14.6408 8.43226C14.6993 8.46471 14.7481 8.51224 14.7821 8.56992C14.8161 8.6276 14.834 8.69332 14.834 8.76026Z" fill="black"/>
</svg>
