<svg width="24" height="24" viewBox="0 0 24 24" fill="none" xmlns="http://www.w3.org/2000/svg">
<path d="M12.9825 19.5C13.9905 19.5 14.8462 18.8865 15.2587 17.9647C15.4027 17.643 15.4635 17.3205 15.5392 16.6327L15.696 15.0697L17.4675 14.913C17.7625 14.8838 18.0488 14.7968 18.31 14.6568C18.5713 14.5168 18.8024 14.3267 18.9901 14.0973C19.1778 13.8679 19.3183 13.6037 19.4038 13.3199C19.4892 13.036 19.5178 12.7381 19.488 12.4432L19.2593 10.3148C18.8543 6.6975 18.6015 5.61825 17.9482 5.0925C17.5125 4.7415 17.1007 4.54875 16.6073 4.5075L16.452 4.5L16.2195 4.503H11.2965L11.2095 4.506L11.1218 4.5105L11.034 4.518C10.5849 4.56948 10.1615 4.75415 9.81825 5.04825C9.47787 4.73211 9.04023 4.54093 8.577 4.506L8.4135 4.5H6.6285C5.445 4.5 4.56375 5.46525 4.503 6.585L4.5 6.711V12.7905C4.5 13.9215 5.3385 14.9265 6.498 14.997L6.62775 15.0007H8.4135C8.8005 15.0007 9.1545 14.898 9.45825 14.7195L9.678 14.8717C10.1198 15.1778 10.2937 15.4605 10.314 16.173L10.3162 16.3215C10.3162 17.0962 10.3747 17.499 10.6058 17.958L10.7835 18.2775C11.031 18.7125 11.4053 19.0627 11.8605 19.272C12.228 19.44 12.5887 19.5007 12.9825 19.5007V19.5ZM8.4135 13.5H6.6285L6.55125 13.4948C6.27375 13.4543 6.05025 13.1978 6.015 12.8783L6.0105 12.7897V6.71025L6.015 6.62175C6.05025 6.303 6.27375 6.0465 6.55125 6.006L6.62775 6H8.4135L8.49075 6.006C8.76825 6.0465 8.991 6.303 9.02625 6.62175L9.0315 6.71025V12.7897L9.02625 12.8783C8.991 13.1978 8.76825 13.4543 8.49075 13.4948L8.4135 13.5ZM12.9825 18C12.8146 18.0057 12.6475 17.9748 12.4927 17.9093C12.3248 17.8288 12.1863 17.6976 12.0967 17.5343L11.9708 17.3137C11.8845 17.151 11.8417 17.0025 11.8298 16.5968L11.8267 16.3207C11.8267 14.8733 11.289 14.1848 10.632 13.7048L10.542 13.641V6.753L10.5465 6.666C10.584 6.35025 10.818 6.0945 11.124 6.02325L11.2087 6.00825L11.2965 6.003H16.2855L16.404 6L16.4587 6.0015C16.605 6.009 16.7437 6.054 16.9972 6.258C17.2358 6.45 17.565 8.56275 17.9858 12.5978C18.0045 12.7811 17.9551 12.965 17.8469 13.1143C17.7388 13.2636 17.5794 13.3678 17.3993 13.407L17.301 13.422L14.358 13.6815L14.3317 13.8353L14.2822 14.1667C14.1172 15.372 14.0377 17.0002 13.8787 17.355C13.6972 17.7607 13.3612 18 12.9825 18Z" fill="black"/>
</svg>
