<svg width="40" height="40" viewBox="0 0 40 40" fill="none" xmlns="http://www.w3.org/2000/svg">
<path d="M18.75 30C18.75 30.3315 18.8817 30.6495 19.1161 30.8839C19.3505 31.1183 19.6685 31.25 20 31.25C20.3315 31.25 20.6495 31.1183 20.8839 30.8839C21.1183 30.6495 21.25 30.3315 21.25 30H23.75C23.75 30.9946 23.3549 31.9484 22.6517 32.6517C21.9484 33.3549 20.9946 33.75 20 33.75C19.0054 33.75 18.0516 33.3549 17.3483 32.6517C16.6451 31.9484 16.25 30.9946 16.25 30H18.75ZM20 6.25001C20.69 6.25001 21.25 6.80376 21.25 7.49876V8.75126L21.2475 8.80751C26.3937 9.32501 30 13.3125 30 18.75V21.25C30 23.3375 30.275 24.1325 30.9338 24.8725C30.9912 24.9375 31.0525 25.0038 31.1888 25.1513C32.1125 26.1638 32.5 27.055 32.5 28.75C32.5 29.0815 32.3683 29.3995 32.1339 29.6339C31.8995 29.8683 31.5815 30 31.25 30H8.75C8.41848 30 8.10054 29.8683 7.86612 29.6339C7.6317 29.3995 7.5 29.0815 7.5 28.75C7.5 27.055 7.8875 26.1625 8.8125 25.1513L9.06625 24.8725C9.72375 24.1325 10 23.3388 10 21.25V18.75C10 13.3525 13.5825 9.40501 18.7537 8.82501C18.7506 8.80014 18.7494 8.77506 18.75 8.75001V7.49876C18.7497 7.33457 18.7818 7.17194 18.8445 7.0202C18.9072 6.86846 18.9993 6.73062 19.1155 6.61458C19.2316 6.49854 19.3696 6.40659 19.5214 6.34403C19.6731 6.28146 19.8358 6.24951 20 6.25001ZM20.0962 11.25C15.5837 11.25 12.5 14.2875 12.5 18.75V21.25C12.5 23.9275 12.0175 25.315 10.9337 26.5338C10.8625 26.615 10.7837 26.6988 10.6562 26.8388C10.4337 27.0825 10.2813 27.2763 10.1813 27.5H29.8187C29.7188 27.2775 29.5662 27.0825 29.3438 26.8375C29.2504 26.7371 29.1579 26.6358 29.0662 26.5338C27.9825 25.315 27.5 23.9275 27.5 21.25V18.75C27.5 14.295 24.465 11.25 20.0962 11.25Z" fill="black"/>
</svg>
