<svg width="24" height="24" viewBox="0 0 24 24" fill="none" xmlns="http://www.w3.org/2000/svg">
<path d="M13.8247 6.72005L16.5075 9.3818L17.694 8.2043L15.0112 5.5418L13.8247 6.7193V6.72005ZM15.54 3.96755L19.281 7.68005C19.3505 7.74869 19.4056 7.83044 19.4433 7.92056C19.4809 8.01068 19.5003 8.10738 19.5003 8.20505C19.5003 8.30272 19.4809 8.39941 19.4433 8.48953C19.4056 8.57966 19.3505 8.66141 19.281 8.73005L17.0362 10.9568C16.8954 11.0959 16.7054 11.174 16.5075 11.174C16.3095 11.174 16.1195 11.0959 15.9787 10.9568L15.7762 10.7565C14.8635 11.7885 14.259 12.8655 13.9035 13.9395C13.7698 14.3366 13.6729 14.745 13.614 15.1598C13.5911 15.3115 13.5784 15.4646 13.5757 15.618L13.5735 15.69C13.4872 16.731 12.4447 17.1015 11.706 16.3688L9.83323 14.5088C9.82009 14.5244 9.80633 14.5394 9.79198 14.5538L5.02498 19.284C4.88441 19.4233 4.69441 19.5013 4.49651 19.5009C4.29862 19.5005 4.10894 19.4217 3.96898 19.2818C3.89951 19.2134 3.8443 19.132 3.80654 19.0421C3.76878 18.9523 3.74923 18.8558 3.74903 18.7584C3.74882 18.6609 3.76795 18.5644 3.80532 18.4744C3.84269 18.3844 3.89755 18.3027 3.96673 18.234L8.73298 13.5053L8.77798 13.4648L6.78298 11.4848C6.04048 10.7483 6.41698 9.74255 7.44823 9.6338L7.54273 9.6293C7.62148 9.63005 7.77898 9.6218 8.00098 9.5918C8.41881 9.53338 8.83049 9.43724 9.23098 9.30455C10.3132 8.95205 11.3985 8.35055 12.438 7.44605L12.237 7.24505C12.1675 7.17641 12.1123 7.09465 12.0747 7.00453C12.037 6.91441 12.0176 6.81772 12.0176 6.72005C12.0176 6.62238 12.037 6.52568 12.0747 6.43556C12.1123 6.34544 12.1675 6.26369 12.237 6.19505L14.481 3.96755C14.6218 3.82818 14.812 3.75 15.0101 3.75C15.2082 3.75 15.3984 3.82818 15.5392 3.96755H15.54ZM13.5 8.49755C12.2835 9.5723 10.995 10.2915 9.69823 10.7145C9.23173 10.866 8.80948 10.9673 8.44198 11.0295L12.1635 14.7225C12.2265 14.358 12.3285 13.9388 12.4815 13.476C12.9075 12.1898 13.632 10.911 14.7165 9.70355L14.6085 9.59705L14.514 9.5033C14.1758 9.16787 13.8374 8.83223 13.4992 8.4968L13.5 8.49755Z" fill="black"/>
</svg>
