<svg width="32" height="32" viewBox="0 0 32 32" fill="none" xmlns="http://www.w3.org/2000/svg">
<path d="M6 10.0001C5.99998 8.95651 6.40779 7.95427 7.1364 7.20719C7.86502 6.46011 8.85674 6.02735 9.89997 6.00125C10.9432 5.97516 11.9553 6.35779 12.7204 7.0675C13.4854 7.77721 13.9428 8.75781 13.995 9.80006L14 10.0001V12.0001C14 12.2653 14.1054 12.5196 14.2929 12.7072C14.4804 12.8947 14.7348 13.0001 15 13.0001H21.993C22.2559 12.9991 22.5164 13.0501 22.7596 13.1499C23.0028 13.2498 23.2239 13.3966 23.4103 13.582C23.5967 13.7673 23.7448 13.9877 23.8459 14.2303C23.9471 14.473 23.9995 14.7332 24 14.9961V24.0041C23.9995 24.267 23.9471 24.5272 23.8459 24.7698C23.7448 25.0125 23.5967 25.2328 23.4103 25.4182C23.2239 25.6036 23.0028 25.7504 22.7596 25.8502C22.5164 25.9501 22.2559 26.001 21.993 26.0001H10.007C9.7441 26.001 9.48361 25.9501 9.24041 25.8502C8.99721 25.7504 8.77608 25.6036 8.58967 25.4182C8.40327 25.2328 8.25524 25.0125 8.15406 24.7698C8.05287 24.5272 8.00052 24.267 8 24.0041V17.0001L8.007 16.8831C8.0371 16.63 8.16271 16.3979 8.35817 16.2343C8.55362 16.0707 8.80416 15.988 9.05861 16.0029C9.31305 16.0178 9.55218 16.1294 9.72715 16.3147C9.90212 16.5 9.99972 16.7452 10 17.0001V15.9991L10.003 15.9831V17.2481L10.002 17.5101L10.001 19.2091V19.5021L10 24.0041H10.397L10.533 24.0031H11.463L11.693 24.0021H13.604L13.91 24.0001H21.812H21.993L21.994 23.9501L21.995 23.7041V23.4381L21.996 23.2781V22.7021L21.997 22.4821V21.7521L21.998 21.4901L21.999 19.7911V19.4981L22 15.0081V14.9961H21.603L21.467 14.9971H20.537L20.307 14.9981H18.396L18.09 15.0001H13.186H14C13.4696 15.0001 12.9609 14.7893 12.5858 14.4143C12.2107 14.0392 12 13.5305 12 13.0001V10.0001C12 9.46963 11.7893 8.96092 11.4142 8.58585C11.0391 8.21078 10.5304 8.00006 10 8.00006C9.46957 8.00006 8.96086 8.21078 8.58579 8.58585C8.21071 8.96092 8 9.46963 8 10.0001V11.0001C8 11.2653 7.89464 11.5196 7.70711 11.7072C7.51957 11.8947 7.26522 12.0001 7 12.0001C6.73478 12.0001 6.48043 11.8947 6.29289 11.7072C6.10536 11.5196 6 11.2653 6 11.0001V10.0001ZM16 17.0001C16.552 17.0001 17 17.4441 17 18.0001V22.0001H15V18.0001C15 17.4481 15.444 17.0001 16 17.0001Z" fill="black"/>
</svg>
