<svg width="40" height="40" viewBox="0 0 40 40" fill="none" xmlns="http://www.w3.org/2000/svg">
<path d="M19.1165 7.86623C19.3509 7.63189 19.6688 7.50024 20.0002 7.50024C20.3317 7.50024 20.6496 7.63189 20.884 7.86623L30.884 17.8662C31.1117 18.102 31.2377 18.4177 31.2348 18.7455C31.232 19.0732 31.1005 19.3867 30.8687 19.6185C30.637 19.8503 30.3235 19.9817 29.9957 19.9846C29.668 19.9874 29.3522 19.8614 29.1165 19.6337L21.2502 11.7675V31.25C21.2502 31.5561 21.1378 31.8517 20.9343 32.0804C20.7309 32.3092 20.4505 32.4554 20.1465 32.4912L20.0002 32.5C19.6687 32.5 19.3508 32.3683 19.1163 32.1339C18.8819 31.8994 18.7502 31.5815 18.7502 31.25V11.7675L10.884 19.6337C10.6687 19.8489 10.3824 19.9782 10.0786 19.9973C9.77479 20.0164 9.47448 19.924 9.23397 19.7375L9.11647 19.6337C8.88213 19.3993 8.75049 19.0814 8.75049 18.75C8.75049 18.4185 8.88213 18.1006 9.11647 17.8662L19.1165 7.86623Z" fill="black"/>
</svg>
