<svg width="32" height="32" viewBox="0 0 32 32" fill="none" xmlns="http://www.w3.org/2000/svg">
<path d="M15.9999 6C16.2651 6 16.5195 6.10536 16.707 6.29289C16.8946 6.48043 16.9999 6.73478 16.9999 7V22.585L23.2929 16.293C23.4651 16.1208 23.6942 16.0174 23.9372 16.0021C24.1803 15.9868 24.4205 16.0607 24.6129 16.21L24.7069 16.293C24.8944 16.4805 24.9997 16.7348 24.9997 17C24.9997 17.2652 24.8944 17.5195 24.7069 17.707L16.7069 25.707C16.5194 25.8945 16.2651 25.9998 15.9999 25.9998C15.7348 25.9998 15.4804 25.8945 15.2929 25.707L7.29292 17.707C7.11076 17.5184 7.00997 17.2658 7.01224 17.0036C7.01452 16.7414 7.11969 16.4906 7.3051 16.3052C7.49051 16.1198 7.74132 16.0146 8.00352 16.0123C8.26571 16.01 8.51832 16.1108 8.70692 16.293L14.9999 22.585V7C14.9999 6.75507 15.0899 6.51866 15.2526 6.33563C15.4154 6.15259 15.6397 6.03566 15.8829 6.007L15.9999 6Z" fill="black"/>
</svg>
