<svg width="32" height="32" viewBox="0 0 32 32" fill="none" xmlns="http://www.w3.org/2000/svg">
<path d="M25.0001 6C25.7957 6 26.5588 6.31607 27.1214 6.87868C27.684 7.44129 28.0001 8.20435 28.0001 9V15C28.0001 15.7956 27.684 16.5587 27.1214 17.1213C26.5588 17.6839 25.7957 18 25.0001 18H23.0001V21.397C23.0002 22.162 22.7079 22.8982 22.1832 23.4549C21.6584 24.0117 20.9408 24.3469 20.1771 24.392L20.0011 24.397H9.8201L5.4961 26.868C5.33353 26.9609 5.14816 27.0063 4.96108 26.999C4.774 26.9917 4.59272 26.932 4.43787 26.8268C4.28303 26.7215 4.16084 26.5749 4.08521 26.4037C4.00959 26.2324 3.98356 26.0433 4.0101 25.858L5.0001 18.928V13.397C5.0001 12.6014 5.31617 11.8383 5.87878 11.2757C6.44138 10.7131 7.20445 10.397 8.0001 10.397L12.0001 10.396V9C12.0001 8.20435 12.3162 7.44129 12.8788 6.87868C13.4414 6.31607 14.2044 6 15.0001 6H25.0001ZM20.0001 12.397H8.0001C7.73488 12.397 7.48053 12.5024 7.29299 12.6899C7.10545 12.8774 7.0001 13.1318 7.0001 13.397V19L6.9901 19.141L6.2801 24.117L9.0601 22.529C9.21113 22.4426 9.38209 22.3971 9.5561 22.397H20.0011C20.2663 22.397 20.5207 22.2916 20.7082 22.1041C20.8957 21.9166 21.0011 21.6622 21.0011 21.397V13.397C21.0011 13.1318 20.8957 12.8774 20.7082 12.6899C20.5207 12.5024 20.2663 12.397 20.0011 12.397H20.0001ZM25.0001 8H15.0001C14.7349 8 14.4805 8.10536 14.293 8.29289C14.1055 8.48043 14.0001 8.73478 14.0001 9V10.396H20.0001C20.7656 10.3957 21.5023 10.6881 22.0593 11.2133C22.6163 11.7385 22.9514 12.4568 22.9961 13.221L23.0011 13.397L23.0001 16H25.0001C25.2653 16 25.5197 15.8946 25.7072 15.7071C25.8947 15.5196 26.0001 15.2652 26.0001 15V9C26.0001 8.73478 25.8947 8.48043 25.7072 8.29289C25.5197 8.10536 25.2653 8 25.0001 8Z" fill="black"/>
</svg>
