<svg width="24" height="24" viewBox="0 0 24 24" fill="none" xmlns="http://www.w3.org/2000/svg">
<path d="M12 3.75C16.5562 3.75 20.25 7.44375 20.25 12C20.25 16.5562 16.5562 20.25 12 20.25C7.44375 20.25 3.75 16.5562 3.75 12C3.75 7.44375 7.44375 3.75 12 3.75ZM9.92775 15.126L9.879 15.1823L7.7865 17.2748C8.98191 18.2322 10.4684 18.7527 12 18.75C13.5314 18.7523 15.0176 18.2315 16.2128 17.274L14.121 15.1815L14.0723 15.126C13.4583 15.5341 12.7372 15.7512 12 15.75C11.2628 15.7512 10.5417 15.5341 9.92775 15.126ZM17.274 7.78725L15.1815 9.879L15.126 9.92775C15.5205 10.5225 15.75 11.235 15.75 12C15.7512 12.7372 15.5341 13.4583 15.126 14.0723C15.1455 14.0873 15.1643 14.1037 15.1823 14.121L17.2748 16.2135C18.2322 15.0181 18.7527 13.5316 18.75 12C18.7523 10.4686 18.2315 8.98236 17.274 7.78725ZM5.25 12C5.25 13.5938 5.802 15.0585 6.726 16.2128L8.8185 14.121L8.874 14.0723C8.46593 13.4583 8.2488 12.7372 8.25 12C8.25 11.2343 8.4795 10.5218 8.874 9.92775C8.85419 9.91276 8.8354 9.89648 8.81775 9.879L6.72525 7.7865C5.76782 8.98191 5.24735 10.4684 5.25 12ZM12 9.75C11.4033 9.75 10.831 9.98705 10.409 10.409C9.98705 10.831 9.75 11.4033 9.75 12C9.75 12.5967 9.98705 13.169 10.409 13.591C10.831 14.0129 11.4033 14.25 12 14.25C12.5967 14.25 13.169 14.0129 13.591 13.591C14.0129 13.169 14.25 12.5967 14.25 12C14.25 11.4033 14.0129 10.831 13.591 10.409C13.169 9.98705 12.5967 9.75 12 9.75ZM12 5.25C10.4686 5.24773 8.98236 5.76846 7.78725 6.726L9.879 8.8185L9.92775 8.874C10.5417 8.46593 11.2628 8.2488 12 8.25C12.7657 8.25 13.4783 8.4795 14.0723 8.874L14.121 8.81775L16.2135 6.72525C15.0181 5.76782 13.5316 5.24735 12 5.25Z" fill="black"/>
</svg>
