<svg width="24" height="24" viewBox="0 0 24 24" fill="none" xmlns="http://www.w3.org/2000/svg">
<path d="M8.9205 7.83525C8.85826 7.95981 8.76257 8.06458 8.64414 8.13784C8.52572 8.21109 8.38925 8.24993 8.25 8.25H5.25V17.25H18.75V8.25H15.75C15.6108 8.24993 15.4743 8.21109 15.3559 8.13784C15.2374 8.06458 15.1417 7.95981 15.0795 7.83525L14.5365 6.75H9.4635L8.9205 7.83525ZM14.5365 5.25C14.8151 5.25001 15.0882 5.32762 15.3252 5.47413C15.5622 5.62064 15.7537 5.83026 15.8783 6.0795L16.2135 6.75H18.75C19.1478 6.75 19.5294 6.90804 19.8107 7.18934C20.092 7.47064 20.25 7.85218 20.25 8.25V17.25C20.25 17.6478 20.092 18.0294 19.8107 18.3107C19.5294 18.592 19.1478 18.75 18.75 18.75H5.25C4.85218 18.75 4.47064 18.592 4.18934 18.3107C3.90804 18.0294 3.75 17.6478 3.75 17.25V8.25C3.75 7.85218 3.90804 7.47064 4.18934 7.18934C4.47064 6.90804 4.85218 6.75 5.25 6.75H7.7865L8.12175 6.0795C8.24629 5.83026 8.43779 5.62064 8.67478 5.47413C8.91177 5.32762 9.18488 5.25001 9.4635 5.25H14.5365ZM12 9C11.0054 9 10.0516 9.39509 9.34835 10.0983C8.64509 10.8016 8.25 11.7554 8.25 12.75C8.25 13.7446 8.64509 14.6984 9.34835 15.4017C10.0516 16.1049 11.0054 16.5 12 16.5C12.9946 16.5 13.9484 16.1049 14.6517 15.4017C15.3549 14.6984 15.75 13.7446 15.75 12.75C15.75 11.7554 15.3549 10.8016 14.6517 10.0983C13.9484 9.39509 12.9946 9 12 9ZM12 10.5C12.5967 10.5 13.169 10.7371 13.591 11.159C14.0129 11.581 14.25 12.1533 14.25 12.75C14.25 13.3467 14.0129 13.919 13.591 14.341C13.169 14.7629 12.5967 15 12 15C11.4033 15 10.831 14.7629 10.409 14.341C9.98705 13.919 9.75 13.3467 9.75 12.75C9.75 12.1533 9.98705 11.581 10.409 11.159C10.831 10.7371 11.4033 10.5 12 10.5Z" fill="black"/>
</svg>
