<svg width="32" height="32" viewBox="0 0 32 32" fill="none" xmlns="http://www.w3.org/2000/svg">
<path d="M21.5 6C23.646 6 25.281 6.422 26.462 7.148C27.237 7.625 27.689 8.142 27.894 8.553C27.9635 8.69176 27.9998 8.84479 28 9V25C28 26.055 26.577 26.391 26.106 25.447C26.111 25.459 26.086 25.421 26.021 25.346C25.844 25.152 25.6391 24.9855 25.413 24.852C24.563 24.328 23.291 24 21.5 24C19.709 24 18.437 24.328 17.587 24.852C17.317 25.017 17.119 25.186 16.979 25.346C16.9546 25.374 16.9309 25.4027 16.908 25.432C16.8481 25.5621 16.7592 25.6767 16.648 25.767C16.485 25.9086 16.2788 25.9908 16.063 26H15.937C15.7211 25.9908 15.5147 25.9091 15.351 25.768C15.2403 25.6768 15.1515 25.562 15.091 25.432C15.0688 25.4025 15.0454 25.3738 15.021 25.346C14.844 25.152 14.6391 24.9855 14.413 24.852C13.563 24.328 12.291 24 10.5 24C8.709 24 7.437 24.328 6.587 24.852C6.317 25.017 6.119 25.186 5.979 25.346C5.914 25.421 5.889 25.459 5.894 25.447C5.423 26.391 4 26.055 4 25V9C4.00017 8.84479 4.03646 8.69176 4.106 8.553C4.311 8.143 4.763 7.625 5.538 7.148C6.72 6.422 8.354 6 10.5 6C12.646 6 14.281 6.422 15.462 7.148C15.662 7.272 15.842 7.398 16.002 7.525C16.1724 7.38797 16.3514 7.26205 16.538 7.148C17.72 6.422 19.354 6 21.5 6ZM10.5 8C8.709 8 7.437 8.328 6.587 8.852C6.37029 8.9804 6.17269 9.13861 6 9.322V22.892C7.133 22.323 8.62 22 10.5 22C12.38 22 13.867 22.323 15 22.892V9.322C14.8273 9.13861 14.6297 8.9804 14.413 8.852C13.563 8.328 12.291 8 10.5 8ZM21.5 8C19.709 8 18.437 8.328 17.587 8.852C17.3703 8.9804 17.1727 9.13861 17 9.322V22.892C18.133 22.323 19.62 22 21.5 22C23.38 22 24.867 22.323 26 22.892V9.322C25.8273 9.13861 25.6297 8.9804 25.413 8.852C24.563 8.328 23.291 8 21.5 8Z" fill="black"/>
</svg>
