<svg width="32" height="32" viewBox="0 0 32 32" fill="none" xmlns="http://www.w3.org/2000/svg">
<path d="M7 19C7.24493 19 7.48134 19.09 7.66437 19.2527C7.84741 19.4155 7.96434 19.6397 7.993 19.883L8 20L7.999 22.585L11.293 19.293C11.4652 19.1208 11.6943 19.0174 11.9373 19.0021C12.1803 18.9868 12.4206 19.0607 12.613 19.21L12.707 19.293C12.8792 19.4652 12.9826 19.6943 12.9979 19.9373C13.0132 20.1803 12.9393 20.4206 12.79 20.613L12.707 20.707L9.414 24H12C12.2449 24 12.4813 24.09 12.6644 24.2527C12.8474 24.4155 12.9643 24.6397 12.993 24.883L13 25C13 25.2449 12.91 25.4813 12.7473 25.6644C12.5845 25.8474 12.3603 25.9643 12.117 25.993L12 26H7C6.75507 26 6.51866 25.91 6.33563 25.7473C6.15259 25.5845 6.03566 25.3603 6.007 25.117L6 25V20C6 19.7348 6.10536 19.4804 6.29289 19.2929C6.48043 19.1054 6.73478 19 7 19ZM25 19C25.2449 19 25.4813 19.09 25.6644 19.2527C25.8474 19.4155 25.9643 19.6397 25.993 19.883L26 20V25L25.993 25.117C25.9667 25.3402 25.8659 25.5481 25.707 25.707C25.5481 25.8659 25.3402 25.9667 25.117 25.993L25 26H20L19.883 25.993C19.6598 25.9667 19.4519 25.8659 19.293 25.707C19.1341 25.5481 19.0333 25.3402 19.007 25.117L19 25L19.007 24.883C19.0333 24.6598 19.1341 24.4519 19.293 24.293C19.4519 24.1341 19.6598 24.0333 19.883 24.007L20 24H22.586L19.293 20.707L19.21 20.613C19.0739 20.4376 19.0001 20.222 19.0001 20C19.0001 19.778 19.0739 19.5624 19.21 19.387L19.293 19.293L19.387 19.21C19.5624 19.0739 19.778 19.0001 20 19.0001C20.222 19.0001 20.4376 19.0739 20.613 19.21L20.707 19.293L24.001 22.585L24 20L24.007 19.883C24.0357 19.6397 24.1526 19.4155 24.3356 19.2527C24.5187 19.09 24.7551 19 25 19ZM15.293 13.879L16 14.586L16.707 13.879C16.7992 13.7835 16.9096 13.7073 17.0316 13.6549C17.1536 13.6025 17.2848 13.5749 17.4176 13.5737C17.5504 13.5726 17.6821 13.5979 17.805 13.6482C17.9279 13.6985 18.0395 13.7727 18.1334 13.8666C18.2273 13.9605 18.3015 14.0722 18.3518 14.195C18.4021 14.3179 18.4274 14.4496 18.4263 14.5824C18.4251 14.7152 18.3975 14.8464 18.3451 14.9684C18.2927 15.0904 18.2165 15.2008 18.121 15.293L17.414 16L18.121 16.707C18.2165 16.7992 18.2927 16.9096 18.3451 17.0316C18.3975 17.1536 18.4251 17.2848 18.4263 17.4176C18.4274 17.5504 18.4021 17.6821 18.3518 17.805C18.3015 17.9279 18.2273 18.0395 18.1334 18.1334C18.0395 18.2273 17.9279 18.3015 17.805 18.3518C17.6821 18.4021 17.5504 18.4274 17.4176 18.4263C17.2848 18.4251 17.1536 18.3975 17.0316 18.3451C16.9096 18.2927 16.7992 18.2165 16.707 18.121L16 17.414L15.293 18.121C15.2008 18.2165 15.0904 18.2927 14.9684 18.3451C14.8464 18.3975 14.7152 18.4251 14.5824 18.4263C14.4496 18.4274 14.3179 18.4021 14.195 18.3518C14.0722 18.3015 13.9605 18.2273 13.8666 18.1334C13.7727 18.0395 13.6985 17.9279 13.6482 17.805C13.5979 17.6821 13.5726 17.5504 13.5737 17.4176C13.5749 17.2848 13.6025 17.1536 13.6549 17.0316C13.7073 16.9096 13.7835 16.7992 13.879 16.707L14.586 16L13.879 15.293C13.7835 15.2008 13.7073 15.0904 13.6549 14.9684C13.6025 14.8464 13.5749 14.7152 13.5737 14.5824C13.5726 14.4496 13.5979 14.3179 13.6482 14.195C13.6985 14.0722 13.7727 13.9605 13.8666 13.8666C13.9605 13.7727 14.0722 13.6985 14.195 13.6482C14.3179 13.5979 14.4496 13.5726 14.5824 13.5737C14.7152 13.5749 14.8464 13.6025 14.9684 13.6549C15.0904 13.7073 15.2008 13.7835 15.293 13.879ZM25 6C25.2449 6.00003 25.4813 6.08996 25.6644 6.25272C25.8474 6.41547 25.9643 6.63975 25.993 6.883L26 7V12C25.9997 12.2549 25.9021 12.5 25.7272 12.6854C25.5522 12.8707 25.313 12.9822 25.0586 12.9972C24.8042 13.0121 24.5536 12.9293 24.3582 12.7657C24.1627 12.6021 24.0371 12.3701 24.007 12.117L24 12L23.999 9.415L20.707 12.707C20.5348 12.8792 20.3057 12.9826 20.0627 12.9979C19.8197 13.0132 19.5794 12.9393 19.387 12.79L19.293 12.707C19.1208 12.5348 19.0174 12.3057 19.0021 12.0627C18.9868 11.8197 19.0607 11.5794 19.21 11.387L19.293 11.293L22.584 8H20C19.7551 7.99997 19.5187 7.91004 19.3356 7.74728C19.1526 7.58453 19.0357 7.36025 19.007 7.117L19 7C19 6.75507 19.09 6.51866 19.2527 6.33563C19.4155 6.15259 19.6397 6.03566 19.883 6.007L20 6H25ZM12 6L12.117 6.007C12.3402 6.03332 12.5481 6.13408 12.707 6.29301C12.8659 6.45194 12.9667 6.65978 12.993 6.883L13 7L12.993 7.117C12.9667 7.34022 12.8659 7.54806 12.707 7.70699C12.5481 7.86592 12.3402 7.96668 12.117 7.993L12 8H9.416L12.707 11.293L12.79 11.387C12.9261 11.5624 12.9999 11.778 12.9999 12C12.9999 12.222 12.9261 12.4376 12.79 12.613L12.707 12.707L12.613 12.79C12.4376 12.9261 12.222 12.9999 12 12.9999C11.778 12.9999 11.5624 12.9261 11.387 12.79L11.293 12.707L8 9.415V12L7.993 12.117C7.96409 12.36 7.84704 12.5841 7.66404 12.7466C7.48103 12.9091 7.24476 12.9989 7 12.9989C6.75524 12.9989 6.51897 12.9091 6.33596 12.7466C6.15296 12.5841 6.03591 12.36 6.007 12.117L6 12V7L6.007 6.883C6.03332 6.65978 6.13408 6.45194 6.29301 6.29301C6.45194 6.13408 6.65978 6.03332 6.883 6.007L7 6H12Z" fill="black"/>
</svg>
