<svg width="24" height="24" viewBox="0 0 24 24" fill="none" xmlns="http://www.w3.org/2000/svg">
<path d="M11.9999 17.25H12.0149C12.0322 17.25 12.0494 17.2485 12.0674 17.247L11.9999 17.25C12.1676 17.2495 12.3304 17.1934 12.4627 17.0903L12.4687 17.085L12.5302 17.0303L17.0302 12.5303C17.1668 12.3888 17.2424 12.1993 17.2407 12.0027C17.239 11.8061 17.1601 11.6179 17.0211 11.4789C16.882 11.3398 16.6939 11.261 16.4972 11.2592C16.3006 11.2575 16.1111 11.3331 15.9697 11.4698L12.7499 14.6895V7.5C12.7499 7.30109 12.6709 7.11032 12.5303 6.96967C12.3896 6.82902 12.1989 6.75 11.9999 6.75C11.801 6.75 11.6103 6.82902 11.4696 6.96967C11.329 7.11032 11.2499 7.30109 11.2499 7.5V14.6895L8.03019 11.4698C7.961 11.3981 7.87825 11.341 7.78674 11.3017C7.69524 11.2624 7.59682 11.2417 7.49724 11.2408C7.39766 11.2399 7.2989 11.2589 7.20672 11.2966C7.11455 11.3343 7.03081 11.39 6.96039 11.4605C6.88997 11.5309 6.83428 11.6146 6.79657 11.7068C6.75886 11.799 6.73989 11.8977 6.74075 11.9973C6.74162 12.0969 6.76231 12.1953 6.80161 12.2868C6.84092 12.3783 6.89806 12.4611 6.96969 12.5303L11.4697 17.0303L11.5312 17.085L11.5372 17.0903L11.4697 17.0303C11.6073 17.1671 11.7924 17.2458 11.9864 17.25H11.9999Z" fill="black"/>
</svg>
