<svg width="24" height="24" viewBox="0 0 24 24" fill="none" xmlns="http://www.w3.org/2000/svg">
<path d="M9.96975 12.9697C10.1112 12.8331 10.3007 12.7575 10.4973 12.7592C10.6939 12.761 10.8821 12.8398 11.0211 12.9789C11.1602 13.1179 11.239 13.3061 11.2408 13.5027C11.2425 13.6993 11.1669 13.8888 11.0302 14.0303L7.0605 18H9C9.1837 18 9.361 18.0675 9.49828 18.1895C9.63556 18.3116 9.72326 18.4798 9.74475 18.6622L9.75 18.75C9.75 18.9489 9.67098 19.1397 9.53033 19.2803C9.38968 19.421 9.19891 19.5 9 19.5H5.25C5.05109 19.5 4.86032 19.421 4.71967 19.2803C4.57902 19.1397 4.5 18.9489 4.5 18.75V15C4.5 14.8011 4.57902 14.6103 4.71967 14.4697C4.86032 14.329 5.05109 14.25 5.25 14.25C5.44891 14.25 5.63968 14.329 5.78033 14.4697C5.92098 14.6103 6 14.8011 6 15L5.99925 16.9387L9.96975 12.9697ZM18.75 4.5C18.9489 4.5 19.1397 4.57902 19.2803 4.71967C19.421 4.86032 19.5 5.05109 19.5 5.25V9C19.5 9.19891 19.421 9.38968 19.2803 9.53033C19.1397 9.67098 18.9489 9.75 18.75 9.75C18.5511 9.75 18.3603 9.67098 18.2197 9.53033C18.079 9.38968 18 9.19891 18 9L17.9993 7.06125L14.0303 11.0302C13.9011 11.1594 13.7293 11.237 13.547 11.2484C13.3647 11.2599 13.1846 11.2044 13.0402 11.0925L12.9697 11.0302C12.8291 10.8896 12.7502 10.6989 12.7502 10.5C12.7502 10.3011 12.8291 10.1104 12.9697 9.96975L16.938 6H15C14.8163 5.99998 14.639 5.93253 14.5017 5.81046C14.3644 5.68839 14.2767 5.52019 14.2552 5.33775L14.25 5.25C14.25 5.05109 14.329 4.86032 14.4697 4.71967C14.6103 4.57902 14.8011 4.5 15 4.5H18.75Z" fill="black"/>
</svg>
