<svg width="40" height="40" viewBox="0 0 40 40" fill="none" xmlns="http://www.w3.org/2000/svg">
<path d="M13.7548 10.2446L29.7554 26.2452C29.9322 26.4222 30.0603 26.6418 30.1274 26.8828C30.1945 27.1237 30.1984 27.3779 30.1385 27.6208C30.0787 27.8637 29.9573 28.0871 29.786 28.2693C29.6146 28.4516 29.3992 28.5866 29.1605 28.6613L5.88687 35.9343C5.63366 36.0131 5.36373 36.0212 5.10625 35.9577C4.84878 35.8942 4.61356 35.7615 4.42604 35.574C4.23852 35.3864 4.10584 35.1512 4.04233 34.8938C3.97882 34.6363 3.98691 34.3663 4.06572 34.1131L11.3387 10.8395C11.4132 10.6007 11.5481 10.3851 11.7303 10.2136C11.9125 10.0421 12.1358 9.9205 12.3787 9.86054C12.6216 9.80058 12.8759 9.80429 13.117 9.87131C13.358 9.93834 13.5777 10.0664 13.7548 10.2431V10.2446ZM11.2718 20.805L7.67021 32.3298L11.2718 31.2039V20.805ZM14.181 14.7829V30.2948L17.2269 29.3435C17.1368 29.1509 17.0901 28.9408 17.0902 28.7282V18.546C17.0902 18.2987 17.1513 18.066 17.2604 17.8623L14.181 14.7844V14.7829ZM19.9994 20.6028V28.4766L25.9982 26.6016L19.9994 20.6028ZM34.5454 18.546C34.9312 18.546 35.3012 18.6993 35.574 18.972C35.8468 19.2448 36 19.6148 36 20.0006C36 20.3864 35.8468 20.7564 35.574 21.0292C35.3012 21.3019 34.9312 21.4552 34.5454 21.4552H28.727C28.3412 21.4552 27.9712 21.3019 27.6984 21.0292C27.4257 20.7564 27.2724 20.3864 27.2724 20.0006C27.2724 19.6148 27.4257 19.2448 27.6984 18.972C27.9712 18.6993 28.3412 18.546 28.727 18.546H34.5454ZM34.1192 5.8808C34.3919 6.15358 34.5451 6.52349 34.5451 6.9092C34.5451 7.29491 34.3919 7.66482 34.1192 7.9376L26.8462 15.2106C26.5719 15.4756 26.2044 15.6222 25.823 15.6189C25.4416 15.6156 25.0768 15.4626 24.8071 15.1929C24.5374 14.9232 24.3844 14.5584 24.3811 14.177C24.3778 13.7956 24.5244 13.4281 24.7894 13.1538L32.0624 5.8808C32.3352 5.6081 32.7051 5.45491 33.0908 5.45491C33.4765 5.45491 33.8464 5.6081 34.1192 5.8808ZM19.9994 4C20.3852 4 20.7552 4.15325 21.028 4.42604C21.3008 4.69883 21.454 5.06882 21.454 5.4546V11.273C21.454 11.6588 21.3008 12.0288 21.028 12.3016C20.7552 12.5743 20.3852 12.7276 19.9994 12.7276C19.6136 12.7276 19.2436 12.5743 18.9708 12.3016C18.6981 12.0288 18.5448 11.6588 18.5448 11.273V5.4546C18.5448 5.06882 18.6981 4.69883 18.9708 4.42604C19.2436 4.15325 19.6136 4 19.9994 4Z" fill="black"/>
</svg>
