<svg width="40" height="40" viewBox="0 0 40 40" fill="none" xmlns="http://www.w3.org/2000/svg">
<path d="M21.6375 32.5C23.3175 32.5 24.7437 31.4775 25.4312 29.9413C25.6712 29.405 25.7725 28.8675 25.8988 27.7213L26.16 25.1163L29.1125 24.855C29.6041 24.8064 30.0813 24.6613 30.5167 24.428C30.9522 24.1947 31.3373 23.8778 31.6501 23.4954C31.9629 23.1131 32.1972 22.6728 32.3396 22.1998C32.482 21.7267 32.5297 21.2302 32.48 20.7388L32.0988 17.1913C31.4238 11.1625 31.0025 9.36375 29.9137 8.4875C29.1875 7.9025 28.5012 7.58125 27.6787 7.5125L27.42 7.5L27.0325 7.505H18.8275L18.6825 7.51L18.5363 7.5175L18.39 7.53C17.6415 7.6158 16.9359 7.92358 16.3637 8.41375C15.7964 7.88686 15.067 7.56821 14.295 7.51L14.0225 7.5H11.0475C9.075 7.5 7.60625 9.10875 7.505 10.975L7.5 11.185V21.3175C7.5 23.2025 8.8975 24.8775 10.83 24.995L11.0462 25.0013H14.0225C14.6675 25.0013 15.2575 24.83 15.7638 24.5325L16.13 24.7863C16.8663 25.2963 17.1562 25.7675 17.19 26.955L17.1938 27.2025C17.1938 28.4938 17.2912 29.165 17.6762 29.93L17.9725 30.4625C18.385 31.1875 19.0087 31.7713 19.7675 32.12C20.38 32.4 20.9812 32.5013 21.6375 32.5013V32.5ZM14.0225 22.5H11.0475L10.9187 22.4913C10.4562 22.4238 10.0838 21.9963 10.025 21.4638L10.0175 21.3163V11.1837L10.025 11.0363C10.0838 10.505 10.4562 10.0775 10.9187 10.01L11.0462 10H14.0225L14.1512 10.01C14.6137 10.0775 14.985 10.505 15.0437 11.0363L15.0525 11.1837V21.3163L15.0437 21.4638C14.985 21.9963 14.6137 22.4238 14.1512 22.4913L14.0225 22.5ZM21.6375 30C21.3577 30.0096 21.0791 29.9579 20.8212 29.8488C20.5413 29.7146 20.3104 29.496 20.1612 29.2238L19.9513 28.8563C19.8075 28.585 19.7362 28.3375 19.7162 27.6613L19.7113 27.2013C19.7113 24.7888 18.815 23.6413 17.72 22.8413L17.57 22.735V11.255L17.5775 11.11C17.64 10.5837 18.03 10.1575 18.54 10.0388L18.6812 10.0137L18.8275 10.005H27.1425L27.34 10L27.4312 10.0025C27.675 10.015 27.9062 10.09 28.3288 10.43C28.7262 10.75 29.275 14.2713 29.9763 20.9963C30.0076 21.3019 29.9252 21.6084 29.7449 21.8572C29.5646 22.106 29.299 22.2796 28.9987 22.345L28.835 22.37L23.93 22.8025L23.8862 23.0588L23.8037 23.6113C23.5287 25.62 23.3962 28.3338 23.1312 28.925C22.8287 29.6013 22.2687 30 21.6375 30Z" fill="black"/>
</svg>
