<svg width="24" height="24" viewBox="0 0 24 24" fill="none" xmlns="http://www.w3.org/2000/svg">
<path d="M9.16602 14.9075V8.76047C9.16602 8.69353 9.18393 8.62781 9.21791 8.57013C9.25188 8.51246 9.30068 8.46493 9.35923 8.43248C9.41778 8.40003 9.48394 8.38384 9.55086 8.3856C9.61777 8.38735 9.683 8.40699 9.73977 8.44247L14.6575 11.516C14.7115 11.5497 14.7559 11.5966 14.7868 11.6522C14.8176 11.7078 14.8338 11.7704 14.8338 11.834C14.8338 11.8976 14.8176 11.9601 14.7868 12.0158C14.7559 12.0714 14.7115 12.1183 14.6575 12.152L9.73977 15.2255C9.683 15.2609 9.61777 15.2806 9.55086 15.2823C9.48394 15.2841 9.41778 15.2679 9.35923 15.2355C9.30068 15.203 9.25188 15.1555 9.21791 15.0978C9.18393 15.0401 9.16602 14.9744 9.16602 14.9075Z" fill="black"/>
</svg>
