<svg width="40" height="40" viewBox="0 0 40 40" fill="none" xmlns="http://www.w3.org/2000/svg">
<path d="M14.8774 15H25.1224C25.234 15 25.3435 15.0299 25.4397 15.0865C25.5358 15.1431 25.615 15.2244 25.6691 15.322C25.7232 15.4196 25.7502 15.5299 25.7472 15.6414C25.7443 15.7529 25.7116 15.8616 25.6524 15.9563L20.5299 24.1525C20.4738 24.2424 20.3956 24.3165 20.3029 24.3679C20.2102 24.4193 20.1059 24.4463 19.9999 24.4463C19.8939 24.4463 19.7897 24.4193 19.697 24.3679C19.6042 24.3165 19.5261 24.2424 19.4699 24.1525L14.3474 15.9563C14.2883 15.8616 14.2556 15.7529 14.2527 15.6414C14.2497 15.5299 14.2767 15.4196 14.3308 15.322C14.3849 15.2244 14.4641 15.1431 14.5602 15.0865C14.6563 15.0299 14.7659 15 14.8774 15Z" fill="black"/>
</svg>
