<svg width="40" height="40" viewBox="0 0 40 40" fill="none" xmlns="http://www.w3.org/2000/svg">
<path d="M14.8675 13.0587C14.7638 13.2664 14.6043 13.441 14.4069 13.5631C14.2095 13.6851 13.9821 13.7499 13.75 13.75H8.75V28.75H31.25V13.75H26.25C26.0179 13.7499 25.7905 13.6851 25.5931 13.5631C25.3957 13.441 25.2362 13.2664 25.1325 13.0587L24.2275 11.25H15.7725L14.8675 13.0587ZM24.2275 8.75C24.6919 8.75002 25.1471 8.87937 25.542 9.12355C25.937 9.36774 26.2562 9.71711 26.4637 10.1325L27.0225 11.25H31.25C31.913 11.25 32.5489 11.5134 33.0178 11.9822C33.4866 12.4511 33.75 13.087 33.75 13.75V28.75C33.75 29.413 33.4866 30.0489 33.0178 30.5178C32.5489 30.9866 31.913 31.25 31.25 31.25H8.75C8.08696 31.25 7.45107 30.9866 6.98223 30.5178C6.51339 30.0489 6.25 29.413 6.25 28.75V13.75C6.25 13.087 6.51339 12.4511 6.98223 11.9822C7.45107 11.5134 8.08696 11.25 8.75 11.25H12.9775L13.5363 10.1325C13.7438 9.71711 14.063 9.36774 14.458 9.12355C14.8529 8.87937 15.3081 8.75002 15.7725 8.75H24.2275ZM20 15C18.3424 15 16.7527 15.6585 15.5806 16.8306C14.4085 18.0027 13.75 19.5924 13.75 21.25C13.75 22.9076 14.4085 24.4973 15.5806 25.6694C16.7527 26.8415 18.3424 27.5 20 27.5C21.6576 27.5 23.2473 26.8415 24.4194 25.6694C25.5915 24.4973 26.25 22.9076 26.25 21.25C26.25 19.5924 25.5915 18.0027 24.4194 16.8306C23.2473 15.6585 21.6576 15 20 15ZM20 17.5C20.9946 17.5 21.9484 17.8951 22.6517 18.5983C23.3549 19.3016 23.75 20.2554 23.75 21.25C23.75 22.2446 23.3549 23.1984 22.6517 23.9017C21.9484 24.6049 20.9946 25 20 25C19.0054 25 18.0516 24.6049 17.3483 23.9017C16.6451 23.1984 16.25 22.2446 16.25 21.25C16.25 20.2554 16.6451 19.3016 17.3483 18.5983C18.0516 17.8951 19.0054 17.5 20 17.5Z" fill="black"/>
</svg>
