<svg width="32" height="32" viewBox="0 0 32 32" fill="none" xmlns="http://www.w3.org/2000/svg">
<path d="M13.465 8.61786L6.97297 13.9509C6.66893 14.1988 6.42388 14.5113 6.2556 14.8657C6.08731 15.2201 6 15.6075 6 15.9999C6 16.3922 6.08731 16.7796 6.2556 17.134C6.42388 17.4884 6.66893 17.8009 6.97297 18.0489L13.465 23.3819L13.593 23.4809C15.326 24.7449 17.896 23.5759 17.896 21.3319V20.6659L18.064 20.6889C19.389 20.8889 20.23 21.4049 21.512 22.6449C23.378 24.4519 26 22.7289 26 20.5349L25.996 20.2359C25.87 15.3939 22.686 12.3159 18.198 11.5459L17.896 11.4969V10.6669C17.896 8.36786 15.196 7.19686 13.465 8.61786ZM15.896 10.6679V13.3549C20.066 13.3549 24 15.4959 24 20.5349C24 21.1349 23.33 21.6219 22.903 21.2079C20.181 18.5729 18.205 18.5729 15.896 18.5729V21.3329C15.896 21.9029 15.189 22.2099 14.734 21.8359L8.24297 16.5039C8.16732 16.4434 8.10623 16.3668 8.06425 16.2795C8.02227 16.1923 8.00048 16.0967 8.00048 15.9999C8.00048 15.903 8.02227 15.8075 8.06425 15.7202C8.10623 15.633 8.16732 15.5563 8.24297 15.4959L14.734 10.1639C15.189 9.78986 15.896 10.0969 15.896 10.6679Z" fill="black"/>
</svg>
