<svg width="40" height="40" viewBox="0 0 40 40" fill="none" xmlns="http://www.w3.org/2000/svg">
<path d="M31.2501 7.5C32.2447 7.5 33.1985 7.89509 33.9018 8.59835C34.605 9.30161 35.0001 10.2554 35.0001 11.25V18.75C35.0001 19.7446 34.605 20.6984 33.9018 21.4017C33.1985 22.1049 32.2447 22.5 31.2501 22.5H28.7501V26.7463C28.7502 27.7026 28.3849 28.6228 27.729 29.3187C27.073 30.0146 26.176 30.4336 25.2214 30.49L25.0014 30.4963H12.2751L6.87012 33.585C6.66692 33.7011 6.4352 33.7578 6.20135 33.7487C5.9675 33.7396 5.7409 33.665 5.54734 33.5335C5.35379 33.4019 5.20105 33.2187 5.10652 33.0046C5.01198 32.7905 4.97945 32.5542 5.01262 32.3225L6.25012 23.66V16.7463C6.25012 15.7517 6.64521 14.7979 7.34847 14.0946C8.05173 13.3913 9.00556 12.9963 10.0001 12.9963L15.0001 12.995V11.25C15.0001 10.2554 15.3952 9.30161 16.0985 8.59835C16.8017 7.89509 17.7556 7.5 18.7501 7.5H31.2501ZM25.0001 15.4963H10.0001C9.6686 15.4963 9.35066 15.6279 9.11624 15.8624C8.88182 16.0968 8.75012 16.4147 8.75012 16.7463V23.75L8.73762 23.9263L7.85012 30.1463L11.3251 28.1612C11.5139 28.0532 11.7276 27.9964 11.9451 27.9963H25.0014C25.3329 27.9963 25.6508 27.8646 25.8853 27.6301C26.1197 27.3957 26.2514 27.0778 26.2514 26.7463V16.7463C26.2514 16.4147 26.1197 16.0968 25.8853 15.8624C25.6508 15.6279 25.3329 15.4963 25.0014 15.4963H25.0001ZM31.2501 10H18.7501C18.4186 10 18.1007 10.1317 17.8662 10.3661C17.6318 10.6005 17.5001 10.9185 17.5001 11.25V12.995H25.0001C25.9571 12.9946 26.8779 13.3601 27.5742 14.0166C28.2704 14.6731 28.6893 15.5709 28.7451 16.5262L28.7514 16.7463L28.7501 20H31.2501C31.5816 20 31.8996 19.8683 32.134 19.6339C32.3684 19.3995 32.5001 19.0815 32.5001 18.75V11.25C32.5001 10.9185 32.3684 10.6005 32.134 10.3661C31.8996 10.1317 31.5816 10 31.2501 10Z" fill="black"/>
</svg>
