<svg width="24" height="24" viewBox="0 0 24 24" fill="none" xmlns="http://www.w3.org/2000/svg">
<path d="M16.1611 12.5894C16.1915 12.5252 16.2395 12.4709 16.2995 12.4329C16.3595 12.3949 16.4291 12.3748 16.5001 12.3748C16.5712 12.3748 16.6407 12.3949 16.7007 12.4329C16.7608 12.4709 16.8087 12.5252 16.8391 12.5894L17.7031 14.4164L19.5564 14.6977C19.6194 14.7072 19.679 14.7326 19.7295 14.7715C19.78 14.8104 19.8197 14.8616 19.845 14.9201C19.8702 14.9787 19.8801 15.0427 19.8737 15.1062C19.8673 15.1696 19.8448 15.2303 19.8084 15.2827L19.7679 15.3314L18.4194 16.7024L18.7464 18.6892C18.757 18.7535 18.7507 18.8195 18.7281 18.8806C18.7054 18.9418 18.6672 18.996 18.6172 19.0378C18.5673 19.0797 18.5072 19.1078 18.4431 19.1194C18.3789 19.131 18.3128 19.1257 18.2514 19.1039L18.1959 19.0784L16.5001 18.1477L14.8044 19.0784C14.7473 19.1098 14.683 19.1258 14.6178 19.1248C14.5527 19.1238 14.4889 19.1058 14.4328 19.0727C14.3767 19.0395 14.3302 18.9923 14.2979 18.9357C14.2656 18.8791 14.2486 18.8151 14.2486 18.7499L14.2539 18.6892L14.5801 16.7024L13.2324 15.3314C13.1877 15.286 13.1554 15.2299 13.1385 15.1685C13.1216 15.107 13.1205 15.0423 13.1356 14.9804C13.1506 14.9185 13.1811 14.8614 13.2243 14.8146C13.2675 14.7677 13.3219 14.7327 13.3824 14.7127L13.4439 14.6977L15.2964 14.4164L16.1611 12.5894ZM7.16112 12.5894C7.19149 12.5252 7.23948 12.4709 7.29949 12.4329C7.35951 12.3949 7.42908 12.3748 7.50012 12.3748C7.57116 12.3748 7.64073 12.3949 7.70075 12.4329C7.76076 12.4709 7.80875 12.5252 7.83912 12.5894L8.70312 14.4164L10.5564 14.6977C10.6194 14.7072 10.679 14.7326 10.7295 14.7715C10.78 14.8104 10.8197 14.8616 10.845 14.9201C10.8702 14.9787 10.8801 15.0427 10.8737 15.1062C10.8673 15.1696 10.8448 15.2303 10.8084 15.2827L10.7679 15.3314L9.41937 16.7024L9.74637 18.6892C9.75701 18.7535 9.7507 18.8195 9.72805 18.8806C9.70541 18.9418 9.66721 18.996 9.61724 19.0378C9.56726 19.0797 9.50723 19.1078 9.44307 19.1194C9.37891 19.131 9.31284 19.1257 9.25137 19.1039L9.19587 19.0784L7.50012 18.1477L5.80437 19.0784C5.74727 19.1098 5.68298 19.1258 5.61782 19.1248C5.55267 19.1238 5.4889 19.1058 5.4328 19.0727C5.37671 19.0395 5.33022 18.9923 5.29792 18.9357C5.26562 18.8791 5.24863 18.8151 5.24862 18.7499L5.25387 18.6892L5.58012 16.7024L4.23237 15.3314C4.18774 15.286 4.15544 15.2299 4.1385 15.1685C4.12156 15.107 4.12055 15.0423 4.13556 14.9804C4.15057 14.9185 4.1811 14.8614 4.22429 14.8146C4.26747 14.7677 4.32188 14.7327 4.38237 14.7127L4.44387 14.6977L6.29637 14.4164L7.16112 12.5894ZM11.6611 4.33943C11.6915 4.27521 11.7395 4.22094 11.7995 4.18294C11.8595 4.14493 11.9291 4.12476 12.0001 4.12476C12.0712 4.12476 12.1407 4.14493 12.2007 4.18294C12.2608 4.22094 12.3087 4.27521 12.3391 4.33943L13.2031 6.16643L15.0564 6.44768C15.1194 6.45717 15.179 6.48258 15.2295 6.52151C15.28 6.56043 15.3197 6.61159 15.345 6.67014C15.3702 6.7287 15.3801 6.79272 15.3737 6.85616C15.3673 6.91959 15.3448 6.98035 15.3084 7.03268L15.2679 7.08143L13.9194 8.45243L14.2464 10.4392C14.257 10.5035 14.2507 10.5695 14.2281 10.6306C14.2054 10.6918 14.1672 10.746 14.1172 10.7878C14.0673 10.8297 14.0072 10.8578 13.9431 10.8694C13.8789 10.881 13.8128 10.8757 13.7514 10.8539L13.6959 10.8284L12.0001 9.89768L10.3044 10.8284C10.2473 10.8598 10.183 10.8758 10.1178 10.8748C10.0527 10.8738 9.9889 10.8558 9.9328 10.8227C9.87671 10.7895 9.83022 10.7423 9.79792 10.6857C9.76562 10.6291 9.74863 10.5651 9.74862 10.4999L9.75387 10.4392L10.0801 8.45243L8.73237 7.08143C8.68774 7.03596 8.65544 6.97987 8.6385 6.91846C8.62156 6.85704 8.62055 6.79232 8.63556 6.73041C8.65057 6.66849 8.6811 6.61142 8.72429 6.56458C8.76747 6.51773 8.82188 6.48267 8.88237 6.46268L8.94387 6.44768L10.7964 6.16643L11.6611 4.33943Z" fill="black"/>
</svg>
