<svg width="24" height="24" viewBox="0 0 24 24" fill="none" xmlns="http://www.w3.org/2000/svg">
<path d="M18.0052 4.5C18.8302 4.5 19.5 5.16975 19.5 5.99475V18.0052C19.5 18.8302 18.8302 19.5 18.0052 19.5H5.99475C5.16975 19.5 4.5 18.8302 4.5 18.0052V5.99475C4.5 5.16975 5.16975 4.5 5.99475 4.5H18.0052ZM18 6H6V18L6.8085 17.9985C7.02375 16.7085 7.845 15.864 9.41475 15.0795C9.55549 15.0091 9.7148 14.9848 9.87013 15.01C10.0255 15.0351 10.1689 15.1085 10.2802 15.2197C10.4542 15.393 10.6252 15.5122 10.806 15.5917C11.0745 15.7102 11.3152 15.7448 11.847 15.7493L12 15.75C12.6412 15.75 12.9007 15.7215 13.194 15.5917C13.374 15.5122 13.5465 15.393 13.719 15.2197C13.8304 15.1084 13.974 15.0349 14.1295 15.0097C14.285 14.9845 14.4444 15.009 14.5853 15.0795C16.155 15.864 16.9763 16.7093 17.1915 17.9993L18 18V6ZM14.3475 16.65C14.1763 16.7732 13.9929 16.8782 13.8 16.9635C13.2562 17.2035 12.843 17.25 12 17.25C11.157 17.25 10.7438 17.2043 10.2 16.9635C10.0071 16.8782 9.82366 16.7732 9.6525 16.65C8.90775 17.0723 8.4165 17.4668 8.25 18H15.75C15.5835 17.4668 15.0922 17.0723 14.3475 16.65ZM12 7.5C12.9946 7.5 13.9484 7.89509 14.6517 8.59835C15.3549 9.30161 15.75 10.2554 15.75 11.25C15.75 12.2446 15.3549 13.1984 14.6517 13.9017C13.9484 14.6049 12.9946 15 12 15C11.0054 15 10.0516 14.6049 9.34835 13.9017C8.64509 13.1984 8.25 12.2446 8.25 11.25C8.25 10.2554 8.64509 9.30161 9.34835 8.59835C10.0516 7.89509 11.0054 7.5 12 7.5ZM12 9C11.4033 9 10.831 9.23705 10.409 9.65901C9.98705 10.081 9.75 10.6533 9.75 11.25C9.75 11.8467 9.98705 12.419 10.409 12.841C10.831 13.2629 11.4033 13.5 12 13.5C12.5967 13.5 13.169 13.2629 13.591 12.841C14.0129 12.419 14.25 11.8467 14.25 11.25C14.25 10.6533 14.0129 10.081 13.591 9.65901C13.169 9.23705 12.5967 9 12 9Z" fill="black"/>
</svg>
