<svg width="24" height="24" viewBox="0 0 24 24" fill="none" xmlns="http://www.w3.org/2000/svg">
<path d="M12.0001 6.75H11.9851C11.9678 6.75 11.9506 6.7515 11.9326 6.753L12.0001 6.75C11.8324 6.75045 11.6696 6.80665 11.5373 6.90975L11.5313 6.915L11.4698 6.96975L6.96981 11.4698C6.83319 11.6112 6.7576 11.8007 6.75931 11.9973C6.76101 12.1939 6.83989 12.3821 6.97895 12.5211C7.118 12.6602 7.30611 12.739 7.50276 12.7408C7.69941 12.7425 7.88886 12.6669 8.03031 12.5303L11.2501 9.3105V16.5C11.2501 16.6989 11.3291 16.8897 11.4697 17.0303C11.6104 17.171 11.8011 17.25 12.0001 17.25C12.199 17.25 12.3897 17.171 12.5304 17.0303C12.671 16.8897 12.7501 16.6989 12.7501 16.5V9.3105L15.9698 12.5303C16.039 12.6019 16.1218 12.659 16.2133 12.6983C16.3048 12.7376 16.4032 12.7583 16.5028 12.7592C16.6023 12.7601 16.7011 12.7411 16.7933 12.7034C16.8854 12.6657 16.9692 12.61 17.0396 12.5395C17.11 12.4691 17.1657 12.3854 17.2034 12.2932C17.2411 12.201 17.2601 12.1023 17.2592 12.0027C17.2584 11.9031 17.2377 11.8047 17.1984 11.7132C17.1591 11.6217 17.1019 11.5389 17.0303 11.4698L12.5303 6.96975L12.4688 6.915C12.4668 6.91324 12.4648 6.91149 12.4628 6.90975L12.5303 6.96975C12.3927 6.83287 12.2076 6.75419 12.0136 6.75H12.0001Z" fill="black"/>
</svg>
