<svg width="24" height="24" viewBox="0 0 24 24" fill="none" xmlns="http://www.w3.org/2000/svg">
<path d="M5.25 14.25C5.4337 14.25 5.611 14.3175 5.74828 14.4395C5.88556 14.5616 5.97326 14.7298 5.99475 14.9122L6 15L5.99925 16.9387L8.46975 14.4697C8.59889 14.3406 8.77072 14.263 8.95299 14.2516C9.13526 14.2401 9.31545 14.2956 9.45975 14.4075L9.53025 14.4697C9.65938 14.5989 9.73696 14.7707 9.74842 14.953C9.75988 15.1353 9.70444 15.3154 9.5925 15.4598L9.53025 15.5303L7.0605 18H9C9.1837 18 9.361 18.0675 9.49828 18.1895C9.63556 18.3116 9.72326 18.4798 9.74475 18.6622L9.75 18.75C9.74998 18.9337 9.68253 19.111 9.56046 19.2483C9.43839 19.3856 9.27019 19.4733 9.08775 19.4948L9 19.5H5.25C5.0663 19.5 4.889 19.4325 4.75172 19.3105C4.61444 19.1884 4.52674 19.0202 4.50525 18.8378L4.5 18.75V15C4.5 14.8011 4.57902 14.6103 4.71967 14.4697C4.86032 14.329 5.05109 14.25 5.25 14.25ZM18.75 14.25C18.9337 14.25 19.111 14.3175 19.2483 14.4395C19.3856 14.5616 19.4733 14.7298 19.4948 14.9122L19.5 15V18.75L19.4948 18.8378C19.475 19.0052 19.3994 19.161 19.2802 19.2802C19.161 19.3994 19.0052 19.475 18.8378 19.4948L18.75 19.5H15L14.9122 19.4948C14.7448 19.475 14.589 19.3994 14.4698 19.2802C14.3506 19.161 14.275 19.0052 14.2552 18.8378L14.25 18.75L14.2552 18.6622C14.275 18.4948 14.3506 18.339 14.4698 18.2198C14.589 18.1006 14.7448 18.025 14.9122 18.0052L15 18H16.9395L14.4697 15.5303L14.4075 15.4598C14.3054 15.3282 14.2501 15.1665 14.2501 15C14.2501 14.8335 14.3054 14.6718 14.4075 14.5402L14.4697 14.4697L14.5402 14.4075C14.6718 14.3054 14.8335 14.2501 15 14.2501C15.1665 14.2501 15.3282 14.3054 15.4598 14.4075L15.5303 14.4697L18.0007 16.9387L18 15L18.0052 14.9122C18.0267 14.7298 18.1144 14.5616 18.2517 14.4395C18.389 14.3175 18.5663 14.25 18.75 14.25ZM11.4698 10.4092L12 10.9395L12.5303 10.4092C12.5994 10.3376 12.6822 10.2805 12.7737 10.2412C12.8652 10.2019 12.9636 10.1812 13.0632 10.1803C13.1628 10.1794 13.2615 10.1984 13.3537 10.2361C13.4459 10.2738 13.5296 10.3295 13.6 10.4C13.6705 10.4704 13.7262 10.5541 13.7639 10.6463C13.8016 10.7385 13.8206 10.8372 13.8197 10.9368C13.8188 11.0364 13.7981 11.1348 13.7588 11.2263C13.7195 11.3178 13.6624 11.4006 13.5907 11.4698L13.0605 12L13.5907 12.5303C13.6624 12.5994 13.7195 12.6822 13.7588 12.7737C13.7981 12.8652 13.8188 12.9636 13.8197 13.0632C13.8206 13.1628 13.8016 13.2615 13.7639 13.3537C13.7262 13.4459 13.6705 13.5296 13.6 13.6C13.5296 13.6705 13.4459 13.7262 13.3537 13.7639C13.2615 13.8016 13.1628 13.8206 13.0632 13.8197C12.9636 13.8188 12.8652 13.7981 12.7737 13.7588C12.6822 13.7195 12.5994 13.6624 12.5303 13.5907L12 13.0605L11.4698 13.5907C11.4006 13.6624 11.3178 13.7195 11.2263 13.7588C11.1348 13.7981 11.0364 13.8188 10.9368 13.8197C10.8372 13.8206 10.7385 13.8016 10.6463 13.7639C10.5541 13.7262 10.4704 13.6705 10.4 13.6C10.3295 13.5296 10.2738 13.4459 10.2361 13.3537C10.1984 13.2615 10.1794 13.1628 10.1803 13.0632C10.1812 12.9636 10.2019 12.8652 10.2412 12.7737C10.2805 12.6822 10.3376 12.5994 10.4092 12.5303L10.9395 12L10.4092 11.4698C10.3376 11.4006 10.2805 11.3178 10.2412 11.2263C10.2019 11.1348 10.1812 11.0364 10.1803 10.9368C10.1794 10.8372 10.1984 10.7385 10.2361 10.6463C10.2738 10.5541 10.3295 10.4704 10.4 10.4C10.4704 10.3295 10.5541 10.2738 10.6463 10.2361C10.7385 10.1984 10.8372 10.1794 10.9368 10.1803C11.0364 10.1812 11.1348 10.2019 11.2263 10.2412C11.3178 10.2805 11.4006 10.3376 11.4698 10.4092ZM18.75 4.5C18.9337 4.50002 19.111 4.56747 19.2483 4.68954C19.3856 4.81161 19.4733 4.97981 19.4948 5.16225L19.5 5.25V9C19.4998 9.19116 19.4266 9.37502 19.2954 9.51403C19.1641 9.65303 18.9848 9.73668 18.794 9.74788C18.6031 9.75908 18.4152 9.69699 18.2686 9.5743C18.122 9.45161 18.0278 9.27757 18.0052 9.08775L18 9L17.9993 7.06125L15.5303 9.53025C15.4011 9.65938 15.2293 9.73696 15.047 9.74842C14.8647 9.75988 14.6846 9.70444 14.5402 9.5925L14.4697 9.53025C14.3406 9.40111 14.263 9.22928 14.2516 9.04701C14.2401 8.86474 14.2956 8.68455 14.4075 8.54025L14.4697 8.46975L16.938 6H15C14.8163 5.99998 14.639 5.93253 14.5017 5.81046C14.3644 5.68839 14.2767 5.52019 14.2552 5.33775L14.25 5.25C14.25 5.0663 14.3175 4.889 14.4395 4.75172C14.5616 4.61444 14.7298 4.52674 14.9122 4.50525L15 4.5H18.75ZM9 4.5L9.08775 4.50525C9.25516 4.52499 9.41104 4.60056 9.53024 4.71976C9.64944 4.83896 9.72501 4.99484 9.74475 5.16225L9.75 5.25L9.74475 5.33775C9.72501 5.50516 9.64944 5.66104 9.53024 5.78024C9.41104 5.89944 9.25516 5.97501 9.08775 5.99475L9 6H7.062L9.53025 8.46975L9.5925 8.54025C9.69455 8.67178 9.74994 8.83352 9.74994 9C9.74994 9.16648 9.69455 9.32822 9.5925 9.45975L9.53025 9.53025L9.45975 9.5925C9.32822 9.69455 9.16648 9.74994 9 9.74994C8.83352 9.74994 8.67178 9.69455 8.54025 9.5925L8.46975 9.53025L6 7.06125V9L5.99475 9.08775C5.97307 9.27004 5.88528 9.43804 5.74803 9.55994C5.61077 9.68184 5.43357 9.74916 5.25 9.74916C5.06643 9.74916 4.88923 9.68184 4.75197 9.55994C4.61472 9.43804 4.52693 9.27004 4.50525 9.08775L4.5 9V5.25L4.50525 5.16225C4.52499 4.99484 4.60056 4.83896 4.71976 4.71976C4.83896 4.60056 4.99484 4.52499 5.16225 4.50525L5.25 4.5H9Z" fill="black"/>
</svg>
