<svg width="24" height="24" viewBox="0 0 24 24" fill="none" xmlns="http://www.w3.org/2000/svg">
<path d="M11.25 18C11.25 18.1989 11.329 18.3897 11.4697 18.5303C11.6103 18.671 11.8011 18.75 12 18.75C12.1989 18.75 12.3897 18.671 12.5303 18.5303C12.671 18.3897 12.75 18.1989 12.75 18H14.25C14.25 18.5967 14.0129 19.169 13.591 19.591C13.169 20.013 12.5967 20.25 12 20.25C11.4033 20.25 10.831 20.013 10.409 19.591C9.98705 19.169 9.75 18.5967 9.75 18H11.25ZM12 3.75C12.414 3.75 12.75 4.08225 12.75 4.49925V5.25075L12.7485 5.2845C15.8362 5.595 18 7.9875 18 11.25V12.75C18 14.0025 18.165 14.4795 18.5602 14.9235C18.5947 14.9625 18.6315 15.0023 18.7133 15.0908C19.2675 15.6983 19.5 16.233 19.5 17.25C19.5 17.4489 19.421 17.6397 19.2803 17.7803C19.1397 17.921 18.9489 18 18.75 18H5.25C5.05109 18 4.86032 17.921 4.71967 17.7803C4.57902 17.6397 4.5 17.4489 4.5 17.25C4.5 16.233 4.7325 15.6975 5.2875 15.0908L5.43975 14.9235C5.83425 14.4795 6 14.0033 6 12.75V11.25C6 8.0115 8.1495 5.643 11.2523 5.295C11.2504 5.28008 11.2496 5.26504 11.25 5.25V4.49925C11.2498 4.40074 11.2691 4.30316 11.3067 4.21212C11.3443 4.12108 11.3996 4.03837 11.4693 3.96875C11.539 3.89912 11.6217 3.84396 11.7128 3.80642C11.8039 3.76888 11.9015 3.74971 12 3.75ZM12.0577 6.75C9.35025 6.75 7.5 8.5725 7.5 11.25V12.75C7.5 14.3565 7.2105 15.189 6.56025 15.9203C6.5175 15.969 6.47025 16.0193 6.39375 16.1033C6.26025 16.2495 6.16875 16.3658 6.10875 16.5H17.8912C17.8312 16.3665 17.7397 16.2495 17.6063 16.1025C17.5502 16.0422 17.4947 15.9815 17.4398 15.9203C16.7895 15.189 16.5 14.3565 16.5 12.75V11.25C16.5 8.577 14.679 6.75 12.0577 6.75Z" fill="black"/>
</svg>
