<svg width="24" height="24" viewBox="0 0 24 24" fill="none" xmlns="http://www.w3.org/2000/svg">
<path d="M18.702 18.773C19.9895 17.2174 20.6927 15.2607 20.6899 13.2414C20.6899 8.44224 16.7994 4.55176 12.0002 4.55176C7.20103 4.55176 3.31055 8.44224 3.31055 13.2414C3.31055 15.3427 4.05703 17.2701 5.29841 18.773L3.55303 20.5184C3.47619 20.5952 3.41524 20.6864 3.37366 20.7868C3.33207 20.8872 3.31067 20.9948 3.31067 21.1035C3.31067 21.2121 3.33207 21.3197 3.37366 21.4201C3.41524 21.5205 3.47619 21.6117 3.55303 21.6886C3.62987 21.7654 3.72109 21.8264 3.82148 21.868C3.92187 21.9095 4.02947 21.9309 4.13813 21.9309C4.2468 21.9309 4.3544 21.9095 4.45479 21.868C4.55518 21.8264 4.6464 21.7654 4.72324 21.6886L6.46862 19.9432C7.97151 21.1846 9.89813 21.9311 12.0002 21.9311C14.1023 21.9311 16.0289 21.1846 17.5318 19.9432L19.2772 21.6886C19.3538 21.7657 19.445 21.8269 19.5454 21.8687C19.6458 21.9104 19.7535 21.9319 19.8623 21.9319C19.971 21.9319 20.0787 21.9104 20.1791 21.8687C20.2795 21.8269 20.3707 21.7657 20.4474 21.6886C20.5243 21.6118 20.5853 21.5206 20.627 21.4202C20.6686 21.3198 20.69 21.2122 20.69 21.1035C20.69 20.9948 20.6686 20.8872 20.627 20.7868C20.5853 20.6864 20.5243 20.5952 20.4474 20.5184L18.702 18.773ZM12.0002 21.1035C7.65786 21.1035 4.13813 17.5838 4.13813 13.2414C4.13813 8.89907 7.65786 5.37934 12.0002 5.37934C16.3425 5.37934 19.8623 8.89907 19.8623 13.2414C19.8623 17.5838 16.3425 21.1035 12.0002 21.1035Z" fill="black"/>
<path d="M12.0002 21.9311C7.20848 21.9311 3.31055 18.0331 3.31055 13.2414C3.31055 8.44969 7.20848 4.55176 12.0002 4.55176C16.7919 4.55176 20.6899 8.44969 20.6899 13.2414C20.6899 18.0331 16.7919 21.9311 12.0002 21.9311ZM12.0002 6.20693C8.12131 6.20693 4.96572 9.36252 4.96572 13.2414C4.96572 17.1203 8.12131 20.2759 12.0002 20.2759C15.8791 20.2759 19.0347 17.1203 19.0347 13.2414C19.0347 9.36252 15.8791 6.20693 12.0002 6.20693Z" fill="black"/>
<path d="M2.22212 9.89202C2.41922 9.31203 2.66794 8.75089 2.96529 8.21533C2.65058 7.74302 2.4827 7.18813 2.48281 6.62057C2.48281 5.02333 3.78212 3.72402 5.37936 3.72402C5.9686 3.72402 6.51646 3.90278 6.97412 4.2065C7.50968 3.90915 8.07082 3.66043 8.65081 3.46333C8.2276 3.02247 7.71965 2.67169 7.15747 2.43205C6.59529 2.19242 5.99048 2.06888 5.37936 2.06885C4.17264 2.07038 3.01578 2.55043 2.1625 3.40371C1.30922 4.25699 0.82917 5.41385 0.827637 6.62057C0.827667 7.23169 0.951209 7.8365 1.19084 8.39868C1.43048 8.96086 1.78126 9.46881 2.22212 9.89202ZM12.8276 14.0688H8.27591V12.4137H11.1725V7.86195H12.8276V14.0688ZM17.026 4.2065C17.4983 3.89179 18.0532 3.72391 18.6207 3.72402C20.218 3.72402 21.5173 5.02333 21.5173 6.62057C21.5173 7.20981 21.3385 7.75768 21.0348 8.21533C21.3319 8.74664 21.5777 9.30857 21.778 9.89202C22.2188 9.46881 22.5696 8.96086 22.8093 8.39868C23.0489 7.8365 23.1724 7.23169 23.1725 6.62057C23.1725 4.11133 21.13 2.06885 18.6207 2.06885C18.0096 2.06888 17.4048 2.19242 16.8426 2.43205C16.2804 2.67169 15.7725 3.02247 15.3493 3.46333C15.9327 3.66443 16.4947 3.91023 17.026 4.2065Z" fill="black"/>
</svg>
