<svg width="40" height="40" viewBox="0 0 40 40" fill="none" xmlns="http://www.w3.org/2000/svg">
<path d="M11.25 20V20.025C11.25 20.0537 11.2525 20.0825 11.255 20.1125L11.25 20C11.2508 20.2795 11.3444 20.5508 11.5163 20.7712L11.525 20.7812L11.6163 20.8837L19.1163 28.3837C19.352 28.6114 19.6678 28.7374 19.9955 28.7346C20.3232 28.7317 20.6368 28.6003 20.8685 28.3685C21.1003 28.1367 21.2317 27.8232 21.2346 27.4955C21.2374 27.1677 21.1114 26.852 20.8838 26.6162L15.5175 21.25H27.5C27.8315 21.25 28.1495 21.1183 28.3839 20.8839C28.6183 20.6494 28.75 20.3315 28.75 20C28.75 19.6685 28.6183 19.3505 28.3839 19.1161C28.1495 18.8817 27.8315 18.75 27.5 18.75H15.5175L20.8838 13.3837C21.0031 13.2684 21.0984 13.1305 21.1639 12.978C21.2294 12.8255 21.2639 12.6615 21.2653 12.4955C21.2668 12.3295 21.2351 12.1649 21.1723 12.0113C21.1094 11.8577 21.0166 11.7181 20.8992 11.6007C20.7819 11.4834 20.6423 11.3906 20.4887 11.3277C20.3351 11.2649 20.1705 11.2332 20.0045 11.2347C19.8385 11.2361 19.6745 11.2706 19.522 11.3361C19.3695 11.4016 19.2316 11.4968 19.1163 11.6162L11.6163 19.1162L11.525 19.2187C11.5221 19.222 11.5191 19.2254 11.5163 19.2287L11.6163 19.1162C11.3881 19.3456 11.257 19.654 11.25 19.9775V20Z" fill="black"/>
</svg>
