<svg width="32" height="32" viewBox="0 0 32 32" fill="none" xmlns="http://www.w3.org/2000/svg">
<path d="M17.31 6C18.654 6 19.795 6.819 20.345 8.047C20.537 8.476 20.618 8.907 20.719 9.823L20.928 11.907L23.29 12.117C23.6832 12.1559 24.0648 12.272 24.4131 12.4585C24.7614 12.6451 25.0695 12.8985 25.3197 13.2043C25.57 13.5101 25.7574 13.8622 25.8714 14.2405C25.9854 14.6188 26.0237 15.0159 25.984 15.409L25.679 18.247C25.139 23.07 24.802 24.509 23.931 25.21C23.35 25.678 22.801 25.935 22.143 25.99L21.936 26L21.626 25.996H15.062L14.946 25.992L14.829 25.986L14.712 25.976C14.1132 25.9074 13.5487 25.6611 13.091 25.269C12.651 25.675 12.081 25.942 11.436 25.992L11.218 26H8.838C7.261 26 6.086 24.713 6.005 23.22L6 23.052V14.946C6 13.439 7.118 12.098 8.664 12.004L8.837 12H11.218C11.734 12 12.206 12.138 12.611 12.375L12.904 12.172C13.493 11.764 13.725 11.387 13.752 10.437L13.755 10.239C13.755 9.206 13.833 8.669 14.141 8.057L14.378 7.631C14.708 7.052 15.207 6.585 15.814 6.305C16.304 6.081 16.785 6 17.31 6ZM11.218 14H8.838L8.735 14.007C8.365 14.062 8.067 14.404 8.02 14.829L8.014 14.947V23.053L8.02 23.171C8.067 23.596 8.365 23.938 8.735 23.993L8.837 24H11.218L11.321 23.993C11.691 23.938 11.988 23.596 12.035 23.171L12.042 23.053V14.947L12.035 14.829C11.988 14.404 11.691 14.062 11.321 14.007L11.218 14ZM17.31 8C17.086 7.99268 16.8632 8.03431 16.657 8.122C16.4332 8.22906 16.2485 8.40357 16.129 8.621L15.961 8.915C15.846 9.132 15.789 9.33 15.773 9.871L15.769 10.239C15.769 12.169 15.052 13.087 14.176 13.727L14.056 13.812V22.996L14.062 23.112C14.112 23.533 14.424 23.874 14.832 23.969L14.945 23.989L15.062 23.996H21.714L21.872 24L21.945 23.998C22.14 23.988 22.325 23.928 22.663 23.657C22.981 23.401 23.42 20.583 23.981 15.203C24.006 14.9585 23.9402 14.7133 23.7959 14.5143C23.6517 14.3152 23.4392 14.1763 23.199 14.124L23.068 14.104L19.144 13.758L19.109 13.553L19.043 13.111C18.823 11.504 18.717 9.334 18.505 8.86C18.263 8.319 17.815 8 17.31 8Z" fill="black"/>
</svg>
