<svg width="24" height="24" viewBox="0 0 24 24" fill="none" xmlns="http://www.w3.org/2000/svg">
<path d="M9.29289 7.2925C9.48043 7.10496 9.73478 6.9996 10 6.9996C10.2652 6.9996 10.5196 7.10496 10.7071 7.2925C10.8946 7.48003 11 7.73439 11 7.9996V15.9996C11 16.2648 10.8946 16.5192 10.7071 16.7067C10.5196 16.8942 10.2652 16.9996 10 16.9996C9.73478 16.9996 9.48043 16.8942 9.29289 16.7067C9.10536 16.5192 9 16.2648 9 15.9996V7.9996C9 7.73439 9.10536 7.48003 9.29289 7.2925Z" fill="black"/>
<path d="M13.2929 7.2925C13.4804 7.10496 13.7348 6.9996 14 6.9996C14.2652 6.9996 14.5196 7.10496 14.7071 7.2925C14.8946 7.48003 15 7.73439 15 7.9996V15.9996C15 16.2648 14.8946 16.5192 14.7071 16.7067C14.5196 16.8942 14.2652 16.9996 14 16.9996C13.7348 16.9996 13.4804 16.8942 13.2929 16.7067C13.1054 16.5192 13 16.2648 13 15.9996V7.9996C13 7.73439 13.1054 7.48003 13.2929 7.2925Z" fill="black"/>
</svg>
