<svg width="32" height="32" viewBox="0 0 32 32" fill="none" xmlns="http://www.w3.org/2000/svg">
<path d="M16.0271 5L16.0511 5.001C16.2678 5.01279 16.4748 5.09455 16.6411 5.234L22.9981 10.568V10C22.9981 9.73478 23.1035 9.48043 23.291 9.29289C23.4785 9.10536 23.7329 9 23.9981 9C24.2633 9 24.5177 9.10536 24.7052 9.29289C24.8928 9.48043 24.9981 9.73478 24.9981 10V12.246L26.6001 13.59C26.8033 13.7605 26.9304 14.0048 26.9534 14.269C26.9765 14.5333 26.8937 14.7958 26.7231 14.999C26.5526 15.2022 26.3083 15.3292 26.0441 15.3523C25.7799 15.3754 25.5173 15.2925 25.3141 15.122L15.9981 7.306L8.99812 13.179V24H11.9981V19C11.9981 18.7348 12.1035 18.4804 12.291 18.2929C12.4785 18.1054 12.7329 18 12.9981 18H18.9981C19.2633 18 19.5177 18.1054 19.7052 18.2929C19.8928 18.4804 19.9981 18.7348 19.9981 19V24H22.9981V18C22.9981 17.7348 23.1035 17.4804 23.291 17.2929C23.4785 17.1054 23.7329 17 23.9981 17C24.2633 17 24.5177 17.1054 24.7052 17.2929C24.8928 17.4804 24.9981 17.7348 24.9981 18V25C24.9981 25.2449 24.9082 25.4813 24.7454 25.6644C24.5826 25.8474 24.3584 25.9643 24.1151 25.993L24.0001 26H19.0001C18.7349 26 18.4805 25.8946 18.293 25.7071C18.1055 25.5196 18.0001 25.2652 18.0001 25L17.9991 20H13.9991V25C13.9991 25.2449 13.9092 25.4813 13.7464 25.6644C13.5836 25.8474 13.3594 25.9643 13.1161 25.993L13.0001 26H8.00012C7.7349 26 7.48055 25.8946 7.29301 25.7071C7.10548 25.5196 7.00012 25.2652 7.00012 25L6.99912 14.857L6.68412 15.122C6.58353 15.2064 6.46729 15.2702 6.34204 15.3098C6.21679 15.3493 6.08498 15.3637 5.95414 15.3523C5.82331 15.3409 5.696 15.3038 5.57949 15.2432C5.46298 15.1826 5.35956 15.0996 5.27512 14.999C5.19068 14.8984 5.12688 14.7822 5.08736 14.6569C5.04784 14.5317 5.03338 14.3999 5.0448 14.269C5.05623 14.1382 5.09331 14.0109 5.15393 13.8944C5.21455 13.7779 5.29753 13.6744 5.39812 13.59L15.3571 5.234L15.3951 5.204C15.4079 5.19402 15.4209 5.18435 15.4341 5.175L15.3571 5.234C15.5371 5.08385 15.7637 5.00111 15.9981 5H16.0271Z" fill="black"/>
</svg>
