<svg width="40" height="40" viewBox="0 0 40 40" fill="none" xmlns="http://www.w3.org/2000/svg">
<path d="M23.0414 11.2001L27.5126 15.6363L29.4901 13.6738L25.0189 9.23633L23.0414 11.1988V11.2001ZM25.9001 6.61258L32.1351 12.8001C32.2509 12.9145 32.3429 13.0507 32.4056 13.2009C32.4684 13.3511 32.5007 13.5123 32.5007 13.6751C32.5007 13.8379 32.4684 13.999 32.4056 14.1492C32.3429 14.2994 32.2509 14.4357 32.1351 14.5501L28.3939 18.2613C28.1592 18.4932 27.8426 18.6233 27.5126 18.6233C27.1827 18.6233 26.8661 18.4932 26.6314 18.2613L26.2939 17.9276C24.7726 19.6476 23.7651 21.4426 23.1726 23.2326C22.9499 23.8943 22.7884 24.5751 22.6901 25.2663C22.6521 25.5192 22.6308 25.7744 22.6264 26.0301L22.6226 26.1501C22.4789 27.8851 20.7414 28.5026 19.5101 27.2813L16.3889 24.1813C16.367 24.2072 16.344 24.2323 16.3201 24.2563L8.37512 32.1401C8.14085 32.3722 7.82417 32.5022 7.49435 32.5015C7.16453 32.5008 6.8484 32.3695 6.61512 32.1363C6.49934 32.0224 6.40732 31.8866 6.3444 31.7369C6.28147 31.5872 6.24889 31.4264 6.24854 31.264C6.24819 31.1016 6.28008 30.9407 6.34236 30.7907C6.40465 30.6406 6.49608 30.5045 6.61137 30.3901L14.5551 22.5088L14.6301 22.4413L11.3051 19.1413C10.0676 17.9138 10.6951 16.2376 12.4139 16.0563L12.5714 16.0488C12.7026 16.0501 12.9651 16.0363 13.3351 15.9863C14.0315 15.889 14.7176 15.7287 15.3851 15.5076C17.1889 14.9201 18.9976 13.9176 20.7301 12.4101L20.3951 12.0751C20.2793 11.9607 20.1874 11.8244 20.1246 11.6742C20.0619 11.524 20.0296 11.3629 20.0296 11.2001C20.0296 11.0373 20.0619 10.8761 20.1246 10.7259C20.1874 10.5757 20.2793 10.4395 20.3951 10.3251L24.1351 6.61258C24.3699 6.38029 24.6868 6.25 25.017 6.25C25.3472 6.25 25.6641 6.38029 25.8989 6.61258H25.9001ZM22.5001 14.1626C20.4726 15.9538 18.3251 17.1526 16.1639 17.8576C15.3864 18.1101 14.6826 18.2788 14.0701 18.3826L20.2726 24.5376C20.3776 23.9301 20.5476 23.2313 20.8026 22.4601C21.5126 20.3163 22.7201 18.1851 24.5276 16.1726L24.3476 15.9951L24.1901 15.8388C23.6265 15.2798 23.0625 14.7204 22.4989 14.1613L22.5001 14.1626Z" fill="black"/>
</svg>
