<svg width="40" height="40" viewBox="0 0 40 40" fill="none" xmlns="http://www.w3.org/2000/svg">
<path d="M31.25 30C31.5815 30 31.8995 30.1317 32.1339 30.3661C32.3683 30.6005 32.5 30.9185 32.5 31.25C32.5 31.5815 32.3683 31.8995 32.1339 32.1339C31.8995 32.3683 31.5815 32.5 31.25 32.5H8.75C8.41848 32.5 8.10054 32.3683 7.86612 32.1339C7.6317 31.8995 7.5 31.5815 7.5 31.25C7.5 30.9185 7.6317 30.6005 7.86612 30.3661C8.10054 30.1317 8.41848 30 8.75 30H31.25ZM20 7.5C20.3315 7.5 20.6495 7.6317 20.8839 7.86612C21.1183 8.10054 21.25 8.41848 21.25 8.75V23.2312L25.3662 19.1163C25.602 18.8886 25.9178 18.7626 26.2455 18.7654C26.5732 18.7683 26.8868 18.8997 27.1185 19.1315C27.3503 19.3632 27.4817 19.6768 27.4846 20.0045C27.4874 20.3322 27.3614 20.648 27.1338 20.8838L20.8838 27.1338C20.6493 27.3681 20.3315 27.4997 20 27.4997C19.6685 27.4997 19.3507 27.3681 19.1163 27.1338L12.8663 20.8838C12.6386 20.648 12.5126 20.3322 12.5154 20.0045C12.5183 19.6768 12.6497 19.3632 12.8815 19.1315C13.1132 18.8997 13.4268 18.7683 13.7545 18.7654C14.0822 18.7626 14.398 18.8886 14.6337 19.1163L18.75 23.2312V8.75C18.75 8.41848 18.8817 8.10054 19.1161 7.86612C19.3505 7.6317 19.6685 7.5 20 7.5Z" fill="black"/>
</svg>
