<svg width="24" height="24" viewBox="0 0 24 24" fill="none" xmlns="http://www.w3.org/2000/svg">
<path d="M8.8774 7.1223L16.8777 15.1226C16.9661 15.2111 17.0301 15.3209 17.0637 15.4414C17.0973 15.5619 17.0992 15.689 17.0693 15.8104C17.0394 15.9319 16.9787 16.0435 16.893 16.1347C16.8073 16.2258 16.6996 16.2933 16.5802 16.3306L4.94344 19.9671C4.81683 20.0065 4.68186 20.0106 4.55313 19.9788C4.42439 19.9471 4.30678 19.8807 4.21302 19.787C4.11926 19.6932 4.05292 19.5756 4.02116 19.4469C3.98941 19.3181 3.99345 19.1832 4.03286 19.0566L7.66936 7.41976C7.70662 7.30034 7.77405 7.19255 7.86514 7.1068C7.95623 7.02105 8.0679 6.96025 8.18936 6.93027C8.31081 6.90029 8.43795 6.90215 8.55848 6.93566C8.67901 6.96917 8.78885 7.0332 8.8774 7.12157V7.1223ZM7.6359 12.4025L5.83511 18.1649L7.6359 17.602V12.4025ZM9.0905 9.39147V17.1474L10.6135 16.6717C10.5684 16.5755 10.545 16.4704 10.5451 16.3641V11.273C10.5451 11.1494 10.5756 11.033 10.6302 10.9312L9.0905 9.3922V9.39147ZM11.9997 12.3014V16.2383L14.9991 15.3008L11.9997 12.3014ZM19.2727 11.273C19.4656 11.273 19.6506 11.3496 19.787 11.486C19.9234 11.6224 20 11.8074 20 12.0003C20 12.1932 19.9234 12.3782 19.787 12.5146C19.6506 12.651 19.4656 12.7276 19.2727 12.7276H16.3635C16.1706 12.7276 15.9856 12.651 15.8492 12.5146C15.7128 12.3782 15.6362 12.1932 15.6362 12.0003C15.6362 11.8074 15.7128 11.6224 15.8492 11.486C15.9856 11.3496 16.1706 11.273 16.3635 11.273H19.2727ZM19.0596 4.9404C19.1959 5.07679 19.2725 5.26175 19.2725 5.4546C19.2725 5.64745 19.1959 5.83241 19.0596 5.9688L15.4231 9.6053C15.2859 9.73778 15.1022 9.81109 14.9115 9.80943C14.7208 9.80778 14.5384 9.73129 14.4036 9.59644C14.2687 9.46159 14.1922 9.27918 14.1906 9.08848C14.1889 8.89779 14.2622 8.71407 14.3947 8.5769L18.0312 4.9404C18.1676 4.80405 18.3525 4.72746 18.5454 4.72746C18.7383 4.72746 18.9232 4.80405 19.0596 4.9404ZM11.9997 4C12.1926 4 12.3776 4.07663 12.514 4.21302C12.6504 4.34942 12.727 4.53441 12.727 4.7273V7.6365C12.727 7.82939 12.6504 8.01438 12.514 8.15078C12.3776 8.28717 12.1926 8.3638 11.9997 8.3638C11.8068 8.3638 11.6218 8.28717 11.4854 8.15078C11.349 8.01438 11.2724 7.82939 11.2724 7.6365V4.7273C11.2724 4.53441 11.349 4.34942 11.4854 4.21302C11.6218 4.07663 11.8068 4 11.9997 4Z" fill="black"/>
</svg>
