<svg width="24" height="24" viewBox="0 0 24 24" fill="none" xmlns="http://www.w3.org/2000/svg">
<path d="M12 6.75C12.1989 6.75 12.3897 6.82902 12.5303 6.96967C12.671 7.11032 12.75 7.30109 12.75 7.5V11.25H16.5C16.6837 11.25 16.861 11.3175 16.9983 11.4395C17.1356 11.5616 17.2233 11.7298 17.2448 11.9123L17.25 12C17.25 12.1989 17.171 12.3897 17.0303 12.5303C16.8897 12.671 16.6989 12.75 16.5 12.75H12.75V16.5C12.75 16.6837 12.6825 16.861 12.5605 16.9983C12.4384 17.1356 12.2702 17.2233 12.0878 17.2448L12 17.25C11.8011 17.25 11.6103 17.171 11.4697 17.0303C11.329 16.8897 11.25 16.6989 11.25 16.5V12.75H7.5C7.3163 12.75 7.139 12.6825 7.00172 12.5605C6.86444 12.4384 6.77674 12.2702 6.75525 12.0878L6.75 12C6.75 11.8011 6.82902 11.6103 6.96967 11.4697C7.11032 11.329 7.30109 11.25 7.5 11.25H11.25V7.5C11.25 7.3163 11.3175 7.139 11.4395 7.00172C11.5616 6.86444 11.7298 6.77674 11.9123 6.75525L12 6.75Z" fill="black"/>
</svg>
