<svg width="40" height="40" viewBox="0 0 40 40" fill="none" xmlns="http://www.w3.org/2000/svg">
<path d="M12.5 15C11.1739 15 9.90215 15.5268 8.96447 16.4644C8.02678 17.4021 7.5 18.6739 7.5 20C7.5 21.3261 8.02678 22.5978 8.96447 23.5355C9.90215 24.4732 11.1739 25 12.5 25C12.8315 25 13.1495 25.1317 13.3839 25.3661C13.6183 25.6005 13.75 25.9185 13.75 26.25C13.75 26.5815 13.6183 26.8994 13.3839 27.1339C13.1495 27.3683 12.8315 27.5 12.5 27.5C10.5109 27.5 8.60322 26.7098 7.1967 25.3033C5.79018 23.8968 5 21.9891 5 20C5 18.0109 5.79018 16.1032 7.1967 14.6967C8.60322 13.2902 10.5109 12.5 12.5 12.5H18.2325L16.6163 10.8837C16.4969 10.7684 16.4016 10.6305 16.3361 10.478C16.2706 10.3255 16.2361 10.1615 16.2347 9.99548C16.2332 9.82951 16.2649 9.66491 16.3277 9.51129C16.3906 9.35767 16.4834 9.2181 16.6008 9.10074C16.7181 8.98337 16.8577 8.89055 17.0113 8.8277C17.1649 8.76485 17.3295 8.73322 17.4955 8.73467C17.6615 8.73611 17.8255 8.77059 17.978 8.8361C18.1305 8.90161 18.2684 8.99684 18.3837 9.11623L22.1338 12.8662C22.3681 13.1006 22.4997 13.4185 22.4997 13.75C22.4997 14.0814 22.3681 14.3993 22.1338 14.6337L18.3837 18.3837C18.148 18.6114 17.8322 18.7374 17.5045 18.7346C17.1768 18.7317 16.8632 18.6003 16.6315 18.3685C16.3997 18.1367 16.2683 17.8232 16.2654 17.4955C16.2626 17.1677 16.3886 16.852 16.6163 16.6162L18.2325 15H12.5ZM27.5 25C28.8261 25 30.0979 24.4732 31.0355 23.5355C31.9732 22.5978 32.5 21.3261 32.5 20C32.5 18.6739 31.9732 17.4021 31.0355 16.4644C30.0979 15.5268 28.8261 15 27.5 15C27.1685 15 26.8505 14.8683 26.6161 14.6339C26.3817 14.3994 26.25 14.0815 26.25 13.75C26.25 13.4185 26.3817 13.1005 26.6161 12.8661C26.8505 12.6317 27.1685 12.5 27.5 12.5C29.4891 12.5 31.3968 13.2902 32.8033 14.6967C34.2098 16.1032 35 18.0109 35 20C35 21.9891 34.2098 23.8968 32.8033 25.3033C31.3968 26.7098 29.4891 27.5 27.5 27.5H21.7675L23.3838 29.1162C23.6114 29.352 23.7374 29.6677 23.7346 29.9955C23.7317 30.3232 23.6003 30.6367 23.3685 30.8685C23.1368 31.1003 22.8232 31.2317 22.4955 31.2346C22.1678 31.2374 21.852 31.1114 21.6162 30.8837L17.8663 27.1337C17.6319 26.8993 17.5003 26.5814 17.5003 26.25C17.5003 25.9185 17.6319 25.6006 17.8663 25.3662L21.6162 21.6162C21.852 21.3885 22.1678 21.2625 22.4955 21.2654C22.8232 21.2682 23.1368 21.3997 23.3685 21.6315C23.6003 21.8632 23.7317 22.1767 23.7346 22.5045C23.7374 22.8322 23.6114 23.148 23.3838 23.3837L21.7675 25H27.5Z" fill="black"/>
</svg>
