<svg width="24" height="24" viewBox="0 0 24 24" fill="none" xmlns="http://www.w3.org/2000/svg">
<path d="M12 15.75C12.3978 15.75 12.7794 15.908 13.0607 16.1893C13.342 16.4706 13.5 16.8522 13.5 17.25C13.5 17.6478 13.342 18.0294 13.0607 18.3107C12.7794 18.592 12.3978 18.75 12 18.75C11.6022 18.75 11.2206 18.592 10.9393 18.3107C10.658 18.0294 10.5 17.6478 10.5 17.25C10.5 16.8522 10.658 16.4706 10.9393 16.1893C11.2206 15.908 11.6022 15.75 12 15.75ZM12 10.5C12.3978 10.5 12.7794 10.658 13.0607 10.9393C13.342 11.2206 13.5 11.6022 13.5 12C13.5 12.3978 13.342 12.7794 13.0607 13.0607C12.7794 13.342 12.3978 13.5 12 13.5C11.6022 13.5 11.2206 13.342 10.9393 13.0607C10.658 12.7794 10.5 12.3978 10.5 12C10.5 11.6022 10.658 11.2206 10.9393 10.9393C11.2206 10.658 11.6022 10.5 12 10.5ZM12 5.25C12.3978 5.25 12.7794 5.40804 13.0607 5.68934C13.342 5.97064 13.5 6.35218 13.5 6.75C13.5 7.14782 13.342 7.52936 13.0607 7.81066C12.7794 8.09196 12.3978 8.25 12 8.25C11.6022 8.25 11.2206 8.09196 10.9393 7.81066C10.658 7.52936 10.5 7.14782 10.5 6.75C10.5 6.35218 10.658 5.97064 10.9393 5.68934C11.2206 5.40804 11.6022 5.25 12 5.25Z" fill="black"/>
</svg>
