<svg width="40" height="40" viewBox="0 0 40 40" fill="none" xmlns="http://www.w3.org/2000/svg">
<g clip-path="url(#clip0_58_1261)">
<path d="M8.86484 24.1723L7.4725 29.3701L2.38352 29.4778C0.862656 26.6569 0 23.4295 0 19.9998C0 16.6833 0.806563 13.5558 2.23625 10.802H2.23734L6.76797 11.6326L8.75266 16.1361C8.33727 17.3471 8.11086 18.6471 8.11086 19.9998C8.11102 21.4679 8.37695 22.8746 8.86484 24.1723Z" fill="#FBBB00"/>
<path d="M39.6508 16.2637C39.8805 17.4735 40.0003 18.723 40.0003 19.9999C40.0003 21.4318 39.8497 22.8285 39.5629 24.1758C38.5893 28.7604 36.0453 32.7637 32.5212 35.5966L32.5201 35.5955L26.8135 35.3044L26.0059 30.2626C28.3443 28.8912 30.1718 26.745 31.1345 24.1758H20.4399V16.2637H31.2905H39.6508Z" fill="#518EF8"/>
<path d="M32.5195 35.5957L32.5206 35.5968C29.0932 38.3517 24.7393 40 19.9998 40C12.3833 40 5.76135 35.7429 2.3833 29.4781L8.86463 24.1726C10.5536 28.6803 14.902 31.8891 19.9998 31.8891C22.191 31.8891 24.2438 31.2967 26.0052 30.2627L32.5195 35.5957Z" fill="#28B446"/>
<path d="M32.766 4.60437L26.2869 9.90875C24.4638 8.76922 22.3088 8.11094 20.0001 8.11094C14.7869 8.11094 10.3572 11.467 8.75281 16.1362L2.23742 10.8022H2.23633C5.56492 4.38461 12.2704 0 20.0001 0C24.8528 0 29.3023 1.72859 32.766 4.60437Z" fill="#F14336"/>
</g>
<defs>
<clipPath id="clip0_58_1261">
<rect width="40" height="40" fill="white"/>
</clipPath>
</defs>
</svg>
