<svg width="24" height="24" viewBox="0 0 24 24" fill="none" xmlns="http://www.w3.org/2000/svg">
<path d="M7.5 8.99994C6.70435 8.99994 5.94129 9.31601 5.37868 9.87862C4.81607 10.4412 4.5 11.2043 4.5 11.9999C4.5 12.7956 4.81607 13.5587 5.37868 14.1213C5.94129 14.6839 6.70435 14.9999 7.5 14.9999C7.69891 14.9999 7.88968 15.079 8.03033 15.2196C8.17098 15.3603 8.25 15.551 8.25 15.7499C8.25 15.9489 8.17098 16.1396 8.03033 16.2803C7.88968 16.4209 7.69891 16.4999 7.5 16.4999C6.30653 16.4999 5.16193 16.0258 4.31802 15.1819C3.47411 14.338 3 13.1934 3 11.9999C3 10.8065 3.47411 9.66187 4.31802 8.81796C5.16193 7.97404 6.30653 7.49994 7.5 7.49994H10.9395L9.96975 6.53019C9.89812 6.461 9.84098 6.37825 9.80167 6.28674C9.76237 6.19524 9.74168 6.09682 9.74081 5.99724C9.73995 5.89766 9.75892 5.7989 9.79663 5.70672C9.83434 5.61455 9.89003 5.53081 9.96045 5.46039C10.0309 5.38997 10.1146 5.33428 10.2068 5.29657C10.299 5.25886 10.3977 5.23989 10.4973 5.24075C10.5969 5.24162 10.6953 5.26231 10.7868 5.30161C10.8783 5.34092 10.9611 5.39806 11.0302 5.46969L13.2803 7.71969C13.4209 7.86033 13.4998 8.05107 13.4998 8.24994C13.4998 8.44881 13.4209 8.63954 13.2803 8.78019L11.0302 11.0302C10.8888 11.1668 10.6993 11.2424 10.5027 11.2407C10.3061 11.239 10.1179 11.1601 9.97889 11.0211C9.83983 10.882 9.76095 10.6939 9.75924 10.4972C9.75754 10.3006 9.83313 10.1111 9.96975 9.96969L10.9395 8.99994H7.5ZM16.5 14.9999C17.2956 14.9999 18.0587 14.6839 18.6213 14.1213C19.1839 13.5587 19.5 12.7956 19.5 11.9999C19.5 11.2043 19.1839 10.4412 18.6213 9.87862C18.0587 9.31601 17.2956 8.99994 16.5 8.99994C16.3011 8.99994 16.1103 8.92092 15.9697 8.78027C15.829 8.63962 15.75 8.44885 15.75 8.24994C15.75 8.05103 15.829 7.86026 15.9697 7.71961C16.1103 7.57896 16.3011 7.49994 16.5 7.49994C17.6935 7.49994 18.8381 7.97404 19.682 8.81796C20.5259 9.66187 21 10.8065 21 11.9999C21 13.1934 20.5259 14.338 19.682 15.1819C18.8381 16.0258 17.6935 16.4999 16.5 16.4999H13.0605L14.0303 17.4697C14.1669 17.6111 14.2425 17.8006 14.2408 17.9972C14.239 18.1939 14.1602 18.382 14.0211 18.5211C13.8821 18.6601 13.6939 18.739 13.4973 18.7407C13.3007 18.7424 13.1112 18.6668 12.9697 18.5302L10.7198 16.2802C10.5791 16.1395 10.5002 15.9488 10.5002 15.7499C10.5002 15.5511 10.5791 15.3603 10.7198 15.2197L12.9697 12.9697C13.1112 12.8331 13.3007 12.7575 13.4973 12.7592C13.6939 12.7609 13.8821 12.8398 14.0211 12.9788C14.1602 13.1179 14.239 13.306 14.2408 13.5026C14.2425 13.6993 14.1669 13.8887 14.0303 14.0302L13.0605 14.9999H16.5Z" fill="black"/>
</svg>
