<svg width="32" height="32" viewBox="0 0 32 32" fill="none" xmlns="http://www.w3.org/2000/svg">
<path d="M19.7783 11.6804V19.8764C19.7783 19.9657 19.7544 20.0533 19.7091 20.1302C19.6638 20.2071 19.5988 20.2705 19.5207 20.3137C19.4426 20.357 19.3544 20.3786 19.2652 20.3763C19.176 20.3739 19.089 20.3477 19.0133 20.3004L12.4563 16.2024C12.3844 16.1575 12.3251 16.095 12.284 16.0208C12.2429 15.9466 12.2213 15.8632 12.2213 15.7784C12.2213 15.6936 12.2429 15.6102 12.284 15.536C12.3251 15.4619 12.3844 15.3994 12.4563 15.3544L19.0133 11.2564C19.089 11.2091 19.176 11.1829 19.2652 11.1806C19.3544 11.1782 19.4426 11.1998 19.5207 11.2431C19.5988 11.2864 19.6638 11.3497 19.7091 11.4266C19.7544 11.5035 19.7783 11.5912 19.7783 11.6804Z" fill="black"/>
</svg>
