<svg width="32" height="32" viewBox="0 0 32 32" fill="none" xmlns="http://www.w3.org/2000/svg">
<path d="M12.2217 19.8765V11.6805C12.2217 11.5912 12.2456 11.5036 12.2909 11.4267C12.3362 11.3498 12.4012 11.2864 12.4793 11.2431C12.5574 11.1999 12.6456 11.1783 12.7348 11.1806C12.824 11.183 12.911 11.2092 12.9867 11.2565L19.5437 15.3545C19.6156 15.3994 19.6749 15.4619 19.716 15.5361C19.7571 15.6102 19.7787 15.6937 19.7787 15.7785C19.7787 15.8633 19.7571 15.9467 19.716 16.0208C19.6749 16.095 19.6156 16.1575 19.5437 16.2025L12.9867 20.3005C12.911 20.3478 12.824 20.3739 12.7348 20.3763C12.6456 20.3786 12.5574 20.3571 12.4793 20.3138C12.4012 20.2705 12.3362 20.2071 12.2909 20.1302C12.2456 20.0533 12.2217 19.9657 12.2217 19.8765Z" fill="black"/>
</svg>
