<svg width="24" height="24" viewBox="0 0 24 24" fill="none" xmlns="http://www.w3.org/2000/svg">
<path d="M18.0052 4.5C18.8302 4.5 19.5 5.16975 19.5 5.99475V12C19.4998 12.1912 19.4266 12.375 19.2954 12.514C19.1641 12.653 18.9848 12.7367 18.794 12.7479C18.6031 12.7591 18.4152 12.697 18.2686 12.5743C18.122 12.4516 18.0278 12.2776 18.0052 12.0878L18 12H17.9993L18 6H6V18L6.8085 17.9985C7.02375 16.7085 7.845 15.864 9.41475 15.0795C9.55549 15.0091 9.7148 14.9848 9.87013 15.01C10.0255 15.0351 10.1689 15.1085 10.2802 15.2197C10.4542 15.393 10.6252 15.5122 10.806 15.5917C11.0745 15.7102 11.3152 15.7448 11.847 15.7493H12.0023C12.3848 15.75 12.702 16.0395 12.7448 16.4122L12.75 16.5C12.75 16.6837 12.6825 16.861 12.5605 16.9983C12.4384 17.1356 12.2702 17.2233 12.0878 17.2448L12 17.25C11.157 17.25 10.7438 17.2043 10.2 16.9635C10.0071 16.8782 9.82366 16.7732 9.6525 16.65C8.90775 17.0723 8.4165 17.4668 8.25 18H12C12.1912 18.0002 12.375 18.0734 12.514 18.2046C12.653 18.3359 12.7367 18.5152 12.7479 18.706C12.7591 18.8969 12.697 19.0848 12.5743 19.2314C12.4516 19.378 12.2776 19.4722 12.0878 19.4948L12 19.5H5.99475C5.16975 19.5 4.5 18.8302 4.5 18.0052V5.99475C4.5 5.16975 5.16975 4.5 5.99475 4.5H18.0052ZM16.5 13.5C16.6989 13.5 16.8897 13.579 17.0303 13.7197C17.171 13.8603 17.25 14.0511 17.25 14.25V15.75H18.75C18.9489 15.75 19.1397 15.829 19.2803 15.9697C19.421 16.1103 19.5 16.3011 19.5 16.5C19.5 16.6989 19.421 16.8897 19.2803 17.0303C19.1397 17.171 18.9489 17.25 18.75 17.25H17.25V18.75C17.25 18.9489 17.171 19.1397 17.0303 19.2803C16.8897 19.421 16.6989 19.5 16.5 19.5C16.3011 19.5 16.1103 19.421 15.9697 19.2803C15.829 19.1397 15.75 18.9489 15.75 18.75V17.25H14.25C14.0511 17.25 13.8603 17.171 13.7197 17.0303C13.579 16.8897 13.5 16.6989 13.5 16.5C13.5 16.3011 13.579 16.1103 13.7197 15.9697C13.8603 15.829 14.0511 15.75 14.25 15.75H15.75V14.25C15.75 14.0511 15.829 13.8603 15.9697 13.7197C16.1103 13.579 16.3011 13.5 16.5 13.5ZM12 7.5C12.9946 7.5 13.9484 7.89509 14.6517 8.59835C15.3549 9.30161 15.75 10.2554 15.75 11.25C15.75 12.2446 15.3549 13.1984 14.6517 13.9017C13.9484 14.6049 12.9946 15 12 15C11.0054 15 10.0516 14.6049 9.34835 13.9017C8.64509 13.1984 8.25 12.2446 8.25 11.25C8.25 10.2554 8.64509 9.30161 9.34835 8.59835C10.0516 7.89509 11.0054 7.5 12 7.5ZM12 9C11.4033 9 10.831 9.23705 10.409 9.65901C9.98705 10.081 9.75 10.6533 9.75 11.25C9.75 11.8467 9.98705 12.419 10.409 12.841C10.831 13.2629 11.4033 13.5 12 13.5C12.5967 13.5 13.169 13.2629 13.591 12.841C14.0129 12.419 14.25 11.8467 14.25 11.25C14.25 10.6533 14.0129 10.081 13.591 9.65901C13.169 9.23705 12.5967 9 12 9Z" fill="black"/>
</svg>
