<svg width="24" height="24" viewBox="0 0 24 24" fill="none" xmlns="http://www.w3.org/2000/svg">
<path d="M8.62511 5.25C9.02528 5.24988 9.42018 5.34124 9.77963 5.51712C10.1391 5.69299 10.4536 5.94872 10.699 6.26475C10.9445 6.58079 11.1145 6.94876 11.1959 7.34054C11.2774 7.73233 11.2682 8.13755 11.1691 8.52525L14.3544 10.4377C14.7302 10.0943 15.1978 9.86748 15.7002 9.78503C16.2026 9.70257 16.7182 9.76801 17.1841 9.97336C17.6499 10.1787 18.0461 10.5151 18.3242 10.9416C18.6022 11.3681 18.7503 11.8662 18.7503 12.3754C18.7503 12.8845 18.6022 13.3827 18.3242 13.8091C18.0461 14.2356 17.6499 14.572 17.1841 14.7774C16.7182 14.9827 16.2026 15.0482 15.7002 14.9657C15.1978 14.8833 14.7302 14.6565 14.3544 14.313L11.1691 16.224C11.3257 16.8348 11.2573 17.4815 10.9763 18.0459C10.6953 18.6103 10.2205 19.0548 9.63876 19.2979C9.05703 19.5411 8.4072 19.5668 7.8081 19.3702C7.20901 19.1737 6.70067 18.7681 6.37604 18.2275C6.05141 17.687 5.93218 17.0477 6.04016 16.4265C6.14813 15.8053 6.47609 15.2437 6.96406 14.8444C7.45204 14.4452 8.06743 14.2349 8.69771 14.252C9.32799 14.2691 9.93105 14.5125 10.3966 14.9377L13.5811 13.026C13.4719 12.5986 13.4719 12.1506 13.5811 11.7232L10.3959 9.81225C10.0809 10.1002 9.70053 10.3071 9.28762 10.4149C8.87472 10.5227 8.44175 10.5282 8.02624 10.4309C7.61072 10.3337 7.22519 10.1366 6.90302 9.85669C6.58086 9.57683 6.33178 9.22264 6.17737 8.82481C6.02296 8.42698 5.96787 7.9975 6.01688 7.57358C6.06588 7.14965 6.2175 6.74407 6.45859 6.39195C6.69969 6.03984 7.023 5.75182 7.40052 5.55283C7.77803 5.35385 8.19837 5.2499 8.62511 5.25ZM8.62511 15.75C8.40721 15.75 8.194 15.8133 8.01137 15.9321C7.82874 16.051 7.68457 16.2203 7.59636 16.4196C7.50815 16.6188 7.4797 16.8394 7.51448 17.0545C7.54925 17.2696 7.64574 17.47 7.79224 17.6313C7.93873 17.7926 8.12892 17.9079 8.33969 17.9632C8.55047 18.0185 8.77276 18.0113 8.97956 17.9427C9.18636 17.874 9.36877 17.7468 9.50463 17.5764C9.64049 17.406 9.72395 17.1999 9.74486 16.983L9.72986 17.0865C9.76296 16.9108 9.75391 16.7297 9.70346 16.5581C9.653 16.3865 9.56258 16.2294 9.43961 16.0995L9.45911 16.1198C9.40208 16.057 9.33818 16.0009 9.26861 15.9525L9.31211 15.984C9.28456 15.9627 9.25603 15.9427 9.22661 15.924L9.26861 15.9525C9.24546 15.9361 9.22169 15.9206 9.19736 15.906L9.22736 15.924C9.19816 15.9056 9.16813 15.8886 9.13736 15.873L9.19736 15.906C9.12226 15.8616 9.04222 15.8261 8.95886 15.8002L8.94086 15.795C8.83829 15.7651 8.73197 15.7499 8.62511 15.75ZM16.1251 11.25C15.9984 11.25 15.8769 11.271 15.7629 11.31L15.7921 11.3003C15.7088 11.3258 15.6287 11.3611 15.5536 11.4052L15.6121 11.3737C15.5821 11.3888 15.5521 11.406 15.5236 11.424L15.5536 11.406C15.5289 11.421 15.5049 11.436 15.4809 11.4525L15.5236 11.424C15.4945 11.4427 15.4662 11.4627 15.4389 11.484L15.4809 11.4525C15.4519 11.4727 15.4238 11.4942 15.3969 11.517L15.4389 11.484C15.4127 11.5041 15.3874 11.5254 15.3631 11.5478L15.3969 11.5178C15.3708 11.5396 15.3458 11.5626 15.3219 11.5868L15.3631 11.5478C15.3378 11.5709 15.3135 11.5952 15.2904 11.6205L15.3219 11.5868C15.1915 11.7201 15.0961 11.8838 15.0444 12.063L15.0204 12.1613C15.0069 12.2317 15.0001 12.3033 15.0001 12.375L15.0039 12.4733L15.0054 12.4822C15.0278 12.7232 15.1278 12.9503 15.2904 13.1295L15.2664 13.1017C15.2844 13.1227 15.3024 13.143 15.3211 13.1617L15.2911 13.1295C15.3136 13.155 15.3376 13.179 15.3624 13.2023L15.3211 13.1617C15.3466 13.188 15.3736 13.2128 15.4006 13.236L15.3631 13.2023C15.3864 13.2248 15.4119 13.2457 15.4381 13.266L15.4006 13.236C15.4231 13.2548 15.4456 13.2727 15.4704 13.29L15.4381 13.266C15.5087 13.3204 15.5855 13.3662 15.6669 13.4025L15.6084 13.3748C15.6384 13.3898 15.6684 13.4047 15.6999 13.4167L15.6669 13.4025C15.7036 13.419 15.7411 13.4332 15.7794 13.446L15.6999 13.4167C15.8536 13.4794 16.0194 13.5073 16.1852 13.4984C16.351 13.4894 16.5128 13.4439 16.6589 13.365C16.8051 13.2861 16.9319 13.1759 17.0304 13.0422C17.1289 12.9085 17.1965 12.7546 17.2285 12.5917C17.2605 12.4287 17.256 12.2607 17.2154 12.0997C17.1747 11.9387 17.099 11.7887 16.9935 11.6604C16.888 11.5321 16.7554 11.4288 16.6053 11.3579C16.4552 11.2869 16.2912 11.2501 16.1251 11.25ZM8.62511 6.75C8.4548 6.75002 8.28672 6.78871 8.13353 6.86315C7.98035 6.93759 7.84607 7.04583 7.74081 7.17973C7.63555 7.31362 7.56207 7.46967 7.5259 7.63609C7.48973 7.80252 7.49182 7.97499 7.53202 8.14049C7.57221 8.30599 7.64945 8.46021 7.75793 8.59151C7.8664 8.72281 8.00327 8.82777 8.15821 8.89848C8.31315 8.96918 8.48213 9.00378 8.65239 8.99967C8.82266 8.99556 8.98976 8.95285 9.14111 8.87475L9.09836 8.89575C9.12761 8.88225 9.15611 8.868 9.18311 8.85225L9.14111 8.87475C9.17111 8.85975 9.19886 8.84325 9.22661 8.826L9.18311 8.85225C9.21461 8.83425 9.24536 8.81475 9.27461 8.79375L9.22661 8.826C9.25586 8.80725 9.28361 8.7885 9.31061 8.7675L9.27461 8.79375C9.30236 8.77425 9.33011 8.7525 9.35636 8.73L9.31061 8.7675C9.33686 8.7465 9.36311 8.7255 9.38711 8.703L9.35636 8.73C9.38133 8.70856 9.40536 8.68604 9.42836 8.6625L9.38711 8.703C9.41247 8.67962 9.43675 8.65509 9.45986 8.6295L9.42836 8.66325C9.54764 8.5415 9.63775 8.39428 9.69192 8.23268C9.74609 8.07107 9.76291 7.89929 9.74111 7.73025C9.70594 7.45916 9.57327 7.21016 9.36789 7.02976C9.16251 6.84936 8.89847 6.74991 8.62511 6.75Z" fill="black"/>
</svg>
