<svg width="40" height="40" viewBox="0 0 40 40" fill="none" xmlns="http://www.w3.org/2000/svg">
<path d="M14.375 8.75C15.042 8.74979 15.7001 8.90207 16.2992 9.1952C16.8983 9.48832 17.4224 9.91453 17.8315 10.4413C18.2407 10.968 18.5239 11.5813 18.6597 12.2342C18.7955 12.8872 18.7802 13.5626 18.615 14.2087L23.9238 17.3962C24.5501 16.8238 25.3295 16.4458 26.1668 16.3084C27.0042 16.171 27.8634 16.28 28.6399 16.6223C29.4164 16.9645 30.0766 17.5252 30.5401 18.236C31.0036 18.9468 31.2503 19.7771 31.2503 20.6256C31.2503 21.4742 31.0036 22.3044 30.5401 23.0152C30.0766 23.7261 29.4164 24.2867 28.6399 24.629C27.8634 24.9712 27.0042 25.0803 26.1668 24.9429C25.3295 24.8055 24.5501 24.4275 23.9238 23.855L18.615 27.04C18.876 28.0579 18.762 29.1358 18.2936 30.0765C17.8253 31.0172 17.034 31.758 16.0644 32.1632C15.0949 32.5685 14.0118 32.6113 13.0133 32.2837C12.0148 31.9561 11.1676 31.2801 10.6266 30.3792C10.0855 29.4784 9.88681 28.4128 10.0668 27.3775C10.2467 26.3422 10.7933 25.4062 11.6066 24.7407C12.4199 24.0753 13.4456 23.7248 14.496 23.7533C15.5465 23.7819 16.5516 24.1876 17.3275 24.8962L22.635 21.71C22.453 20.9977 22.453 20.251 22.635 19.5387L17.3263 16.3538C16.8014 16.8337 16.1674 17.1784 15.4792 17.3581C14.791 17.5378 14.0694 17.547 13.3769 17.3849C12.6844 17.2228 12.0418 16.8943 11.5049 16.4278C10.9679 15.9614 10.5528 15.3711 10.2955 14.708C10.0381 14.045 9.94629 13.3292 10.028 12.6226C10.1096 11.9161 10.3623 11.2401 10.7642 10.6533C11.166 10.0664 11.7048 9.58636 12.334 9.25472C12.9632 8.92308 13.6638 8.74984 14.375 8.75ZM14.375 26.25C14.0119 26.25 13.6565 26.3554 13.3521 26.5535C13.0477 26.7517 12.8075 27.0339 12.6604 27.366C12.5134 27.6981 12.466 28.0657 12.524 28.4242C12.5819 28.7827 12.7427 29.1167 12.9869 29.3855C13.2311 29.6544 13.548 29.8466 13.8993 29.9387C14.2506 30.0308 14.6211 30.0189 14.9658 29.9045C15.3104 29.79 15.6145 29.578 15.8409 29.294C16.0673 29.0101 16.2064 28.6665 16.2413 28.305L16.2163 28.4775C16.2714 28.1846 16.2564 27.8828 16.1723 27.5968C16.0882 27.3109 15.9375 27.0489 15.7325 26.8325L15.765 26.8662C15.67 26.7617 15.5635 26.6682 15.4475 26.5875L15.52 26.64C15.4741 26.6045 15.4265 26.5711 15.3775 26.54L15.4475 26.5875C15.4089 26.5602 15.3693 26.5343 15.3288 26.51L15.3788 26.54C15.3301 26.5094 15.2801 26.481 15.2288 26.455L15.3288 26.51C15.2036 26.436 15.0702 26.3768 14.9313 26.3337L14.9013 26.325C14.7303 26.2751 14.5531 26.2499 14.375 26.25ZM26.875 18.75C26.6638 18.75 26.4613 18.785 26.2713 18.85L26.32 18.8338C26.1812 18.8764 26.0477 18.9351 25.9225 19.0087L26.02 18.9563C25.97 18.9812 25.92 19.01 25.8725 19.04L25.9225 19.01C25.8813 19.035 25.8413 19.06 25.8013 19.0875L25.8725 19.04C25.8239 19.0711 25.7768 19.1045 25.7313 19.14L25.8013 19.0875C25.753 19.1211 25.7062 19.157 25.6613 19.195L25.7313 19.14C25.6877 19.1736 25.6455 19.209 25.605 19.2463L25.6613 19.1963C25.6179 19.2327 25.5762 19.2711 25.5363 19.3113L25.605 19.2463C25.5628 19.2848 25.5223 19.3253 25.4838 19.3675L25.5363 19.3113C25.3189 19.5336 25.16 19.8063 25.0738 20.105L25.0338 20.2688C25.0113 20.3862 25 20.5054 25 20.625L25.0063 20.7888L25.0088 20.8037C25.0462 21.2053 25.2128 21.5838 25.4838 21.8825L25.4438 21.8363C25.4738 21.8713 25.5038 21.905 25.535 21.9362L25.485 21.8825C25.5225 21.925 25.5625 21.965 25.6038 22.0038L25.535 21.9362C25.5775 21.98 25.6225 22.0213 25.6675 22.06L25.605 22.0038C25.6438 22.0413 25.6863 22.0763 25.73 22.11L25.6675 22.06C25.705 22.0913 25.7425 22.1212 25.7838 22.15L25.73 22.11C25.8477 22.2007 25.9756 22.277 26.1113 22.3375L26.0138 22.2913C26.0638 22.3162 26.1138 22.3412 26.1663 22.3612L26.1113 22.3375C26.1725 22.365 26.235 22.3887 26.2988 22.41L26.1663 22.3612C26.4226 22.4657 26.6988 22.5122 26.9752 22.4973C27.2515 22.4824 27.5212 22.4065 27.7647 22.275C28.0083 22.1435 28.2197 21.9598 28.3838 21.7369C28.548 21.5141 28.6607 21.2577 28.714 20.9861C28.7673 20.7145 28.7598 20.4345 28.6921 20.1661C28.6244 19.8978 28.4981 19.6478 28.3223 19.434C28.1465 19.2202 27.9255 19.0481 27.6753 18.9298C27.4251 18.8115 27.1518 18.7501 26.875 18.75ZM14.375 11.25C14.0912 11.25 13.811 11.3145 13.5557 11.4386C13.3004 11.5626 13.0766 11.7431 12.9012 11.9662C12.7258 12.1894 12.6033 12.4494 12.543 12.7268C12.4827 13.0042 12.4862 13.2916 12.5532 13.5675C12.6202 13.8433 12.7489 14.1004 12.9297 14.3192C13.1105 14.538 13.3386 14.713 13.5969 14.8308C13.8551 14.9486 14.1367 15.0063 14.4205 14.9995C14.7043 14.9926 14.9828 14.9214 15.235 14.7913L15.1638 14.8263C15.2125 14.8038 15.26 14.78 15.305 14.7538L15.235 14.7913C15.285 14.7663 15.3313 14.7387 15.3775 14.71L15.305 14.7538C15.3575 14.7238 15.4088 14.6913 15.4575 14.6563L15.3775 14.71C15.4263 14.6787 15.4725 14.6475 15.5175 14.6125L15.4575 14.6563C15.5038 14.6238 15.55 14.5875 15.5938 14.55L15.5175 14.6125C15.5613 14.5775 15.605 14.5425 15.645 14.505L15.5938 14.55C15.6354 14.5143 15.6754 14.4767 15.7138 14.4375L15.645 14.505C15.6873 14.466 15.7277 14.4252 15.7663 14.3825L15.7138 14.4387C15.9126 14.2358 16.0628 13.9905 16.153 13.7211C16.2433 13.4518 16.2714 13.1655 16.235 12.8838C16.1764 12.4319 15.9553 12.0169 15.613 11.7163C15.2707 11.4156 14.8306 11.2499 14.375 11.25Z" fill="black"/>
</svg>
