<svg width="24" height="24" viewBox="0 0 24 24" fill="none" xmlns="http://www.w3.org/2000/svg">
<path d="M6 14.25V17.25H9V14.25H6ZM9 12.75C9.39782 12.75 9.77936 12.9081 10.0607 13.1894C10.342 13.4707 10.5 13.8522 10.5 14.25V17.25C10.5 17.6479 10.342 18.0294 10.0607 18.3107C9.77936 18.592 9.39782 18.75 9 18.75H6C5.60218 18.75 5.22064 18.592 4.93934 18.3107C4.65804 18.0294 4.5 17.6479 4.5 17.25V14.25C4.5 13.8522 4.65804 13.4707 4.93934 13.1894C5.22064 12.9081 5.60218 12.75 6 12.75H9ZM16.5 16.5C16.6989 16.5 16.8897 16.5791 17.0303 16.7197C17.171 16.8604 17.25 17.0511 17.25 17.25C17.25 17.449 17.171 17.6397 17.0303 17.7804C16.8897 17.921 16.6989 18 16.5 18H15C14.8011 18 14.6103 17.921 14.4697 17.7804C14.329 17.6397 14.25 17.449 14.25 17.25C14.25 17.0511 14.329 16.8604 14.4697 16.7197C14.6103 16.5791 14.8011 16.5 15 16.5H16.5ZM12.75 16.5C12.9489 16.5 13.1397 16.5791 13.2803 16.7197C13.421 16.8604 13.5 17.0511 13.5 17.25C13.5 17.449 13.421 17.6397 13.2803 17.7804C13.1397 17.921 12.9489 18 12.75 18C12.5511 18 12.3603 17.921 12.2197 17.7804C12.079 17.6397 12 17.449 12 17.25C12 17.0511 12.079 16.8604 12.2197 16.7197C12.3603 16.5791 12.5511 16.5 12.75 16.5ZM18.75 13.5C18.9489 13.5 19.1397 13.5791 19.2803 13.7197C19.421 13.8604 19.5 14.0511 19.5 14.25C19.5 14.449 19.421 14.6397 19.2803 14.7804C19.1397 14.921 18.9489 15 18.75 15H12.75C12.5511 15 12.3603 14.921 12.2197 14.7804C12.079 14.6397 12 14.449 12 14.25C12 14.0511 12.079 13.8604 12.2197 13.7197C12.3603 13.5791 12.5511 13.5 12.75 13.5H18.75ZM10.1355 4.60729C10.3059 4.70962 10.4286 4.87539 10.4769 5.06819C10.5251 5.26098 10.4949 5.46504 10.3928 5.63554L7.69275 10.1355C7.63412 10.2332 7.55402 10.3163 7.45851 10.3783C7.363 10.4404 7.25461 10.48 7.14154 10.4939C7.02848 10.5079 6.91373 10.4959 6.80599 10.4589C6.69825 10.4219 6.60036 10.3608 6.51975 10.2803L4.71975 8.48029C4.58313 8.33884 4.50754 8.14938 4.50924 7.95274C4.51095 7.75609 4.58983 7.56798 4.72889 7.42892C4.86794 7.28987 5.05605 7.21099 5.2527 7.20928C5.44935 7.20757 5.6388 7.28317 5.78025 7.41979L6.90075 8.54029L9.10725 4.86454C9.20958 4.69417 9.37535 4.57139 9.56815 4.52316C9.76094 4.47493 9.965 4.50518 10.1355 4.60729ZM16.5 8.25004C16.6989 8.25004 16.8897 8.32906 17.0303 8.46971C17.171 8.61036 17.25 8.80113 17.25 9.00004C17.25 9.19895 17.171 9.38972 17.0303 9.53037C16.8897 9.67102 16.6989 9.75004 16.5 9.75004H15C14.8011 9.75004 14.6103 9.67102 14.4697 9.53037C14.329 9.38972 14.25 9.19895 14.25 9.00004C14.25 8.80113 14.329 8.61036 14.4697 8.46971C14.6103 8.32906 14.8011 8.25004 15 8.25004H16.5ZM12.75 8.25004C12.9489 8.25004 13.1397 8.32906 13.2803 8.46971C13.421 8.61036 13.5 8.80113 13.5 9.00004C13.5 9.19895 13.421 9.38972 13.2803 9.53037C13.1397 9.67102 12.9489 9.75004 12.75 9.75004C12.5511 9.75004 12.3603 9.67102 12.2197 9.53037C12.079 9.38972 12 9.19895 12 9.00004C12 8.80113 12.079 8.61036 12.2197 8.46971C12.3603 8.32906 12.5511 8.25004 12.75 8.25004ZM18.75 5.25004C18.9489 5.25004 19.1397 5.32906 19.2803 5.46971C19.421 5.61036 19.5 5.80113 19.5 6.00004C19.5 6.19895 19.421 6.38972 19.2803 6.53037C19.1397 6.67102 18.9489 6.75004 18.75 6.75004H12.75C12.5511 6.75004 12.3603 6.67102 12.2197 6.53037C12.079 6.38972 12 6.19895 12 6.00004C12 5.80113 12.079 5.61036 12.2197 5.46971C12.3603 5.32906 12.5511 5.25004 12.75 5.25004H18.75Z" fill="black"/>
</svg>
