<svg width="40" height="40" viewBox="0 0 40 40" fill="none" xmlns="http://www.w3.org/2000/svg">
<path d="M30.0088 7.5C31.3838 7.5 32.5 8.61625 32.5 9.99125V20C32.4996 20.3186 32.3777 20.625 32.1589 20.8567C31.9402 21.0884 31.6413 21.2278 31.3233 21.2465C31.0052 21.2651 30.692 21.1617 30.4477 20.9572C30.2034 20.7527 30.0464 20.4626 30.0088 20.1463L30 20H29.9988L30 10H10V30L11.3475 29.9975C11.7063 27.8475 13.075 26.44 15.6913 25.1325C15.9258 25.0152 16.1913 24.9747 16.4502 25.0166C16.7091 25.0586 16.9482 25.1809 17.1337 25.3662C17.4237 25.655 17.7087 25.8538 18.01 25.9862C18.4575 26.1838 18.8587 26.2413 19.745 26.2488H20.0037C20.6413 26.25 21.17 26.7325 21.2413 27.3537L21.25 27.5C21.25 27.8062 21.1376 28.1017 20.9341 28.3305C20.7307 28.5593 20.4503 28.7054 20.1463 28.7412L20 28.75C18.595 28.75 17.9063 28.6737 17 28.2725C16.6786 28.1304 16.3728 27.9553 16.0875 27.75C14.8463 28.4538 14.0275 29.1112 13.75 30H20C20.3186 30.0004 20.625 30.1223 20.8567 30.3411C21.0884 30.5598 21.2278 30.8587 21.2465 31.1767C21.2651 31.4948 21.1617 31.808 20.9572 32.0523C20.7527 32.2966 20.4626 32.4536 20.1463 32.4912L20 32.5H9.99125C8.61625 32.5 7.5 31.3838 7.5 30.0088V9.99125C7.5 8.61625 8.61625 7.5 9.99125 7.5H30.0088ZM27.5 22.5C27.8315 22.5 28.1495 22.6317 28.3839 22.8661C28.6183 23.1005 28.75 23.4185 28.75 23.75V26.25H31.25C31.5815 26.25 31.8995 26.3817 32.1339 26.6161C32.3683 26.8505 32.5 27.1685 32.5 27.5C32.5 27.8315 32.3683 28.1495 32.1339 28.3839C31.8995 28.6183 31.5815 28.75 31.25 28.75H28.75V31.25C28.75 31.5815 28.6183 31.8995 28.3839 32.1339C28.1495 32.3683 27.8315 32.5 27.5 32.5C27.1685 32.5 26.8505 32.3683 26.6161 32.1339C26.3817 31.8995 26.25 31.5815 26.25 31.25V28.75H23.75C23.4185 28.75 23.1005 28.6183 22.8661 28.3839C22.6317 28.1495 22.5 27.8315 22.5 27.5C22.5 27.1685 22.6317 26.8505 22.8661 26.6161C23.1005 26.3817 23.4185 26.25 23.75 26.25H26.25V23.75C26.25 23.4185 26.3817 23.1005 26.6161 22.8661C26.8505 22.6317 27.1685 22.5 27.5 22.5ZM20 12.5C21.6576 12.5 23.2473 13.1585 24.4194 14.3306C25.5915 15.5027 26.25 17.0924 26.25 18.75C26.25 20.4076 25.5915 21.9973 24.4194 23.1694C23.2473 24.3415 21.6576 25 20 25C18.3424 25 16.7527 24.3415 15.5806 23.1694C14.4085 21.9973 13.75 20.4076 13.75 18.75C13.75 17.0924 14.4085 15.5027 15.5806 14.3306C16.7527 13.1585 18.3424 12.5 20 12.5ZM20 15C19.0054 15 18.0516 15.3951 17.3483 16.0983C16.6451 16.8016 16.25 17.7554 16.25 18.75C16.25 19.7446 16.6451 20.6984 17.3483 21.4017C18.0516 22.1049 19.0054 22.5 20 22.5C20.9946 22.5 21.9484 22.1049 22.6517 21.4017C23.3549 20.6984 23.75 19.7446 23.75 18.75C23.75 17.7554 23.3549 16.8016 22.6517 16.0983C21.9484 15.3951 20.9946 15 20 15Z" fill="black"/>
</svg>
