<svg width="32" height="32" viewBox="0 0 32 32" fill="none" xmlns="http://www.w3.org/2000/svg">
<path d="M8 19.0001V23.0001H12V19.0001H8ZM12 17.0001C12.5304 17.0001 13.0391 17.2108 13.4142 17.5858C13.7893 17.9609 14 18.4696 14 19.0001V23.0001C14 23.5305 13.7893 24.0392 13.4142 24.4143C13.0391 24.7893 12.5304 25.0001 12 25.0001H8C7.46957 25.0001 6.96086 24.7893 6.58579 24.4143C6.21071 24.0392 6 23.5305 6 23.0001V19.0001C6 18.4696 6.21071 17.9609 6.58579 17.5858C6.96086 17.2108 7.46957 17.0001 8 17.0001H12ZM22 22.0001C22.2652 22.0001 22.5196 22.1054 22.7071 22.2929C22.8946 22.4805 23 22.7348 23 23.0001C23 23.2653 22.8946 23.5196 22.7071 23.7072C22.5196 23.8947 22.2652 24.0001 22 24.0001H20C19.7348 24.0001 19.4804 23.8947 19.2929 23.7072C19.1054 23.5196 19 23.2653 19 23.0001C19 22.7348 19.1054 22.4805 19.2929 22.2929C19.4804 22.1054 19.7348 22.0001 20 22.0001H22ZM17 22.0001C17.2652 22.0001 17.5196 22.1054 17.7071 22.2929C17.8946 22.4805 18 22.7348 18 23.0001C18 23.2653 17.8946 23.5196 17.7071 23.7072C17.5196 23.8947 17.2652 24.0001 17 24.0001C16.7348 24.0001 16.4804 23.8947 16.2929 23.7072C16.1054 23.5196 16 23.2653 16 23.0001C16 22.7348 16.1054 22.4805 16.2929 22.2929C16.4804 22.1054 16.7348 22.0001 17 22.0001ZM25 18.0001C25.2652 18.0001 25.5196 18.1054 25.7071 18.2929C25.8946 18.4805 26 18.7348 26 19.0001C26 19.2653 25.8946 19.5196 25.7071 19.7072C25.5196 19.8947 25.2652 20.0001 25 20.0001H17C16.7348 20.0001 16.4804 19.8947 16.2929 19.7072C16.1054 19.5196 16 19.2653 16 19.0001C16 18.7348 16.1054 18.4805 16.2929 18.2929C16.4804 18.1054 16.7348 18.0001 17 18.0001H25ZM13.514 6.14305C13.7412 6.2795 13.9049 6.50052 13.9692 6.75758C14.0335 7.01464 13.9931 7.28671 13.857 7.51405L10.257 13.5141C10.1788 13.6443 10.072 13.755 9.94468 13.8378C9.81734 13.9206 9.67281 13.9733 9.52206 13.9919C9.37131 14.0105 9.2183 13.9945 9.07465 13.9452C8.931 13.8958 8.80048 13.8144 8.693 13.7071L6.293 11.3071C6.11084 11.1184 6.01005 10.8658 6.01233 10.6036C6.0146 10.3415 6.11977 10.0906 6.30518 9.90523C6.49059 9.71982 6.7414 9.61465 7.0036 9.61238C7.2658 9.6101 7.5184 9.71089 7.707 9.89305L9.201 11.3871L12.143 6.48605C12.2794 6.2589 12.5005 6.09519 12.7575 6.03088C13.0146 5.96657 13.2867 6.00691 13.514 6.14305ZM22 11.0001C22.2652 11.0001 22.5196 11.1054 22.7071 11.2929C22.8946 11.4805 23 11.7348 23 12.0001C23 12.2653 22.8946 12.5196 22.7071 12.7072C22.5196 12.8947 22.2652 13.0001 22 13.0001H20C19.7348 13.0001 19.4804 12.8947 19.2929 12.7072C19.1054 12.5196 19 12.2653 19 12.0001C19 11.7348 19.1054 11.4805 19.2929 11.2929C19.4804 11.1054 19.7348 11.0001 20 11.0001H22ZM17 11.0001C17.2652 11.0001 17.5196 11.1054 17.7071 11.2929C17.8946 11.4805 18 11.7348 18 12.0001C18 12.2653 17.8946 12.5196 17.7071 12.7072C17.5196 12.8947 17.2652 13.0001 17 13.0001C16.7348 13.0001 16.4804 12.8947 16.2929 12.7072C16.1054 12.5196 16 12.2653 16 12.0001C16 11.7348 16.1054 11.4805 16.2929 11.2929C16.4804 11.1054 16.7348 11.0001 17 11.0001ZM25 7.00005C25.2652 7.00005 25.5196 7.10541 25.7071 7.29294C25.8946 7.48048 26 7.73483 26 8.00005C26 8.26527 25.8946 8.51962 25.7071 8.70716C25.5196 8.89469 25.2652 9.00005 25 9.00005H17C16.7348 9.00005 16.4804 8.89469 16.2929 8.70716C16.1054 8.51962 16 8.26527 16 8.00005C16 7.73483 16.1054 7.48048 16.2929 7.29294C16.4804 7.10541 16.7348 7.00005 17 7.00005H25Z" fill="black"/>
</svg>
