<svg width="24" height="24" viewBox="0 0 24 24" fill="none" xmlns="http://www.w3.org/2000/svg">
<path d="M17.9985 4.5C18.8265 4.5 19.5 5.1765 19.5 6.0015V13.4985C19.499 13.8964 19.3405 14.2778 19.0591 14.5591C18.7778 14.8405 18.3964 14.999 17.9985 15H15V18C15 18.3978 14.842 18.7794 14.5607 19.0607C14.2794 19.342 13.8978 19.5 13.5 19.5H6C5.60218 19.5 5.22064 19.342 4.93934 19.0607C4.65804 18.7794 4.5 18.3978 4.5 18V10.5C4.5 10.1022 4.65804 9.72064 4.93934 9.43934C5.22064 9.15804 5.60218 9 6 9H9V6.0015C9 5.1735 9.6765 4.5 10.5015 4.5H17.9985ZM9 10.5H6V18H13.5V15H10.5015C10.1036 14.999 9.72224 14.8405 9.44087 14.5591C9.1595 14.2778 9.00099 13.8964 9 13.4985V10.5ZM11.9543 6H10.5015L10.5023 6.1995V9.82575L10.5015 10.047L10.5008 11.7743V12.0458L10.5 13.4985L10.6995 13.4977H14.3258L14.547 13.4985L16.2743 13.4993H17.6955L17.9985 13.5L17.9977 13.3005V11.9887V9.67425L17.9985 9.453L17.9993 7.72575V6.3045L18 6.0015L17.8005 6.00225H14.1742L13.953 6.0015L12.2258 6.00075H11.9543V6Z" fill="black"/>
</svg>
