<svg width="24" height="24" viewBox="0 0 24 24" fill="none" xmlns="http://www.w3.org/2000/svg">
<path d="M12 3.75C16.5562 3.75 20.25 7.44375 20.25 12C20.25 16.5562 16.5562 20.25 12 20.25C7.51575 20.25 3.86775 16.6725 3.753 12.216L3.75 12L3.75525 11.9123C3.77783 11.7224 3.87204 11.5484 4.01863 11.4257C4.16522 11.303 4.35312 11.2409 4.54395 11.2521C4.73479 11.2633 4.91414 11.347 5.04536 11.486C5.17659 11.625 5.24979 11.8088 5.25 12C5.24999 13.3266 5.64085 14.6237 6.37378 15.7294C7.1067 16.8351 8.14918 17.7004 9.37099 18.2171C10.5928 18.7337 11.9398 18.8789 13.2436 18.6345C14.5475 18.3901 15.7504 17.7669 16.7022 16.8428C17.6539 15.9187 18.3122 14.7347 18.5949 13.4386C18.8776 12.1425 18.7722 10.7918 18.2917 9.55533C17.8113 8.31883 16.9771 7.25132 15.8935 6.48614C14.8098 5.72097 13.5247 5.29206 12.1987 5.253L12 5.25L11.9123 5.24475C11.7224 5.22217 11.5484 5.12796 11.4257 4.98137C11.303 4.83478 11.2409 4.64688 11.2521 4.45605C11.2633 4.26521 11.347 4.08586 11.486 3.95464C11.625 3.82341 11.8088 3.75021 12 3.75ZM12 6.75C13.2096 6.74999 14.3822 7.16768 15.3193 7.93247C16.2565 8.69725 16.9009 9.7622 17.1434 10.9473C17.386 12.1323 17.2119 13.3648 16.6505 14.4363C16.0892 15.5078 15.1751 16.3526 14.0627 16.8278C12.9504 17.3031 11.708 17.3796 10.5457 17.0445C9.38342 16.7095 8.3725 15.9833 7.68386 14.9888C6.99522 13.9943 6.67112 12.7926 6.76635 11.5867C6.86158 10.3808 7.3703 9.24481 8.2065 8.37075C8.26733 8.28701 8.34484 8.21677 8.43414 8.16444C8.52345 8.11212 8.62262 8.07885 8.72541 8.06672C8.8282 8.05459 8.93239 8.06387 9.03142 8.09397C9.13045 8.12407 9.22217 8.17435 9.30083 8.24163C9.37948 8.30891 9.44335 8.39175 9.48843 8.48492C9.53351 8.57809 9.55881 8.67959 9.56275 8.78302C9.56669 8.88644 9.54917 8.98957 9.51131 9.0859C9.47345 9.18223 9.41606 9.26968 9.34275 9.34275L9.348 9.348C8.73445 9.96139 8.35257 10.7685 8.26741 11.6319C8.18225 12.4953 8.39909 13.3615 8.88099 14.0829C9.36288 14.8044 10.08 15.3364 10.9102 15.5884C11.7404 15.8403 12.6322 15.7967 13.4338 15.4648C14.2354 15.1329 14.8971 14.5333 15.3062 13.7683C15.7153 13.0032 15.8465 12.12 15.6774 11.269C15.5083 10.4181 15.0493 9.65214 14.3788 9.10164C13.7083 8.55113 12.8676 8.25016 12 8.25H11.9992L11.9123 8.24475C11.7224 8.22217 11.5484 8.12796 11.4257 7.98137C11.303 7.83478 11.2409 7.64688 11.2521 7.45605C11.2633 7.26521 11.347 7.08586 11.486 6.95464C11.625 6.82341 11.8088 6.75021 12 6.75ZM11.9123 11.2448C11.7224 11.2222 11.5484 11.128 11.4257 10.9814C11.303 10.8348 11.2409 10.6469 11.2521 10.456C11.2633 10.2652 11.347 10.0859 11.486 9.95464C11.625 9.82341 11.8088 9.75021 12 9.75C12.4394 9.75002 12.8691 9.8787 13.2362 10.1201C13.6033 10.3616 13.8917 10.7052 14.0658 11.1086C14.2398 11.5121 14.292 11.9576 14.2158 12.3904C14.1395 12.8231 13.9383 13.224 13.6368 13.5437C13.3354 13.8633 12.9469 14.0877 12.5194 14.1892C12.0919 14.2907 11.6441 14.2647 11.2311 14.1146C10.8182 13.9645 10.4582 13.6967 10.1957 13.3444C9.93316 12.9921 9.77953 12.5706 9.75375 12.132L9.75 12L9.75525 11.9123C9.77783 11.7224 9.87204 11.5484 10.0186 11.4257C10.1652 11.303 10.3531 11.2409 10.544 11.2521C10.7348 11.2633 10.9141 11.347 11.0454 11.486C11.1766 11.625 11.2498 11.8088 11.25 12C11.25 12.1446 11.2918 12.2861 11.3703 12.4075C11.4489 12.5289 11.5608 12.625 11.6927 12.6843C11.8246 12.7435 11.9709 12.7634 12.1138 12.7414C12.2567 12.7195 12.3902 12.6567 12.4983 12.5606C12.6064 12.4646 12.6844 12.3393 12.7229 12.1999C12.7614 12.0606 12.7588 11.913 12.7154 11.7751C12.6721 11.6371 12.5897 11.5147 12.4784 11.4225C12.367 11.3302 12.2314 11.2722 12.0878 11.2552L12 11.25L11.9123 11.2448Z" fill="black"/>
</svg>
