<svg width="40" height="40" viewBox="0 0 40 40" fill="none" xmlns="http://www.w3.org/2000/svg">
<path d="M26.9347 20.9825C26.9853 20.8755 27.0653 20.7851 27.1653 20.7217C27.2654 20.6584 27.3813 20.6248 27.4997 20.6248C27.6181 20.6248 27.7341 20.6584 27.8341 20.7217C27.9341 20.7851 28.0141 20.8755 28.0647 20.9825L29.5047 24.0275L32.5935 24.4963C32.6985 24.5121 32.7979 24.5545 32.882 24.6193C32.9662 24.6842 33.0324 24.7695 33.0744 24.8671C33.1165 24.9647 33.1329 25.0714 33.1223 25.1771C33.1116 25.2828 33.0742 25.3841 33.0135 25.4713L32.946 25.5525L30.6985 27.8375L31.2435 31.1488C31.2612 31.256 31.2507 31.366 31.2129 31.4679C31.1752 31.5698 31.1115 31.6601 31.0282 31.7299C30.945 31.7997 30.8449 31.8465 30.738 31.8659C30.631 31.8852 30.5209 31.8763 30.4185 31.84L30.326 31.7975L27.4997 30.2463L24.6735 31.7975C24.5783 31.8499 24.4711 31.8765 24.3626 31.8749C24.254 31.8732 24.1477 31.8432 24.0542 31.788C23.9607 31.7327 23.8832 31.654 23.8294 31.5597C23.7756 31.4654 23.7472 31.3587 23.7472 31.25L23.756 31.1488L24.2997 27.8375L22.0535 25.5525C21.9791 25.4768 21.9252 25.3833 21.897 25.2809C21.8688 25.1786 21.8671 25.0707 21.8921 24.9675C21.9171 24.8643 21.968 24.7692 22.04 24.6911C22.112 24.6131 22.2026 24.5546 22.3035 24.5213L22.406 24.4963L25.4935 24.0275L26.9347 20.9825ZM11.9347 20.9825C11.9853 20.8755 12.0653 20.7851 12.1653 20.7217C12.2654 20.6584 12.3813 20.6248 12.4997 20.6248C12.6181 20.6248 12.7341 20.6584 12.8341 20.7217C12.9341 20.7851 13.0141 20.8755 13.0647 20.9825L14.5047 24.0275L17.5935 24.4963C17.6985 24.5121 17.7979 24.5545 17.882 24.6193C17.9662 24.6842 18.0324 24.7695 18.0744 24.8671C18.1165 24.9647 18.1329 25.0714 18.1223 25.1771C18.1116 25.2828 18.0742 25.3841 18.0135 25.4713L17.946 25.5525L15.6985 27.8375L16.2435 31.1488C16.2612 31.256 16.2507 31.366 16.2129 31.4679C16.1752 31.5698 16.1115 31.6601 16.0282 31.7299C15.945 31.7997 15.8449 31.8465 15.738 31.8659C15.631 31.8852 15.5209 31.8763 15.4185 31.84L15.326 31.7975L12.4997 30.2463L9.67346 31.7975C9.5783 31.8499 9.47115 31.8765 9.36255 31.8749C9.25396 31.8732 9.14768 31.8432 9.05418 31.788C8.96069 31.7327 8.88321 31.654 8.82938 31.5597C8.77555 31.4654 8.74723 31.3587 8.74721 31.25L8.75596 31.1488L9.29971 27.8375L7.05346 25.5525C6.97908 25.4768 6.92524 25.3833 6.89701 25.2809C6.86878 25.1786 6.86709 25.0707 6.89211 24.9675C6.91712 24.8643 6.96802 24.7692 7.03999 24.6911C7.11196 24.6131 7.20264 24.5546 7.30346 24.5213L7.40596 24.4963L10.4935 24.0275L11.9347 20.9825ZM19.4347 7.23255C19.4853 7.12552 19.5653 7.03507 19.6653 6.97173C19.7654 6.90838 19.8813 6.87476 19.9997 6.87476C20.1181 6.87476 20.2341 6.90838 20.3341 6.97173C20.4341 7.03507 20.5141 7.12552 20.5647 7.23255L22.0047 10.2775L25.0935 10.7463C25.1985 10.7621 25.2979 10.8045 25.382 10.8693C25.4662 10.9342 25.5324 11.0195 25.5744 11.1171C25.6165 11.2147 25.6329 11.3214 25.6223 11.4271C25.6116 11.5328 25.5742 11.6341 25.5135 11.7213L25.446 11.8025L23.1985 14.0875L23.7435 17.3988C23.7612 17.506 23.7507 17.616 23.7129 17.7179C23.6752 17.8198 23.6115 17.9101 23.5282 17.9799C23.445 18.0497 23.3449 18.0965 23.238 18.1159C23.131 18.1352 23.0209 18.1263 22.9185 18.09L22.826 18.0475L19.9997 16.4963L17.1735 18.0475C17.0783 18.0999 16.9711 18.1265 16.8626 18.1249C16.754 18.1232 16.6477 18.0932 16.5542 18.038C16.4607 17.9827 16.3832 17.904 16.3294 17.8097C16.2755 17.7154 16.2472 17.6087 16.2472 17.5L16.256 17.3988L16.7997 14.0875L14.5535 11.8025C14.4791 11.7268 14.4252 11.6333 14.397 11.5309C14.3688 11.4286 14.3671 11.3207 14.3921 11.2175C14.4171 11.1143 14.468 11.0192 14.54 10.9411C14.612 10.8631 14.7026 10.8046 14.8035 10.7713L14.906 10.7463L17.9935 10.2775L19.4347 7.23255Z" fill="black"/>
</svg>
