<svg width="24" height="24" viewBox="0 0 24 24" fill="none" xmlns="http://www.w3.org/2000/svg">
<path d="M18.75 18C18.9489 18 19.1397 18.079 19.2803 18.2197C19.421 18.3603 19.5 18.5511 19.5 18.75C19.5 18.9489 19.421 19.1397 19.2803 19.2803C19.1397 19.421 18.9489 19.5 18.75 19.5H5.25C5.05109 19.5 4.86032 19.421 4.71967 19.2803C4.57902 19.1397 4.5 18.9489 4.5 18.75C4.5 18.5511 4.57902 18.3603 4.71967 18.2197C4.86032 18.079 5.05109 18 5.25 18H18.75ZM12 4.5C12.1989 4.5 12.3897 4.57902 12.5303 4.71967C12.671 4.86032 12.75 5.05109 12.75 5.25V13.9387L15.2197 11.4698C15.3612 11.3331 15.5507 11.2575 15.7473 11.2592C15.9439 11.261 16.1321 11.3398 16.2711 11.4789C16.4102 11.6179 16.489 11.8061 16.4908 12.0027C16.4925 12.1993 16.4169 12.3888 16.2803 12.5303L12.5303 16.2803C12.3896 16.4209 12.1989 16.4998 12 16.4998C11.8011 16.4998 11.6104 16.4209 11.4698 16.2803L7.71975 12.5303C7.58313 12.3888 7.50754 12.1993 7.50924 12.0027C7.51095 11.8061 7.58983 11.6179 7.72889 11.4789C7.86794 11.3398 8.05605 11.261 8.2527 11.2592C8.44935 11.2575 8.6388 11.3331 8.78025 11.4698L11.25 13.9387V5.25C11.25 5.05109 11.329 4.86032 11.4697 4.71967C11.6103 4.57902 11.8011 4.5 12 4.5Z" fill="black"/>
</svg>
