<svg width="24" height="24" viewBox="0 0 24 24" fill="none" xmlns="http://www.w3.org/2000/svg">
<path d="M3.02344 10.5166C3.02344 9.68856 3.69094 9.02406 4.52569 9.02406L5.14819 9.02331C5.38413 8.48332 5.68295 7.97305 6.03844 7.50306L5.75044 7.00281C5.55178 6.65924 5.49723 6.251 5.5987 5.86733C5.70017 5.48365 5.94941 5.15575 6.29194 4.95531L8.90194 3.44856C9.07244 3.35003 9.26075 3.28621 9.45603 3.26078C9.65131 3.23536 9.84969 3.24883 10.0397 3.30042C10.2298 3.35201 10.4077 3.4407 10.5634 3.56138C10.719 3.68206 10.8492 3.83234 10.9464 4.00356L11.2682 4.56081C11.6979 4.51779 12.1304 4.51151 12.5612 4.54206L12.8732 4.00281C13.0715 3.65913 13.3978 3.40792 13.7807 3.30406C14.1637 3.20021 14.5722 3.25216 14.9169 3.44856L17.5269 4.95606C17.6975 5.0544 17.8469 5.18551 17.9666 5.34184C18.0863 5.49817 18.1738 5.67664 18.2242 5.86695C18.2746 6.05727 18.2869 6.25567 18.2603 6.45074C18.2337 6.64582 18.1687 6.83369 18.0692 7.00356L17.8779 7.33506C18.2913 7.85012 18.6347 8.41753 18.8994 9.02256L19.5219 9.02331C20.3477 9.02331 21.0234 9.69456 21.0234 10.5158V13.5308C21.0234 13.7276 20.9845 13.9225 20.9089 14.1042C20.8333 14.2859 20.7225 14.4509 20.5829 14.5896C20.4432 14.7283 20.2775 14.8381 20.0953 14.9125C19.9131 14.9869 19.718 15.0246 19.5212 15.0233H18.8987C18.6377 15.6212 18.2999 16.1824 17.8937 16.6928L18.0692 16.9973C18.2678 17.341 18.3222 17.7493 18.2206 18.133C18.119 18.5167 17.8696 18.8445 17.5269 19.0448L14.9169 20.5516C14.7465 20.65 14.5582 20.7137 14.363 20.7391C14.1678 20.7644 13.9695 20.7509 13.7796 20.6993C13.5896 20.6478 13.4117 20.5591 13.2562 20.4385C13.1006 20.3179 12.9705 20.1677 12.8732 19.9966L12.5882 19.5023C12.14 19.5358 11.6898 19.5295 11.2427 19.4836L10.9464 19.9973C10.7481 20.3412 10.4217 20.5926 10.0386 20.6964C9.65545 20.8003 9.24678 20.7482 8.90194 20.5516L6.29194 19.0441C6.12144 18.9457 5.9721 18.8145 5.8525 18.6581C5.7329 18.5018 5.64542 18.3233 5.59509 18.133C5.54476 17.9427 5.53257 17.7443 5.55924 17.5493C5.5859 17.3542 5.65088 17.1664 5.75044 16.9966L6.02269 16.5233C5.67379 16.0589 5.38006 15.5555 5.14744 15.0233H4.52569C4.12889 15.0235 3.74814 14.8666 3.46665 14.587C3.18516 14.3073 3.02582 13.9276 3.02344 13.5308V10.5158V10.5166ZM4.52344 13.5301C4.52344 13.5278 4.79569 13.5256 5.33944 13.5248L5.72719 13.5241H6.21244C6.48988 14.5984 7.06004 15.5746 7.85944 16.3441L7.04944 17.7466L9.65194 19.2526C9.64894 19.2503 9.92194 18.7726 10.4709 17.8201C11.421 18.074 12.4189 18.0912 13.3772 17.8703L14.1722 19.2473L16.7769 17.7451C16.7739 17.7473 16.5279 17.3258 16.0397 16.4813C16.9154 15.693 17.5397 14.6642 17.8344 13.5233H19.5219V13.1896V13.1108L19.5227 12.1868V12.0346L19.5234 10.5166C19.5234 10.5188 19.3239 10.5203 18.9234 10.5218H18.5874L18.3204 10.5226H18.1749L17.9079 10.5233H17.8352C17.5383 9.37424 16.9071 8.33908 16.0217 7.54881L16.7709 6.25281L14.1684 4.74756C14.1714 4.74981 13.8999 5.22456 13.3539 6.17181C12.4109 5.95781 11.4301 5.97453 10.4949 6.22056L9.64744 4.75281L7.04269 6.25506C7.04644 6.25281 7.32469 6.73056 7.87819 7.68756C7.06948 8.45865 6.49273 9.44069 6.21319 10.5226L4.52644 10.5233V10.8578L4.52569 10.9358V12.0121L4.52269 13.3126V13.5308L4.52344 13.5301ZM9.02344 12.0233C9.02344 11.2277 9.33951 10.4646 9.90212 9.90199C10.4647 9.33938 11.2278 9.02331 12.0234 9.02331C12.8191 9.02331 13.5821 9.33938 14.1448 9.90199C14.7074 10.4646 15.0234 11.2277 15.0234 12.0233C15.0234 12.819 14.7074 13.582 14.1448 14.1446C13.5821 14.7072 12.8191 15.0233 12.0234 15.0233C11.2278 15.0233 10.4647 14.7072 9.90212 14.1446C9.33951 13.582 9.02344 12.819 9.02344 12.0233ZM10.5234 12.0233C10.5234 12.4211 10.6815 12.8027 10.9628 13.084C11.2441 13.3653 11.6256 13.5233 12.0234 13.5233C12.4213 13.5233 12.8028 13.3653 13.0841 13.084C13.3654 12.8027 13.5234 12.4211 13.5234 12.0233C13.5234 11.6255 13.3654 11.244 13.0841 10.9626C12.8028 10.6813 12.4213 10.5233 12.0234 10.5233C11.6256 10.5233 11.2441 10.6813 10.9628 10.9626C10.6815 11.244 10.5234 11.6255 10.5234 12.0233Z" fill="black"/>
</svg>
