<svg width="32" height="32" viewBox="0 0 32 32" fill="none" xmlns="http://www.w3.org/2000/svg">
<path d="M27 7C27.986 7 28.358 8.257 27.593 8.806L27.496 8.868L20.496 12.868C20.3832 12.9327 20.2589 12.9749 20.13 12.992L20 13H7.11999C6.98878 13 6.85952 13.0318 6.74333 13.0928C6.62715 13.1537 6.52751 13.242 6.45299 13.35L6.39499 13.449C6.30892 13.6212 6.2641 13.811 6.2641 14.0035C6.2641 14.196 6.30892 14.3858 6.39499 14.558C6.51499 14.798 6.74399 14.96 7.00499 14.997L7.07199 15.001L7.11999 15L19.734 14.999L26.501 11.106C26.6531 11.0184 26.8255 10.9724 27.001 10.9726C27.1764 10.9728 27.3488 11.0191 27.5007 11.107C27.6526 11.1948 27.7787 11.3211 27.8663 11.4731C27.954 11.6251 28.0001 11.7975 28 11.973V16C28 16.1762 27.9535 16.3492 27.8652 16.5016C27.7769 16.6541 27.6499 16.7804 27.497 16.868L20.497 20.873C20.3457 20.9596 20.1743 21.0051 20 21.005H7.07999L7.11999 21C6.98878 21 6.85952 21.0318 6.74333 21.0928C6.62715 21.1537 6.52751 21.242 6.45299 21.35L6.39499 21.449C6.30892 21.6212 6.2641 21.811 6.2641 22.0035C6.2641 22.196 6.30892 22.3858 6.39499 22.558C6.51499 22.798 6.74399 22.96 7.00499 22.997L7.11799 23.005L19.734 23.004L26.504 19.132C26.7166 19.0106 26.9665 18.9714 27.2061 19.0219C27.4457 19.0724 27.6584 19.2091 27.804 19.406L27.868 19.503C27.9897 19.7158 28.029 19.9658 27.9785 20.2056C27.928 20.4455 27.7912 20.6584 27.594 20.804L27.497 20.868L20.497 24.873C20.3839 24.9379 20.2592 24.98 20.13 24.997L20 25.005H7.11799C6.5964 25.0048 6.08517 24.8594 5.64152 24.5851C5.19787 24.3108 4.83932 23.9185 4.60599 23.452C4.39774 23.0355 4.28172 22.579 4.26584 22.1135C4.24997 21.6481 4.33461 21.1847 4.51399 20.755L4.60399 20.557C4.70399 20.356 4.82699 20.171 4.96799 20.003C4.82591 19.8343 4.70439 19.6494 4.60599 19.452C4.38121 19.0026 4.26402 18.5072 4.26367 18.0047C4.26333 17.5023 4.37983 17.0067 4.60399 16.557C4.70399 16.357 4.82699 16.171 4.96799 16.003C4.82597 15.8343 4.70446 15.6493 4.60599 15.452C4.39774 15.0355 4.28172 14.5789 4.26584 14.1135C4.24997 13.6481 4.33461 13.1847 4.51399 12.755L4.60399 12.557C4.79512 12.1736 5.07133 11.839 5.41155 11.5787C5.75176 11.3183 6.14697 11.1392 6.56699 11.055L6.72299 11.028L15.593 7.086C15.6783 7.04829 15.7686 7.02271 15.861 7.01L16 7H27ZM26 13.723L20.497 16.873C20.3839 16.9379 20.2592 16.98 20.13 16.997L20 17.005H7.11799L7.07399 17.001C6.93101 17.0093 6.79277 17.0553 6.67333 17.1343C6.55388 17.2134 6.45751 17.3226 6.39399 17.451C6.30824 17.6229 6.2636 17.8124 6.2636 18.0045C6.2636 18.1966 6.30824 18.3861 6.39399 18.558C6.46133 18.6923 6.56471 18.8053 6.69257 18.8842C6.82043 18.9632 6.96773 19.005 7.11799 19.005L7.07999 19.001L7.11999 19H19.732L26 15.394V13.723ZM23.233 9H16.21L11.71 11H19.732L23.233 9Z" fill="black"/>
</svg>
