<svg width="24" height="24" viewBox="0 0 24 24" fill="none" xmlns="http://www.w3.org/2000/svg">
<path d="M9.79125 21.9938L9.77775 21.954C9.75976 21.8926 9.75042 21.829 9.75 21.765V18.75C9.12035 18.2778 8.65525 17.6194 8.42057 16.8681C8.1859 16.1169 8.19355 15.3108 8.44244 14.5641C8.69133 13.8175 9.16884 13.168 9.80734 12.7078C10.4458 12.2476 11.2129 12 12 12C12.7871 12 13.5542 12.2476 14.1927 12.7078C14.8312 13.168 15.3087 13.8175 15.5576 14.5641C15.8065 15.3108 15.8141 16.1169 15.5794 16.8681C15.3448 17.6194 14.8796 18.2778 14.25 18.75V18.7477V21.75L14.2493 21.765V21.78C14.2489 21.7938 14.2481 21.8075 14.247 21.8212V21.8085L14.241 21.8663C14.2367 21.8959 14.2305 21.9252 14.2222 21.954L14.2125 21.984C14.2067 22.002 14.2002 22.0198 14.193 22.0373L14.1893 22.0462L14.1818 22.0635C14.1724 22.084 14.1621 22.104 14.151 22.1235L14.1555 22.113L14.1427 22.137C14.1333 22.1526 14.1233 22.1679 14.1127 22.1828L14.0903 22.2135C14.0828 22.221 14.0767 22.23 14.07 22.2375L14.0527 22.257L14.0355 22.2757C14.0069 22.3031 13.9769 22.3289 13.9455 22.353C13.9125 22.3779 13.8774 22.3997 13.8405 22.4183L13.7917 22.4408C13.7585 22.4536 13.7247 22.4651 13.6905 22.4753L13.6718 22.4805L13.6448 22.4858C13.6022 22.4942 13.5591 22.499 13.5157 22.5H13.5L13.4415 22.4977L13.4385 22.497L13.5 22.5H13.4708C13.4567 22.4994 13.4427 22.4984 13.4288 22.497H13.4385L13.3837 22.491C13.3541 22.4867 13.3248 22.4805 13.296 22.4722L13.266 22.4625C13.2467 22.4563 13.2277 22.4493 13.209 22.4415L13.1947 22.4355L12 21.903L10.8052 22.4355L10.7437 22.458L10.704 22.4722C10.6474 22.4887 10.5889 22.4977 10.53 22.4993H10.515L10.5 22.5C10.4419 22.5001 10.3841 22.4936 10.3275 22.4805L10.3095 22.4753C10.275 22.4662 10.2411 22.4546 10.2083 22.4408L10.1595 22.4183C10.1366 22.4059 10.1141 22.3929 10.092 22.3792C10.0792 22.3709 10.0667 22.3621 10.0545 22.353L10.0252 22.3305L9.993 22.3027L9.978 22.2892L9.9645 22.275C9.94519 22.2557 9.92715 22.2351 9.9105 22.2135L9.888 22.1835C9.86132 22.1456 9.83798 22.1054 9.81825 22.0635L9.8145 22.0553L9.81075 22.0455L9.807 22.038L9.7965 22.0103L9.80775 22.0373L9.79125 21.9938ZM12.7507 19.425C12.2556 19.5257 11.7452 19.5257 11.25 19.425V20.5942L11.565 20.4548C11.7014 20.3939 11.8529 20.3753 12 20.4015C12.1471 20.3752 12.2986 20.3938 12.435 20.4548L12.75 20.595L12.7507 19.425ZM18.75 4.5C19.3239 4.49997 19.8761 4.71924 20.2937 5.11296C20.7113 5.50668 20.9626 6.04508 20.9963 6.618L21 6.75V15.75C21 16.3239 20.7808 16.8761 20.387 17.2937C19.9933 17.7113 19.4549 17.9626 18.882 17.9963L18.75 18H17.25L17.1622 17.9948C16.98 17.9731 16.812 17.8853 16.6901 17.748C16.5682 17.6108 16.5008 17.4336 16.5008 17.25C16.5008 17.0664 16.5682 16.8892 16.6901 16.752C16.812 16.6147 16.98 16.5269 17.1622 16.5052L17.25 16.5H18.75C18.9337 16.5 19.111 16.4325 19.2483 16.3105C19.3856 16.1884 19.4733 16.0202 19.4948 15.8378L19.5 15.75V6.75C19.5 6.5663 19.4325 6.389 19.3105 6.25172C19.1884 6.11444 19.0202 6.02674 18.8378 6.00525L18.75 6H5.25C5.0663 6.00002 4.889 6.06747 4.75172 6.18954C4.61444 6.31161 4.52674 6.47981 4.50525 6.66225L4.5 6.75V15.75C4.50002 15.9337 4.56747 16.111 4.68954 16.2483C4.81161 16.3856 4.97981 16.4733 5.16225 16.4948L5.25 16.5H6.75C6.94116 16.5002 7.12502 16.5734 7.26403 16.7046C7.40303 16.8359 7.48668 17.0152 7.49788 17.206C7.50908 17.3969 7.44699 17.5848 7.3243 17.7314C7.20161 17.878 7.02757 17.9722 6.83775 17.9948L6.75 18H5.25C4.67609 18 4.12386 17.7808 3.7063 17.387C3.28874 16.9933 3.03742 16.4549 3.00375 15.882L3 15.75V6.75C2.99997 6.17609 3.21924 5.62386 3.61296 5.2063C4.00668 4.78874 4.54508 4.53742 5.118 4.50375L5.25 4.5H18.75ZM12 13.5C11.4033 13.5 10.831 13.7371 10.409 14.159C9.98705 14.581 9.75 15.1533 9.75 15.75C9.75 16.3467 9.98705 16.919 10.409 17.341C10.831 17.7629 11.4033 18 12 18C12.5967 18 13.169 17.7629 13.591 17.341C14.0129 16.919 14.25 16.3467 14.25 15.75C14.25 15.1533 14.0129 14.581 13.591 14.159C13.169 13.7371 12.5967 13.5 12 13.5ZM17.625 12C17.7245 12 17.8198 12.0395 17.8902 12.1098C17.9605 12.1802 18 12.2755 18 12.375C18 12.4745 17.9605 12.5698 17.8902 12.6402C17.8198 12.7105 17.7245 12.75 17.625 12.75H16.875C16.7755 12.75 16.6802 12.7105 16.6098 12.6402C16.5395 12.5698 16.5 12.4745 16.5 12.375C16.5 12.2755 16.5395 12.1802 16.6098 12.1098C16.6802 12.0395 16.7755 12 16.875 12H17.625ZM7.125 12C7.22446 12 7.31984 12.0395 7.39017 12.1098C7.46049 12.1802 7.5 12.2755 7.5 12.375C7.5 12.4745 7.46049 12.5698 7.39017 12.6402C7.31984 12.7105 7.22446 12.75 7.125 12.75H6.375C6.27554 12.75 6.18016 12.7105 6.10983 12.6402C6.03951 12.5698 6 12.4745 6 12.375C6 12.2755 6.03951 12.1802 6.10983 12.1098C6.18016 12.0395 6.27554 12 6.375 12H7.125ZM10.875 9.75C10.9745 9.75 11.0698 9.78951 11.1402 9.85983C11.2105 9.93016 11.25 10.0255 11.25 10.125C11.25 10.2245 11.2105 10.3198 11.1402 10.3902C11.0698 10.4605 10.9745 10.5 10.875 10.5H6.375C6.27554 10.5 6.18016 10.4605 6.10983 10.3902C6.03951 10.3198 6 10.2245 6 10.125C6 10.0255 6.03951 9.93016 6.10983 9.85983C6.18016 9.78951 6.27554 9.75 6.375 9.75H10.875ZM17.625 9.75C17.7245 9.75 17.8198 9.78951 17.8902 9.85983C17.9605 9.93016 18 10.0255 18 10.125C18 10.2245 17.9605 10.3198 17.8902 10.3902C17.8198 10.4605 17.7245 10.5 17.625 10.5H13.125C13.0255 10.5 12.9302 10.4605 12.8598 10.3902C12.7895 10.3198 12.75 10.2245 12.75 10.125C12.75 10.0255 12.7895 9.93016 12.8598 9.85983C12.9302 9.78951 13.0255 9.75 13.125 9.75H17.625ZM17.625 7.5C17.7245 7.5 17.8198 7.53951 17.8902 7.60983C17.9605 7.68016 18 7.77554 18 7.875C18 7.97446 17.9605 8.06984 17.8902 8.14017C17.8198 8.21049 17.7245 8.25 17.625 8.25H6.375C6.27554 8.25 6.18016 8.21049 6.10983 8.14017C6.03951 8.06984 6 7.97446 6 7.875C6 7.77554 6.03951 7.68016 6.10983 7.60983C6.18016 7.53951 6.27554 7.5 6.375 7.5H17.625Z" fill="black"/>
</svg>
