<svg width="24" height="24" viewBox="0 0 24 24" fill="none" xmlns="http://www.w3.org/2000/svg">
<path d="M12.0001 4.5C12.199 4.5 12.3897 4.57902 12.5304 4.71967C12.671 4.86032 12.7501 5.05109 12.7501 5.25V16.9387L17.4698 12.2197C17.599 12.0906 17.7708 12.013 17.953 12.0016C18.1353 11.9901 18.3155 12.0456 18.4598 12.1575L18.5303 12.2197C18.6709 12.3604 18.7499 12.5511 18.7499 12.75C18.7499 12.9489 18.6709 13.1396 18.5303 13.2803L12.5303 19.2803C12.3897 19.4209 12.1989 19.4998 12.0001 19.4998C11.8012 19.4998 11.6105 19.4209 11.4698 19.2803L5.46981 13.2803C5.33319 13.1388 5.2576 12.9493 5.25931 12.7527C5.26101 12.5561 5.33989 12.3679 5.47895 12.2289C5.618 12.0898 5.80611 12.011 6.00276 12.0092C6.19941 12.0075 6.38886 12.0831 6.53031 12.2197L11.2501 16.9387V5.25C11.2501 5.0663 11.3175 4.889 11.4396 4.75172C11.5617 4.61444 11.7299 4.52674 11.9123 4.50525L12.0001 4.5Z" fill="black"/>
</svg>
