<svg width="40" height="40" viewBox="0 0 40 40" fill="none" xmlns="http://www.w3.org/2000/svg">
<path d="M20.0339 6.25L20.0639 6.25125C20.3348 6.26599 20.5935 6.36819 20.8014 6.5425L28.7476 13.21V12.5C28.7476 12.1685 28.8793 11.8505 29.1138 11.6161C29.3482 11.3817 29.6661 11.25 29.9976 11.25C30.3292 11.25 30.6471 11.3817 30.8815 11.6161C31.116 11.8505 31.2476 12.1685 31.2476 12.5V15.3075L33.2501 16.9875C33.5041 17.2007 33.663 17.506 33.6918 17.8363C33.7206 18.1666 33.6171 18.4948 33.4039 18.7487C33.1907 19.0027 32.8854 19.1616 32.5551 19.1904C32.2248 19.2192 31.8966 19.1157 31.6426 18.9025L19.9976 9.1325L11.2476 16.4738V30H14.9976V23.75C14.9976 23.4185 15.1293 23.1005 15.3638 22.8661C15.5982 22.6317 15.9161 22.5 16.2476 22.5H23.7476C24.0792 22.5 24.3971 22.6317 24.6315 22.8661C24.866 23.1005 24.9976 23.4185 24.9976 23.75V30H28.7476V22.5C28.7476 22.1685 28.8793 21.8505 29.1138 21.6161C29.3482 21.3817 29.6661 21.25 29.9976 21.25C30.3292 21.25 30.6471 21.3817 30.8815 21.6161C31.116 21.8505 31.2476 22.1685 31.2476 22.5V31.25C31.2476 31.5562 31.1352 31.8517 30.9318 32.0805C30.7283 32.3093 30.448 32.4554 30.1439 32.4912L30.0001 32.5H23.7501C23.4186 32.5 23.1007 32.3683 22.8663 32.1339C22.6318 31.8995 22.5001 31.5815 22.5001 31.25L22.4989 25H17.4989V31.25C17.4989 31.5562 17.3865 31.8517 17.183 32.0805C16.9796 32.3093 16.6992 32.4554 16.3951 32.4912L16.2501 32.5H10.0001C9.66863 32.5 9.35069 32.3683 9.11626 32.1339C8.88184 31.8995 8.75015 31.5815 8.75015 31.25L8.7489 18.5713L8.35515 18.9025C8.22941 19.008 8.08411 19.0878 7.92755 19.1372C7.77099 19.1866 7.60623 19.2047 7.44268 19.1904C7.27913 19.1761 7.12 19.1298 6.97437 19.054C6.82873 18.9782 6.69945 18.8745 6.5939 18.7487C6.48835 18.623 6.4086 18.4777 6.3592 18.3211C6.3098 18.1646 6.29173 17.9998 6.30601 17.8363C6.32028 17.6727 6.36663 17.5136 6.44241 17.368C6.51819 17.2223 6.62191 17.0931 6.74765 16.9875L19.1964 6.5425L19.2439 6.505C19.2599 6.49252 19.2761 6.48043 19.2926 6.46875L19.1964 6.5425C19.4214 6.35481 19.7047 6.25138 19.9976 6.25H20.0339Z" fill="black"/>
</svg>
