<svg width="24" height="24" viewBox="0 0 24 24" fill="none" xmlns="http://www.w3.org/2000/svg">
<path d="M16.5 5.25C16.8978 5.25 17.2794 5.40804 17.5607 5.68934C17.842 5.97064 18 6.35218 18 6.75V17.25C18 17.6478 17.842 18.0294 17.5607 18.3107C17.2794 18.592 16.8978 18.75 16.5 18.75H7.5C7.10218 18.75 6.72064 18.592 6.43934 18.3107C6.15804 18.0294 6 17.6478 6 17.25V6.75C6 6.35218 6.15804 5.97064 6.43934 5.68934C6.72064 5.40804 7.10218 5.25 7.5 5.25H16.5ZM9.6795 12.381L7.5 14.5605V17.25H13.4662L9.6795 12.381ZM16.5 6.75H7.5V12.438L9.21975 10.7198C9.29494 10.6446 9.38524 10.5863 9.48467 10.5487C9.58409 10.5111 9.69038 10.4951 9.79648 10.5017C9.90257 10.5083 10.0061 10.5373 10.1001 10.587C10.1941 10.6366 10.2765 10.7056 10.3417 10.7895L15.3675 17.25H16.5V6.75ZM14.25 7.5C14.8467 7.5 15.419 7.73705 15.841 8.15901C16.2629 8.58097 16.5 9.15326 16.5 9.75C16.5 10.3467 16.2629 10.919 15.841 11.341C15.419 11.7629 14.8467 12 14.25 12C13.6533 12 13.081 11.7629 12.659 11.341C12.2371 10.919 12 10.3467 12 9.75C12 9.15326 12.2371 8.58097 12.659 8.15901C13.081 7.73705 13.6533 7.5 14.25 7.5ZM14.25 9C14.0511 9 13.8603 9.07902 13.7197 9.21967C13.579 9.36032 13.5 9.55109 13.5 9.75C13.5 9.94891 13.579 10.1397 13.7197 10.2803C13.8603 10.421 14.0511 10.5 14.25 10.5C14.4489 10.5 14.6397 10.421 14.7803 10.2803C14.921 10.1397 15 9.94891 15 9.75C15 9.55109 14.921 9.36032 14.7803 9.21967C14.6397 9.07902 14.4489 9 14.25 9Z" fill="black"/>
</svg>
