<svg width="32" height="32" viewBox="0 0 32 32" fill="none" xmlns="http://www.w3.org/2000/svg">
<path d="M10.6668 22.0001C10.4031 22.0001 10.1453 22.0783 9.92607 22.2248C9.7068 22.3713 9.53591 22.5795 9.43499 22.8232C9.33407 23.0668 9.30767 23.3349 9.35912 23.5935C9.41056 23.8522 9.53755 24.0898 9.72402 24.2762C9.91049 24.4627 10.1481 24.5897 10.4067 24.6411C10.6653 24.6926 10.9334 24.6662 11.1771 24.5653C11.4207 24.4643 11.6289 24.2934 11.7755 24.0742C11.922 23.8549 12.0002 23.5971 12.0002 23.3334C12.0002 22.9798 11.8597 22.6407 11.6096 22.3906C11.3596 22.1406 11.0205 22.0001 10.6668 22.0001ZM16.0002 2.66675C10.6668 2.66675 5.3335 4.49341 5.3335 8.00008V24.0001C5.3335 27.5067 10.6668 29.3334 16.0002 29.3334C21.3335 29.3334 26.6668 27.5067 26.6668 24.0001V8.00008C26.6668 4.49341 21.3335 2.66675 16.0002 2.66675ZM24.0002 24.0001C24.0002 24.9467 20.9602 26.6667 16.0002 26.6667C11.0402 26.6667 8.00016 24.9467 8.00016 24.0001V19.6401C10.4963 20.8267 13.2374 21.4069 16.0002 21.3334C18.763 21.4069 21.5041 20.8267 24.0002 19.6401V24.0001ZM24.0002 16.0001C24.0002 16.9467 20.9602 18.6667 16.0002 18.6667C11.0402 18.6667 8.00016 16.9467 8.00016 16.0001V11.6401C10.4963 12.8267 13.2374 13.4069 16.0002 13.3334C18.763 13.4069 21.5041 12.8267 24.0002 11.6401V16.0001ZM16.0002 10.6667C11.0402 10.6667 8.00016 8.94675 8.00016 8.00008C8.00016 7.05341 11.0402 5.33341 16.0002 5.33341C20.9602 5.33341 24.0002 7.05341 24.0002 8.00008C24.0002 8.94675 20.9602 10.6667 16.0002 10.6667ZM10.6668 14.0001C10.4031 14.0001 10.1453 14.0783 9.92607 14.2248C9.7068 14.3713 9.53591 14.5795 9.43499 14.8232C9.33407 15.0668 9.30767 15.3349 9.35912 15.5935C9.41056 15.8522 9.53755 16.0898 9.72402 16.2762C9.91049 16.4627 10.1481 16.5897 10.4067 16.6411C10.6653 16.6926 10.9334 16.6662 11.1771 16.5653C11.4207 16.4643 11.6289 16.2934 11.7755 16.0742C11.922 15.8549 12.0002 15.5971 12.0002 15.3334C12.0002 14.9798 11.8597 14.6407 11.6096 14.3906C11.3596 14.1406 11.0205 14.0001 10.6668 14.0001Z" fill="#11161A"/>
</svg>
