<svg width="24" height="24" viewBox="0 0 24 24" fill="none" xmlns="http://www.w3.org/2000/svg">
<path d="M10.0987 6.46345L5.22973 10.4632C5.0017 10.6492 4.81791 10.8836 4.6917 11.1494C4.56548 11.4152 4.5 11.7057 4.5 12C4.5 12.2942 4.56548 12.5848 4.6917 12.8506C4.81791 13.1164 5.0017 13.3507 5.22973 13.5367L10.0987 17.5365L10.1947 17.6107C11.4945 18.5587 13.422 17.682 13.422 15.999V15.4995L13.548 15.5167C14.5417 15.6667 15.1725 16.0537 16.134 16.9837C17.5335 18.339 19.5 17.0467 19.5 15.4012L19.497 15.177C19.4025 11.5455 17.0145 9.23695 13.6485 8.65945L13.422 8.6227V8.0002C13.422 6.27595 11.397 5.3977 10.0987 6.46345ZM11.922 8.00095V10.0162C15.0495 10.0162 18 11.622 18 15.4012C18 15.8512 17.4975 16.2165 17.1772 15.906C15.1357 13.9297 13.6537 13.9297 11.922 13.9297V15.9997C11.922 16.4272 11.3917 16.6575 11.0505 16.377L6.18223 12.378C6.12549 12.3326 6.07967 12.2751 6.04819 12.2097C6.0167 12.1443 6.00036 12.0726 6.00036 12C6.00036 11.9273 6.0167 11.8557 6.04819 11.7902C6.07967 11.7248 6.12549 11.6673 6.18223 11.622L11.0505 7.62295C11.3917 7.34245 11.922 7.5727 11.922 8.00095Z" fill="black"/>
</svg>
