<svg width="32" height="32" viewBox="0 0 32 32" fill="none" xmlns="http://www.w3.org/2000/svg">
<path d="M17.31 26C18.654 26 19.795 25.182 20.345 23.953C20.537 23.524 20.618 23.094 20.719 22.177L20.928 20.093L23.29 19.884C23.6833 19.8451 24.065 19.729 24.4134 19.5424C24.7617 19.3558 25.0699 19.1022 25.3201 18.7964C25.5704 18.4905 25.7578 18.1382 25.8717 17.7598C25.9856 17.3814 26.0238 16.9842 25.984 16.591L25.679 13.753C25.139 8.93 24.802 7.491 23.931 6.79C23.35 6.322 22.801 6.065 22.143 6.01L21.936 6L21.626 6.004H15.062L14.946 6.008L14.829 6.014L14.712 6.024C14.1132 6.09264 13.5487 6.33886 13.091 6.731C12.6372 6.30949 12.0536 6.05457 11.436 6.008L11.218 6H8.838C7.26 6 6.085 7.287 6.004 8.78L6 8.948V17.054C6 18.562 7.118 19.902 8.664 19.996L8.837 20.001H11.218C11.734 20.001 12.206 19.864 12.611 19.626L12.904 19.829C13.493 20.237 13.725 20.614 13.752 21.564L13.755 21.762C13.755 22.795 13.833 23.332 14.141 23.944L14.378 24.37C14.708 24.95 15.207 25.417 15.814 25.696C16.304 25.92 16.785 26.001 17.31 26.001V26ZM11.218 18H8.838L8.735 17.993C8.365 17.939 8.067 17.597 8.02 17.171L8.014 17.053V8.947L8.02 8.829C8.067 8.404 8.365 8.062 8.735 8.008L8.837 8H11.218L11.321 8.008C11.691 8.062 11.988 8.404 12.035 8.829L12.042 8.947V17.053L12.035 17.171C11.988 17.597 11.691 17.939 11.321 17.993L11.218 18ZM17.31 24C17.0861 24.0076 16.8633 23.9663 16.657 23.879C16.433 23.7717 16.2484 23.5968 16.129 23.379L15.961 23.085C15.846 22.868 15.789 22.67 15.773 22.129L15.769 21.761C15.769 19.831 15.052 18.913 14.176 18.273L14.056 18.188V9.004L14.062 8.888C14.112 8.467 14.424 8.126 14.832 8.031L14.945 8.011L15.062 8.004H21.714L21.872 8L21.945 8.002C22.14 8.012 22.325 8.072 22.663 8.344C22.981 8.6 23.42 11.417 23.981 16.797C24.006 17.0415 23.9402 17.2867 23.7959 17.4857C23.6517 17.6848 23.4392 17.8237 23.199 17.876L23.068 17.896L19.144 18.242L19.109 18.447L19.043 18.889C18.823 20.496 18.717 22.667 18.505 23.14C18.263 23.681 17.815 24 17.31 24Z" fill="black"/>
</svg>
